<svg width="40" height="40" viewBox="0 0 40 40" fill="none" xmlns="http://www.w3.org/2000/svg">
<path d="M26.982 3.3335H13.0154C6.9487 3.3335 3.33203 6.95016 3.33203 13.0168V26.9668C3.33203 33.0502 6.9487 36.6668 13.0154 36.6668H26.9654C33.032 36.6668 36.6487 33.0502 36.6487 26.9835V13.0168C36.6654 6.95016 33.0487 3.3335 26.982 3.3335ZM29.7487 23.5002C29.682 23.6502 29.5987 23.7835 29.482 23.9002L24.4154 28.9668C24.1654 29.2168 23.8487 29.3335 23.532 29.3335C23.2154 29.3335 22.8987 29.2168 22.6487 28.9668C22.1654 28.4835 22.1654 27.6835 22.6487 27.2002L25.582 24.2668H11.4154C10.732 24.2668 10.1654 23.7002 10.1654 23.0168C10.1654 22.3335 10.732 21.7668 11.4154 21.7668H28.5987C28.7654 21.7668 28.9154 21.8002 29.082 21.8668C29.382 22.0002 29.632 22.2335 29.7654 22.5502C29.8654 22.8502 29.8654 23.2002 29.7487 23.5002ZM28.582 18.2168H11.4154C11.2487 18.2168 11.0987 18.1835 10.932 18.1168C10.632 17.9835 10.382 17.7502 10.2487 17.4335C10.1154 17.1335 10.1154 16.7835 10.2487 16.4835C10.3154 16.3335 10.3987 16.2002 10.5154 16.0835L15.582 11.0168C16.0654 10.5335 16.8654 10.5335 17.3487 11.0168C17.832 11.5002 17.832 12.3002 17.3487 12.7835L14.432 15.7168H28.5987C29.282 15.7168 29.8487 16.2835 29.8487 16.9668C29.8487 17.6502 29.282 18.2168 28.582 18.2168Z" fill="#1475FF"/>
</svg>
