<svg width="40" height="40" viewBox="0 0 40 40" fill="none" xmlns="http://www.w3.org/2000/svg">
<path d="M30.9013 6.95023L21.7346 3.51689C20.7846 3.16689 19.2346 3.16689 18.2846 3.51689L9.11797 6.95023C7.3513 7.61689 5.91797 9.68356 5.91797 11.5669V25.0669C5.91797 26.4169 6.8013 28.2002 7.88464 29.0002L17.0513 35.8502C18.668 37.0669 21.318 37.0669 22.9346 35.8502L32.1013 29.0002C33.1846 28.1836 34.068 26.4169 34.068 25.0669V11.5669C34.0846 9.68356 32.6513 7.61689 30.9013 6.95023ZM21.2513 21.4502V25.8336C21.2513 26.5169 20.6846 27.0836 20.0013 27.0836C19.318 27.0836 18.7513 26.5169 18.7513 25.8336V21.4502C17.068 20.9169 15.8346 19.3502 15.8346 17.5002C15.8346 15.2002 17.7013 13.3336 20.0013 13.3336C22.3013 13.3336 24.168 15.2002 24.168 17.5002C24.168 19.3669 22.9346 20.9169 21.2513 21.4502Z" fill="#1475FF"/>
</svg>
