<svg width="40" height="40" viewBox="0 0 40 40" fill="none" xmlns="http://www.w3.org/2000/svg">
<path d="M19.9987 3.3335C10.7987 3.3335 3.33203 10.8002 3.33203 20.0002C3.33203 29.2002 10.7987 36.6668 19.9987 36.6668C29.1987 36.6668 36.6654 29.2002 36.6654 20.0002C36.6654 10.8002 29.1987 3.3335 19.9987 3.3335ZM10.9987 18.7168C11.282 16.7335 12.1654 14.9502 13.5487 13.5502C16.882 10.2335 22.132 10.0502 25.6987 12.9502V11.3668C25.6987 10.6835 26.2654 10.1168 26.9487 10.1168C27.632 10.1168 28.1987 10.6835 28.1987 11.3668V15.8168C28.1987 16.5002 27.632 17.0668 26.9487 17.0668H22.4987C21.8154 17.0668 21.2487 16.5002 21.2487 15.8168C21.2487 15.1335 21.8154 14.5668 22.4987 14.5668H23.7487C21.1654 12.7668 17.5987 13.0168 15.2987 15.3168C14.2987 16.3168 13.6654 17.6168 13.4487 19.0668C13.3654 19.6835 12.832 20.1335 12.2154 20.1335C12.1487 20.1335 12.0987 20.1335 12.032 20.1168C11.382 20.0335 10.8987 19.4002 10.9987 18.7168ZM26.4487 26.4502C24.6654 28.2335 22.332 29.1168 19.9987 29.1168C17.9654 29.1168 15.9487 28.4002 14.282 27.0502V28.6168C14.282 29.3002 13.7154 29.8668 13.032 29.8668C12.3487 29.8668 11.782 29.3002 11.782 28.6168V24.1668C11.782 23.4835 12.3487 22.9168 13.032 22.9168H17.482C18.1654 22.9168 18.732 23.4835 18.732 24.1668C18.732 24.8502 18.1654 25.4168 17.482 25.4168H16.232C18.8154 27.2168 22.382 26.9668 24.682 24.6668C25.682 23.6668 26.3154 22.3668 26.532 20.9168C26.632 20.2335 27.2487 19.7502 27.9487 19.8502C28.632 19.9502 29.0987 20.5835 29.0154 21.2668C28.7154 23.2835 27.832 25.0668 26.4487 26.4502Z" fill="#1475FF"/>
</svg>
