<svg width="40" height="40" viewBox="0 0 40 40" fill="none" xmlns="http://www.w3.org/2000/svg">
<path d="M20.0007 26.6691C22.7673 26.6691 25.0007 24.4358 25.0007 21.6691C25.0007 19.8024 23.984 18.1691 22.5007 17.3191L6.31732 7.95244L15.534 23.9191C16.3673 25.5524 18.0507 26.6691 20.0007 26.6691ZM20.0007 5.00244C16.984 5.00244 14.1673 5.83577 11.7173 7.20244L15.2173 9.21911C16.6673 8.65244 18.334 8.33577 20.0007 8.33577C27.3673 8.33577 33.334 14.3024 33.334 21.6691C33.334 25.3524 31.8507 28.6858 29.434 31.0858H29.4173C28.7673 31.7358 28.7673 32.7858 29.4173 33.4358C30.0673 34.0858 31.134 34.0858 31.784 33.4524C34.8006 30.4358 36.6673 26.2691 36.6673 21.6691C36.6673 12.5024 29.1673 5.00244 20.0007 5.00244ZM3.33398 21.6691C3.33398 26.2691 5.20065 30.4358 8.21732 33.4524C8.86732 34.0858 9.91732 34.0858 10.5673 33.4358C11.2173 32.7858 11.2173 31.7358 10.5673 31.0858C8.15065 28.6691 6.66732 25.3524 6.66732 21.6691C6.66732 20.0024 6.98398 18.3358 7.56732 16.8358L5.55065 13.3358C4.16732 15.8358 3.33398 18.6358 3.33398 21.6691Z" fill="#1475FF"/>
</svg>
