<svg width="167" height="48" viewBox="0 0 167 48" fill="none" xmlns="http://www.w3.org/2000/svg">
<g clip-path="url(#clip0_2532_989)">
<path fill-rule="evenodd" clip-rule="evenodd" d="M161.598 0.0102564H5.40036C4.69159 0.00984522 3.98967 0.149005 3.33469 0.419791C2.67971 0.690577 2.0845 1.08769 1.58303 1.58844C1.08156 2.0892 0.683654 2.6838 0.412038 3.3383C0.140422 3.99279 0.000411082 4.69436 0 5.40295L0 42.6176C0.0011069 44.0487 0.570771 45.4208 1.5837 46.4321C2.59663 47.4434 3.96988 48.0111 5.40141 48.0103H161.599C163.03 48.0111 164.403 47.4434 165.416 46.4321C166.429 45.4208 166.999 44.0487 167 42.6176V5.40295C167 4.69419 166.86 3.99245 166.588 3.33781C166.316 2.68318 165.918 2.08849 165.416 1.58771C164.915 1.08692 164.319 0.689855 163.664 0.419192C163.009 0.148529 162.307 0.00957098 161.598 0.0102564Z" fill="black"/>
<path fill-rule="evenodd" clip-rule="evenodd" d="M32.0324 11.6679C34.0238 9.2293 33.6084 6.69678 33.6084 6.69678C33.6084 6.69678 30.8216 6.7093 28.8176 9.40356C27.0359 11.7973 27.49 13.8456 27.49 13.8456C27.49 13.8456 29.9062 14.2714 32.0303 11.6669L32.0324 11.6679ZM35.8556 23.1775C35.8556 19.0036 39.156 17.285 39.156 17.285C39.156 17.285 37.4672 14.1754 33.1815 14.1754C30.6901 14.1754 28.7769 15.6206 27.7457 15.6206C26.5454 15.6206 24.7533 14.261 22.4434 14.261C18.8884 14.261 15.0996 17.5062 15.0996 23.6919C15.0996 29.9768 19.5752 37.7966 23.1198 37.7966C24.3556 37.7966 26.2552 36.5256 28.1674 36.5256C30.0461 36.5256 31.4301 37.7507 33.2139 37.7507C37.0946 37.7507 39.967 29.5072 39.967 29.5072C39.967 29.5072 35.8577 27.8846 35.8577 23.1775H35.8556Z" fill="white"/>
<path fill-rule="evenodd" clip-rule="evenodd" d="M55.1645 8.12837C55.7177 7.78403 56.4733 7.49707 57.4764 7.49707C59.0566 7.49707 60.0471 8.30681 60.0471 9.51098C60.0471 10.5106 59.3635 11.2139 58.4325 11.4414V11.4644C59.4825 11.5823 60.3321 12.2992 60.3321 13.4052C60.3321 15.1447 58.7038 15.7896 57.229 15.7896C56.4493 15.7896 55.6248 15.6226 54.9745 15.2407L55.319 14.1096C55.7072 14.3235 56.4744 14.5969 57.1695 14.5969C58.2081 14.5969 58.7978 14.096 58.7978 13.3343C58.7978 12.3096 57.7822 12.0477 56.9086 12.0477H56.2844V10.952H56.9107C57.8292 10.952 58.5389 10.4616 58.5389 9.73638C58.5389 9.08107 58.0306 8.68768 57.229 8.68768C56.6163 8.68768 55.9661 8.93811 55.5194 9.17811L55.1645 8.12733V8.12837ZM65.2805 15.6571L65.1866 15.0132H65.1511C64.7962 15.4651 64.195 15.7875 63.4519 15.7875C62.2954 15.7875 61.6462 14.9423 61.6462 14.0595C61.6462 12.5945 62.9342 11.8557 65.0571 11.8682V11.7722C65.0571 11.3913 64.9037 10.76 63.8881 10.76C63.3224 10.76 62.7327 10.9374 62.3434 11.1879L62.0616 10.2352C62.4853 9.97116 63.2285 9.72177 64.1366 9.72177C65.9756 9.72177 66.5059 10.9009 66.5059 12.1635V14.2609C66.5059 14.7826 66.5309 15.2971 66.5894 15.6539H65.2805V15.656V15.6571ZM65.0926 12.8219C64.0666 12.7979 63.0886 13.0244 63.0886 13.9072C63.0886 14.4769 63.4539 14.7399 63.9132 14.7399C64.4914 14.7399 64.9152 14.359 65.0457 13.9416C65.0801 13.8352 65.0916 13.7162 65.0916 13.6212V12.823L65.0926 12.8219ZM72.2945 9.85533V11.0105H69.9482V15.656H68.4973V9.85429H72.2945V9.85533ZM73.6472 11.7847C73.6472 11.023 73.6242 10.4032 73.6013 9.85637H74.8747L74.9456 10.7496H74.9696C75.3944 10.0943 76.0656 9.7249 76.9392 9.7249C78.2606 9.7249 79.3565 10.8696 79.3565 12.68C79.3565 14.7774 78.0477 15.7896 76.7388 15.7896C76.0186 15.7896 75.4185 15.4797 75.1231 15.0143H75.0991V18.0153H73.6503V11.7837L73.6472 11.7847ZM75.098 13.2247C75.098 13.3708 75.1105 13.5012 75.146 13.6317C75.2869 14.2265 75.8067 14.6543 76.4194 14.6543C77.34 14.6543 77.8827 13.8821 77.8827 12.7385C77.8827 11.7138 77.387 10.8811 76.4559 10.8811C75.8558 10.8811 75.3005 11.3193 75.1596 11.9642C75.1241 12.0821 75.1001 12.2146 75.1001 12.3336V13.2258L75.098 13.2247ZM81.7467 9.85533L82.7842 12.9649C82.9021 13.3218 83.0201 13.7621 83.1025 14.095H83.137C83.2309 13.7611 83.3374 13.3332 83.4438 12.9513L84.3394 9.85429H85.8967L84.4563 13.8091C83.6672 15.9774 83.1359 16.9426 82.4523 17.5385C81.8866 18.0498 81.2969 18.2407 80.9315 18.2898L80.6007 17.048C80.8491 16.9896 81.156 16.8581 81.4503 16.6442C81.7217 16.4668 82.041 16.1204 82.2414 15.728C82.2999 15.6205 82.3354 15.5371 82.3354 15.4651C82.3318 15.3646 82.3031 15.2667 82.2519 15.1802L80.1539 9.85533H81.7446H81.7467ZM87.8057 12.2021H88.5008C89.2941 12.2021 89.7533 11.8807 89.7533 11.4644C89.7533 11.047 89.364 10.7611 88.7158 10.7611C88.2315 10.7611 87.7003 10.928 87.2995 11.1785L86.9916 10.3082C87.6157 9.91481 88.3954 9.73638 89.1385 9.73638C90.1061 9.73638 91.2855 10.1172 91.2855 11.2724C91.2855 12.0237 90.6238 12.4411 90.0226 12.584V12.6091C90.7887 12.6925 91.5444 13.1569 91.5444 14.0136C91.5444 15.3597 90.0456 15.7771 88.8661 15.7771C88.1105 15.7771 87.3569 15.5872 86.7891 15.2532L87.121 14.3245C87.5218 14.5385 88.1355 14.7169 88.7127 14.7169C89.5143 14.7169 89.9506 14.383 89.9506 13.9301C89.9506 13.3228 89.3264 13.1319 88.5133 13.1319H87.8057V12.2032V12.2021ZM94.5608 9.85533V11.9402C94.5608 12.8564 94.5253 13.4772 94.4773 14.2859H94.5118C94.8186 13.6077 94.9961 13.1799 95.2904 12.5715L96.7057 9.85637H98.4645V15.6581H97.0836V13.5847C97.0836 12.656 97.1191 12.2282 97.1775 11.1325H97.1305C96.8487 11.8212 96.6588 12.2386 96.3749 12.799C95.9261 13.6578 95.4084 14.7044 94.9136 15.6581H93.1789V9.85637H94.5598L94.5608 9.85533ZM104.688 9.85533V10.9875H102.966V15.6571H101.513V10.9875H99.7911V9.85533H104.686H104.688ZM106.891 13.1684C106.925 14.215 107.739 14.6689 108.658 14.6689C109.331 14.6689 109.814 14.5729 110.252 14.4059L110.462 15.4181C109.967 15.6205 109.283 15.775 108.458 15.775C106.594 15.775 105.497 14.6209 105.497 12.8449C105.497 11.2379 106.465 9.7249 108.305 9.7249C110.168 9.7249 110.781 11.2713 110.781 12.5465C110.781 12.8209 110.758 13.0369 110.735 13.1663H106.89L106.891 13.1684ZM109.413 12.1426C109.424 11.6063 109.189 10.7235 108.221 10.7235C107.326 10.7235 106.948 11.5479 106.89 12.1426H109.412H109.413ZM115.317 9.92629C115.742 9.85533 116.613 9.78333 117.404 9.78333C118.372 9.78333 120.118 9.91481 120.118 11.2484C120.118 11.9872 119.551 12.4045 118.939 12.536V12.56C119.787 12.6905 120.376 13.1652 120.376 13.9771C120.376 15.5736 118.302 15.728 117.145 15.728C116.425 15.728 115.658 15.6811 115.317 15.6445V9.92629ZM116.72 14.7753C116.956 14.8004 117.132 14.8108 117.426 14.8108C118.087 14.8108 118.89 14.6334 118.89 13.9531C118.89 13.2978 118.253 13.0839 117.345 13.0839H116.719V14.7743L116.72 14.7753ZM116.732 12.2021H117.332C118.075 12.2021 118.689 11.9882 118.689 11.4404C118.689 10.976 118.287 10.7245 117.426 10.7245C117.144 10.7245 116.957 10.7485 116.731 10.7715V12.2011L116.732 12.2021ZM64.1178 36.2345H61.4092L59.925 31.4793H54.7658L53.3515 36.2345H50.7129L55.8241 20.0449H58.9825L64.1178 36.2345ZM59.4773 29.4832L58.135 25.2571C57.9941 24.8251 57.7279 23.8087 57.3344 22.207H57.2875C57.1309 22.8957 56.8804 23.9131 56.5339 25.2571L55.2146 29.4832H59.4773ZM77.2648 30.2543C77.2648 32.24 76.7388 33.8084 75.6867 34.9604C74.7431 35.9861 73.5741 36.4985 72.1755 36.4985C70.6673 36.4985 69.5849 35.9454 68.9253 34.8414H68.8773V40.9906H66.3326V28.4032C66.3326 27.1552 66.3013 25.8748 66.2387 24.5611H68.4754L68.6174 26.4112H68.6664C69.515 25.0181 70.8019 24.3221 72.5304 24.3221C73.88 24.3221 75.0072 24.8647 75.909 25.9541C76.8139 27.0456 77.2659 28.4793 77.2659 30.2553L77.2648 30.2543ZM74.6732 30.3482C74.6732 29.2129 74.4227 28.2769 73.9196 27.5392C73.3706 26.7701 72.6316 26.3861 71.7069 26.3861C71.0775 26.3861 70.5066 26.6 69.9983 27.0226C69.4868 27.4484 69.1528 28.0035 68.9963 28.6922C68.919 29.0157 68.8794 29.2765 68.8794 29.4852V31.4303C68.8794 32.2807 69.1361 32.9976 69.6465 33.5819C70.1579 34.1663 70.8207 34.4585 71.6369 34.4585C72.5951 34.4585 73.3403 34.0828 73.8747 33.3315C74.4071 32.5771 74.6753 31.5837 74.6753 30.3503L74.6732 30.3482ZM90.4338 30.2543C90.4338 32.24 89.9078 33.8084 88.8546 34.9604C87.9132 35.9861 86.7421 36.4985 85.3456 36.4985C83.8373 36.4985 82.7539 35.9454 82.0953 34.8414H82.0473V40.9906H79.5026V28.4032C79.5026 27.1552 79.4713 25.8748 79.4087 24.5611H81.6455L81.7874 26.4112H81.8344C82.6819 25.0181 83.9689 24.3221 85.6983 24.3221C87.0479 24.3221 88.1752 24.8647 89.0801 25.9541C89.9809 27.0456 90.4328 28.4793 90.4328 30.2553L90.4338 30.2543ZM87.8433 30.3482C87.8433 29.2129 87.5928 28.2769 87.0886 27.5392C86.5386 26.7701 85.8027 26.3861 84.8759 26.3861C84.2465 26.3861 83.6776 26.6 83.1662 27.0226C82.6548 27.4484 82.3208 28.0035 82.1642 28.6922C82.088 29.0157 82.0473 29.2765 82.0473 29.4852V31.4303C82.0473 32.2807 82.302 32.9976 82.8092 33.5819C83.3207 34.1663 83.9845 34.4585 84.8028 34.4585C85.7631 34.4585 86.5073 34.0828 87.0406 33.3315C87.575 32.5771 87.8443 31.5837 87.8443 30.3503L87.8433 30.3482ZM105.158 31.6953C105.158 33.0727 104.688 34.1924 103.749 35.0574C102.714 36.0028 101.273 36.4765 99.4226 36.4765C97.713 36.4765 96.3435 36.1395 95.3071 35.4665L95.8968 33.3044C97.0002 33.9894 98.2752 34.3476 99.574 34.3374C100.532 34.3374 101.277 34.1162 101.814 33.6759C102.346 33.2355 102.613 32.6428 102.613 31.9072C102.613 31.2498 102.394 30.6967 101.954 30.248C101.515 29.7993 100.785 29.3819 99.7618 28.9959C96.9823 27.9378 95.5941 26.3892 95.5941 24.3524C95.5941 23.0219 96.0805 21.9294 97.0554 21.0811C98.0261 20.2306 99.3224 19.8059 100.942 19.8059C102.389 19.8059 103.589 20.0626 104.546 20.575L103.91 22.6891C103.016 22.1934 102.004 21.944 100.872 21.944C99.9768 21.944 99.2786 22.1694 98.7765 22.6171C98.3528 23.0178 98.1398 23.504 98.1398 24.0832C98.1398 24.7228 98.382 25.2519 98.8684 25.6692C99.2932 26.0522 100.062 26.4685 101.179 26.9172C102.544 27.4776 103.549 28.1339 104.194 28.8852C104.839 29.6365 105.159 30.5736 105.159 31.6922L105.158 31.6953ZM113.571 26.5072H110.766V32.1753C110.766 33.6174 111.26 34.3374 112.248 34.3374C112.629 34.3452 113.009 34.3046 113.38 34.2164L113.451 36.1865C112.95 36.3774 112.29 36.4734 111.472 36.4734C110.467 36.4734 109.681 36.1604 109.115 35.5374C108.551 34.9113 108.266 33.8637 108.266 32.3903V26.504H106.594V24.559H108.264V22.4199L110.764 21.6519V24.559H113.569V26.5072H113.571ZM126.221 30.3023C126.221 32.0971 125.718 33.5684 124.713 34.7214C123.658 35.9079 122.26 36.4995 120.517 36.4995C118.838 36.4995 117.5 35.9298 116.503 34.7934C115.504 33.656 115.005 32.2233 115.005 30.4943C115.005 28.6859 115.518 27.2042 116.547 26.0522C117.576 24.8992 118.963 24.3232 120.705 24.3232C122.385 24.3232 123.737 24.8919 124.758 26.0292C125.732 27.1322 126.219 28.5565 126.219 30.3023H126.221ZM123.582 30.3858C123.582 29.311 123.357 28.3865 122.9 27.6153C122.367 26.6835 121.603 26.2192 120.616 26.2192C119.593 26.2192 118.817 26.6856 118.283 27.6153C117.826 28.3875 117.601 29.3246 117.601 30.4327C117.601 31.5096 117.828 32.4331 118.284 33.2021C118.834 34.1329 119.604 34.5972 120.594 34.5972C121.565 34.5972 122.327 34.1235 122.878 33.176C123.347 32.3934 123.583 31.4595 123.583 30.3847L123.582 30.3858ZM134.491 26.8421C134.226 26.7931 133.958 26.7687 133.689 26.7691C132.794 26.7691 132.102 27.1134 131.615 27.8042C131.191 28.4115 130.978 29.1816 130.978 30.1103V36.2334H128.436L128.46 28.2362C128.46 26.8901 128.428 25.6651 128.364 24.5611H130.58L130.674 26.7941H130.743C131.013 26.0261 131.437 25.4094 132.017 24.9451C132.58 24.5277 133.194 24.319 133.854 24.319C134.09 24.319 134.303 24.3367 134.491 24.367V26.8421ZM145.867 29.8463C145.867 30.3106 145.836 30.7019 145.773 31.0223H138.142C138.173 32.1753 138.541 33.0571 139.25 33.6665C139.894 34.2091 140.725 34.4825 141.745 34.4825C142.876 34.4825 143.907 34.2978 144.834 33.9294L145.231 35.7305C144.148 36.2125 142.87 36.4525 141.394 36.4525C139.62 36.4525 138.225 35.9204 137.211 34.856C136.198 33.7917 135.692 32.3621 135.692 30.5673C135.692 28.808 136.162 27.3409 137.106 26.1722C138.095 24.9242 139.43 24.3002 141.11 24.3002C142.759 24.3002 144.01 24.9242 144.857 26.1722C145.531 27.1635 145.869 28.3896 145.869 29.8452L145.867 29.8463ZM143.442 29.1732C143.456 28.4042 143.291 27.7405 142.947 27.1802C142.507 26.4571 141.83 26.0981 140.919 26.0981C140.088 26.0981 139.411 26.4498 138.894 27.1552C138.47 27.7165 138.219 28.3885 138.141 29.1722H143.441V29.1743L143.442 29.1732Z" fill="white"/>
</g>
<defs>
<clipPath id="clip0_2532_989">
<rect width="167" height="48" fill="white"/>
</clipPath>
</defs>
</svg>
