<svg width="24" height="20" viewBox="0 0 24 20" fill="none" xmlns="http://www.w3.org/2000/svg">
<path fill-rule="evenodd" clip-rule="evenodd" d="M23.0313 9.65589C23.0313 9.97447 22.8972 10.28 22.6585 10.5053C22.4198 10.7305 22.0961 10.8571 21.7585 10.8571H5.40252L12.4588 17.1994C12.5849 17.3074 12.6868 17.4382 12.7585 17.5841C12.8301 17.7299 12.8699 17.8879 12.8757 18.0485C12.8814 18.2092 12.853 18.3693 12.7919 18.5194C12.7309 18.6695 12.6386 18.8065 12.5204 18.9223C12.4023 19.0381 12.2607 19.1303 12.1041 19.1935C11.9475 19.2568 11.779 19.2897 11.6087 19.2903C11.4383 19.2909 11.2696 19.2593 11.1125 19.1973C10.9553 19.1352 10.813 19.044 10.6939 18.9291L1.3602 10.5208C1.23702 10.4087 1.13904 10.2744 1.07212 10.1258C1.0052 9.97716 0.970703 9.81736 0.970703 9.65589C0.970703 9.49443 1.0052 9.33462 1.07212 9.18602C1.13904 9.03742 1.23702 8.90308 1.3602 8.79103L10.6939 0.38266C10.813 0.267749 10.9553 0.176573 11.1125 0.114535C11.2696 0.0524961 11.4383 0.0208578 11.6087 0.0214938C11.779 0.0221298 11.9475 0.0550277 12.1041 0.118238C12.2607 0.181448 12.4023 0.273684 12.5204 0.389481C12.6386 0.505278 12.7309 0.64228 12.7919 0.792368C12.853 0.942456 12.8814 1.10258 12.8757 1.26324C12.8699 1.42391 12.8301 1.58185 12.7585 1.72771C12.6868 1.87357 12.5849 2.00438 12.4588 2.11238L5.40252 8.4547H21.7585C22.0961 8.4547 22.4198 8.58125 22.6585 8.80652C22.8972 9.03179 23.0313 9.33732 23.0313 9.65589Z" fill="white"/>
</svg>
