<svg width="48" height="48" viewBox="0 0 48 48" fill="none" xmlns="http://www.w3.org/2000/svg">
<circle cx="24" cy="24" r="24" fill="#1475FF"/>
<path d="M22.5387 15.2489H26.9225L31.73 10.4318C31.8659 10.295 32.0275 10.1864 32.2056 10.1123C32.3836 10.0382 32.5746 10 32.7675 10C32.9604 10 33.1514 10.0382 33.3295 10.1123C33.5076 10.1864 33.6692 10.295 33.805 10.4318L37.5751 14.2125C37.8472 14.486 38 14.856 38 15.2416C38 15.6272 37.8472 15.9972 37.5751 16.2707L34.2288 19.6281H22.5387V22.5476C22.5387 22.9347 22.3848 23.306 22.1107 23.5798C21.8367 23.8535 21.465 24.0073 21.0775 24.0073C20.6899 24.0073 20.3183 23.8535 20.0442 23.5798C19.7702 23.306 19.6162 22.9347 19.6162 22.5476V18.1684C19.6162 17.3941 19.9241 16.6515 20.4722 16.104C21.0203 15.5565 21.7636 15.2489 22.5387 15.2489ZM13.7712 22.5476V28.3865L10.4249 31.7293C10.1528 32.0028 10 32.3728 10 32.7584C10 33.144 10.1528 33.514 10.4249 33.7875L14.195 37.5682C14.3308 37.705 14.4924 37.8136 14.6705 37.8877C14.8486 37.9618 15.0396 38 15.2325 38C15.4254 38 15.6164 37.9618 15.7944 37.8877C15.9725 37.8136 16.1341 37.705 16.2699 37.5682L22.5387 31.306H28.3838C28.7713 31.306 29.143 31.1522 29.417 30.8784C29.6911 30.6047 29.845 30.2334 29.845 29.8462V28.3865H31.3063C31.6938 28.3865 32.0655 28.2327 32.3395 27.959C32.6136 27.6852 32.7675 27.3139 32.7675 26.9268V25.467H34.2288C34.6163 25.467 34.988 25.3132 35.2621 25.0395C35.5361 24.7657 35.6901 24.3944 35.6901 24.0073V22.5476H25.4613V24.0073C25.4613 24.7816 25.1533 25.5242 24.6053 26.0717C24.0572 26.6192 23.3138 26.9268 22.5387 26.9268H19.6162C18.8411 26.9268 18.0978 26.6192 17.5497 26.0717C17.0016 25.5242 16.6937 24.7816 16.6937 24.0073V19.6281L13.7712 22.5476Z" fill="white"/>
</svg>
