<svg width="48" height="48" viewBox="0 0 48 48" fill="none" xmlns="http://www.w3.org/2000/svg">
<circle cx="24" cy="24" r="24" fill="#1475FF"/>
<path d="M34.4133 32.4148H13.7328C13.5042 32.4148 13.2851 32.324 13.1235 32.1624C12.9619 32.0008 12.8711 31.7816 12.8711 31.5531C12.8711 31.3246 12.9619 31.1054 13.1235 30.9438C13.2851 30.7822 13.5042 30.6914 13.7328 30.6914H34.4133C34.6419 30.6914 34.8611 30.7822 35.0227 30.9438C35.1842 31.1054 35.275 31.3246 35.275 31.5531C35.275 31.7816 35.1842 32.0008 35.0227 32.1624C34.8611 32.324 34.6419 32.4148 34.4133 32.4148Z" fill="white"/>
<path d="M32.6931 35H15.4593C15.2308 35 15.0116 34.9092 14.85 34.7476C14.6884 34.586 14.5977 34.3668 14.5977 34.1383C14.5977 33.9098 14.6884 33.6906 14.85 33.529C15.0116 33.3674 15.2308 33.2766 15.4593 33.2766H32.6931C32.9217 33.2766 33.1409 33.3674 33.3025 33.529C33.4641 33.6906 33.5548 33.9098 33.5548 34.1383C33.5548 34.3668 33.4641 34.586 33.3025 34.7476C33.1409 34.9092 32.9217 35 32.6931 35Z" fill="white"/>
<path d="M12.0101 25.5213H11.1484V28.1064C11.1484 28.5634 11.33 29.0018 11.6532 29.325C11.9764 29.6482 12.4147 29.8298 12.8718 29.8298H15.4569V28.9681C15.4559 28.0542 15.0924 27.1781 14.4463 26.5319C13.8001 25.8858 12.924 25.5223 12.0101 25.5213Z" fill="white"/>
<path d="M36.1374 23.7979H36.9991V20.3512H36.1374C34.7667 20.3496 33.4526 19.8044 32.4833 18.8351C31.5141 17.8659 30.9689 16.5518 30.9673 15.181V14.3193H17.1803V15.181C17.1787 16.5518 16.6335 17.8659 15.6642 18.8351C14.695 19.8044 13.3809 20.3496 12.0101 20.3512H11.1484V23.7979C11.4177 23.7979 11.7053 23.7979 12.0101 23.7979C13.3809 23.7995 14.695 24.3447 15.6642 25.314C16.6335 26.2832 17.1787 27.5973 17.1803 28.9681V29.8298H30.9673V28.9681C30.9689 27.5973 31.5141 26.2832 32.4833 25.314C33.4526 24.3447 34.7667 23.7995 36.1374 23.7979ZM24.0738 27.2447C23.0512 27.2447 22.0516 26.9415 21.2014 26.3734C20.3512 25.8053 19.6885 24.9978 19.2972 24.0531C18.9059 23.1084 18.8035 22.0688 19.003 21.0659C19.2025 20.063 19.6949 19.1418 20.4179 18.4187C21.141 17.6956 22.0622 17.2032 23.0651 17.0037C24.0681 16.8043 25.1076 16.9066 26.0523 17.298C26.997 17.6893 27.8045 18.3519 28.3726 19.2022C28.9407 20.0524 29.2439 21.052 29.2439 22.0745C29.2424 23.4453 28.6971 24.7594 27.7279 25.7287C26.7586 26.6979 25.4445 27.2431 24.0738 27.2447Z" fill="white"/>
<path d="M24.0757 25.5215C25.9793 25.5215 27.5224 23.9783 27.5224 22.0747C27.5224 20.1711 25.9793 18.6279 24.0757 18.6279C22.1721 18.6279 20.6289 20.1711 20.6289 22.0747C20.6289 23.9783 22.1721 25.5215 24.0757 25.5215Z" fill="white"/>
<path d="M32.6934 28.9681V29.8298H35.2784C35.7355 29.8298 36.1738 29.6482 36.497 29.325C36.8202 29.0018 37.0018 28.5634 37.0018 28.1064V25.5213H36.1401C35.2263 25.5223 34.3502 25.8858 33.704 26.5319C33.0578 27.1781 32.6944 28.0542 32.6934 28.9681Z" fill="white"/>
<path d="M36.1401 18.6278H37.0018V16.0427C37.0018 15.5856 36.8202 15.1473 36.497 14.8241C36.1738 14.5009 35.7355 14.3193 35.2784 14.3193H32.6934V15.181C32.6944 16.0949 33.0578 16.971 33.704 17.6172C34.3502 18.2633 35.2263 18.6268 36.1401 18.6278Z" fill="white"/>
<path d="M15.4569 15.181V14.3193H12.8718C12.4147 14.3193 11.9764 14.5009 11.6532 14.8241C11.33 15.1473 11.1484 15.5856 11.1484 16.0427V18.6278H12.0101C12.924 18.6268 13.8001 18.2633 14.4463 17.6172C15.0924 16.971 15.4559 16.0949 15.4569 15.181Z" fill="white"/>
</svg>
