<svg width="48" height="48" viewBox="0 0 48 48" fill="none" xmlns="http://www.w3.org/2000/svg">
<circle cx="24" cy="24" r="24" fill="#0A0A29"/>
<path d="M37.7773 19.655C30.0261 12.6137 17.9708 12.6163 10.2227 19.655C9.93128 19.9197 9.92559 20.3679 10.2073 20.6424L11.7053 22.1021C11.974 22.3642 12.4062 22.3698 12.6853 22.1184C19.0693 16.3743 28.9297 16.373 35.315 22.1184C35.5942 22.3698 36.0264 22.3637 36.295 22.1021L37.793 20.6424C38.0743 20.3679 38.0687 19.9197 37.7773 19.655ZM24 28.125C22.4534 28.125 21.2 29.3561 21.2 30.875C21.2 32.3939 22.4534 33.625 24 33.625C25.5465 33.625 26.8 32.3939 26.8 30.875C26.8 29.3561 25.5465 28.125 24 28.125ZM32.8668 24.5332C27.8242 20.1534 20.1701 20.1582 15.1332 24.5332C14.8313 24.7954 14.8217 25.2504 15.1082 25.528L16.615 26.9885C16.8775 27.2429 17.3001 27.26 17.5797 27.0229C21.2525 23.9046 26.7558 23.9115 30.4198 27.0229C30.6994 27.26 31.122 27.2433 31.3845 26.9885L32.8913 25.528C33.1783 25.2504 33.1682 24.7949 32.8668 24.5332Z" fill="white"/>
</svg>
