<svg width="48" height="48" viewBox="0 0 48 48" fill="none" xmlns="http://www.w3.org/2000/svg">
<circle cx="24" cy="24" r="24" fill="#0A0A29"/>
<path d="M28.4001 31.2842L28.6239 31.5025L28.8474 31.2839L35.9898 24.2961L37.5425 25.8142L28.6235 34.5521L24.0986 30.1214L25.6515 28.603L28.4001 31.2842ZM19.8284 29.8916L19.5919 30.1212L19.8284 30.3508L23.5699 33.983H10.32V31.5152C10.32 30.1663 11.4553 28.854 13.5033 27.8599C15.5275 26.8774 18.346 26.2606 21.4782 26.2594L23.4549 26.3711L19.8284 29.8916ZM21.4872 12.32C22.9286 12.32 24.3092 12.876 25.3256 13.8627C26.3417 14.8491 26.9108 16.185 26.9108 17.5758C26.9108 18.9666 26.3417 20.3024 25.3256 21.2888C24.3092 22.2755 22.9286 22.8315 21.4872 22.8315C20.0457 22.8315 18.6652 22.2755 17.6487 21.2888C16.6326 20.3024 16.0636 18.9666 16.0636 17.5758C16.0636 16.185 16.6326 14.8491 17.6487 13.8627C18.6652 12.876 20.0457 12.32 21.4872 12.32Z" fill="white" stroke="white" stroke-width="0.64"/>
</svg>
