<svg width="84" height="84" viewBox="0 0 84 84" fill="none" xmlns="http://www.w3.org/2000/svg">
<path fill-rule="evenodd" clip-rule="evenodd" d="M20 40C31.0457 40 40 31.0457 40 20C40 8.95431 31.0457 0 20 0C8.9543 0 0 8.95431 0 20C0 31.0457 8.9543 40 20 40ZM84 20C84 31.0457 75.0457 40 64 40C52.9543 40 44 31.0457 44 20C44 8.95431 52.9543 0 64 0C75.0457 0 84 8.95431 84 20ZM84 64C84 75.0457 75.0457 84 64 84C52.9543 84 44 75.0457 44 64C44 52.9543 52.9543 44 64 44C75.0457 44 84 52.9543 84 64Z" fill="#C301FF"/>
</svg>
