<svg width="84" height="84" viewBox="0 0 84 84" fill="none" xmlns="http://www.w3.org/2000/svg">
<path fill-rule="evenodd" clip-rule="evenodd" d="M64 40C75.0457 40 84 31.0457 84 20C84 8.9543 75.0457 0 64 0C52.9543 0 44 8.9543 44 20C44 31.0457 52.9543 40 64 40ZM64 84C75.0457 84 84 75.0457 84 64C84 52.9543 75.0457 44 64 44C52.9543 44 44 52.9543 44 64C44 75.0457 52.9543 84 64 84ZM40 64C40 75.0457 31.0457 84 20 84C8.9543 84 0 75.0457 0 64C0 52.9543 8.9543 44 20 44C31.0457 44 40 52.9543 40 64ZM20 40C31.0457 40 40 31.0457 40 20C40 8.9543 31.0457 0 20 0C8.9543 0 0 8.9543 0 20C0 31.0457 8.9543 40 20 40Z" fill="#FF018A"/>
</svg>
