<svg width="716" height="706" viewBox="0 0 716 706" fill="none" xmlns="http://www.w3.org/2000/svg">
<path d="M110.656 322.312C67.6762 252.867 136.575 212.281 90.0252 153.599C64.6493 121.609 0 101.35 0 101.35V0C0 0 135.038 45.9425 188.178 95.9991C253.794 157.809 191.943 215.643 240 284C279.206 339.767 289.576 352.736 315 400.5C340.275 447.983 322.784 491.591 369.5 527C401 550.876 449.577 568.165 512.5 596.5C604.611 637.979 715.5 706 715.5 706H470.5C470.5 706 447.607 673.261 390.5 649C321.457 619.668 268.465 610.813 228 548C200.426 505.197 222.657 480.435 192.438 422.566C163.481 367.115 144.273 376.629 110.656 322.312Z" fill="url(#paint0_linear_2543_421)"/>
<defs>
<linearGradient id="paint0_linear_2543_421" x1="6.91905e-06" y1="37.8374" x2="667.029" y2="778.746" gradientUnits="userSpaceOnUse">
<stop stop-color="#00D1FF"/>
<stop offset="0.285416" stop-color="#1475FF"/>
<stop offset="0.670833" stop-color="#DB00FF"/>
<stop offset="1" stop-color="#FF008A"/>
</linearGradient>
</defs>
</svg>
