<svg width="142" height="59" viewBox="0 0 142 59" fill="none" xmlns="http://www.w3.org/2000/svg">
<g clip-path="url(#clip0_2522_9256)">
<path fill-rule="evenodd" clip-rule="evenodd" d="M83.2935 26C82.907 26 82.6055 25.8866 82.3892 25.6597C82.1728 25.433 82.0648 25.1169 82.0648 24.7116V12.8039C82.0648 12.7964 82.0666 12.7918 82.0691 12.7889C82.0663 12.7915 82.0619 12.7934 82.0547 12.7934H80.8158C80.567 12.7934 80.3687 12.716 80.2212 12.5614C80.0737 12.4067 80 12.1989 80 11.938V10.8554C80 10.5945 80.0737 10.3867 80.2212 10.232C80.3687 10.0773 80.567 10 80.8158 10H86.1841C86.728 10 87 10.2852 87 10.8555V11.938C87 12.1989 86.9262 12.4067 86.7787 12.5614C86.6312 12.7161 86.433 12.7934 86.1841 12.7934H84.9453C84.9381 12.7934 84.9337 12.7915 84.931 12.7889C84.9334 12.7918 84.9352 12.7964 84.9352 12.804V24.7116C84.9352 25.5706 84.5257 26 83.7065 26H83.2935ZM82.0702 12.7876C82.0728 12.7852 82.076 12.7843 82.0783 12.7836C82.0817 12.7826 82.0835 12.7821 82.0795 12.7778C82.0755 12.7736 82.075 12.7755 82.074 12.7791C82.0733 12.7815 82.0725 12.7848 82.0702 12.7876ZM84.9297 12.7876C84.9274 12.7848 84.9265 12.7815 84.9258 12.7791C84.9249 12.7755 84.9245 12.7737 84.9203 12.7778C84.9163 12.7821 84.9181 12.7826 84.9216 12.7836C84.9239 12.7843 84.9271 12.7852 84.9297 12.7876Z" fill="url(#paint0_linear_2522_9256)"/>
<path fill-rule="evenodd" clip-rule="evenodd" d="M65.2935 49C64.907 49 64.6055 48.8866 64.3893 48.6597C64.173 48.433 64.0648 48.1169 64.0648 47.7116V35.8038C64.0648 35.7963 64.0666 35.7917 64.0691 35.7888C64.0663 35.7914 64.0619 35.7933 64.0547 35.7933H62.8159C62.567 35.7933 62.3688 35.716 62.2213 35.5613C62.0738 35.4067 62 35.1989 62 34.9379V33.8554C62 33.5945 62.0738 33.3866 62.2213 33.2319C62.3688 33.0773 62.567 33 62.8159 33H68.1842C68.728 33 69 33.2852 69 33.8554V34.9379C69 35.1989 68.9263 35.4067 68.7788 35.5613C68.6313 35.716 68.433 35.7934 68.1842 35.7934H66.9453C66.9381 35.7934 66.9337 35.7914 66.9309 35.7889C66.9334 35.7918 66.9352 35.7964 66.9352 35.804V47.7116C66.9352 48.5706 66.5257 49 65.7065 49H65.2935ZM64.0702 35.7876C64.0729 35.7852 64.0759 35.7843 64.0783 35.7836C64.0819 35.7826 64.0835 35.782 64.0795 35.7778C64.0755 35.7736 64.075 35.7755 64.074 35.7791C64.0735 35.7815 64.0725 35.7847 64.0702 35.7876ZM66.9298 35.7876C66.9275 35.7849 66.9265 35.7815 66.926 35.7791C66.925 35.7755 66.9245 35.7736 66.9205 35.7778C66.9165 35.782 66.9181 35.7826 66.9216 35.7836C66.9239 35.7841 66.9271 35.7852 66.9298 35.7876Z" fill="url(#paint1_linear_2522_9256)"/>
<path d="M93.3392 25.6597C93.5652 25.8866 93.8803 26 94.2842 26H94.7158C95.572 26 96 25.5704 96 24.7116V11.2884C96 10.8832 95.8869 10.5671 95.661 10.3403C95.4348 10.1135 95.1197 10 94.7158 10H94.2842C93.8803 10 93.5653 10.1134 93.3392 10.3403C93.1131 10.5671 93 10.8832 93 11.2884V24.7116C93 25.1169 93.1131 25.433 93.3392 25.6597Z" fill="url(#paint2_linear_2522_9256)"/>
<path fill-rule="evenodd" clip-rule="evenodd" d="M80.4151 49C79.9617 49 79.6019 48.908 79.3361 48.7242C79.1992 48.6296 79.0796 48.5091 78.977 48.3625C78.884 48.2299 78.8052 48.0756 78.7406 47.8998L78.74 47.9L77.1346 43.7363V47.7115C77.1346 48.5704 76.6874 49 75.7928 49H75.3418C74.9198 49 74.5905 48.8866 74.3544 48.6597C74.1181 48.4328 74 48.1169 74 47.7115V34.2885C74 33.8833 74.1181 33.5672 74.3544 33.3403C74.5907 33.1134 74.9198 33 75.3418 33H78.4986C79.015 33 79.4671 33.058 79.8551 33.1741C80.2689 33.2979 80.6081 33.4867 80.8727 33.7408C81.1373 33.995 81.3341 34.3207 81.4629 34.7178C81.5838 35.0904 81.6442 35.5246 81.6442 36.0205V40.2422C81.6442 40.6324 81.6088 40.9824 81.5381 41.292C81.4638 41.6171 81.3491 41.9001 81.1938 42.1412C81.033 42.391 80.8269 42.5998 80.5759 42.7674C80.4506 42.8507 80.3146 42.9241 80.1674 42.987L81.9092 47.5665L81.9098 47.5663C81.9867 47.7666 82.0144 47.9534 81.993 48.1263C81.9678 48.3301 81.88 48.5043 81.7295 48.6489C81.6097 48.7639 81.4706 48.8514 81.3122 48.9117C81.1576 48.9705 80.9938 48.9999 80.8209 48.9999H80.4151V49ZM78.5096 36.237C78.5096 36.065 78.4773 35.948 78.413 35.8861C78.3486 35.8243 78.2267 35.7934 78.0476 35.7934H77.1456C77.1378 35.7934 77.1329 35.7915 77.1299 35.7889C77.1326 35.7918 77.1346 35.7964 77.1346 35.8039V40.4695L77.1456 40.4692H78.0476C78.3556 40.4692 78.5096 40.3214 78.5096 40.0256V36.237ZM77.1287 35.7877C77.1262 35.7848 77.1253 35.7815 77.1245 35.7791C77.1235 35.7754 77.123 35.7737 77.1185 35.7779C77.1141 35.7821 77.1161 35.7825 77.1198 35.7835C77.1224 35.7843 77.1259 35.7853 77.1287 35.7877Z" fill="url(#paint3_linear_2522_9256)"/>
<path d="M109.484 25.6596C109.697 25.8864 109.995 25.9999 110.377 25.9999L110.377 26H110.786C111.595 26 112 25.5704 112 24.7115V11.2885C112 10.8832 111.893 10.5671 111.679 10.3403C111.465 10.1135 111.167 10 110.786 10H110.377C110.198 10 110.035 10.0232 109.888 10.0696C109.724 10.1212 109.583 10.2012 109.465 10.3097C109.358 10.4071 109.264 10.5277 109.181 10.6712C109.106 10.8023 109.039 10.9547 108.982 11.1282L108.98 11.1299L106.5 18.7909L104.019 11.1299L104.019 11.13C103.927 10.7714 103.764 10.4953 103.53 10.3018C103.287 10.1006 102.984 10 102.623 10H102.214C101.832 10 101.534 10.1134 101.321 10.3402C101.107 10.5671 101 10.8832 101 11.2884V24.7115C101 25.1167 101.107 25.4328 101.321 25.6596C101.534 25.8864 101.832 25.9999 102.214 25.9999H102.623C103.432 25.9999 103.837 25.5703 103.837 24.7115V22.5464C103.837 22.1765 103.834 21.7309 103.828 21.21C103.823 20.7707 103.815 20.3468 103.805 19.9385C103.799 19.6945 103.791 19.4501 103.783 19.2056L105.105 23.5727C105.162 23.7461 105.228 23.8986 105.304 24.0297C105.386 24.1732 105.481 24.2938 105.587 24.3913C105.706 24.4996 105.847 24.5797 106.01 24.6313C106.158 24.6776 106.321 24.7009 106.5 24.7009C106.679 24.7009 106.842 24.6776 106.99 24.6313C107.153 24.5797 107.294 24.4996 107.413 24.3913C107.519 24.2938 107.614 24.1732 107.696 24.0297C107.772 23.8986 107.838 23.7461 107.895 23.5727L109.217 19.2056C109.208 19.4501 109.201 19.6945 109.195 19.9385C109.185 20.347 109.177 20.7709 109.172 21.2103C109.166 21.7309 109.163 22.1762 109.163 22.5464V24.7115C109.163 25.1167 109.27 25.4327 109.484 25.6596Z" fill="url(#paint4_linear_2522_9256)"/>
<path fill-rule="evenodd" clip-rule="evenodd" d="M93.9945 47.6802C94.0259 48.0978 93.9238 48.4243 93.6883 48.6597C93.4614 48.8866 93.1343 49 92.7073 49H92.2741C92.0811 49 91.9091 48.9757 91.7582 48.9271C91.5795 48.8695 91.4339 48.7779 91.3215 48.6523C91.2208 48.5398 91.1424 48.4025 91.0867 48.2409C91.0393 48.1025 91.0064 47.9393 90.9884 47.7511L90.9869 47.7429L90.7919 45.253V45.2414C90.791 45.2229 90.7951 45.2144 90.7975 45.2095C90.7991 45.206 90.8 45.2044 90.7978 45.2022C90.7965 45.2011 90.7955 45.2006 90.7944 45.2009C90.7932 45.2011 90.792 45.2018 90.7903 45.203C90.7855 45.206 90.7774 45.2111 90.758 45.2111H89.2419C89.2225 45.2111 89.2144 45.206 89.2097 45.203C89.2065 45.2008 89.2047 45.1998 89.2023 45.2022C89.2 45.2044 89.2008 45.206 89.2024 45.2095C89.2049 45.2144 89.2091 45.2229 89.2081 45.2414V45.253L89.0132 47.7429L89.0115 47.7511C88.9938 47.9373 88.959 48.1022 88.9072 48.2458C88.8471 48.4126 88.7644 48.5515 88.6594 48.6623C88.5456 48.7823 88.4025 48.8707 88.2299 48.9271C88.0816 48.9757 87.9135 49 87.726 49H87.2928C86.8657 49 86.5387 48.8866 86.3118 48.6597C86.0763 48.4243 85.9742 48.0978 86.0055 47.6802L86.8719 35.9907V35.9875C86.9104 35.5026 86.9907 35.0771 87.1126 34.7113C87.2414 34.3251 87.4171 34.0077 87.6397 33.759C87.8749 33.4964 88.1906 33.302 88.587 33.1758C88.9551 33.0586 89.39 33 89.8918 33H90.1085C90.6043 33 91.0353 33.0586 91.4012 33.1758C91.7943 33.3015 92.11 33.495 92.3479 33.7557C92.7884 34.2382 93.0485 34.9821 93.1284 35.9874V35.9907L93.9946 47.6801L93.9945 47.6802ZM90.5942 42.4489L90.5933 42.4504C90.5927 42.4512 90.5922 42.4521 90.5919 42.4528C90.59 42.4559 90.5906 42.4559 90.5961 42.4498C90.5998 42.4456 90.5994 42.4446 90.5971 42.4443L90.5942 42.4489ZM90.5739 42.4178L90.1205 36.2666H90.1208C90.098 36.0583 90.0627 35.9004 90.0147 35.7931L90.0001 35.7934L89.9752 35.7935C89.9335 35.9041 89.9015 36.0618 89.8793 36.2666H89.8795L89.4262 42.4178H90.5739ZM89.403 42.4443C89.4006 42.4446 89.4003 42.4456 89.404 42.4498C89.4118 42.4585 89.4095 42.4549 89.4049 42.4475L89.403 42.4443Z" fill="url(#paint5_linear_2522_9256)"/>
<path fill-rule="evenodd" clip-rule="evenodd" d="M122.765 26C123.588 26 124 25.5704 124 24.7115V24.495C124 24.0897 123.891 23.7736 123.674 23.5468C123.456 23.32 123.153 23.2066 122.765 23.2066H120.896C120.889 23.2066 120.885 23.2085 120.882 23.2111C120.884 23.2082 120.886 23.2036 120.886 23.196V18.5413C120.886 18.5336 120.884 18.5291 120.882 18.5261C120.885 18.5287 120.889 18.5307 120.896 18.5307H121.934C122.323 18.5307 122.626 18.4173 122.843 18.1904C123.061 17.9636 123.17 17.6476 123.17 17.2422V17.0257C123.17 16.6205 123.061 16.3043 122.843 16.0775C122.626 15.8508 122.323 15.7373 121.934 15.7373H120.896C120.889 15.7373 120.885 15.7392 120.882 15.7418C120.884 15.7389 120.886 15.7343 120.886 15.7268V12.8039C120.886 12.7964 120.884 12.7918 120.882 12.7889C120.885 12.7914 120.889 12.7934 120.896 12.7934H122.765C123.588 12.7934 124 12.3639 124 11.5049V11.2884C124 10.8832 123.891 10.5671 123.674 10.3403C123.456 10.1135 123.153 10 122.765 10H119.235C118.847 10 118.544 10.1134 118.326 10.3403C118.109 10.5671 118 10.8832 118 11.2884V24.7116C118 25.1169 118.109 25.433 118.326 25.6597C118.544 25.8866 118.847 26 119.235 26H122.765ZM120.877 12.7791C120.877 12.7815 120.878 12.7848 120.881 12.7876C120.878 12.7852 120.875 12.7842 120.872 12.7835C120.869 12.7825 120.867 12.782 120.871 12.7778C120.875 12.7736 120.876 12.7754 120.877 12.7791ZM120.872 15.747C120.875 15.7463 120.878 15.7454 120.881 15.743C120.878 15.7457 120.877 15.749 120.877 15.7515C120.876 15.7551 120.875 15.757 120.871 15.7528C120.867 15.7485 120.869 15.748 120.872 15.747ZM120.877 18.5164C120.877 18.5189 120.878 18.5222 120.881 18.5249C120.878 18.5225 120.875 18.5216 120.872 18.5209C120.869 18.5199 120.867 18.5193 120.871 18.5151C120.875 18.5109 120.876 18.5128 120.877 18.5164ZM120.872 23.2163C120.875 23.2157 120.878 23.2147 120.881 23.2122C120.88 23.2125 120.88 23.2128 120.88 23.2131L120.88 23.2137C120.878 23.2162 120.877 23.2188 120.877 23.2208V23.2209C120.877 23.2214 120.876 23.2218 120.876 23.2222C120.876 23.223 120.876 23.2235 120.876 23.2238C120.875 23.225 120.874 23.2247 120.871 23.2221C120.867 23.2179 120.869 23.2173 120.872 23.2163Z" fill="url(#paint6_linear_2522_9256)"/>
<path d="M101.881 49C101.408 49 100.993 48.942 100.638 48.8259C100.259 48.7022 99.9488 48.5133 99.7065 48.2592C99.464 48.0052 99.284 47.6795 99.166 47.2822C99.0553 46.9096 99 46.4754 99 45.9795V36.0205C99 35.5246 99.0553 35.0904 99.166 34.7178C99.284 34.3205 99.4642 33.9948 99.7065 33.7408C99.9488 33.4867 100.259 33.2978 100.638 33.1741C100.993 33.058 101.408 33 101.881 33H103.119C103.592 33 104.007 33.058 104.362 33.1741C104.741 33.2979 105.051 33.4867 105.294 33.7408C105.536 33.995 105.716 34.3207 105.834 34.7178C105.945 35.0904 106 35.5246 106 36.0205V38.2938C106 38.699 105.892 39.015 105.676 39.2419C105.459 39.4688 105.158 39.5822 104.771 39.5822H104.358C103.539 39.5822 103.129 39.1526 103.129 38.2938V36.237C103.129 36.065 103.1 35.948 103.041 35.8861C102.982 35.8243 102.87 35.7934 102.706 35.7934H102.294C102.129 35.7934 102.018 35.8243 101.959 35.8861C101.9 35.9479 101.87 36.065 101.87 36.237V45.763C101.87 45.935 101.9 46.052 101.959 46.1139C102.018 46.1757 102.129 46.2066 102.294 46.2066H104.565C104.951 46.2066 105.253 46.32 105.469 46.5468C105.685 46.7736 105.794 47.0898 105.794 47.495V47.7115C105.794 48.1169 105.685 48.4328 105.469 48.6597C105.253 48.8866 104.951 49 104.565 49H101.881Z" fill="url(#paint7_linear_2522_9256)"/>
<path d="M118.994 48.1383C119.013 47.9684 118.988 47.7811 118.918 47.5763L118.918 47.5762L116.501 40.3318L116.501 40.3316C116.472 40.2364 116.457 40.1417 116.457 40.0475C116.457 39.9533 116.472 39.8584 116.501 39.7632L116.501 39.763L118.282 34.4238L118.281 34.4237C118.351 34.2189 118.376 34.0316 118.357 33.8617C118.333 33.6524 118.247 33.4763 118.1 33.3336C117.986 33.2224 117.855 33.1385 117.709 33.0822C117.567 33.0275 117.415 33 117.253 33H116.828C116.634 33 116.457 33.0242 116.299 33.0723C116.124 33.1256 115.973 33.2082 115.847 33.3205C115.733 33.4215 115.634 33.54 115.551 33.676C115.474 33.801 115.409 33.9451 115.356 34.1084L113.952 38.2437V34.2885C113.952 33.8833 113.84 33.5672 113.618 33.3403C113.396 33.1136 113.086 33.0001 112.688 33.0001H112.264C111.866 33.0001 111.556 33.1136 111.334 33.3403C111.111 33.5672 111 33.8833 111 34.2885V47.7116C111 48.1169 111.111 48.433 111.334 48.6597C111.556 48.8866 111.866 49 112.264 49H112.688C113.531 49 113.952 48.5704 113.952 47.7115V41.7795L115.987 47.8783C116.039 48.0552 116.107 48.2123 116.191 48.3494C116.282 48.4993 116.391 48.6227 116.517 48.7193C116.762 48.9064 117.078 49 117.465 49H117.89C118.052 49 118.204 48.9725 118.346 48.9178C118.492 48.8615 118.623 48.7778 118.737 48.6662C118.884 48.5237 118.97 48.3476 118.994 48.1383Z" fill="url(#paint8_linear_2522_9256)"/>
<path fill-rule="evenodd" clip-rule="evenodd" d="M130 47.7114C130 48.5704 129.588 49 128.765 49H125.236C124.847 49 124.544 48.8866 124.326 48.6597C124.109 48.433 124 48.1169 124 47.7116V34.2884C124 33.8831 124.109 33.567 124.326 33.3402C124.544 33.1134 124.847 33 125.236 33H128.765C129.153 33 129.456 33.1134 129.674 33.3402C129.891 33.567 130 33.8831 130 34.2884V34.5049C130 35.3638 129.588 35.7933 128.765 35.7933H126.896C126.892 35.7933 126.889 35.7927 126.886 35.7917C126.884 35.7908 126.883 35.7899 126.882 35.7888C126.883 35.7901 126.884 35.7917 126.885 35.7937C126.885 35.7963 126.886 35.7996 126.886 35.8038V38.7267C126.886 38.7343 126.884 38.7389 126.882 38.7418C126.885 38.7392 126.889 38.7373 126.896 38.7373H127.934C128.323 38.7373 128.626 38.8507 128.843 39.0774C129.061 39.3043 129.17 39.6204 129.17 40.0257V40.2421C129.17 40.6476 129.061 40.9635 128.843 41.1904C128.626 41.4173 128.323 41.5307 127.934 41.5307H126.896C126.894 41.5307 126.893 41.5306 126.891 41.5303C126.887 41.5295 126.884 41.528 126.882 41.5261C126.884 41.5291 126.886 41.5337 126.886 41.5413V46.196C126.886 46.1998 126.886 46.203 126.885 46.2054C126.884 46.2077 126.883 46.2096 126.882 46.2111C126.885 46.2085 126.889 46.2066 126.896 46.2066H128.765C129.153 46.2066 129.456 46.32 129.674 46.5467C129.891 46.7736 130 47.0897 130 47.495V47.7114ZM126.881 35.7876C126.878 35.7847 126.877 35.7815 126.877 35.7791C126.876 35.7753 126.875 35.7736 126.871 35.7778C126.867 35.782 126.869 35.7826 126.872 35.7836C126.875 35.7841 126.878 35.7852 126.881 35.7876ZM126.881 38.7429C126.878 38.7454 126.875 38.7463 126.872 38.747C126.869 38.748 126.867 38.7484 126.871 38.7528C126.875 38.757 126.876 38.7551 126.877 38.7515C126.877 38.7497 126.878 38.7476 126.879 38.7454C126.879 38.7445 126.88 38.7437 126.881 38.7429ZM126.881 41.5249C126.878 41.5222 126.877 41.5188 126.877 41.5164C126.876 41.5128 126.875 41.5109 126.871 41.5151C126.867 41.5193 126.869 41.5198 126.872 41.5209C126.875 41.5216 126.878 41.5225 126.881 41.5249ZM126.881 46.2122C126.878 46.2147 126.875 46.2157 126.872 46.2163C126.869 46.2173 126.867 46.2179 126.871 46.2221C126.872 46.2226 126.872 46.2231 126.873 46.2235C126.878 46.2274 126.875 46.2186 126.881 46.2122Z" fill="url(#paint9_linear_2522_9256)"/>
<path fill-rule="evenodd" clip-rule="evenodd" d="M139.336 48.7242C139.602 48.908 139.961 49 140.415 49L140.415 48.9999H140.821C140.994 48.9999 141.157 48.9705 141.312 48.9117C141.47 48.8514 141.609 48.7639 141.729 48.6489C141.88 48.5043 141.967 48.3301 141.993 48.1263C142.015 47.9534 141.986 47.7666 141.909 47.5663L141.909 47.5665L140.167 42.987C140.314 42.9241 140.45 42.8507 140.576 42.7674C140.827 42.5998 141.033 42.391 141.194 42.1412C141.349 41.9001 141.463 41.6171 141.538 41.292C141.609 40.9824 141.644 40.6324 141.644 40.2422V36.0205C141.644 35.5246 141.584 35.0904 141.463 34.7178C141.334 34.3207 141.137 33.995 140.873 33.7408C140.608 33.4867 140.269 33.2979 139.855 33.1741C139.467 33.058 139.015 33 138.498 33H135.342C134.92 33 134.59 33.1134 134.354 33.3403C134.118 33.5672 134 33.8833 134 34.2885V47.7115C134 48.1169 134.118 48.4328 134.354 48.6597C134.59 48.8866 134.92 49 135.342 49H135.793C136.687 49 137.135 48.5704 137.135 47.7115V43.7363L138.74 47.9L138.74 47.8998C138.805 48.0756 138.884 48.2299 138.977 48.3625C139.079 48.5091 139.199 48.6296 139.336 48.7242ZM138.413 35.8861C138.477 35.948 138.509 36.065 138.509 36.237V40.0256C138.509 40.3214 138.355 40.4692 138.047 40.4692H137.146L137.135 40.4695V35.8039C137.135 35.8005 137.134 35.7977 137.133 35.7954C137.133 35.7927 137.131 35.7905 137.13 35.7889C137.133 35.7915 137.138 35.7934 137.146 35.7934H138.047C138.227 35.7934 138.348 35.8243 138.413 35.8861ZM137.124 35.7791C137.125 35.7815 137.126 35.7848 137.129 35.7877C137.126 35.7853 137.122 35.7843 137.12 35.7835C137.116 35.7825 137.114 35.7821 137.118 35.7779C137.123 35.7737 137.123 35.7754 137.124 35.7791Z" fill="url(#paint10_linear_2522_9256)"/>
<path fill-rule="evenodd" clip-rule="evenodd" d="M18.5125 0.293406C16.1314 -0.62145 13.4985 0.674527 12.6319 3.18798L10.2779 10.0145C9.4113 12.528 10.639 15.3071 13.0202 16.222L19.4874 18.7066C21.8686 19.6214 24.5015 18.3255 25.3682 15.812L27.722 8.98551C28.5887 6.47202 27.3609 3.69286 24.9798 2.77804L18.5125 0.293406ZM23.4105 7.32916L16.9432 4.84452L14.5894 11.6711L21.0567 14.1557L23.4105 7.32916Z" fill="url(#paint11_linear_2522_9256)"/>
<path fill-rule="evenodd" clip-rule="evenodd" d="M41.6319 14.188C42.4985 11.6745 45.1313 10.3786 47.5125 11.2934L53.9795 13.778C56.3609 14.6929 57.5886 17.4721 56.7222 19.9855L54.3684 26.812C53.5013 29.3255 50.8686 30.6214 48.4874 29.7066L42.0202 27.222C39.639 26.3071 38.4113 23.5281 39.2779 21.0145L41.6319 14.188ZM45.9432 15.8445L52.4104 18.3292L50.0566 25.1557L43.5894 22.6711L45.9432 15.8445Z" fill="url(#paint12_linear_2522_9256)"/>
<path fill-rule="evenodd" clip-rule="evenodd" d="M2.63182 32.1881C3.4985 29.6746 6.13142 28.3785 8.51259 29.2934L14.9799 31.778C17.361 32.6929 18.5887 35.4721 17.7221 37.9856L15.3681 44.812C14.5014 47.3255 11.8686 48.6214 9.48745 47.7066L3.02016 45.2219C0.63902 44.3071 -0.588723 41.528 0.277949 39.0145L2.63182 32.1881ZM6.94326 33.8445L13.4105 36.3291L11.0566 43.1557L4.58938 40.6711L6.94326 33.8445Z" fill="url(#paint13_linear_2522_9256)"/>
<path fill-rule="evenodd" clip-rule="evenodd" d="M36.5126 40.2934C34.1314 39.3786 31.4985 40.6745 30.6318 43.188L28.2779 50.0145C27.4113 52.528 28.6391 55.3068 31.0202 56.222L37.4875 58.7065C39.8686 59.6216 42.5015 58.3253 43.3682 55.8123L45.722 48.9855C46.5887 46.4721 45.361 43.6929 42.9798 42.778L36.5126 40.2934ZM41.4105 47.3292L34.9433 44.8445L32.5893 51.6711L39.0565 54.1555L41.4105 47.3292Z" fill="url(#paint14_linear_2522_9256)"/>
<path d="M32.8594 8.56716C33.2624 7.33159 34.4873 6.69451 35.595 7.14423C36.7027 7.59395 37.2739 8.96014 36.8707 10.1957L36.1406 12.4328C35.7375 13.6684 34.5126 14.3055 33.405 13.8558C32.2972 13.4061 31.7261 12.0399 32.1293 10.8043L32.8594 8.56716Z" fill="url(#paint15_linear_2522_9256)"/>
<path d="M49.4328 35.0312C50.6684 35.515 51.3055 36.9848 50.8558 38.3139C50.406 39.6433 49.0398 40.3285 47.8044 39.8449L45.5672 38.9688C44.3316 38.4851 43.6945 37.0152 44.1442 35.686C44.594 34.3567 45.9602 33.6714 47.1956 34.1552L49.4328 35.0312Z" fill="url(#paint16_linear_2522_9256)"/>
<path d="M29.8594 17.5672C30.2625 16.3315 31.4873 15.6945 32.595 16.1442C33.7028 16.5939 34.2739 17.9601 33.8707 19.1957L33.1406 21.4329C32.7375 22.6684 31.5127 23.3055 30.405 22.8557C29.2972 22.406 28.7261 21.04 29.1293 19.8043L29.8594 17.5672Z" fill="url(#paint17_linear_2522_9256)"/>
<path d="M19.8593 46.5672C20.2624 45.3316 21.4873 44.6945 22.595 45.1443C23.7028 45.594 24.2739 46.9601 23.8707 48.1958L23.1407 50.4329C22.7375 51.6685 21.5126 52.3055 20.405 51.8557C19.2973 51.4062 18.726 50.04 19.1294 48.8044L19.8593 46.5672Z" fill="url(#paint18_linear_2522_9256)"/>
<path d="M40.4328 31.0312C41.6684 31.515 42.3055 32.9848 41.8558 34.314C41.406 35.6433 40.0398 36.3286 38.8042 35.8448L36.5672 34.9689C35.3316 34.4851 34.6945 33.0153 35.1442 31.686C35.5938 30.3568 36.96 29.6714 38.1956 30.1551L40.4328 31.0312Z" fill="url(#paint19_linear_2522_9256)"/>
<path d="M24.7629 31.4786L7.51067 24.7621C6.31966 24.2983 5.70552 22.8897 6.13903 21.6158C6.57249 20.342 7.88941 19.685 9.08044 20.1487L28.4502 27.6896C28.4537 27.6909 28.4572 27.6923 28.4608 27.6936L28.4659 27.6955C28.4705 27.6972 28.4752 27.699 28.4798 27.7007C28.4829 27.7019 28.4861 27.7033 28.4894 27.7045C29.6804 28.1681 30.2945 29.5767 29.861 30.8506L25.9364 42.3842C25.5029 43.658 24.186 44.315 22.9951 43.8513C21.804 43.3875 21.1898 41.9789 21.6234 40.705L24.7629 31.4786Z" fill="url(#paint20_linear_2522_9256)"/>
</g>
<defs>
<linearGradient id="paint0_linear_2522_9256" x1="140.113" y1="17.3385" x2="40.5894" y2="104.913" gradientUnits="userSpaceOnUse">
<stop stop-color="#570067"/>
<stop offset="0.962355" stop-color="#008DAC"/>
</linearGradient>
<linearGradient id="paint1_linear_2522_9256" x1="139.983" y1="16.838" x2="40.4584" y2="104.413" gradientUnits="userSpaceOnUse">
<stop stop-color="#570067"/>
<stop offset="0.962355" stop-color="#008DAC"/>
</linearGradient>
<linearGradient id="paint2_linear_2522_9256" x1="143.096" y1="17.3385" x2="43.1076" y2="109.292" gradientUnits="userSpaceOnUse">
<stop stop-color="#570067"/>
<stop offset="0.962355" stop-color="#008DAC"/>
</linearGradient>
<linearGradient id="paint3_linear_2522_9256" x1="146.431" y1="16.8382" x2="46.1724" y2="113.179" gradientUnits="userSpaceOnUse">
<stop stop-color="#570067"/>
<stop offset="0.962355" stop-color="#008DAC"/>
</linearGradient>
<linearGradient id="paint4_linear_2522_9256" x1="140.417" y1="17.3384" x2="41.0483" y2="103.759" gradientUnits="userSpaceOnUse">
<stop stop-color="#570067"/>
<stop offset="0.962355" stop-color="#008DAC"/>
</linearGradient>
<linearGradient id="paint5_linear_2522_9256" x1="143.006" y1="16.8382" x2="42.9885" y2="109.155" gradientUnits="userSpaceOnUse">
<stop stop-color="#570067"/>
<stop offset="0.962355" stop-color="#008DAC"/>
</linearGradient>
<linearGradient id="paint6_linear_2522_9256" x1="141.699" y1="17.3385" x2="42.1079" y2="105.45" gradientUnits="userSpaceOnUse">
<stop stop-color="#570067"/>
<stop offset="0.962355" stop-color="#008DAC"/>
</linearGradient>
<linearGradient id="paint7_linear_2522_9256" x1="141.065" y1="16.8382" x2="41.5413" y2="104.415" gradientUnits="userSpaceOnUse">
<stop stop-color="#570067"/>
<stop offset="0.962355" stop-color="#008DAC"/>
</linearGradient>
<linearGradient id="paint8_linear_2522_9256" x1="142.269" y1="16.8382" x2="42.4304" y2="107.177" gradientUnits="userSpaceOnUse">
<stop stop-color="#570067"/>
<stop offset="0.962355" stop-color="#008DAC"/>
</linearGradient>
<linearGradient id="paint9_linear_2522_9256" x1="142.071" y1="16.838" x2="42.4799" y2="104.947" gradientUnits="userSpaceOnUse">
<stop stop-color="#570067"/>
<stop offset="0.962355" stop-color="#008DAC"/>
</linearGradient>
<linearGradient id="paint10_linear_2522_9256" x1="142.027" y1="16.8382" x2="41.7681" y2="113.176" gradientUnits="userSpaceOnUse">
<stop stop-color="#570067"/>
<stop offset="0.962355" stop-color="#008DAC"/>
</linearGradient>
<linearGradient id="paint11_linear_2522_9256" x1="140.294" y1="17.1025" x2="39.4229" y2="106.311" gradientUnits="userSpaceOnUse">
<stop stop-color="#570067"/>
<stop offset="0.962355" stop-color="#008DAC"/>
</linearGradient>
<linearGradient id="paint12_linear_2522_9256" x1="141.269" y1="17.3361" x2="40.3979" y2="106.544" gradientUnits="userSpaceOnUse">
<stop stop-color="#570067"/>
<stop offset="0.962355" stop-color="#008DAC"/>
</linearGradient>
<linearGradient id="paint13_linear_2522_9256" x1="140.494" y1="16.5209" x2="39.6231" y2="105.729" gradientUnits="userSpaceOnUse">
<stop stop-color="#570067"/>
<stop offset="0.962355" stop-color="#008DAC"/>
</linearGradient>
<linearGradient id="paint14_linear_2522_9256" x1="140.469" y1="16.7539" x2="39.5978" y2="105.962" gradientUnits="userSpaceOnUse">
<stop stop-color="#570067"/>
<stop offset="0.962355" stop-color="#008DAC"/>
</linearGradient>
<linearGradient id="paint15_linear_2522_9256" x1="132.855" y1="17.1562" x2="34.4958" y2="99.4753" gradientUnits="userSpaceOnUse">
<stop stop-color="#570067"/>
<stop offset="0.962355" stop-color="#008DAC"/>
</linearGradient>
<linearGradient id="paint16_linear_2522_9256" x1="145.112" y1="16.2573" x2="38.6876" y2="108.605" gradientUnits="userSpaceOnUse">
<stop stop-color="#570067"/>
<stop offset="0.962355" stop-color="#008DAC"/>
</linearGradient>
<linearGradient id="paint17_linear_2522_9256" x1="132.775" y1="17.2074" x2="34.4159" y2="99.5264" gradientUnits="userSpaceOnUse">
<stop stop-color="#570067"/>
<stop offset="0.962355" stop-color="#008DAC"/>
</linearGradient>
<linearGradient id="paint18_linear_2522_9256" x1="132.264" y1="17.1241" x2="33.9056" y2="99.4423" gradientUnits="userSpaceOnUse">
<stop stop-color="#570067"/>
<stop offset="0.962355" stop-color="#008DAC"/>
</linearGradient>
<linearGradient id="paint19_linear_2522_9256" x1="145.06" y1="15.7608" x2="38.6345" y2="108.108" gradientUnits="userSpaceOnUse">
<stop stop-color="#570067"/>
<stop offset="0.962355" stop-color="#008DAC"/>
</linearGradient>
<linearGradient id="paint20_linear_2522_9256" x1="140.126" y1="17.2687" x2="38.0476" y2="106.357" gradientUnits="userSpaceOnUse">
<stop stop-color="#570067"/>
<stop offset="0.962355" stop-color="#008DAC"/>
</linearGradient>
<clipPath id="clip0_2522_9256">
<rect width="142" height="59" fill="white"/>
</clipPath>
</defs>
</svg>
