<svg width="24" height="24" viewBox="0 0 24 24" fill="none" xmlns="http://www.w3.org/2000/svg">
<path d="M2 9V17.8912C2 18.7157 2.30102 19.5064 2.83684 20.0895C3.37266 20.6725 4.09938 21 4.85714 21H19.1429C19.9006 21 20.6273 20.6725 21.1632 20.0895C21.699 19.5064 22 18.7157 22 17.8912V9L13.4971 14.6922C13.0469 14.9936 12.5286 15.1532 12 15.1532C11.4714 15.1532 10.9531 14.9936 10.5029 14.6922L2 9Z" fill="#1475FF"/>
<path d="M22 7.03705V6.8851C22 6.11993 21.699 5.38609 21.1632 4.84503C20.6273 4.30397 19.9006 4 19.1429 4H4.85714C4.09938 4 3.37266 4.30397 2.83684 4.84503C2.30102 5.38609 2 6.11993 2 6.8851V7.03705L11.2514 12.7861C11.4766 12.926 11.7357 13 12 13C12.2643 13 12.5234 12.926 12.7486 12.7861L22 7.03705Z" fill="#1475FF"/>
</svg>
