<svg width="106" height="38" viewBox="0 0 106 38" fill="none" xmlns="http://www.w3.org/2000/svg">
<g clip-path="url(#clip0_2532_958)">
<path d="M54.1582 19.6536V37.2657V37.5174H57.1739C58.9833 37.5174 59.5197 36.0077 59.5616 35.2529V17.3892H55.9173C54.5101 17.3892 54.1582 18.8988 54.1582 19.6536Z" fill="#2C117C"/>
<path d="M60.8477 35.3517C61.4651 38.1034 64.7924 38.1119 66.3793 37.7721V24.2684L77.6995 36.3708C79.3462 38.0014 81.3873 37.9844 82.2019 37.7721C83.8486 37.3645 84.3457 35.8187 84.3887 35.0968V21.9753H92.4929V35.0968C92.9047 37.9505 96.3524 38.0694 98.0245 37.7721V21.9753H106V19.4275C105.589 17.7968 103.857 17.3892 103.041 17.3892H78.9858V30.3833L67.5368 18.9179C66.3019 17.6949 64.5354 17.3892 63.8061 17.3892H60.8477V35.3517Z" fill="#2C117C"/>
<path d="M35.5044 21.0903L28.1719 37.5241C31.9796 38.6452 34.6468 35.6132 35.5044 33.9571H40.1355V30.2627C39.8267 29.4473 38.2058 29.6682 37.434 29.8805L40.9073 21.7273L44.6379 29.8805C42.6825 29.3709 41.9364 29.9229 41.8078 30.2627V33.9571H46.6961C48.3427 37.7279 52.3563 37.9063 54.157 37.5241L46.6961 21.0903C45.0495 17.7271 42.1508 17.0562 40.9073 17.1411C38.0257 17.0392 36.1047 19.7315 35.5044 21.0903Z" fill="#2C117C"/>
<path d="M0 35.7338C0.823302 38.2817 3.94498 38.1543 5.40293 37.7721V24.9053L11.1917 36.2434C13.4558 39.4028 15.9086 37.5598 16.8519 36.2434L22.7694 24.9053V35.7338C23.0782 37.874 26.5 37.9844 28.1723 37.7721V19.0453C27.9665 17.9242 26.8001 17.4741 26.2427 17.3892H20.9684L14.0218 31.0202L7.58981 17.3892H2.31553C0.87476 17.3892 0.171521 18.4932 0 19.0453V35.7338Z" fill="#2C117C"/>
<path d="M31.0963 5.85425C31.0963 6.83895 30.7953 7.63553 30.193 8.24395C29.5907 8.85242 28.8126 9.15663 27.8587 9.15663C27.3332 9.15663 26.8583 9.06258 26.4339 8.87441C26.0095 8.68226 25.672 8.4161 25.4213 8.07584V11.4983H24.3906V2.72605H25.3365L25.4092 3.81282C25.6355 3.44055 25.971 3.14634 26.4157 2.93019C26.8643 2.71404 27.3696 2.60596 27.9314 2.60596C28.8611 2.60596 29.621 2.90817 30.2111 3.5126C30.8013 4.11303 31.0963 4.89359 31.0963 5.85425ZM30.0414 5.86627C30.0414 5.14576 29.8373 4.57135 29.429 4.14305C29.0208 3.71475 28.467 3.50059 27.7677 3.50059C27.0644 3.50059 26.4965 3.70474 26.064 4.11303C25.6355 4.52132 25.4213 5.07972 25.4213 5.78823V5.96232C25.4213 6.65084 25.6335 7.20724 26.058 7.63154C26.4824 8.05185 27.0442 8.262 27.7435 8.262C28.4508 8.262 29.0107 8.04986 29.423 7.62556C29.8353 7.20121 30.0414 6.61483 30.0414 5.86627Z" fill="#2C117C"/>
<path d="M32.4492 7.39136C32.4492 6.84299 32.6493 6.41066 33.0494 6.09443C33.4537 5.7782 34.0357 5.57807 34.7956 5.49399L37.045 5.23583V5.01367C37.045 4.50531 36.8954 4.11903 36.5964 3.85484C36.3013 3.58666 35.891 3.45256 35.3655 3.45256C34.8118 3.45256 34.3752 3.57865 34.0559 3.83083C33.7406 4.07901 33.5971 4.41725 33.6255 4.84555H32.6493C32.6614 4.15306 32.9181 3.60667 33.4193 3.20638C33.9205 2.8061 34.5854 2.60596 35.414 2.60596C36.2346 2.60596 36.8813 2.82612 37.3542 3.26643C37.8271 3.70674 38.0636 4.3472 38.0636 5.18779V9.03654H37.142L37.0814 7.76963C36.8874 8.19393 36.5559 8.53016 36.087 8.77836C35.6141 9.03051 35.0927 9.15663 34.5228 9.15663C33.9084 9.15663 33.4112 8.99849 33.0313 8.68226C32.6433 8.34604 32.4492 7.91575 32.4492 7.39136ZM37.045 6.23252V5.96232L34.9957 6.20854C34.4702 6.2806 34.0903 6.40867 33.8558 6.59279C33.6214 6.77292 33.5042 7.0131 33.5042 7.31332C33.5042 7.62556 33.6194 7.86972 33.8498 8.04581C34.0842 8.22196 34.4035 8.31003 34.8077 8.31003C35.1352 8.31003 35.4423 8.246 35.7293 8.11788C36.0163 7.98577 36.2508 7.81766 36.4326 7.61354C36.6186 7.40937 36.7641 7.18725 36.8692 6.94707C36.9783 6.70285 37.0369 6.46472 37.045 6.23252Z" fill="#2C117C"/>
<path d="M40.7913 7.27717C40.8236 7.59744 40.961 7.85362 41.2035 8.04572C41.446 8.23787 41.7714 8.33392 42.1796 8.33392C42.6202 8.33392 42.9638 8.23389 43.2104 8.03376C43.4569 7.83357 43.5802 7.56138 43.5802 7.21718C43.5802 6.8809 43.461 6.62072 43.2225 6.4366C42.9881 6.25248 42.6809 6.16042 42.3009 6.16042H41.5309V5.45789H42.2524C42.6082 5.45789 42.8951 5.36583 43.1134 5.1817C43.3357 4.99357 43.4469 4.74539 43.4469 4.43717C43.4469 4.12495 43.3377 3.88078 43.1194 3.70465C42.9012 3.52853 42.596 3.44046 42.2039 3.44046C41.8159 3.44046 41.5006 3.53252 41.2581 3.71666C41.0156 3.89678 40.8923 4.15297 40.8882 4.48521H39.9061C39.9101 3.9208 40.1223 3.47048 40.5426 3.13424C40.9671 2.798 41.5249 2.62988 42.2161 2.62988C42.887 2.62988 43.4286 2.788 43.8409 3.10422C44.2573 3.42045 44.4654 3.83674 44.4654 4.35311C44.4654 4.66533 44.3826 4.94553 44.2169 5.19371C44.0552 5.43789 43.8349 5.62002 43.556 5.74011C43.8996 5.86818 44.1623 6.06631 44.3442 6.33452C44.5301 6.59873 44.6231 6.90892 44.6231 7.2652C44.6231 7.82958 44.4008 8.28191 43.9562 8.62213C43.5115 8.96239 42.9274 9.1325 42.2039 9.1325C41.4885 9.1325 40.9166 8.96638 40.4881 8.63415C40.0596 8.30191 39.8292 7.84958 39.7969 7.27717H40.7913Z" fill="#2C117C"/>
<path d="M53.1063 5.85425C53.1063 6.83895 52.805 7.63553 52.2027 8.24395C51.6005 8.85242 50.8224 9.15663 49.8684 9.15663C49.343 9.15663 48.8681 9.06258 48.4436 8.87441C48.0192 8.68226 47.6817 8.4161 47.4311 8.07584V11.4983H46.4004V2.72605H47.3462L47.419 3.81282C47.6454 3.44055 47.9808 3.14634 48.4255 2.93019C48.8741 2.71404 49.3794 2.60596 49.9412 2.60596C50.8709 2.60596 51.6308 2.90817 52.2209 3.5126C52.8111 4.11303 53.1063 4.89359 53.1063 5.85425ZM52.0511 5.86627C52.0511 5.14576 51.847 4.57135 51.4388 4.14305C51.0305 3.71475 50.4768 3.50059 49.7775 3.50059C49.0742 3.50059 48.5063 3.70474 48.0738 4.11303C47.6454 4.52132 47.4311 5.07972 47.4311 5.78823V5.96232C47.4311 6.65084 47.6433 7.20724 48.0677 7.63154C48.4921 8.05185 49.054 8.262 49.7533 8.262C50.4606 8.262 51.0205 8.04986 51.4327 7.62556C51.845 7.20121 52.0511 6.61483 52.0511 5.86627Z" fill="#2C117C"/>
<path d="M54.459 7.39136C54.459 6.84299 54.6588 6.41066 55.0589 6.09443C55.4633 5.7782 56.0453 5.57807 56.8053 5.49399L59.0546 5.23583V5.01367C59.0546 4.50531 58.9052 4.11903 58.6062 3.85484C58.311 3.58666 57.9008 3.45256 57.375 3.45256C56.8212 3.45256 56.385 3.57865 56.0654 3.83083C55.7501 4.07901 55.607 4.41725 55.6351 4.84555H54.6588C54.671 4.15306 54.9275 3.60667 55.4289 3.20638C55.9303 2.8061 56.5949 2.60596 57.4238 2.60596C58.2442 2.60596 58.8908 2.82612 59.3641 3.26643C59.8369 3.70674 60.0733 4.3472 60.0733 5.18779V9.03654H59.1516L59.0912 7.76963C58.8972 8.19393 58.5654 8.53016 58.0969 8.77836C57.6236 9.03051 57.1026 9.15663 56.5323 9.15663C55.9181 9.15663 55.4209 8.99849 55.0409 8.68226C54.653 8.34604 54.459 7.91575 54.459 7.39136ZM59.0546 6.23252V5.96232L57.0051 6.20854C56.4799 6.2806 56.0999 6.40867 55.8656 6.59279C55.6308 6.77292 55.5137 7.0131 55.5137 7.31332C55.5137 7.62556 55.6292 7.86972 55.8592 8.04581C56.094 8.22196 56.4131 8.31003 56.8175 8.31003C57.145 8.31003 57.4519 8.246 57.7392 8.11788C58.0259 7.98577 58.2607 7.81766 58.4425 7.61354C58.6285 7.40937 58.7737 7.18725 58.8787 6.94707C58.9878 6.70285 59.0467 6.46472 59.0546 6.23252Z" fill="#2C117C"/>
<path d="M68.5369 5.96222C68.5369 6.91495 68.2215 7.68545 67.5908 8.27387C66.9607 8.86229 66.1381 9.15653 65.1232 9.15653C64.0075 9.15653 63.159 8.78026 62.577 8.02771C61.9866 7.26719 61.6914 6.24244 61.6914 4.95353C61.6914 3.42444 62.0857 2.21758 62.8738 1.33295C63.6662 0.444317 64.7718 0 66.1906 0C66.9744 0 67.6497 0.114081 68.2157 0.342244V1.25489C67.5484 1.00672 66.8775 0.882629 66.2028 0.882629C65.1232 0.882629 64.2704 1.20286 63.6439 1.84331C63.0175 2.47977 62.6698 3.3684 62.6009 4.50921C62.8192 3.99284 63.1749 3.58655 63.6683 3.29034C64.1612 2.99013 64.7294 2.84002 65.3717 2.84002C66.2897 2.84002 67.0455 3.13223 67.6396 3.71665C68.2374 4.29706 68.5369 5.04559 68.5369 5.96222ZM67.4817 5.95025C67.4817 5.24574 67.2675 4.69935 66.8393 4.31107C66.4148 3.91879 65.8551 3.72265 65.1597 3.72265C64.4485 3.72265 63.8824 3.9288 63.4621 4.34109C63.0456 4.75339 62.8373 5.30179 62.8373 5.98626C62.8373 6.67073 63.0477 7.22115 63.468 7.63742C63.9004 8.05374 64.4644 8.2619 65.1597 8.2619C65.8551 8.2619 66.4148 8.04975 66.8393 7.62546C67.2675 7.20111 67.4817 6.6427 67.4817 5.95025Z" fill="#2C117C"/>
<path d="M71.4403 3.02025C71.9618 2.74405 72.548 2.60596 73.1989 2.60596C73.8497 2.60596 74.4338 2.74405 74.951 3.02025C75.4683 3.29244 75.8748 3.67872 76.1695 4.17908C76.4647 4.67943 76.6126 5.24584 76.6126 5.87829C76.6126 6.85097 76.2909 7.64157 75.6485 8.24999C75.0099 8.85442 74.1931 9.15663 73.1989 9.15663C72.2046 9.15663 71.3863 8.85442 70.7434 8.24999C70.1005 7.64157 69.7793 6.85097 69.7793 5.87829C69.7793 5.24584 69.9266 4.67943 70.2218 4.17908C70.5171 3.67872 70.923 3.29244 71.4403 3.02025ZM73.211 8.24999C73.9101 8.24999 74.474 8.03385 74.9028 7.60152C75.331 7.1652 75.5452 6.59079 75.5452 5.87829C75.5452 5.16578 75.331 4.59137 74.9028 4.15506C74.474 3.71875 73.9101 3.50059 73.211 3.50059C72.5077 3.50059 71.9359 3.71875 71.4949 4.15506C71.0624 4.58336 70.8462 5.16178 70.8462 5.89031C70.8462 6.60281 71.0608 7.17523 71.4891 7.6075C71.9216 8.03584 72.4955 8.24999 73.211 8.24999Z" fill="#2C117C"/>
<path d="M77.4727 2.72607H82.9841V3.6027H80.7406V9.03657H79.722V3.6027H77.4727V2.72607Z" fill="#2C117C"/>
<path d="M83.9238 7.39136C83.9238 6.84299 84.1236 6.41066 84.5238 6.09443C84.9282 5.7782 85.5101 5.57807 86.2701 5.49399L88.5195 5.23583V5.01367C88.5195 4.50531 88.37 4.11903 88.0711 3.85484C87.7759 3.58666 87.3656 3.45256 86.8399 3.45256C86.2866 3.45256 85.8499 3.57865 85.5303 3.83083C85.2154 4.07901 85.0718 4.41725 85.0999 4.84555H84.1236C84.1358 4.15306 84.3929 3.60667 84.8937 3.20638C85.3951 2.8061 86.0597 2.60596 86.8887 2.60596C87.7091 2.60596 88.3557 2.82612 88.829 3.26643C89.3017 3.70674 89.5381 4.3472 89.5381 5.18779V9.03654H88.6165L88.556 7.76963C88.362 8.19393 88.0303 8.53016 87.5617 8.77836C87.0885 9.03051 86.5675 9.15663 85.9972 9.15663C85.3829 9.15663 84.8858 8.99849 84.5058 8.68226C84.1178 8.34604 83.9238 7.91575 83.9238 7.39136ZM88.5195 6.23252V5.96232L86.4705 6.20854C85.9447 6.2806 85.5647 6.40867 85.3305 6.59279C85.0962 6.77292 84.9785 7.0131 84.9785 7.31332C84.9785 7.62556 85.0941 7.86972 85.3241 8.04581C85.5589 8.22196 85.8779 8.31003 86.2823 8.31003C86.6099 8.31003 86.9167 8.246 87.204 8.11788C87.4907 7.98577 87.7255 7.81766 87.9073 7.61354C88.0933 7.40937 88.2386 7.18725 88.3435 6.94707C88.4527 6.70285 88.5115 6.46472 88.5195 6.23252Z" fill="#2C117C"/>
<path d="M96.923 2.72607V9.03657H95.9044V6.31663H92.6846V9.03657H91.6543V2.72607H92.6846V5.44599H95.9044V2.72607H96.923Z" fill="#2C117C"/>
<path d="M100.216 3.02025C100.737 2.74405 101.323 2.60596 101.974 2.60596C102.625 2.60596 103.209 2.74405 103.726 3.02025C104.244 3.29244 104.65 3.67872 104.945 4.17908C105.24 4.67943 105.388 5.24584 105.388 5.87829C105.388 6.85097 105.066 7.64157 104.424 8.24999C103.785 8.85442 102.969 9.15663 101.974 9.15663C100.98 9.15663 100.161 8.85442 99.5188 8.24999C98.8759 7.64157 98.5547 6.85097 98.5547 5.87829C98.5547 5.24584 98.702 4.67943 98.9972 4.17908C99.2924 3.67872 99.6984 3.29244 100.216 3.02025ZM101.986 8.24999C102.686 8.24999 103.249 8.03385 103.678 7.60152C104.106 7.1652 104.321 6.59079 104.321 5.87829C104.321 5.16578 104.106 4.59137 103.678 4.15506C103.249 3.71875 102.686 3.50059 101.986 3.50059C101.283 3.50059 100.711 3.71875 100.27 4.15506C99.8378 4.58336 99.6216 5.16178 99.6216 5.89031C99.6216 6.60281 99.8362 7.17523 100.264 7.6075C100.697 8.03584 101.271 8.24999 101.986 8.24999Z" fill="#2C117C"/>
</g>
<defs>
<clipPath id="clip0_2532_958">
<rect width="106" height="38" fill="white"/>
</clipPath>
</defs>
</svg>
