<svg width="352" height="259" viewBox="0 0 352 259" fill="none" xmlns="http://www.w3.org/2000/svg">
<path d="M54.1435 235.179C-14.0114 203.43 -14.0114 151.958 54.1435 120.191C122.298 88.4235 232.785 88.4416 300.902 120.191C369.019 151.94 369.049 203.412 300.902 235.179C232.755 266.946 122.291 266.934 54.1435 235.179Z" fill="#0A0A29"/>
<path d="M308.139 164.967C302.722 168.112 302.722 173.213 308.139 176.364C313.556 179.514 322.379 179.508 327.814 176.364C333.249 173.219 333.231 168.112 327.814 164.967C322.397 161.823 313.568 161.823 308.139 164.967Z" fill="#1E1E3D"/>
<path d="M39.961 169.678C45.3783 172.829 45.3783 177.929 39.961 181.074C34.5438 184.219 25.7136 184.219 20.2843 181.074C14.855 177.929 14.867 172.829 20.2843 169.678C25.7016 166.527 34.5257 166.533 39.961 169.678Z" fill="#1E1E3D"/>
<path d="M61.9756 182.665L153.621 235.792C153.865 235.914 154.133 235.978 154.406 235.978C154.679 235.978 154.947 235.914 155.191 235.792L286.097 159.975C286.532 159.721 286.532 159.316 286.097 159.068L194.446 106.093C194.203 105.967 193.934 105.902 193.661 105.902C193.388 105.902 193.119 105.967 192.876 106.093L61.9756 181.758C61.8804 181.789 61.7975 181.85 61.7388 181.932C61.6801 182.013 61.6484 182.111 61.6484 182.211C61.6484 182.312 61.6801 182.41 61.7388 182.491C61.7975 182.573 61.8804 182.633 61.9756 182.665Z" fill="#1E1E3D"/>
<path d="M159.842 248.434L146.56 240.662C146.121 240.403 146.121 239.988 146.56 239.741L164.821 229.261C165.068 229.136 165.341 229.071 165.617 229.071C165.893 229.071 166.166 229.136 166.413 229.261L179.5 236.953C179.596 236.985 179.68 237.047 179.74 237.13C179.799 237.214 179.831 237.314 179.831 237.416C179.831 237.519 179.799 237.619 179.74 237.702C179.68 237.786 179.596 237.848 179.5 237.88L161.429 248.465C161.18 248.585 160.907 248.645 160.632 248.64C160.356 248.634 160.086 248.564 159.842 248.434Z" fill="#1E1E3D"/>
<path d="M324.467 138.035L316.822 152.249L317.866 152.748L325.511 138.535L324.467 138.035Z" fill="#263238"/>
<path d="M310.868 137.852L309.869 138.436L317.463 150.007L318.462 149.423L310.868 137.852Z" fill="#263238"/>
<path d="M319.14 136.133V170.041C319.129 170.136 319.093 170.228 319.032 170.306C318.972 170.384 318.891 170.446 318.797 170.486C318.543 170.605 318.262 170.667 317.978 170.667C317.693 170.667 317.412 170.605 317.158 170.486C317.065 170.446 316.985 170.384 316.926 170.306C316.867 170.227 316.831 170.136 316.822 170.041V136.133H319.14Z" fill="#263238"/>
<path d="M345.299 129.251C347.383 120.922 341.986 112.592 333.244 110.646C324.503 108.7 315.727 113.874 313.643 122.203C311.559 130.532 316.956 138.862 325.697 140.808C334.439 142.754 343.215 137.58 345.299 129.251Z" fill="#455A64"/>
<path d="M333.951 121.213C335.974 114.904 338.152 112.433 336.766 111.667C334.165 110.213 331.198 109.523 328.215 109.679C325.231 109.836 322.355 110.832 319.923 112.55C317.492 114.268 315.606 116.637 314.488 119.379C313.369 122.122 313.064 125.123 313.609 128.03C314.153 130.938 315.525 133.632 317.562 135.795C319.599 137.958 322.218 139.5 325.11 140.242C328.002 140.983 331.048 140.892 333.89 139.979C336.731 139.067 339.251 137.37 341.153 135.09C336.508 136.42 331.341 129.399 333.951 121.213Z" fill="#37474F"/>
<path d="M314.506 129.796C314.507 131.959 313.863 134.074 312.654 135.873C311.445 137.673 309.727 139.075 307.716 139.904C305.704 140.732 303.491 140.95 301.356 140.528C299.22 140.107 297.258 139.066 295.718 137.537C294.178 136.008 293.129 134.059 292.704 131.938C292.279 129.816 292.497 127.617 293.329 125.619C294.162 123.62 295.573 121.912 297.383 120.71C299.194 119.508 301.322 118.867 303.499 118.867C306.417 118.867 309.216 120.018 311.28 122.068C313.344 124.117 314.505 126.897 314.506 129.796Z" fill="#455A64"/>
<path d="M303.319 118.867C300.972 118.864 298.684 119.586 296.783 120.93C296.478 127.606 302.26 134.115 300.659 136.303C299.059 138.491 295.03 137.147 293.648 135.304C294.635 136.961 296.05 138.335 297.752 139.289C299.454 140.243 301.382 140.742 303.344 140.738C305.306 140.733 307.232 140.225 308.93 139.263C310.627 138.302 312.035 136.921 313.014 135.26C313.992 133.599 314.506 131.715 314.504 129.799C314.502 127.882 313.983 126 313.001 124.341C312.019 122.682 310.607 121.304 308.908 120.347C307.208 119.389 305.281 118.885 303.319 118.885V118.867Z" fill="#37474F"/>
<path d="M338.483 122.015C340.525 111.076 332.97 100.677 321.61 98.7882C310.25 96.8994 299.386 104.236 297.345 115.175C295.303 126.114 302.858 136.513 314.218 138.402C325.578 140.291 336.442 132.954 338.483 122.015Z" fill="#455A64"/>
<path d="M337.679 122.61C336.96 125.67 335.546 128.524 333.546 130.951C331.547 133.379 329.015 135.315 326.147 136.611C323.279 137.907 320.151 138.527 317.004 138.425C313.858 138.322 310.777 137.499 307.999 136.019C305.222 134.54 302.823 132.442 300.986 129.89C299.149 127.337 297.925 124.398 297.407 121.298C296.889 118.198 297.092 115.021 297.999 112.011C298.906 109.002 300.495 106.241 302.641 103.941C304.066 102.408 304.152 102.342 302.75 103.826C302.392 105.362 302.21 106.933 302.208 108.51C302.205 112.616 303.437 116.629 305.744 120.028C308.052 123.428 311.328 126.057 315.15 127.576C318.972 129.096 323.162 129.434 327.179 128.549C331.196 127.664 334.854 125.595 337.679 122.61Z" fill="#37474F"/>
<path d="M23.0504 144.932L22.0137 145.446L29.4539 159.767L30.4906 159.253L23.0504 144.932Z" fill="#263238"/>
<path d="M37.5308 142.966L30.123 154.655L31.1127 155.254L38.5205 143.564L37.5308 142.966Z" fill="#263238"/>
<path d="M28.9648 141.993V175.906C28.9741 176.001 29.0102 176.091 29.0693 176.168C29.1284 176.246 29.2085 176.307 29.3014 176.346C29.5567 176.465 29.8381 176.526 30.1235 176.526C30.4088 176.526 30.6903 176.465 30.9455 176.346C31.0384 176.307 31.1185 176.246 31.1776 176.168C31.2368 176.091 31.2728 176.001 31.2821 175.906V141.993H28.9648Z" fill="#263238"/>
<path d="M23.0977 146.699C31.824 144.686 37.2646 136.288 35.2495 127.942C33.2344 119.597 24.5268 114.463 15.8004 116.476C7.07409 118.49 1.63355 126.887 3.64864 135.233C5.66373 143.579 14.3714 148.712 23.0977 146.699Z" fill="#455A64"/>
<path d="M14.1399 127.081C12.1117 120.772 9.93949 118.307 11.3256 117.535C13.9259 116.077 16.8923 115.385 19.8765 115.538C22.8606 115.692 25.7384 116.686 28.1718 118.403C30.6051 120.12 32.4929 122.489 33.6132 125.231C34.7336 127.973 35.04 130.975 34.4965 133.884C33.953 136.793 32.5821 139.488 30.5449 141.652C28.5077 143.816 25.8889 145.36 22.9962 146.101C20.1034 146.843 17.057 146.752 14.2147 145.838C11.3725 144.925 8.85263 143.228 6.95117 140.946C11.6017 142.289 16.7802 135.243 14.1399 127.081Z" fill="#37474F"/>
<path d="M33.6016 135.644C33.598 137.808 34.2407 139.924 35.4483 141.725C36.6558 143.526 38.374 144.93 40.3853 145.761C42.3966 146.591 44.6106 146.81 46.7471 146.389C48.8836 145.969 50.8466 144.928 52.3875 143.399C53.9284 141.87 54.978 139.921 55.4035 137.798C55.829 135.676 55.6112 133.476 54.7777 131.477C53.9443 129.478 52.5325 127.769 50.7213 126.568C48.91 125.366 46.7806 124.725 44.6026 124.726C41.687 124.726 38.8907 125.876 36.8279 127.923C34.7652 129.971 33.6047 132.747 33.6016 135.644Z" fill="#455A64"/>
<path d="M44.7849 124.726C47.1322 124.724 49.4203 125.446 51.3222 126.791C51.6266 133.473 45.844 139.987 47.4449 142.177C49.0457 144.366 53.0631 143.022 54.457 141.165C53.4696 142.823 52.0538 144.197 50.3516 145.15C48.6494 146.104 46.7206 146.603 44.7587 146.598C42.7969 146.592 40.8709 146.083 39.174 145.12C37.4772 144.158 36.0691 142.776 35.091 141.114C34.1129 139.451 33.5993 137.567 33.6016 135.649C33.6039 133.732 34.122 131.848 35.1041 130.188C36.0861 128.528 37.4975 127.149 39.1967 126.191C40.8958 125.232 42.823 124.727 44.7849 124.726Z" fill="#37474F"/>
<path d="M34.6515 143.581C46.0007 141.628 53.6002 131.168 51.6255 120.216C49.6509 109.265 38.8498 101.971 27.5006 103.924C16.1515 105.877 8.55195 116.337 10.5266 127.288C12.5013 138.24 23.3024 145.534 34.6515 143.581Z" fill="#455A64"/>
<path d="M10.4277 128.459C11.1452 131.519 12.5578 134.375 14.5565 136.804C16.5552 139.233 19.0866 141.17 21.955 142.468C24.8234 143.765 27.9521 144.386 31.0995 144.285C34.2469 144.183 37.3287 143.36 40.1069 141.88C42.8851 140.4 45.2853 138.303 47.1222 135.75C48.9591 133.196 50.1835 130.256 50.7008 127.155C51.2181 124.055 51.0145 120.877 50.1056 117.867C49.1968 114.858 47.6071 112.097 45.4593 109.798C44.0278 108.266 43.9426 108.205 45.3436 109.683C46.3749 114.07 45.9292 118.675 44.0754 122.784C42.2216 126.893 39.0631 130.279 35.0883 132.416C31.1135 134.554 26.5438 135.324 22.0862 134.609C17.6285 133.894 13.5311 131.732 10.4277 128.459Z" fill="#37474F"/>
<path d="M154.347 230.222L70.9258 182.393V74.8223L154.347 122.627V230.222Z" fill="#407BFF"/>
<path opacity="0.3" d="M154.347 230.222L70.9258 182.393V74.8223L154.347 122.627V230.222Z" fill="white"/>
<path d="M154.35 230.222L277.165 159.148V51.7999L154.35 122.964V230.222Z" fill="#407BFF"/>
<path opacity="0.6" d="M154.35 230.222L277.165 159.148V51.7999L154.35 122.964V230.222Z" fill="white"/>
<path opacity="0.1" d="M74.6322 77.0994L70.9277 79.2293V89.295L153.638 136.982L277.165 65.7702V59.0618L270.546 55.2533L264.724 58.6105L271.342 62.419L153.638 130.274L73.8418 84.2651L80.4604 80.4506L74.6322 77.0994Z" fill="black"/>
<path d="M192.58 6.90674V13.6618L264.381 55.2534L270.209 51.8698L192.58 6.90674Z" fill="#407BFF"/>
<path opacity="0.6" d="M192.58 6.90674V13.6618L264.381 55.2534L270.209 51.8698L192.58 6.90674Z" fill="white"/>
<path opacity="0.15" d="M192.58 6.90674V13.6618L264.381 55.2534L270.209 51.8698L192.58 6.90674Z" fill="black"/>
<path d="M154.346 125.727L63.9727 74.8223V81.4732L154.346 132.378V125.727Z" fill="#407BFF"/>
<path opacity="0.6" d="M154.346 125.727L63.9727 74.8223V81.4732L154.346 132.378V125.727Z" fill="white"/>
<path d="M199.356 3.34022L193.525 0L63.9727 74.2944L153.402 125.471L282.954 51.1527L199.356 3.34022ZM153.3 118.749L75.6408 74.2944L193.525 6.68644L271.274 51.1527L153.3 118.749Z" fill="#407BFF"/>
<path opacity="0.9" d="M199.356 3.34022L193.525 0L63.9727 74.2944L153.402 125.471L282.954 51.1527L199.356 3.34022ZM153.3 118.749L75.6408 74.2944L193.525 6.68644L271.274 51.1527L153.3 118.749Z" fill="white"/>
<path d="M282.952 51.8V58.4512L154.344 132.378V125.727L282.952 51.8Z" fill="#407BFF"/>
<path opacity="0.75" d="M282.952 51.8V58.4512L154.344 132.378V125.727L282.952 51.8Z" fill="white"/>
<path d="M192.579 6.90674V13.6268L81.3511 78.2756L75.5566 74.9156L192.579 6.90674Z" fill="#407BFF"/>
<path opacity="0.75" d="M192.579 6.90674V13.6268L81.3511 78.2756L75.5566 74.9156L192.579 6.90674Z" fill="white"/>
<path d="M193.557 13.8134L265.572 55.1486L153.274 119.716L81.3496 78.3985L193.557 13.8134Z" fill="#407BFF"/>
<path opacity="0.2" d="M193.557 13.8134L265.572 55.1486L153.274 119.716L81.3496 78.3985L193.557 13.8134Z" fill="black"/>
<path opacity="0.1" d="M260.755 57.5556L186.789 17.1845L193.058 6.90674L271.369 51.4997L260.755 57.5556Z" fill="black"/>
<path opacity="0.1" d="M111.878 63.8016L91.4564 75.8346C90.3452 76.4892 90.3452 77.5475 91.4564 78.2021L116.305 92.7494C116.931 93.0719 117.622 93.2399 118.323 93.2399C119.025 93.2399 119.716 93.0719 120.342 92.7494L140.77 80.7041C141.881 80.0495 141.881 78.9851 140.77 78.3367L115.915 63.8016C115.289 63.4791 114.598 63.311 113.897 63.311C113.195 63.311 112.504 63.4791 111.878 63.8016Z" fill="black"/>
<path d="M114.305 56.4044L96.4121 66.3981L115.596 77.1244L133.488 67.1308L114.305 56.4044Z" fill="#FAFAFA"/>
<path d="M96.4121 66.7645V76.761L116.109 87.4845V77.4939L96.4121 66.7645Z" fill="#E0E0E0"/>
<path d="M133.491 67.9155V78.2725L116.111 88.6355V78.2786L133.491 67.9155Z" fill="#F0F0F0"/>
<path d="M109.215 63.5041C106.048 65.306 106.048 68.2179 109.215 70.0197C112.383 71.8216 117.518 71.8157 120.685 70.0197C123.853 68.2237 123.853 65.306 120.685 63.5099C117.518 61.7139 112.383 61.7081 109.215 63.5041Z" fill="#E0E0E0"/>
<path d="M111.502 65.1322C109.919 66.0297 109.919 67.4872 111.502 68.3914C112.401 68.8363 113.379 69.0667 114.37 69.0667C115.36 69.0667 116.338 68.8363 117.237 68.3914C118.821 67.4939 118.821 66.0364 117.237 65.139C116.339 64.6943 115.36 64.4634 114.37 64.4623C113.38 64.4611 112.402 64.6897 111.502 65.1322Z" fill="#FAFAFA"/>
<path d="M124.526 87.4844C124.058 87.4844 123.678 87.2688 123.678 86.9949V81.5229L121.262 80.1184C121.077 80.0138 120.929 79.8542 120.84 79.6619C120.751 79.4695 120.724 79.2542 120.764 79.0462C120.811 78.5275 121.191 78.1546 121.496 78.3119L124.954 80.2991C125.083 80.3735 125.191 80.4805 125.266 80.6094C125.34 80.7382 125.38 80.8844 125.381 81.0333V86.9949C125.381 87.2688 125.018 87.4844 124.526 87.4844Z" fill="#407BFF"/>
<path d="M130.325 84.0312C129.856 84.0312 129.47 83.8098 129.47 83.5418V78.0651L127.058 76.6668C126.874 76.5601 126.726 76.3995 126.636 76.2067C126.546 76.014 126.518 75.7983 126.555 75.5889C126.608 75.0762 126.988 74.6975 127.293 74.8606L130.752 76.8474C130.881 76.9221 130.988 77.0293 131.062 77.1582C131.136 77.2871 131.174 77.4331 131.174 77.5815V83.5418C131.174 83.8098 130.793 84.0312 130.325 84.0312Z" fill="#407BFF"/>
<path d="M198.377 136.982V205.374L167.1 223.316L167.094 154.93L198.377 136.982Z" fill="#407BFF"/>
<path opacity="0.25" d="M198.377 136.982V205.374L167.1 223.316L167.094 154.93L198.377 136.982Z" fill="black"/>
<path opacity="0.15" d="M198.38 136.982L196.062 138.397V203.265L198.38 204.898V136.982Z" fill="black"/>
<path d="M197.056 203.747L199.533 205.39L168.25 223.316V220.249L197.056 203.747Z" fill="#407BFF"/>
<path opacity="0.8" d="M197.056 203.747L199.533 205.39L168.25 223.316V220.249L197.056 203.747Z" fill="white"/>
<path d="M196.06 203.368L167.1 219.862L167.094 154.634L196.06 138.134V203.368Z" fill="#407BFF"/>
<path opacity="0.95" d="M196.06 203.368L167.1 219.862L167.094 154.634L196.06 138.134V203.368Z" fill="white"/>
<path opacity="0.1" d="M196.06 138.134V142.788L167.094 158.854V154.199L196.06 138.134Z" fill="black"/>
<path d="M183.316 146.191L182.158 146.813V215.258L183.316 214.63V146.191Z" fill="#407BFF"/>
<path opacity="0.2" d="M183.316 146.191L182.158 146.813V215.258L183.316 214.63V146.191Z" fill="black"/>
<path d="M182.154 147.342V215.258L180.996 214.641V147.959L182.154 147.342Z" fill="#407BFF"/>
<path opacity="0.4" d="M182.154 147.342V215.258L180.996 214.641V147.959L182.154 147.342Z" fill="black"/>
<path d="M198.375 205.457L199.533 206.049V136.982L198.375 137.581V205.457Z" fill="#407BFF"/>
<path opacity="0.2" d="M198.375 205.457L199.533 206.049V136.982L198.375 137.581V205.457Z" fill="black"/>
<path d="M200.013 206.043L204.167 203.681V130.076L163.615 153.164V226.769L167.776 224.407V155.533L200.013 137.175V206.043Z" fill="#407BFF"/>
<path d="M204.17 129.534L163.495 153.098L162.459 152.495L203.134 128.925L204.17 129.534Z" fill="#407BFF"/>
<path opacity="0.5" d="M204.17 129.534L163.495 153.098L162.459 152.495L203.134 128.925L204.17 129.534Z" fill="white"/>
<path d="M163.617 226.769V152.542L162.459 151.947V226.179L163.617 226.769Z" fill="#407BFF"/>
<path opacity="0.2" d="M162.459 151.947V226.179L163.617 226.769V152.542" fill="black"/>
<path d="M162.457 101.414L164.774 100.147V112.687L162.457 113.96V101.414Z" fill="#455A64"/>
<path d="M251.676 49.6137L253.993 48.3467V60.893L251.676 62.16V49.6137Z" fill="#455A64"/>
<path d="M154.377 75.093L253.564 18.7227C253.797 18.5568 254.07 18.4544 254.356 18.426C254.643 18.3975 254.931 18.4441 255.193 18.5608L259.11 20.8036C259.343 20.9691 259.527 21.1922 259.644 21.4502C259.76 21.7082 259.806 21.992 259.775 22.2728V49.8583C259.731 50.6533 259.496 51.427 259.092 52.1167C258.687 52.8063 258.122 53.3927 257.444 53.8282L158.263 110.198C158.029 110.368 157.753 110.472 157.464 110.499C157.175 110.527 156.884 110.477 156.622 110.354L152.724 108.142C152.486 107.977 152.297 107.752 152.177 107.492C152.057 107.232 152.01 106.945 152.04 106.66V79.0749C152.083 78.2772 152.317 77.5008 152.723 76.8088C153.129 76.1169 153.696 75.529 154.377 75.093Z" fill="#F0F0F0"/>
<path d="M158.258 110.201C158.025 110.369 157.749 110.473 157.46 110.5C157.172 110.527 156.881 110.477 156.619 110.356L152.723 108.163C152.486 108 152.297 107.778 152.177 107.52C152.057 107.262 152.01 106.977 152.04 106.695V79.3592C152.07 78.57 152.305 77.8011 152.723 77.1248L156.612 79.3176L182.156 96.7533L158.258 110.201Z" fill="#E0E0E0"/>
<path d="M257.361 21.0249L157.764 77.3471C157.082 77.7812 156.515 78.3668 156.108 79.0561C155.701 79.7454 155.467 80.5189 155.424 81.3137V108.876C155.424 110.332 156.471 110.925 157.764 110.194L257.361 53.8715C258.042 53.4364 258.608 52.8506 259.015 52.1615C259.421 51.4724 259.656 50.6994 259.701 49.905V22.3431C259.701 20.905 258.653 20.3059 257.361 21.0249Z" fill="#FAFAFA"/>
<path d="M183.792 80.4018C182.753 80.8857 182.055 80.3494 182.055 79.0609C182.023 78.4978 182.164 77.9369 182.467 77.4283C182.77 76.9197 183.225 76.4791 183.792 76.1459C184.831 75.6679 185.522 76.2042 185.522 77.4868C185.556 78.0495 185.416 78.6102 185.114 79.1189C184.812 79.6276 184.358 80.0683 183.792 80.4018Z" fill="#2D56B3"/>
<path d="M195.686 75.7022C195.686 72.3077 190.302 74.9995 190.302 69.747C190.33 68.5558 190.687 67.3916 191.338 66.3686C191.99 65.3455 192.915 64.4986 194.021 63.9109C194.383 63.6796 194.816 63.565 195.254 63.5843C195.692 63.6036 196.111 63.7559 196.449 64.0181C196.644 63.4329 196.924 62.8757 197.281 62.3625L197.656 62.16V66.3287L197.053 66.6562C197.053 66.6562 196.366 63.1962 194.326 64.2741C193.563 64.6851 192.883 66.0607 192.883 67.4602C192.883 71.1763 198.267 68.4845 198.267 73.2963C198.229 74.6275 197.825 75.927 197.095 77.0693C196.364 78.2116 195.332 79.1581 194.097 79.8173C192.355 80.7582 191.364 79.8709 191.364 79.8709C191.169 80.4561 190.889 81.0132 190.531 81.5264L190.156 81.7289V77.5603L190.76 77.2268C190.76 77.2268 191.44 80.6868 193.792 79.4183C194.936 78.8466 195.686 77.3399 195.686 75.7022Z" fill="#407BFF"/>
<path d="M204.184 65.8622C204.184 63.8156 203.573 63.2451 203.034 63.5428C202.115 64.0575 201.653 66.1351 201.653 66.1351V74.5632L202.578 74.3895V74.7306L198.268 77.1245V76.7834L199.186 75.9275V61.3536L198.268 61.521V61.1799L200.259 60.0698C201.175 59.553 201.633 59.9809 201.633 61.3536V64.994C201.999 63.9479 202.698 63.0404 203.631 62.4017C205.391 61.4218 206.618 62.5629 206.618 64.4978V71.7848L207.537 71.6174V71.9585L205.545 73.0686C204.62 73.5771 204.164 73.1554 204.164 71.7848L204.184 65.8622Z" fill="#407BFF"/>
<path d="M216.806 60.55C216.806 64.17 215.272 67.1866 212.751 68.5486C210.229 69.9105 208.695 68.5486 208.695 64.9107C208.695 61.2728 210.222 58.2741 212.751 56.9181C215.279 55.5621 216.806 56.93 216.806 60.55ZM214.201 61.9538C214.201 57.6708 213.437 56.9838 212.751 57.3542C212.064 57.7245 211.294 59.2358 211.294 63.5129C211.294 67.7899 212.064 68.4769 212.751 68.1065C213.437 67.7362 214.201 66.2308 214.201 61.9538Z" fill="#407BFF"/>
<path d="M217.683 54.4653L216.807 54.6325V54.2918L218.118 53.5237C218.264 53.4057 218.44 53.3301 218.626 53.3046C218.811 53.2792 219.001 53.3049 219.173 53.3791C219.346 53.4534 219.495 53.5733 219.606 53.7263C219.717 53.8793 219.784 54.0597 219.802 54.2484C219.802 54.2484 220.384 51.8574 221.922 50.9654C223.6 49.9805 224.917 51.2627 224.917 55.2457C224.917 59.2288 223.6 62.0596 221.701 63.1498C221.46 63.3293 221.172 63.4323 220.873 63.4455C220.574 63.4587 220.278 63.3817 220.023 63.2242V67.6594L220.899 67.4859V67.8266L216.807 70.2177V69.8522L217.683 68.9974V54.4653ZM220.023 62.518C220.023 62.518 220.531 63.1375 221.113 62.7906C221.848 62.3632 222.43 61.1119 222.43 56.6767C222.43 52.3406 221.848 51.7831 221.333 52.0866C220.458 52.5945 220.023 54.6697 220.023 54.6697V62.518Z" fill="#407BFF"/>
<path d="M231.323 55.0783C230.239 55.5597 229.52 55.0261 229.52 53.7503C229.52 52.4744 230.239 51.2971 231.323 50.8215C232.407 50.346 233.134 50.8737 233.134 52.1496C233.177 52.7149 233.034 53.2794 232.718 53.7912C232.401 54.303 231.922 54.7456 231.323 55.0783Z" fill="#2D56B3"/>
<path d="M211.121 128.298V181.876L267.894 149.102V95.5422L211.121 128.298Z" fill="#407BFF"/>
<path d="M211.121 128.298V181.876L267.894 149.102V95.5422L211.121 128.298Z" fill="#407BFF"/>
<path d="M263.26 101.298L214.598 129.843V174.969L263.26 146.418V101.298Z" fill="#455A64"/>
<path d="M214.598 171.516V170.589L263.26 141.587V142.519L214.598 171.516Z" fill="#37474F"/>
<path d="M214.598 165.76V164.834L263.26 135.831V136.763L214.598 165.76Z" fill="#37474F"/>
<path d="M214.598 161.155V160.229L263.26 131.227V132.153L214.598 161.155Z" fill="#37474F"/>
<path d="M214.598 155.4V154.474L263.26 125.471V126.403L214.598 155.4Z" fill="#37474F"/>
<path d="M214.598 150.796V149.869L263.26 120.867V121.793L214.598 150.796Z" fill="#37474F"/>
<path d="M214.598 145.04V144.114L263.26 115.111V116.037L214.598 145.04Z" fill="#37474F"/>
<path d="M214.598 140.436V139.509L263.26 110.507V111.433L214.598 140.436Z" fill="#37474F"/>
<path d="M214.598 134.68V133.754L263.26 104.751V105.677L214.598 134.68Z" fill="#37474F"/>
<path d="M264.42 147.342L263.262 146.49V100.999L264.42 100.147V147.342Z" fill="#407BFF"/>
<path opacity="0.2" d="M264.42 147.342L263.262 146.49V100.999L264.42 100.147V147.342Z" fill="black"/>
<path d="M211.123 181.876L209.965 181.035V127.773L211.123 128.608V181.876Z" fill="#407BFF"/>
<path opacity="0.2" d="M211.123 181.876L209.965 181.035V127.773L211.123 128.608V181.876Z" fill="black"/>
<path d="M265.578 147.028L264.12 146.191L214.598 174.453V176.12L265.578 147.028Z" fill="#407BFF"/>
<path opacity="0.5" d="M265.578 147.028L264.12 146.191L214.598 174.453V176.12L265.578 147.028Z" fill="white"/>
<path d="M267.897 95.2249L266.448 94.3911L209.965 126.928L211.419 127.773L267.897 95.2249Z" fill="#407BFF"/>
<path opacity="0.5" d="M267.897 95.2249L266.448 94.3911L209.965 126.928L211.419 127.773L267.897 95.2249Z" fill="white"/>
<path d="M206.486 126.625V119.716L220.39 134.68L206.486 126.625Z" fill="#E0E0E0"/>
<path d="M285.276 100.246C285.221 101.297 284.931 102.319 284.431 103.23C283.93 104.14 283.232 104.914 282.394 105.489H282.364C280.775 106.455 279.482 105.669 279.482 103.743V100.209L285.276 96.6934V100.246Z" fill="#EBEBEB"/>
<path d="M273.69 107.147C273.635 108.198 273.345 109.221 272.845 110.133C272.344 111.045 271.646 111.82 270.808 112.395H270.778C269.183 113.362 267.896 112.576 267.896 110.644V107.116L273.69 103.6V107.147Z" fill="#EBEBEB"/>
<path d="M260.916 114.055C260.863 115.106 260.575 116.129 260.075 117.041C259.574 117.952 258.876 118.726 258.037 119.301C256.44 120.267 255.152 119.488 255.152 117.554V114.024L260.946 110.507L260.916 114.055Z" fill="#EBEBEB"/>
<path d="M249.356 120.955C249.302 122.008 249.013 123.032 248.512 123.945C248.01 124.858 247.311 125.633 246.471 126.208H246.441C244.851 127.176 243.562 126.389 243.562 124.459V120.936L249.356 117.413V120.955Z" fill="#EBEBEB"/>
<path d="M237.77 127.879C237.714 128.929 237.424 129.95 236.923 130.86C236.422 131.769 235.724 132.542 234.885 133.116H234.855C233.265 134.082 231.977 133.296 231.977 131.364V127.83L237.77 124.32V127.879Z" fill="#EBEBEB"/>
<path d="M226.184 134.779C226.13 135.83 225.841 136.852 225.34 137.763C224.839 138.674 224.141 139.447 223.302 140.021H223.272C221.683 140.987 220.391 140.208 220.391 138.276V134.742L226.184 131.227V134.779Z" fill="#EBEBEB"/>
<path d="M220.275 134.68L285.273 97.5182L271.485 82.88L206.486 120.042L220.275 134.68Z" fill="#FAFAFA"/>
<path d="M226.066 131.227L212.279 116.258L218.183 112.809L231.976 127.771L226.066 131.227Z" fill="#407BFF"/>
<path d="M237.656 124.32L223.869 109.357L229.773 105.902L243.566 120.865L237.656 124.32Z" fill="#407BFF"/>
<path d="M249.242 117.413L235.455 102.45L241.359 98.9955L255.152 113.959L249.242 117.413Z" fill="#407BFF"/>
<path d="M261.984 110.507L248.197 95.5445L254.108 92.0889L267.894 107.057L261.984 110.507Z" fill="#407BFF"/>
<path d="M273.57 104.751L259.783 89.7877L265.693 86.3333L279.48 101.297L273.57 104.751Z" fill="#407BFF"/>
<path d="M279.481 103.7C279.426 104.75 279.137 105.773 278.636 106.683C278.136 107.594 277.438 108.368 276.599 108.942H276.569C274.98 109.908 273.688 109.123 273.688 107.191V103.662L279.481 100.147V103.7Z" fill="#407BFF"/>
<path d="M267.867 110.605C267.812 111.656 267.523 112.678 267.022 113.59C266.522 114.501 265.824 115.276 264.985 115.852C263.396 116.811 262.104 116.032 262.104 114.101V110.568L267.897 107.053L267.867 110.605Z" fill="#407BFF"/>
<path d="M255.149 117.513C255.094 118.563 254.804 119.585 254.304 120.495C253.803 121.406 253.105 122.18 252.267 122.754H252.237C250.648 123.72 249.355 122.941 249.355 121.009V117.475L255.149 113.96V117.513Z" fill="#407BFF"/>
<path d="M243.561 124.42C243.506 125.47 243.216 126.492 242.715 127.403C242.215 128.313 241.517 129.087 240.679 129.662H240.649C239.06 130.628 237.768 129.843 237.768 127.911V124.382L243.561 120.867V124.42Z" fill="#407BFF"/>
<path d="M231.973 131.325C231.918 132.376 231.629 133.399 231.128 134.31C230.627 135.221 229.93 135.996 229.091 136.572H229.061C227.466 137.531 226.18 136.753 226.18 134.821V131.288L231.973 127.773V131.325Z" fill="#407BFF"/>
<g opacity="0.2">
<path d="M279.479 103.7C279.424 104.75 279.135 105.772 278.634 106.683C278.134 107.594 277.436 108.368 276.597 108.942H276.567C274.978 109.908 273.686 109.123 273.686 107.19V103.662L279.479 100.147V103.7Z" fill="black"/>
<path d="M267.857 110.605C267.803 111.656 267.513 112.678 267.012 113.59C266.512 114.501 265.814 115.276 264.976 115.852C263.386 116.811 262.094 116.032 262.094 114.101V110.568L267.887 107.053L267.857 110.605Z" fill="black"/>
<path d="M255.147 117.512C255.092 118.563 254.803 119.585 254.302 120.495C253.801 121.406 253.103 122.18 252.265 122.754H252.235C250.646 123.72 249.354 122.941 249.354 121.009V117.475L255.147 113.96V117.512Z" fill="black"/>
<path d="M243.559 124.42C243.504 125.47 243.214 126.492 242.713 127.402C242.213 128.313 241.515 129.087 240.677 129.662H240.647C239.058 130.628 237.766 129.843 237.766 127.91V124.382L243.559 120.866V124.42Z" fill="black"/>
<path d="M231.973 130.174C231.918 131.225 231.629 132.247 231.128 133.159C230.627 134.07 229.93 134.845 229.091 135.42H229.061C227.466 136.38 226.18 135.601 226.18 133.669V130.136L231.973 126.622V130.174Z" fill="black"/>
</g>
<g opacity="0.1">
<path d="M226.064 131.227L212.277 116.258L218.182 112.809L231.974 127.771L226.064 131.227Z" fill="black"/>
<path d="M237.65 125.471L223.863 110.508L229.768 107.053L243.56 122.017L237.65 125.471Z" fill="black"/>
<path d="M249.238 118.565L235.451 103.601L241.355 100.147L255.148 115.11L249.238 118.565Z" fill="black"/>
<path d="M261.978 111.658L248.191 96.6956L254.102 93.24L267.888 108.208L261.978 111.658Z" fill="black"/>
<path d="M273.57 104.751L259.783 89.7877L265.694 86.3333L279.48 101.297L273.57 104.751Z" fill="black"/>
</g>
<path opacity="0.15" d="M227.344 143.107L251.675 128.924V146.973L227.344 161.156V143.107Z" fill="black"/>
<path d="M228.371 143.104L253.844 128.924V146.97L228.371 161.156V143.104Z" fill="#407BFF"/>
<path d="M233.096 146.461C233.362 146.309 233.666 146.217 233.981 146.194C234.221 146.179 234.462 146.224 234.676 146.325C234.87 146.425 235.027 146.573 235.131 146.751C235.243 146.938 235.304 147.147 235.308 147.359C235.306 147.424 235.289 147.488 235.257 147.547C235.235 147.596 235.198 147.64 235.15 147.672L234.164 148.183C234.114 148.214 234.054 148.229 233.993 148.229C233.945 148.219 233.899 148.2 233.861 148.172L233.791 148.104C233.751 148.069 233.704 148.042 233.652 148.024C233.579 148.011 233.504 148.011 233.431 148.024C233.312 148.042 233.198 148.081 233.096 148.138C233.001 148.189 232.911 148.246 232.824 148.308C232.738 148.369 232.66 148.437 232.59 148.513C232.522 148.586 232.467 148.669 232.426 148.757C232.382 148.851 232.361 148.951 232.363 149.053C232.356 149.132 232.381 149.21 232.432 149.274C232.465 149.3 232.503 149.319 232.545 149.33C232.586 149.342 232.629 149.346 232.672 149.342C232.824 149.337 232.975 149.316 233.121 149.28L233.81 149.121C234.044 149.058 234.287 149.029 234.531 149.036C234.72 149.042 234.902 149.104 235.049 149.212C235.197 149.338 235.303 149.499 235.352 149.678C235.428 149.937 235.463 150.205 235.453 150.473C235.454 150.824 235.396 151.172 235.283 151.508C235.047 152.188 234.628 152.804 234.063 153.303C233.785 153.553 233.473 153.768 233.134 153.946C232.851 154.103 232.534 154.203 232.205 154.241C231.954 154.267 231.701 154.226 231.478 154.122C231.272 154.022 231.106 153.867 231.004 153.679C230.882 153.466 230.819 153.23 230.82 152.991C230.822 152.926 230.839 152.862 230.871 152.803C230.893 152.754 230.93 152.71 230.978 152.678L231.964 152.173C232.011 152.139 232.069 152.121 232.129 152.121C232.173 152.127 232.214 152.142 232.249 152.167C232.281 152.195 232.31 152.226 232.337 152.258C232.386 152.301 232.441 152.337 232.502 152.366C232.581 152.398 232.668 152.412 232.754 152.406C232.889 152.387 233.018 152.345 233.134 152.281C233.38 152.156 233.603 151.999 233.797 151.815C233.966 151.664 234.063 151.46 234.069 151.246C234.075 151.206 234.068 151.166 234.05 151.129C234.032 151.092 234.004 151.06 233.968 151.036C233.878 150.996 233.776 150.982 233.677 150.996C233.508 151.008 233.34 151.037 233.178 151.081C232.976 151.133 232.736 151.189 232.457 151.246C232.269 151.314 232.064 151.334 231.864 151.302C231.664 151.271 231.478 151.191 231.326 151.07C231.049 150.706 230.923 150.265 230.972 149.825C230.976 149.51 231.024 149.197 231.117 148.893C231.221 148.568 231.363 148.254 231.541 147.956C231.728 147.652 231.955 147.37 232.217 147.115C232.47 146.856 232.766 146.636 233.096 146.461Z" fill="#455A64"/>
<path d="M236.493 147.08C236.508 146.676 236.568 146.275 236.674 145.882C236.776 145.487 236.928 145.104 237.128 144.741C237.317 144.387 237.555 144.057 237.837 143.759C238.109 143.465 238.436 143.215 238.801 143.023C239.089 142.855 239.419 142.756 239.759 142.738C240.02 142.733 240.274 142.814 240.475 142.966C240.686 143.147 240.843 143.375 240.929 143.628C241.04 143.954 241.1 144.292 241.109 144.632C241.109 144.923 241.109 145.237 241.109 145.563C241.109 145.888 241.109 146.202 241.109 146.493C241.083 146.884 241.016 147.272 240.91 147.651C240.801 148.045 240.649 148.427 240.456 148.792C240.264 149.146 240.024 149.476 239.741 149.774C239.467 150.064 239.144 150.311 238.783 150.504C238.492 150.673 238.161 150.773 237.818 150.795C237.559 150.803 237.306 150.721 237.109 150.567C236.895 150.386 236.738 150.155 236.655 149.899C236.541 149.575 236.48 149.236 236.475 148.895C236.475 148.615 236.475 148.324 236.475 147.982C236.475 147.64 236.481 147.36 236.493 147.08ZM239.741 147.166C239.741 147.04 239.741 146.898 239.741 146.744C239.741 146.59 239.741 146.43 239.741 146.27C239.741 146.11 239.741 145.956 239.741 145.808C239.741 145.66 239.741 145.528 239.741 145.414C239.732 145.265 239.705 145.118 239.66 144.975C239.63 144.867 239.57 144.769 239.485 144.689C239.407 144.623 239.306 144.584 239.199 144.581C239.058 144.589 238.921 144.63 238.801 144.701C238.65 144.779 238.515 144.882 238.403 145.003C238.287 145.127 238.19 145.265 238.117 145.414C238.039 145.566 237.979 145.725 237.937 145.888C237.896 146.059 237.871 146.232 237.862 146.407C237.862 146.533 237.862 146.67 237.862 146.824C237.862 146.978 237.862 147.126 237.862 147.286C237.862 147.446 237.862 147.605 237.862 147.754C237.862 147.902 237.862 148.045 237.862 148.165C237.852 148.428 237.943 148.686 238.117 148.895C238.266 149.043 238.496 149.038 238.801 148.895C239.104 148.732 239.342 148.484 239.479 148.187C239.637 147.857 239.725 147.503 239.741 147.143V147.166Z" fill="#455A64"/>
<path d="M242.268 143.598C242.286 143.197 242.347 142.8 242.449 142.41C242.554 142.017 242.707 141.636 242.905 141.274C243.097 140.922 243.336 140.594 243.617 140.297C243.89 140.004 244.217 139.758 244.584 139.569C244.872 139.395 245.207 139.297 245.552 139.285C245.812 139.277 246.066 139.359 246.263 139.512C246.481 139.686 246.639 139.913 246.719 140.166C246.833 140.489 246.894 140.826 246.9 141.166C246.9 141.461 246.9 141.768 246.9 142.098C246.9 142.427 246.9 142.728 246.9 143.018C246.886 143.421 246.825 143.82 246.719 144.211C246.616 144.605 246.463 144.986 246.263 145.348C246.075 145.701 245.836 146.029 245.552 146.325C245.274 146.613 244.947 146.858 244.584 147.052C244.295 147.223 243.961 147.323 243.617 147.342C243.357 147.35 243.103 147.269 242.905 147.115C242.69 146.934 242.533 146.705 242.449 146.45C242.338 146.126 242.277 145.789 242.268 145.45C242.268 145.172 242.268 144.882 242.268 144.541C242.268 144.2 242.262 143.922 242.268 143.598ZM245.527 143.689C245.527 143.558 245.527 143.416 245.527 143.262C245.527 143.109 245.527 142.95 245.527 142.791C245.527 142.632 245.527 142.478 245.527 142.331C245.527 142.183 245.527 142.058 245.527 141.939C245.518 141.791 245.493 141.644 245.452 141.501C245.416 141.395 245.354 141.298 245.271 141.217C245.233 141.183 245.188 141.157 245.139 141.139C245.089 141.122 245.037 141.113 244.984 141.115C244.842 141.118 244.703 141.158 244.584 141.228C244.432 141.308 244.297 141.412 244.185 141.535C244.069 141.657 243.973 141.793 243.898 141.939C243.82 142.089 243.761 142.247 243.723 142.41C243.68 142.582 243.653 142.757 243.642 142.933C243.642 143.05 243.642 143.187 243.642 143.342V144.274C243.642 144.422 243.642 144.558 243.642 144.677C243.632 144.939 243.723 145.196 243.898 145.404C244.047 145.558 244.278 145.552 244.584 145.404C244.891 145.247 245.13 145.001 245.265 144.706C245.417 144.389 245.506 144.05 245.527 143.706V143.689Z" fill="#455A64"/>
<path d="M251.655 143.188C251.562 143.239 251.488 143.245 251.435 143.188C251.392 143.163 251.355 143.129 251.329 143.088L249.518 140.139V144.023C249.518 144.11 249.495 144.196 249.452 144.274C249.425 144.346 249.374 144.408 249.305 144.449L248.267 145.014C248.245 145.031 248.218 145.04 248.19 145.04C248.162 145.04 248.135 145.031 248.114 145.014C248.069 144.963 248.048 144.898 248.054 144.832V137.423C248.054 137.336 248.074 137.25 248.114 137.172C248.145 137.1 248.198 137.039 248.267 136.996L249.092 136.544C249.124 136.525 249.161 136.514 249.199 136.514C249.237 136.514 249.274 136.525 249.305 136.544C249.349 136.569 249.385 136.604 249.412 136.645L251.222 139.575V135.697C251.223 135.609 251.243 135.521 251.282 135.44C251.313 135.37 251.366 135.31 251.435 135.271L252.467 134.706C252.488 134.689 252.515 134.68 252.543 134.68C252.571 134.68 252.598 134.689 252.62 134.706C252.644 134.732 252.662 134.762 252.673 134.794C252.685 134.826 252.689 134.86 252.687 134.894V142.31C252.683 142.397 252.66 142.483 252.62 142.561C252.589 142.633 252.536 142.694 252.467 142.737L251.655 143.188Z" fill="#455A64"/>
<path d="M136.968 149.02V202.596L80.2014 169.826L80.1953 116.262L136.968 149.02Z" fill="#407BFF"/>
<path d="M136.968 149.02V202.596L80.2014 169.826L80.1953 116.262L136.968 149.02Z" fill="#407BFF"/>
<path opacity="0.1" d="M136.968 149.02V202.596L80.2014 169.826L80.1953 116.262L136.968 149.02Z" fill="black"/>
<path d="M84.8281 122.018L133.491 150.569V195.689L84.8281 167.144V122.018Z" fill="#455A64"/>
<path d="M133.491 192.236V191.309L84.8281 162.307V163.233L133.491 192.236Z" fill="#37474F"/>
<path d="M133.491 186.48V185.554L84.8281 156.551V157.477L133.491 186.48Z" fill="#37474F"/>
<path d="M133.491 181.876V180.949L84.8281 151.947V152.873L133.491 181.876Z" fill="#37474F"/>
<path d="M133.491 176.12V175.194L84.8281 146.191V147.117L133.491 176.12Z" fill="#37474F"/>
<path d="M133.491 171.516V170.583L84.8281 141.587V142.513L133.491 171.516Z" fill="#37474F"/>
<path d="M133.491 165.76V164.828L84.8281 135.831V136.757L133.491 165.76Z" fill="#37474F"/>
<path d="M133.491 161.156V160.223L84.8281 131.227V132.153L133.491 161.156Z" fill="#37474F"/>
<path d="M133.491 155.4V154.468L84.8281 125.471V126.397L133.491 155.4Z" fill="#37474F"/>
<path d="M83.6719 168.062L84.8297 167.216V121.719L83.6719 120.867V168.062Z" fill="#407BFF"/>
<path opacity="0.35" d="M83.6719 168.062L84.8297 167.216V121.719L83.6719 120.867V168.062Z" fill="black"/>
<path d="M136.969 202.596L138.127 201.761V148.493L136.969 149.328V202.596Z" fill="#407BFF"/>
<path opacity="0.35" d="M136.969 202.596L138.127 201.761V148.493L136.969 149.328V202.596Z" fill="black"/>
<path d="M83.6719 167.742L85.1291 166.911L134.652 195.173V196.84L83.6719 167.742Z" fill="#407BFF"/>
<path opacity="0.2" d="M83.6719 167.742L85.1291 166.911L134.652 195.173V196.84L83.6719 167.742Z" fill="black"/>
<path d="M80.1953 115.945L81.6498 115.111L138.127 147.653L136.673 148.493L80.1953 115.945Z" fill="#407BFF"/>
<path opacity="0.5" d="M80.1953 115.945L81.6498 115.111L138.127 147.653L136.673 148.493L80.1953 115.945Z" fill="white"/>
<path d="M141.603 147.339V140.436L127.699 155.4L141.603 147.339Z" fill="#E0E0E0"/>
<path d="M62.8164 120.96C62.8698 122.011 63.1586 123.034 63.6594 123.946C64.1602 124.858 64.8587 125.633 65.6982 126.208H65.7278C67.3169 127.174 68.6096 126.395 68.6096 124.462V120.929L62.8164 117.413V120.96Z" fill="#EBEBEB"/>
<path d="M74.432 127.873C74.4868 128.923 74.7762 129.946 75.2769 130.856C75.7776 131.767 76.4754 132.541 77.3138 133.115C78.9029 134.082 80.1955 133.296 80.1955 131.37V127.836L74.4023 124.32L74.432 127.873Z" fill="#EBEBEB"/>
<path d="M85.9883 134.766C86.0434 135.818 86.3343 136.843 86.8375 137.756C87.3407 138.669 88.0421 139.445 88.8849 140.021C90.4822 140.989 91.7814 140.203 91.7814 138.267V134.735L85.9883 131.227V134.766Z" fill="#EBEBEB"/>
<path d="M98.7601 141.68C98.8149 142.731 99.1043 143.754 99.605 144.665C100.106 145.577 100.803 146.352 101.642 146.928C103.231 147.894 104.524 147.115 104.524 145.182V141.649L98.7305 138.133L98.7601 141.68Z" fill="#EBEBEB"/>
<path d="M110.32 148.582C110.375 149.634 110.665 150.658 111.165 151.571C111.666 152.484 112.364 153.259 113.202 153.835H113.232C114.821 154.803 116.113 154.016 116.113 152.086V148.563L110.32 145.04V148.582Z" fill="#EBEBEB"/>
<path d="M121.906 155.494C121.96 156.545 122.249 157.569 122.75 158.481C123.251 159.393 123.951 160.168 124.791 160.742H124.821C126.411 161.708 127.699 160.923 127.699 158.991V155.462L121.906 151.947V155.494Z" fill="#EBEBEB"/>
<path d="M127.814 154.249L62.8164 117.085L76.6061 102.449L141.603 139.612L127.814 154.249Z" fill="#FAFAFA"/>
<path d="M122.022 151.947L135.808 136.983L129.898 133.529L116.111 148.492L122.022 151.947Z" fill="#407BFF"/>
<path d="M110.436 145.04L124.222 130.077L118.312 126.622L104.525 141.586L110.436 145.04Z" fill="#407BFF"/>
<path d="M98.8497 138.133L112.636 123.164L106.726 119.716L92.9395 134.679L98.8497 138.133Z" fill="#407BFF"/>
<path d="M86.1056 131.227L99.8921 116.263L93.9818 112.809L80.1953 127.772L86.1056 131.227Z" fill="#407BFF"/>
<path d="M74.5177 124.32L88.3042 109.357L82.394 105.902L68.6074 120.865L74.5177 124.32Z" fill="#407BFF"/>
<path d="M68.6371 124.419C68.6909 125.47 68.98 126.492 69.4807 127.403C69.9815 128.314 70.6798 129.087 71.5188 129.661C73.1139 130.627 74.4006 129.848 74.4006 127.916V124.382L68.6074 120.867L68.6371 124.419Z" fill="#407BFF"/>
<path d="M80.225 131.303C80.2792 132.358 80.568 133.383 81.0682 134.298C81.5683 135.212 82.2657 135.99 83.1038 136.567C84.7005 137.537 85.9885 136.749 85.9885 134.808V131.303L80.1953 127.773L80.225 131.303Z" fill="#407BFF"/>
<path d="M92.9395 138.227C92.9929 139.278 93.282 140.302 93.7833 141.214C94.2846 142.126 94.9838 142.901 95.8242 143.476H95.8538C97.4446 144.442 98.7326 143.656 98.7326 141.724V138.19L92.9395 134.68V138.227Z" fill="#407BFF"/>
<path d="M104.549 145.139C104.603 146.19 104.893 147.213 105.396 148.124C105.898 149.035 106.598 149.808 107.44 150.381C109.031 151.347 110.319 150.568 110.319 148.636V145.102L104.525 141.587L104.549 145.139Z" fill="#407BFF"/>
<path d="M116.141 152.046C116.195 153.097 116.485 154.119 116.985 155.03C117.486 155.941 118.184 156.715 119.023 157.289C120.612 158.255 121.904 157.47 121.904 155.537V152.009L116.111 148.493L116.141 152.046Z" fill="#407BFF"/>
<g opacity="0.2">
<path d="M68.6371 124.419C68.6909 125.47 68.98 126.492 69.4807 127.403C69.9815 128.314 70.6798 129.087 71.5189 129.661C73.1139 130.627 74.4006 129.848 74.4006 127.916V124.382L68.6074 120.867L68.6371 124.419Z" fill="black"/>
<path d="M80.2211 131.303C80.2753 132.358 80.5641 133.383 81.0643 134.298C81.5644 135.212 82.2618 135.99 83.0999 136.567C84.6966 137.537 85.9846 136.749 85.9846 134.808V131.303L80.1914 127.773L80.2211 131.303Z" fill="black"/>
<path d="M91.7812 138.227C91.8347 139.278 92.1238 140.302 92.6251 141.214C93.1264 142.126 93.8257 142.901 94.666 143.476H94.6957C96.2864 144.442 97.5745 143.656 97.5745 141.724V138.19L91.7812 134.68V138.227Z" fill="black"/>
<path d="M104.547 145.139C104.601 146.19 104.891 147.213 105.394 148.124C105.896 149.035 106.597 149.808 107.438 150.381C109.029 151.347 110.317 150.568 110.317 148.636V145.102L104.523 141.587L104.547 145.139Z" fill="black"/>
<path d="M116.141 150.895C116.195 151.946 116.485 152.968 116.985 153.879C117.486 154.79 118.184 155.564 119.023 156.138C120.612 157.104 121.905 156.319 121.905 154.386V150.858L116.111 147.342L116.141 150.895Z" fill="black"/>
</g>
<g opacity="0.1">
<path d="M122.022 150.796L135.808 135.832L129.898 132.378L116.111 147.341L122.022 150.796Z" fill="black"/>
<path d="M110.434 145.04L124.22 130.077L118.31 126.622L104.523 141.586L110.434 145.04Z" fill="black"/>
<path d="M97.6915 138.133L111.478 123.164L105.568 119.716L91.7812 134.679L97.6915 138.133Z" fill="black"/>
<path d="M86.1017 131.227L99.8883 116.264L93.978 112.809L80.1914 127.772L86.1017 131.227Z" fill="black"/>
<path d="M74.5177 124.32L88.3043 109.357L82.394 105.902L68.6074 120.866L74.5177 124.32Z" fill="black"/>
</g>
<path opacity="0.15" d="M119.587 162.673L95.2559 148.493V166.539L119.587 180.724V162.673Z" fill="black"/>
<path d="M119.587 163.824L95.2559 149.645V167.696L119.587 181.876V163.824Z" fill="#407BFF"/>
<path d="M98.6488 157.961C98.9798 158.133 99.2783 158.35 99.5335 158.604C99.7976 158.866 100.031 159.152 100.229 159.457C100.414 159.741 100.566 160.042 100.684 160.354C100.785 160.604 100.843 160.867 100.854 161.133C100.86 161.181 100.844 161.23 100.81 161.268C100.794 161.279 100.774 161.285 100.753 161.285C100.733 161.285 100.713 161.279 100.696 161.268L99.7167 160.76C99.6505 160.728 99.5924 160.684 99.5461 160.63C99.4948 160.57 99.4504 160.506 99.4134 160.438L99.3439 160.297C99.3018 160.222 99.2554 160.148 99.2049 160.077C99.1371 159.989 99.061 159.906 98.9774 159.829C98.8816 159.737 98.7708 159.659 98.6488 159.598C98.5608 159.555 98.47 159.518 98.3771 159.485C98.3021 159.46 98.2231 159.447 98.1432 159.445C98.1109 159.446 98.0792 159.454 98.0506 159.467C98.0221 159.481 97.9976 159.501 97.9789 159.524C97.9265 159.59 97.9018 159.67 97.9094 159.75C97.9097 159.852 97.9356 159.952 97.9853 160.043C98.0483 160.158 98.1291 160.265 98.2254 160.359C98.3669 160.5 98.5166 160.634 98.6741 160.76L99.3628 161.324C99.622 161.527 99.8629 161.748 100.083 161.985C100.285 162.201 100.457 162.438 100.595 162.69C100.734 162.935 100.838 163.195 100.905 163.463C100.976 163.758 101.01 164.059 101.006 164.361C101.019 164.65 100.96 164.939 100.835 165.207C100.74 165.408 100.567 165.572 100.349 165.67C100.118 165.759 99.8619 165.783 99.6156 165.738C99.2879 165.678 98.9739 165.569 98.6867 165.416C98.3408 165.235 98.0259 165.011 97.7514 164.75C97.4785 164.485 97.2371 164.196 97.0311 163.887C96.8362 163.589 96.6753 163.276 96.5508 162.95C96.4444 162.669 96.3848 162.377 96.3739 162.081C96.3692 162.034 96.385 161.987 96.4181 161.951C96.434 161.939 96.4542 161.932 96.475 161.932C96.4958 161.932 96.5159 161.939 96.5318 161.951L97.5113 162.459C97.5767 162.487 97.6348 162.528 97.6819 162.577C97.7254 162.632 97.7655 162.688 97.802 162.747C97.802 162.786 97.8462 162.848 97.8905 162.927C97.9369 163.022 97.9896 163.114 98.0485 163.204C98.1232 163.311 98.21 163.411 98.3075 163.503C98.4171 163.61 98.5451 163.702 98.6867 163.774C98.8794 163.884 99.0938 163.961 99.3186 163.999C99.4956 163.999 99.584 163.915 99.584 163.706C99.5824 163.597 99.5498 163.49 99.4892 163.396C99.4041 163.274 99.3045 163.16 99.1922 163.057C99.038 162.903 98.8711 162.76 98.693 162.628C98.4908 162.47 98.2507 162.278 97.9789 162.064C97.5004 161.692 97.1149 161.234 96.8478 160.721C96.603 160.215 96.4823 159.669 96.4939 159.118C96.4854 158.854 96.5348 158.592 96.6393 158.345C96.7201 158.146 96.868 157.974 97.0627 157.854C97.2602 157.737 97.4969 157.685 97.7325 157.707C98.0558 157.727 98.3694 157.814 98.6488 157.961Z" fill="#455A64"/>
<path d="M102.162 163.041C102.167 162.701 102.229 162.364 102.343 162.041C102.425 161.789 102.581 161.561 102.794 161.383C102.995 161.233 103.247 161.153 103.507 161.156C103.852 161.171 104.186 161.269 104.476 161.44C104.843 161.632 105.17 161.88 105.446 162.172C105.729 162.47 105.97 162.798 106.165 163.149C106.361 163.511 106.512 163.892 106.615 164.284C106.722 164.675 106.782 165.074 106.797 165.476C106.797 165.783 106.797 166.095 106.797 166.419C106.797 166.742 106.797 167.049 106.797 167.327C106.79 167.667 106.729 168.003 106.615 168.327C106.534 168.579 106.378 168.807 106.165 168.985C105.967 169.143 105.709 169.224 105.446 169.212C105.101 169.194 104.767 169.096 104.476 168.928C104.113 168.734 103.785 168.489 103.507 168.202C103.228 167.902 102.989 167.575 102.794 167.225C102.599 166.862 102.448 166.482 102.343 166.09C102.238 165.699 102.177 165.299 102.162 164.897C102.162 164.608 102.162 164.301 102.162 163.972C102.162 163.643 102.162 163.336 102.162 163.041ZM105.421 166.549C105.421 166.425 105.421 166.288 105.421 166.141C105.421 165.993 105.421 165.834 105.421 165.675C105.421 165.516 105.421 165.363 105.421 165.21C105.421 165.056 105.421 164.926 105.421 164.801C105.415 164.627 105.39 164.454 105.346 164.284C105.306 164.121 105.245 163.963 105.164 163.813C105.09 163.666 104.995 163.529 104.883 163.404C104.766 163.284 104.629 163.182 104.476 163.103C104.356 163.033 104.218 162.992 104.076 162.984C103.97 162.986 103.87 163.024 103.795 163.092C103.707 163.17 103.645 163.268 103.613 163.376C103.567 163.518 103.539 163.665 103.532 163.813C103.532 163.926 103.532 164.057 103.532 164.205V165.136C103.532 165.289 103.532 165.431 103.532 165.556C103.55 165.901 103.639 166.24 103.795 166.555C103.933 166.85 104.172 167.097 104.476 167.259C104.789 167.418 105.014 167.424 105.164 167.259C105.335 167.054 105.429 166.806 105.433 166.549H105.421Z" fill="#455A64"/>
<path d="M108.009 166.494C108.016 166.153 108.077 165.815 108.19 165.489C108.272 165.237 108.429 165.011 108.646 164.836C108.843 164.683 109.097 164.602 109.357 164.609C109.701 164.624 110.035 164.722 110.324 164.893C110.688 165.084 111.013 165.329 111.285 165.62C111.568 165.919 111.809 166.249 112.002 166.602C112.198 166.964 112.349 167.345 112.451 167.738C112.559 168.128 112.622 168.528 112.638 168.93C112.638 169.231 112.638 169.549 112.638 169.872C112.638 170.196 112.638 170.497 112.638 170.775C112.63 171.117 112.567 171.455 112.451 171.78C112.368 172.032 112.213 172.259 112.002 172.439C111.804 172.595 111.547 172.676 111.285 172.666C110.942 172.648 110.611 172.548 110.324 172.376C109.956 172.189 109.629 171.943 109.357 171.65C109.072 171.355 108.833 171.027 108.646 170.673C108.446 170.312 108.293 169.931 108.19 169.537C108.084 169.147 108.024 168.747 108.009 168.345C108.009 168.056 108.009 167.749 108.009 167.425C108.009 167.102 107.997 166.784 108.009 166.494ZM111.266 169.997C111.266 169.878 111.266 169.742 111.266 169.594C111.266 169.447 111.266 169.288 111.266 169.129C111.266 168.97 111.266 168.816 111.266 168.663C111.266 168.51 111.266 168.374 111.266 168.254C111.255 168.08 111.228 167.908 111.185 167.738C111.115 167.413 110.957 167.111 110.723 166.858C110.609 166.738 110.474 166.636 110.324 166.557C110.205 166.485 110.067 166.444 109.925 166.438C109.818 166.437 109.715 166.473 109.638 166.54C109.553 166.622 109.491 166.721 109.457 166.829C109.412 166.972 109.387 167.119 109.382 167.266C109.375 167.395 109.375 167.524 109.382 167.653C109.382 167.8 109.382 167.953 109.382 168.112C109.382 168.271 109.382 168.43 109.382 168.584C109.382 168.737 109.382 168.879 109.382 169.009C109.399 169.354 109.486 169.693 109.638 170.009C109.778 170.304 110.019 170.551 110.324 170.713C110.63 170.872 110.854 170.877 111.004 170.713C111.175 170.507 111.267 170.255 111.266 169.997Z" fill="#455A64"/>
<path d="M117.335 176.786C117.243 176.731 117.17 176.653 117.122 176.561C117.076 176.493 117.041 176.419 117.016 176.342L115.206 171.44V175.315C115.208 175.348 115.203 175.381 115.192 175.412C115.18 175.443 115.162 175.472 115.139 175.497C115.118 175.513 115.091 175.523 115.063 175.523C115.035 175.523 115.008 175.513 114.986 175.497L113.954 174.933C113.884 174.893 113.83 174.831 113.801 174.758C113.763 174.679 113.743 174.594 113.742 174.508V167.121C113.738 167.088 113.742 167.056 113.752 167.024C113.762 166.993 113.779 166.964 113.801 166.939C113.822 166.921 113.85 166.911 113.878 166.911C113.906 166.911 113.934 166.921 113.954 166.939L114.773 167.384C114.869 167.436 114.945 167.515 114.993 167.609C115.035 167.679 115.07 167.752 115.099 167.828L116.91 172.73V168.855C116.906 168.822 116.91 168.789 116.922 168.757C116.933 168.726 116.952 168.697 116.976 168.673C116.997 168.657 117.022 168.648 117.049 168.648C117.076 168.648 117.102 168.657 117.122 168.673L118.161 169.237C118.229 169.279 118.283 169.34 118.314 169.412C118.352 169.491 118.372 169.576 118.374 169.662V177.062C118.38 177.127 118.358 177.192 118.314 177.243C118.293 177.261 118.266 177.271 118.237 177.271C118.209 177.271 118.182 177.261 118.161 177.243L117.335 176.786Z" fill="#455A64"/>
<path d="M159.986 186.518C159.38 188.239 158.774 190.034 158.816 191.877C158.816 192.801 158.998 193.701 158.998 194.632C159.004 195.624 158.865 196.612 158.586 197.563C158.04 199.388 157.071 200.994 156.865 202.885C156.659 204.777 157.028 206.699 156.525 208.548C156.235 209.63 155.538 210.372 154.986 211.339C154.577 212.157 154.358 213.058 154.344 213.973C154.344 214.125 154.604 214.161 154.616 214.009C154.633 213.136 154.84 212.276 155.222 211.491C155.747 210.759 156.213 209.986 156.616 209.18C157.277 207.459 157.028 205.586 157.089 203.785C157.123 202.808 157.298 201.841 157.61 200.915C157.907 200.033 158.295 199.181 158.622 198.311C159.227 196.603 159.418 194.775 159.18 192.977C159.049 191.945 159.08 190.898 159.271 189.876C159.489 188.763 159.834 187.68 160.137 186.591C160.137 186.518 160.034 186.427 159.998 186.518H159.986Z" fill="#FAFAFA"/>
<path d="M161.276 187.207C161.217 186.523 160.937 185.87 160.47 185.329C159.822 185.664 159.303 186.169 158.982 186.777C158.971 186.871 158.986 186.965 159.028 187.051C159.07 187.137 159.136 187.211 159.22 187.266C159.447 187.431 159.714 187.544 159.999 187.597C160.284 187.65 160.579 187.641 160.86 187.57C160.962 187.551 161.057 187.507 161.134 187.443C161.211 187.379 161.267 187.297 161.296 187.207H161.276Z" fill="#407BFF"/>
<path opacity="0.3" d="M161.276 187.207C161.217 186.523 160.937 185.87 160.47 185.329C159.822 185.664 159.303 186.169 158.982 186.777C158.971 186.871 158.986 186.965 159.028 187.051C159.07 187.137 159.136 187.211 159.22 187.266C159.447 187.431 159.714 187.544 159.999 187.597C160.284 187.65 160.579 187.641 160.86 187.57C160.962 187.551 161.057 187.507 161.134 187.443C161.211 187.379 161.267 187.297 161.296 187.207H161.276Z" fill="black"/>
<path d="M168.086 178.221C167.377 181.574 163.782 185.264 160.09 185.329C156.75 183.641 154.944 179.032 155.659 175.674C156.374 172.315 159.236 169.685 163.236 170.521C167.237 171.356 168.789 174.892 168.086 178.221Z" fill="#407BFF"/>
<path opacity="0.2" d="M168.086 178.221C167.377 181.574 163.782 185.264 160.09 185.329C156.75 183.641 154.944 179.032 155.659 175.674C156.374 172.315 159.236 169.685 163.236 170.521C167.237 171.356 168.789 174.892 168.086 178.221Z" fill="black"/>
<path opacity="0.1" d="M155.534 178.167C155.534 178.167 155.777 181.797 159.789 182.952C163.672 184.069 167.775 180.269 168.249 177.271C168.256 177.819 168.212 178.367 168.115 178.906C167.404 182.478 163.8 186.41 160.099 186.48C157.327 184.99 155.607 181.361 155.504 178.123L155.534 178.167Z" fill="black"/>
<path d="M147.418 193.445C147.434 194.904 147.854 196.333 148.635 197.585C149.068 198.276 149.539 198.943 149.89 199.664C150.272 200.415 150.485 201.233 150.518 202.068C150.556 202.879 150.487 203.69 150.587 204.471C150.689 205.187 150.937 205.877 151.315 206.502C151.679 207.139 152.118 207.74 152.47 208.383C152.819 209.042 153.048 209.753 153.148 210.486C153.374 212.066 153.229 213.749 154.07 215.191C154.145 215.317 154.415 215.251 154.327 215.107C153.568 213.797 153.637 212.277 153.474 210.828C153.413 210.151 153.252 209.486 152.997 208.852C152.678 208.191 152.309 207.555 151.892 206.947C151.446 206.312 151.121 205.606 150.932 204.862C150.81 204.066 150.767 203.261 150.807 202.458C150.816 201.704 150.691 200.954 150.436 200.241C150.144 199.544 149.778 198.878 149.344 198.252C148.802 197.505 148.355 196.698 148.014 195.849C147.764 195.077 147.604 194.281 147.537 193.475C147.537 193.403 147.393 193.337 147.393 193.439L147.418 193.445Z" fill="#FAFAFA"/>
<path d="M147.206 194.641C147.229 194.797 147.225 194.957 147.193 195.111C147.162 195.266 147.103 195.411 147.022 195.539C146.941 195.666 146.838 195.773 146.72 195.853C146.602 195.934 146.471 195.985 146.336 196.005C146.209 196.014 146.082 195.988 145.965 195.93C145.853 195.868 145.695 195.732 145.724 195.561C145.754 195.391 146.077 195.418 146.194 195.473C146.267 195.509 146.332 195.561 146.386 195.626C146.441 195.692 146.484 195.77 146.512 195.855C146.565 195.979 146.593 196.115 146.594 196.254C146.595 196.392 146.57 196.529 146.52 196.655C146.47 196.78 146.396 196.891 146.304 196.979C146.212 197.068 146.104 197.131 145.989 197.164C145.881 197.187 145.77 197.176 145.666 197.133C145.563 197.09 145.471 197.016 145.401 196.919C145.37 196.873 145.348 196.82 145.336 196.764C145.323 196.707 145.322 196.649 145.33 196.591C145.383 196.394 145.601 196.516 145.689 196.591C145.794 196.699 145.863 196.847 145.882 197.009C145.902 197.17 145.871 197.334 145.795 197.471C145.723 197.592 145.622 197.686 145.506 197.743C145.389 197.8 145.261 197.817 145.136 197.792C145.042 197.792 145.066 197.935 145.136 197.956C145.29 198.009 145.455 198.002 145.606 197.937C145.756 197.872 145.885 197.751 145.971 197.594C146.05 197.431 146.083 197.242 146.064 197.056C146.045 196.87 145.975 196.695 145.865 196.557C145.683 196.319 145.183 196.087 145.125 196.557C145.083 196.939 145.413 197.24 145.712 197.315C145.877 197.368 146.052 197.362 146.215 197.299C146.377 197.236 146.52 197.118 146.624 196.96C146.723 196.796 146.785 196.606 146.805 196.407C146.825 196.208 146.801 196.006 146.735 195.821C146.663 195.619 146.538 195.45 146.377 195.337C146.216 195.224 146.029 195.174 145.842 195.193C145.803 195.193 145.764 195.202 145.728 195.22C145.692 195.237 145.659 195.263 145.632 195.295C145.604 195.328 145.583 195.366 145.568 195.408C145.554 195.451 145.547 195.496 145.548 195.541C145.558 195.64 145.589 195.735 145.638 195.817C145.687 195.9 145.753 195.966 145.83 196.012C146.011 196.137 146.22 196.195 146.43 196.179C146.64 196.163 146.84 196.074 147.006 195.923C147.167 195.765 147.286 195.555 147.346 195.32C147.407 195.085 147.407 194.835 147.347 194.6C147.347 194.531 147.241 194.504 147.247 194.6L147.206 194.641Z" fill="#FAFAFA"/>
<path d="M148.547 193.71C148.207 193.092 147.674 192.579 147.015 192.236C146.554 192.766 146.281 193.412 146.232 194.087C146.261 194.178 146.314 194.26 146.388 194.327C146.462 194.393 146.553 194.44 146.653 194.465C146.93 194.542 147.222 194.558 147.507 194.512C147.792 194.467 148.06 194.36 148.291 194.201C148.378 194.148 148.448 194.074 148.493 193.987C148.538 193.901 148.557 193.805 148.547 193.71Z" fill="#407BFF"/>
<path opacity="0.3" d="M148.547 193.71C148.207 193.092 147.674 192.579 147.015 192.236C146.554 192.766 146.281 193.412 146.232 194.087C146.261 194.178 146.314 194.26 146.388 194.327C146.462 194.393 146.553 194.44 146.653 194.465C146.93 194.542 147.222 194.558 147.507 194.512C147.792 194.467 148.06 194.36 148.291 194.201C148.378 194.148 148.448 194.074 148.493 193.987C148.538 193.901 148.557 193.805 148.547 193.71Z" fill="white"/>
<path d="M151.916 182.776C152.523 186.123 150.6 190.824 147.209 192.235C143.466 191.888 140.026 188.294 139.408 184.94C138.789 181.587 140.439 178.081 144.467 177.381C148.495 176.681 151.297 179.428 151.916 182.776Z" fill="#407BFF"/>
<path opacity="0.2" d="M151.916 182.776C152.523 186.123 150.6 190.824 147.209 192.235C143.466 191.888 140.026 188.294 139.408 184.94C138.789 181.587 140.439 178.081 144.467 177.381C148.495 176.681 151.297 179.428 151.916 182.776Z" fill="black"/>
<path opacity="0.1" d="M140.478 187.517C140.478 187.517 141.94 190.724 145.924 190.248C149.763 189.784 152.104 184.78 151.493 181.875C151.685 182.384 151.828 182.912 151.918 183.451C152.5 186.967 150.654 191.904 147.398 193.387C144.416 193.084 141.643 190.439 140.438 187.541L140.478 187.517Z" fill="black"/>
<path d="M155.156 196.877C154.976 197.473 154.661 198.068 154.503 198.693C154.327 199.447 154.297 200.218 154.413 200.98C154.593 202.462 155.096 203.903 155.164 205.391C155.231 206.88 154.706 208.416 154.473 209.928C154.359 210.649 154.339 211.377 154.413 212.101C154.408 212.76 154.545 213.414 154.819 214.036C154.894 214.167 155.216 214.102 155.134 213.947C154.855 213.304 154.721 212.627 154.736 211.947C154.671 211.191 154.711 210.432 154.856 209.684C155.224 208.29 155.44 206.874 155.502 205.451C155.449 204.01 154.984 202.611 154.751 201.188C154.625 200.484 154.607 199.77 154.698 199.062C154.811 198.342 155.186 197.669 155.307 196.949C155.307 196.877 155.164 196.788 155.134 196.877H155.156Z" fill="#FAFAFA"/>
<path d="M154.065 198.103C154.174 198.34 154.18 198.602 154.083 198.842C153.986 199.083 153.791 199.286 153.534 199.417C153.401 199.474 153.253 199.503 153.104 199.503C152.954 199.503 152.807 199.474 152.673 199.417C152.58 199.368 152.465 199.277 152.501 199.174C152.537 199.07 152.645 199.07 152.702 199.052C152.745 199.049 152.788 199.049 152.831 199.052C152.94 199.041 153.05 199.051 153.153 199.082C153.256 199.112 153.35 199.162 153.427 199.228C153.529 199.316 153.608 199.421 153.657 199.537C153.707 199.653 153.726 199.777 153.713 199.9C153.7 200.023 153.655 200.142 153.582 200.249C153.509 200.356 153.41 200.448 153.29 200.518C153.17 200.574 153.036 200.603 152.899 200.603C152.763 200.603 152.628 200.574 152.509 200.518C152.447 200.493 152.392 200.456 152.349 200.411C152.306 200.366 152.274 200.313 152.258 200.257C152.207 200.032 152.53 200.062 152.688 200.129C152.834 200.198 152.946 200.308 153.007 200.44C153.067 200.573 153.071 200.719 153.018 200.853C152.96 200.976 152.861 201.083 152.734 201.16C152.607 201.238 152.457 201.283 152.301 201.291C152.193 201.291 152.301 201.437 152.344 201.443C152.56 201.454 152.774 201.399 152.947 201.287C153.119 201.176 153.239 201.015 153.283 200.835C153.316 200.668 153.288 200.497 153.202 200.344C153.116 200.192 152.976 200.066 152.803 199.983C152.523 199.843 152.006 199.819 152.028 200.196C152.05 200.573 152.494 200.737 152.853 200.756C153.061 200.758 153.266 200.71 153.444 200.619C153.623 200.527 153.767 200.395 153.862 200.238C153.957 200.08 153.998 199.903 153.98 199.727C153.963 199.551 153.888 199.382 153.764 199.241C153.632 199.067 153.434 198.938 153.203 198.873C152.971 198.809 152.721 198.814 152.494 198.888C152.411 198.916 152.344 198.97 152.307 199.039C152.27 199.108 152.265 199.187 152.293 199.259C152.336 199.343 152.401 199.418 152.483 199.478C152.565 199.538 152.662 199.582 152.767 199.606C153.005 199.664 153.258 199.66 153.494 199.597C153.73 199.533 153.939 199.411 154.094 199.247C154.241 199.071 154.327 198.864 154.342 198.649C154.358 198.433 154.301 198.219 154.18 198.03C154.18 197.969 154.043 197.981 154.072 198.06L154.065 198.103Z" fill="#FAFAFA"/>
<path d="M155.503 197.413C155.319 196.748 154.924 196.148 154.367 195.689C153.797 196.113 153.384 196.688 153.186 197.336C153.191 197.429 153.224 197.519 153.28 197.598C153.336 197.676 153.413 197.739 153.504 197.782C153.753 197.908 154.032 197.979 154.317 197.99C154.602 198 154.886 197.949 155.146 197.841C155.241 197.805 155.324 197.746 155.387 197.671C155.449 197.596 155.489 197.507 155.503 197.413Z" fill="#37474F"/>
<path d="M161.289 187.485C161.149 190.858 158.242 195.012 154.586 195.689C150.991 194.58 148.414 190.385 148.554 187.013C148.694 183.64 151.083 180.595 155.19 180.729C159.296 180.863 161.423 184.113 161.289 187.485Z" fill="#455A64"/>
<path d="M148.574 189.501C148.574 189.501 149.407 192.981 153.629 193.416C157.703 193.844 161.196 189.47 161.184 186.48C161.275 187.021 161.31 187.57 161.289 188.118C161.147 191.703 158.202 196.12 154.499 196.84C151.481 195.86 149.172 192.634 148.549 189.514L148.574 189.501Z" fill="#37474F"/>
<path d="M165.202 232.762L163.691 233.614C163.606 233.655 163.512 233.676 163.418 233.676C163.323 233.676 163.23 233.655 163.145 233.614L162.668 233.344C162.592 233.296 162.532 233.226 162.495 233.145C162.458 233.063 162.446 232.972 162.461 232.884L167.479 209.725C167.53 209.536 167.651 209.372 167.818 209.265L169.323 208.412C169.408 208.372 169.502 208.351 169.596 208.351C169.691 208.351 169.784 208.372 169.869 208.412L170.352 208.688C170.429 208.735 170.49 208.803 170.527 208.884C170.564 208.965 170.575 209.055 170.559 209.142L165.541 232.308C165.488 232.494 165.368 232.656 165.202 232.762Z" fill="#407BFF"/>
<path opacity="0.2" d="M165.202 232.762L163.691 233.614C163.606 233.655 163.512 233.676 163.418 233.676C163.323 233.676 163.23 233.655 163.145 233.614L162.668 233.344C162.592 233.296 162.532 233.226 162.495 233.145C162.458 233.063 162.446 232.972 162.461 232.884L167.479 209.725C167.53 209.536 167.651 209.372 167.818 209.265L169.323 208.412C169.408 208.372 169.502 208.351 169.596 208.351C169.691 208.351 169.784 208.372 169.869 208.412L170.352 208.688C170.429 208.735 170.49 208.803 170.527 208.884C170.564 208.965 170.575 209.055 170.559 209.142L165.541 232.308C165.488 232.494 165.368 232.656 165.202 232.762Z" fill="black"/>
<path d="M165.31 232.807L163.826 233.642C163.679 233.726 163.586 233.642 163.623 233.498L168.547 210.815C168.595 210.631 168.714 210.472 168.879 210.371L170.356 209.536C170.504 209.452 170.596 209.536 170.559 209.68L165.636 232.363C165.586 232.544 165.47 232.702 165.31 232.807Z" fill="#407BFF"/>
<path opacity="0.35" d="M165.31 232.807L163.826 233.642C163.679 233.726 163.586 233.642 163.623 233.498L168.547 210.815C168.595 210.631 168.714 210.472 168.879 210.371L170.356 209.536C170.504 209.452 170.596 209.536 170.559 209.68L165.636 232.363C165.586 232.544 165.47 232.702 165.31 232.807Z" fill="black"/>
<path d="M163.615 230.42L164.027 228.471L164.96 227.92L173.637 232.996L174.044 235.427L173.105 235.978L163.615 230.42Z" fill="#407BFF"/>
<path opacity="0.4" d="M163.615 230.42L164.027 228.471L164.96 227.92L173.637 232.996L174.044 235.427L173.105 235.978L163.615 230.42Z" fill="black"/>
<path d="M174.044 237.129L163.615 231.163L164.068 229.071L173.597 234.52L174.044 237.129Z" fill="#407BFF"/>
<path opacity="0.2" d="M174.044 237.129L163.615 231.163L164.068 229.071L173.597 234.52L174.044 237.129Z" fill="black"/>
<path d="M176.139 238.551L174.633 239.371C174.547 239.411 174.452 239.431 174.357 239.431C174.261 239.431 174.166 239.411 174.08 239.371L173.603 239.111C173.438 239.009 173.321 238.851 173.277 238.669L168.256 210.818C168.244 210.733 168.258 210.646 168.297 210.569C168.336 210.491 168.398 210.426 168.476 210.381L169.982 209.561C170.067 209.522 170.161 209.502 170.255 209.502C170.35 209.502 170.443 209.522 170.528 209.561L171.011 209.821C171.177 209.923 171.294 210.082 171.338 210.263L176.359 238.114C176.371 238.199 176.357 238.286 176.318 238.363C176.279 238.441 176.217 238.506 176.139 238.551Z" fill="#37474F"/>
<path d="M168.253 210.795L168.441 211.852L173.279 238.668C173.324 238.849 173.441 239.007 173.605 239.111L174.082 239.371C174.168 239.411 174.262 239.431 174.358 239.431C174.454 239.431 174.548 239.411 174.634 239.371L176.14 238.556C176.217 238.509 176.278 238.442 176.316 238.364C176.355 238.286 176.37 238.199 176.36 238.113L171.34 210.358V210.264C171.292 210.084 171.176 209.926 171.014 209.821L170.531 209.561C170.446 209.522 170.352 209.502 170.258 209.502C170.163 209.502 170.07 209.522 169.985 209.561L168.479 210.376C168.405 210.42 168.345 210.483 168.305 210.557C168.265 210.63 168.247 210.713 168.253 210.795Z" fill="#407BFF"/>
<path opacity="0.45" d="M168.253 210.795L168.441 211.852L173.279 238.668C173.324 238.849 173.441 239.007 173.605 239.111L174.082 239.371C174.168 239.411 174.262 239.431 174.358 239.431C174.454 239.431 174.548 239.411 174.634 239.371L176.14 238.556C176.217 238.509 176.278 238.442 176.316 238.364C176.355 238.286 176.37 238.199 176.36 238.113L171.34 210.358V210.264C171.292 210.084 171.176 209.926 171.014 209.821L170.531 209.561C170.446 209.522 170.352 209.502 170.258 209.502C170.163 209.502 170.07 209.522 169.985 209.561L168.479 210.376C168.405 210.42 168.345 210.483 168.305 210.557C168.265 210.63 168.247 210.713 168.253 210.795Z" fill="black"/>
<path d="M171.424 209.685L176.354 238.112C176.366 238.198 176.352 238.287 176.314 238.366C176.276 238.445 176.215 238.511 176.139 238.557L174.66 239.394C174.63 239.415 174.596 239.427 174.561 239.43C174.525 239.434 174.489 239.428 174.457 239.413C174.424 239.398 174.396 239.375 174.375 239.347C174.355 239.318 174.342 239.285 174.339 239.25L169.409 210.824C169.399 210.736 169.414 210.648 169.452 210.568C169.49 210.488 169.55 210.42 169.625 210.372L171.11 209.535C171.14 209.516 171.174 209.505 171.209 209.503C171.244 209.501 171.28 209.507 171.311 209.523C171.343 209.538 171.37 209.561 171.39 209.589C171.41 209.618 171.422 209.651 171.424 209.685Z" fill="#407BFF"/>
<path opacity="0.2" d="M171.424 209.685L176.354 238.112C176.366 238.198 176.352 238.287 176.314 238.366C176.276 238.445 176.215 238.511 176.139 238.557L174.66 239.394C174.63 239.415 174.596 239.427 174.561 239.43C174.525 239.434 174.489 239.428 174.457 239.413C174.424 239.398 174.396 239.375 174.375 239.347C174.355 239.318 174.342 239.285 174.339 239.25L169.409 210.824C169.399 210.736 169.414 210.648 169.452 210.568C169.49 210.488 169.55 210.42 169.625 210.372L171.11 209.535C171.14 209.516 171.174 209.505 171.209 209.503C171.244 209.501 171.28 209.507 171.311 209.523C171.343 209.538 171.37 209.561 171.39 209.589C171.41 209.618 171.422 209.651 171.424 209.685Z" fill="black"/>
<path d="M151.3 239.708L149.795 240.522C149.709 240.562 149.614 240.582 149.519 240.582C149.423 240.582 149.329 240.562 149.243 240.522L148.766 240.265C148.69 240.218 148.629 240.152 148.593 240.074C148.556 239.996 148.544 239.91 148.559 239.825L153.577 217.716C153.628 217.536 153.749 217.379 153.916 217.277L155.421 216.469C155.507 216.429 155.602 216.409 155.697 216.409C155.793 216.409 155.888 216.429 155.973 216.469L156.45 216.726C156.527 216.771 156.587 216.837 156.624 216.914C156.661 216.991 156.672 217.076 156.657 217.16L151.639 239.275C151.586 239.453 151.466 239.607 151.3 239.708Z" fill="#407BFF"/>
<path opacity="0.2" d="M151.3 239.708L149.795 240.522C149.709 240.562 149.614 240.582 149.519 240.582C149.423 240.582 149.329 240.562 149.243 240.522L148.766 240.265C148.69 240.218 148.629 240.152 148.593 240.074C148.556 239.996 148.544 239.91 148.559 239.825L153.577 217.716C153.628 217.536 153.749 217.379 153.916 217.277L155.421 216.469C155.507 216.429 155.602 216.409 155.697 216.409C155.793 216.409 155.888 216.429 155.973 216.469L156.45 216.726C156.527 216.771 156.587 216.837 156.624 216.914C156.661 216.991 156.672 217.076 156.657 217.16L151.639 239.275C151.586 239.453 151.466 239.607 151.3 239.708Z" fill="black"/>
<path d="M151.404 240.865L149.926 241.7C149.773 241.784 149.686 241.7 149.717 241.556L154.642 218.873C154.694 218.69 154.812 218.532 154.974 218.429L156.452 217.594C156.6 217.509 156.692 217.594 156.655 217.738L151.73 240.42C151.68 240.602 151.564 240.76 151.404 240.865Z" fill="#407BFF"/>
<path opacity="0.35" d="M151.404 240.865L149.926 241.7C149.773 241.784 149.686 241.7 149.717 241.556L154.642 218.873C154.694 218.69 154.812 218.532 154.974 218.429L156.452 217.594C156.6 217.509 156.692 217.594 156.655 217.738L151.73 240.42C151.68 240.602 151.564 240.76 151.404 240.865Z" fill="black"/>
<path d="M150.871 238.478L151.277 236.529L152.216 235.978L160.893 241.054L161.299 243.484L160.361 244.036L150.871 238.478Z" fill="#407BFF"/>
<path opacity="0.4" d="M150.871 238.478L151.277 236.529L152.216 235.978L160.893 241.054L161.299 243.484L160.361 244.036L150.871 238.478Z" fill="black"/>
<path d="M161.299 245.187L150.871 239.221L151.318 237.129L160.853 242.578L161.299 245.187Z" fill="#407BFF"/>
<path opacity="0.2" d="M161.299 245.187L150.871 239.221L151.318 237.129L160.853 242.578L161.299 245.187Z" fill="black"/>
<path d="M162.231 246.616L160.725 247.43C160.64 247.469 160.546 247.489 160.452 247.489C160.357 247.489 160.264 247.469 160.179 247.43L159.696 247.171C159.53 247.068 159.413 246.91 159.369 246.728L154.348 218.882C154.336 218.796 154.35 218.709 154.389 218.63C154.428 218.552 154.49 218.485 154.568 218.439L156.074 217.619C156.159 217.58 156.252 217.56 156.347 217.56C156.442 217.56 156.535 217.58 156.62 217.619L157.103 217.878C157.268 217.982 157.384 218.14 157.43 218.321L162.451 246.173C162.462 246.259 162.448 246.346 162.409 246.424C162.37 246.503 162.308 246.569 162.231 246.616Z" fill="#37474F"/>
<path d="M154.345 218.853L154.533 219.91L159.37 246.727C159.414 246.909 159.531 247.068 159.697 247.17L160.18 247.43C160.265 247.469 160.358 247.489 160.453 247.489C160.547 247.489 160.641 247.469 160.726 247.43L162.231 246.615C162.309 246.568 162.37 246.502 162.409 246.423C162.448 246.345 162.462 246.258 162.451 246.172L157.432 218.416V218.322C157.386 218.141 157.27 217.982 157.105 217.879L156.622 217.619C156.537 217.58 156.444 217.56 156.349 217.56C156.255 217.56 156.162 217.58 156.077 217.619L154.571 218.44C154.497 218.483 154.436 218.544 154.397 218.617C154.357 218.69 154.339 218.771 154.345 218.853Z" fill="#407BFF"/>
<path opacity="0.45" d="M154.345 218.853L154.533 219.91L159.37 246.727C159.414 246.909 159.531 247.068 159.697 247.17L160.18 247.43C160.265 247.469 160.358 247.489 160.453 247.489C160.547 247.489 160.641 247.469 160.726 247.43L162.231 246.615C162.309 246.568 162.37 246.502 162.409 246.423C162.448 246.345 162.462 246.258 162.451 246.172L157.432 218.416V218.322C157.386 218.141 157.27 217.982 157.105 217.879L156.622 217.619C156.537 217.58 156.444 217.56 156.349 217.56C156.255 217.56 156.162 217.58 156.077 217.619L154.571 218.44C154.497 218.483 154.436 218.544 154.397 218.617C154.357 218.69 154.339 218.771 154.345 218.853Z" fill="black"/>
<path d="M157.524 217.738L162.455 246.169C162.466 246.257 162.451 246.345 162.413 246.425C162.375 246.505 162.314 246.573 162.239 246.621L160.76 247.452C160.73 247.472 160.696 247.485 160.661 247.488C160.625 247.491 160.589 247.485 160.557 247.471C160.524 247.456 160.496 247.433 160.475 247.405C160.455 247.376 160.442 247.342 160.439 247.308L155.509 218.876C155.499 218.788 155.515 218.699 155.554 218.619C155.593 218.539 155.654 218.472 155.731 218.424L157.21 217.593C157.239 217.574 157.272 217.563 157.307 217.561C157.342 217.558 157.377 217.564 157.408 217.579C157.44 217.593 157.467 217.616 157.487 217.643C157.508 217.671 157.52 217.704 157.524 217.738Z" fill="#407BFF"/>
<path opacity="0.2" d="M157.524 217.738L162.455 246.169C162.466 246.257 162.451 246.345 162.413 246.425C162.375 246.505 162.314 246.573 162.239 246.621L160.76 247.452C160.73 247.472 160.696 247.485 160.661 247.488C160.625 247.491 160.589 247.485 160.557 247.471C160.524 247.456 160.496 247.433 160.475 247.405C160.455 247.376 160.442 247.342 160.439 247.308L155.509 218.876C155.499 218.788 155.515 218.699 155.554 218.619C155.593 218.539 155.654 218.472 155.731 218.424L157.21 217.593C157.239 217.574 157.272 217.563 157.307 217.561C157.342 217.558 157.377 217.564 157.408 217.579C157.44 217.593 157.467 217.616 157.487 217.643C157.508 217.671 157.52 217.704 157.524 217.738Z" fill="black"/>
<path d="M152.532 215.258L171.724 204.036L171.225 203.747L152.027 214.962L152.532 215.258Z" fill="#37474F"/>
<path d="M153.188 214.623L157.974 244.036L176.36 233.165L171.574 203.747L153.188 214.623Z" fill="#455A64"/>
<path d="M152.027 214.107L157.289 243.747L157.821 244.036L152.559 214.395L152.027 214.107Z" fill="#263238"/>
<path d="M157.901 226.534L158.032 226.317C158.162 226.43 158.337 226.501 158.524 226.515C158.712 226.529 158.899 226.486 159.051 226.393C159.325 226.257 159.544 226.058 159.682 225.819C159.819 225.58 159.868 225.313 159.823 225.052C159.746 224.547 159.437 224.483 158.85 224.496C158.264 224.509 157.847 224.311 157.762 223.787C157.698 223.494 157.746 223.192 157.899 222.922C158.053 222.653 158.305 222.43 158.619 222.286C158.767 222.197 158.949 222.155 159.131 222.166C159.313 222.178 159.485 222.243 159.614 222.35L159.491 222.56C159.382 222.467 159.235 222.411 159.078 222.401C158.922 222.392 158.767 222.43 158.642 222.509C158.396 222.62 158.198 222.791 158.076 223C157.954 223.209 157.915 223.444 157.963 223.672C158.048 224.157 158.395 224.253 158.997 224.253C159.599 224.253 159.946 224.387 160.031 224.956C160.088 225.282 160.026 225.616 159.853 225.913C159.68 226.21 159.403 226.457 159.059 226.623C158.888 226.732 158.673 226.783 158.459 226.766C158.244 226.749 158.045 226.666 157.901 226.534Z" fill="#FAFAFA"/>
<path d="M161.268 224.399C161.05 222.957 161.446 221.602 162.296 221.134C162.954 220.79 163.31 221.19 163.468 222.232C163.686 223.675 163.284 225.035 162.434 225.497C161.808 225.841 161.426 225.441 161.268 224.399ZM163.29 222.339C163.152 221.421 162.842 221.09 162.315 221.352C161.584 221.752 161.248 222.988 161.446 224.305C161.584 225.217 161.887 225.554 162.414 225.279C163.145 224.879 163.481 223.643 163.29 222.339Z" fill="#FAFAFA"/>
<path d="M164.742 222.096C164.525 220.654 164.92 219.293 165.77 218.831C166.396 218.488 166.785 218.888 166.943 219.93C167.161 221.372 166.752 222.733 165.909 223.195C165.283 223.539 164.901 223.139 164.742 222.096ZM166.765 220.036C166.627 219.119 166.311 218.788 165.79 219.05C165.052 219.449 164.723 220.686 164.92 222.003C165.059 222.914 165.362 223.251 165.889 222.977C166.62 222.577 166.963 221.341 166.759 220.036H166.765Z" fill="#FAFAFA"/>
<path d="M168.158 217.637L168.366 217.517L169.934 220.113L170.261 220.697V219.987L170.15 216.548L170.323 216.409L170.476 220.996L170.274 221.102L168.609 218.394L168.332 217.902V218.686L168.443 222.071L168.262 222.164L168.158 217.637Z" fill="#FAFAFA"/>
<path d="M158.057 216.36C157.902 216.487 157.776 216.36 157.746 216.046C157.725 215.908 157.733 215.764 157.769 215.632C157.805 215.501 157.868 215.387 157.949 215.307C158.111 215.179 158.236 215.307 158.266 215.621C158.285 215.76 158.276 215.903 158.239 216.035C158.201 216.166 158.138 216.279 158.057 216.36Z" fill="#407BFF"/>
<path d="M160.881 215.311C160.82 214.695 160.15 215.231 160.054 214.312C160.045 214.101 160.08 213.891 160.154 213.709C160.229 213.527 160.341 213.38 160.474 213.289C160.523 213.245 160.579 213.223 160.637 213.223C160.694 213.223 160.75 213.245 160.799 213.289C160.816 213.185 160.843 213.085 160.881 212.993L160.929 212.956L161.002 213.683L160.929 213.745C160.929 213.745 160.777 213.128 160.522 213.35C160.466 213.421 160.424 213.511 160.4 213.611C160.375 213.712 160.37 213.819 160.383 213.924C160.448 214.571 161.124 214.059 161.206 214.904C161.224 215.139 161.192 215.376 161.115 215.584C161.038 215.793 160.919 215.964 160.773 216.076C160.718 216.124 160.654 216.15 160.589 216.15C160.524 216.15 160.46 216.124 160.405 216.076C160.39 216.181 160.362 216.281 160.323 216.372L160.275 216.409L160.201 215.681L160.279 215.62C160.279 215.62 160.431 216.236 160.712 215.977C160.785 215.904 160.84 215.801 160.87 215.682C160.901 215.563 160.904 215.434 160.881 215.311Z" fill="#407BFF"/>
<path d="M162.633 213.743C162.58 213.471 162.432 213.396 162.324 213.438C162.216 213.48 162.09 213.783 162.09 213.783L162.308 214.899L162.501 214.873L162.5 214.921L161.618 215.246L161.619 215.203L161.799 215.085L161.423 213.143L161.223 213.169L161.224 213.125L161.633 212.972C161.819 212.902 161.932 212.977 161.965 213.137L162.057 213.622C162.115 213.48 162.246 213.356 162.426 213.275C162.785 213.14 163.082 213.285 163.135 213.547L163.32 214.518L163.52 214.497L163.519 214.55L163.117 214.703C162.923 214.773 162.818 214.699 162.777 214.534L162.633 213.743Z" fill="#407BFF"/>
<path d="M164.661 212.54C164.708 212.814 164.691 213.102 164.613 213.364C164.534 213.626 164.398 213.85 164.221 214.006C163.877 214.267 163.624 214.006 163.557 213.371C163.508 213.097 163.524 212.808 163.603 212.546C163.682 212.284 163.819 212.06 163.997 211.905C164.341 211.651 164.58 211.885 164.661 212.54ZM164.307 212.806C164.226 212.038 164.097 211.924 164.006 211.993C163.915 212.063 163.829 212.343 163.911 213.111C163.992 213.879 164.121 214 164.212 213.924C164.302 213.848 164.388 213.575 164.307 212.806Z" fill="#407BFF"/>
<path d="M164.802 211.363L164.684 211.402V211.344L164.849 211.196C164.869 211.174 164.892 211.159 164.916 211.153C164.941 211.147 164.966 211.15 164.989 211.161C165.013 211.172 165.034 211.192 165.052 211.218C165.07 211.244 165.083 211.276 165.091 211.312C165.115 211.076 165.198 210.864 165.324 210.721C165.536 210.535 165.748 210.721 165.803 211.44C165.856 211.695 165.854 211.968 165.799 212.221C165.745 212.474 165.639 212.695 165.498 212.854C165.463 212.884 165.424 212.9 165.383 212.9C165.343 212.9 165.304 212.884 165.269 212.854L165.341 213.631L165.46 213.599V213.657L164.942 214.107V214.049L165.048 213.895L164.802 211.363ZM165.256 212.764C165.277 212.792 165.302 212.81 165.329 212.817C165.356 212.824 165.384 212.819 165.409 212.802C165.502 212.719 165.562 212.494 165.485 211.717C165.409 210.939 165.324 210.869 165.26 210.92C165.197 210.971 165.125 211.389 165.125 211.389L165.256 212.764Z" fill="#407BFF"/>
<path d="M167.322 211.756C167.167 211.883 167.042 211.756 167.012 211.441C166.99 211.303 166.998 211.159 167.034 211.028C167.071 210.896 167.133 210.783 167.215 210.702C167.376 210.575 167.502 210.702 167.532 211.017C167.551 211.155 167.541 211.299 167.504 211.43C167.467 211.561 167.404 211.674 167.322 211.756Z" fill="#407BFF"/>
<path d="M165.594 231.748C165.421 231.871 165.223 231.954 165.013 231.99C164.804 232.025 164.589 232.013 164.387 231.955C163.731 231.733 163.139 229.928 162.699 229.303C162.056 228.383 161.488 228.75 161.488 228.75C161.488 228.75 162.364 227.917 163.058 228.477C163.752 229.036 164.025 230.392 164.366 230.869C164.487 231.1 164.66 231.299 164.874 231.452C165.087 231.605 165.333 231.706 165.594 231.748Z" fill="#407BFF"/>
<path d="M165.843 238.263C165.633 238.296 165.418 238.281 165.214 238.22C165.011 238.158 164.825 238.052 164.67 237.909C164.185 237.419 164.469 235.542 164.358 234.787C164.198 233.678 163.525 233.752 163.525 233.752C163.525 233.752 164.684 233.399 165.052 234.208C165.42 235.018 165.052 236.351 165.142 236.929C165.146 237.19 165.211 237.446 165.332 237.677C165.454 237.908 165.629 238.109 165.843 238.263Z" fill="#407BFF"/>
<path d="M173.945 231.36C173.735 231.385 173.52 231.374 173.317 231.328C173.114 231.282 172.928 231.202 172.773 231.095C172.288 230.728 172.572 229.32 172.461 228.753C172.301 227.922 171.629 227.978 171.629 227.978C171.629 227.978 172.787 227.712 173.154 228.32C173.522 228.927 173.154 229.927 173.244 230.36C173.248 230.556 173.313 230.748 173.434 230.921C173.556 231.095 173.731 231.245 173.945 231.36Z" fill="#407BFF"/>
<path d="M171.63 232.512C171.42 232.536 171.206 232.525 171.002 232.479C170.799 232.433 170.613 232.354 170.458 232.246C169.973 231.879 170.257 230.471 170.146 229.904C169.987 229.073 169.314 229.129 169.314 229.129C169.314 229.129 170.472 228.864 170.84 229.471C171.207 230.078 170.84 231.078 170.93 231.512C170.933 231.707 170.998 231.899 171.12 232.072C171.242 232.246 171.416 232.396 171.63 232.512Z" fill="#407BFF"/>
<path d="M169.235 237.002C168.921 236.962 168.609 236.881 168.323 236.765C168.037 236.65 167.783 236.503 167.583 236.337C166.961 235.782 167.717 234.346 167.691 233.696C167.658 232.743 166.66 232.587 166.66 232.587C166.66 232.587 168.42 232.672 168.811 233.449C169.203 234.226 168.423 235.193 168.451 235.692C168.409 235.905 168.458 236.134 168.594 236.362C168.73 236.589 168.949 236.808 169.235 237.002Z" fill="#407BFF"/>
<path d="M162.37 239.422C162.055 239.439 161.733 239.432 161.428 239.401C161.124 239.37 160.844 239.317 160.612 239.246C159.884 239.001 160.311 238.062 160.144 237.684C159.905 237.13 158.896 237.167 158.896 237.167C158.896 237.167 160.633 236.99 161.184 237.395C161.736 237.8 161.185 238.467 161.32 238.756C161.325 238.886 161.423 239.014 161.605 239.13C161.787 239.245 162.049 239.345 162.37 239.422Z" fill="#407BFF"/>
<path d="M172.026 226.112C171.846 226.221 171.652 226.312 171.457 226.377C171.262 226.441 171.072 226.478 170.901 226.484C170.357 226.485 170.181 225.521 169.909 225.235C169.514 224.813 168.932 225.15 168.932 225.15C168.932 225.15 169.882 224.469 170.394 224.664C170.907 224.858 170.885 225.618 171.097 225.835C171.16 225.949 171.276 226.034 171.437 226.082C171.598 226.13 171.8 226.14 172.026 226.112Z" fill="#407BFF"/>
<path d="M160.808 234.975C160.528 234.978 160.244 234.945 159.978 234.88C159.713 234.814 159.472 234.717 159.276 234.596C158.661 234.188 159.144 232.838 159.041 232.273C158.893 231.443 157.998 231.43 157.998 231.43C157.998 231.43 159.551 231.288 159.992 231.919C160.432 232.551 159.87 233.492 159.956 233.925C159.946 234.117 160.017 234.311 160.165 234.493C160.313 234.675 160.533 234.84 160.808 234.975Z" fill="#407BFF"/>
<path d="M166.41 227.788C166.617 228.074 166.657 228.348 166.522 228.552C166.245 228.989 165.486 229.433 166.163 230.174C166.207 229.894 166.377 229.661 166.658 229.496C167.122 229.258 167.321 228.858 167.215 228.377C167.139 228.264 167.027 228.153 166.887 228.05C166.748 227.948 166.584 227.858 166.41 227.788Z" fill="#407BFF"/>
<path d="M87.196 8.5217L82.2446 11.4444C82.2702 11.2216 82.2842 10.9975 82.2864 10.7732V9.30881C82.2864 6.69732 80.4967 5.64784 78.2835 6.94138C77.332 7.53954 76.5181 8.34086 75.8973 9.29051C75.5394 6.00783 73.022 4.7875 69.9617 6.58749C66.6568 8.54611 63.9962 13.2993 63.9962 17.1982V19.3948C63.9758 20.2692 64.1491 21.137 64.5032 21.9331L60.393 24.3737C59.746 24.8044 59.2078 25.3855 58.8221 26.0694C58.4365 26.7533 58.2143 27.5208 58.1738 28.3093C58.1738 29.7554 59.1641 30.3411 60.393 29.6211L87.2378 13.7569C87.8836 13.3264 88.4211 12.7463 88.8067 12.0636C89.1923 11.3808 89.415 10.6147 89.4569 9.82745C89.4152 8.38137 88.4189 7.79561 87.196 8.5217Z" fill="#EBEBEB"/>
<path d="M107.503 19.3741L103.829 21.6059C103.849 21.4361 103.861 21.2653 103.864 21.0942V19.9783C103.864 17.987 102.534 17.1793 100.894 18.1719C100.195 18.6312 99.596 19.2404 99.1361 19.9598C98.8724 17.4568 97.0034 16.5258 94.7359 17.9068C93.4437 18.7926 92.3685 19.9868 91.5978 21.3924C90.8271 22.7979 90.3826 24.3751 90.3006 25.9956V27.6664C90.2837 28.3333 90.412 28.9954 90.6755 29.6022L87.6288 31.4518C87.1497 31.7797 86.7509 32.222 86.4649 32.7426C86.1788 33.2633 86.0135 33.8476 85.9824 34.4481C85.9824 35.5517 86.7207 36.0017 87.6288 35.4469L107.515 23.3692C107.993 23.04 108.391 22.5964 108.677 22.0747C108.962 21.553 109.126 20.9678 109.155 20.3667C109.143 19.2693 108.411 18.8254 107.503 19.3741Z" fill="#EBEBEB"/>
</svg>
