<svg width="64" height="64" viewBox="0 0 64 64" fill="none" xmlns="http://www.w3.org/2000/svg">
<rect width="64" height="64" rx="32" fill="white"/>
<path d="M42.7809 39.34L34.7009 32H29.2809L21.2009 39.34C18.9409 41.38 18.2009 44.52 19.3009 47.36C20.4009 50.18 23.0809 52 26.1009 52H37.8809C40.9209 52 43.5809 50.18 44.6809 47.36C45.7809 44.52 45.0409 41.38 42.7809 39.34ZM35.6409 44.28H28.3609C27.6009 44.28 27.0009 43.66 27.0009 42.92C27.0009 42.18 27.6209 41.56 28.3609 41.56H35.6409C36.4009 41.56 37.0009 42.18 37.0009 42.92C37.0009 43.66 36.3809 44.28 35.6409 44.28Z" fill="#1475FF"/>
<path d="M44.7013 16.64C43.6013 13.82 40.9213 12 37.9013 12H26.1013C23.0813 12 20.4013 13.82 19.3013 16.64C18.2213 19.48 18.9613 22.62 21.2213 24.66L29.3013 32H34.7213L42.8013 24.66C45.0413 22.62 45.7813 19.48 44.7013 16.64ZM35.6413 22.46H28.3613C27.6013 22.46 27.0013 21.84 27.0013 21.1C27.0013 20.36 27.6213 19.74 28.3613 19.74H35.6413C36.4013 19.74 37.0013 20.36 37.0013 21.1C37.0013 21.84 36.3813 22.46 35.6413 22.46Z" fill="#1475FF"/>
</svg>
