<svg width="64" height="64" viewBox="0 0 64 64" fill="none" xmlns="http://www.w3.org/2000/svg">
<rect width="64" height="64" rx="32" fill="white"/>
<path d="M31.998 12C20.978 12 11.998 20.98 11.998 32C11.998 43.02 20.978 52 31.998 52C43.018 52 51.998 43.02 51.998 32C51.998 20.98 43.018 12 31.998 12ZM40.698 39.14C40.418 39.62 39.918 39.88 39.398 39.88C39.138 39.88 38.878 39.82 38.638 39.66L32.438 35.96C30.898 35.04 29.758 33.02 29.758 31.24V23.04C29.758 22.22 30.438 21.54 31.258 21.54C32.078 21.54 32.758 22.22 32.758 23.04V31.24C32.758 31.96 33.358 33.02 33.978 33.38L40.178 37.08C40.898 37.5 41.138 38.42 40.698 39.14Z" fill="#1475FF"/>
</svg>
