<svg width="64" height="64" viewBox="0 0 64 64" fill="none" xmlns="http://www.w3.org/2000/svg">
<rect width="64" height="64" rx="32" fill="white"/>
<path d="M52 17.7001V41.4801C52 43.4201 50.42 45.2001 48.48 45.4401L47.86 45.5201C44.58 45.9601 39.96 47.3201 36.24 48.8801C34.94 49.4201 33.5 48.4401 33.5 47.0201V19.2001C33.5 18.4601 33.92 17.7801 34.58 17.4201C38.24 15.4401 43.78 13.6801 47.54 13.3601H47.66C50.06 13.3601 52 15.3001 52 17.7001Z" fill="#1475FF"/>
<path d="M29.4205 17.4199C25.7605 15.4399 20.2205 13.6799 16.4605 13.3599H16.3205C13.9205 13.3599 11.9805 15.2999 11.9805 17.6999V41.4799C11.9805 43.4199 13.5605 45.1999 15.5005 45.4399L16.1205 45.5199C19.4005 45.9599 24.0205 47.3199 27.7405 48.8799C29.0405 49.4199 30.4805 48.4399 30.4805 47.0199V19.1999C30.4805 18.4399 30.0805 17.7799 29.4205 17.4199ZM18.0005 23.4799H22.5005C23.3205 23.4799 24.0005 24.1599 24.0005 24.9799C24.0005 25.8199 23.3205 26.4799 22.5005 26.4799H18.0005C17.1805 26.4799 16.5005 25.8199 16.5005 24.9799C16.5005 24.1599 17.1805 23.4799 18.0005 23.4799ZM24.0005 32.4799H18.0005C17.1805 32.4799 16.5005 31.8199 16.5005 30.9799C16.5005 30.1599 17.1805 29.4799 18.0005 29.4799H24.0005C24.8205 29.4799 25.5005 30.1599 25.5005 30.9799C25.5005 31.8199 24.8205 32.4799 24.0005 32.4799Z" fill="#1475FF"/>
</svg>
