<svg width="64" height="64" viewBox="0 0 64 64" fill="none" xmlns="http://www.w3.org/2000/svg">
<rect width="64" height="64" rx="32" fill="white"/>
<path d="M43.0581 23.54C42.9181 23.52 42.7781 23.52 42.6381 23.54C39.5381 23.44 37.0781 20.9 37.0781 17.78C37.0781 14.6 39.6581 12 42.8581 12C46.0381 12 48.6381 14.58 48.6381 17.78C48.6181 20.9 46.1581 23.44 43.0581 23.54Z" fill="#1475FF"/>
<path d="M49.5812 37.3998C47.3412 38.8998 44.2012 39.4598 41.3012 39.0798C42.0612 37.4398 42.4612 35.6198 42.4812 33.6998C42.4812 31.6998 42.0412 29.7998 41.2012 28.1398C44.1612 27.7398 47.3012 28.2998 49.5612 29.7998C52.7212 31.8798 52.7212 35.2998 49.5812 37.3998Z" fill="#1475FF"/>
<path d="M20.8803 23.54C21.0203 23.52 21.1603 23.52 21.3003 23.54C24.4003 23.44 26.8603 20.9 26.8603 17.78C26.8603 14.58 24.2803 12 21.0803 12C17.9003 12 15.3203 14.58 15.3203 17.78C15.3203 20.9 17.7803 23.44 20.8803 23.54Z" fill="#1475FF"/>
<path d="M21.0983 33.7C21.0983 35.64 21.5183 37.48 22.2783 39.14C19.4583 39.44 16.5183 38.84 14.3583 37.42C11.1983 35.32 11.1983 31.9 14.3583 29.8C16.4983 28.36 19.5183 27.78 22.3583 28.1C21.5383 29.78 21.0983 31.68 21.0983 33.7Z" fill="#1475FF"/>
<path d="M32.2396 39.74C32.0796 39.72 31.8996 39.72 31.7196 39.74C28.0396 39.62 25.0996 36.6 25.0996 32.88C25.1196 29.08 28.1796 26 31.9996 26C35.7996 26 38.8796 29.08 38.8796 32.88C38.8596 36.6 35.9396 39.62 32.2396 39.74Z" fill="#1475FF"/>
<path d="M25.7377 43.8798C22.7177 45.8998 22.7177 49.2198 25.7377 51.2198C29.1777 53.5198 34.8177 53.5198 38.2577 51.2198C41.2777 49.1998 41.2777 45.8798 38.2577 43.8798C34.8377 41.5798 29.1977 41.5798 25.7377 43.8798Z" fill="#1475FF"/>
</svg>
