<svg width="64" height="64" viewBox="0 0 64 64" fill="none" xmlns="http://www.w3.org/2000/svg">
<rect width="64" height="64" rx="32" fill="white"/>
<path d="M50.998 33H45.998C43.798 33 41.998 34.8 41.998 37C41.998 39.2 43.798 41 45.998 41H50.998C51.558 41 51.998 40.56 51.998 40V34C51.998 33.44 51.558 33 50.998 33Z" fill="#1475FF"/>
<path d="M18.002 38C15.602 38 13.462 39.06 12.002 40.72C10.762 42.14 10.002 43.98 10.002 46C10.002 47.5 10.422 48.92 11.162 50.12C12.542 52.44 15.082 54 18.002 54C20.022 54 21.862 53.26 23.262 52C23.882 51.48 24.422 50.84 24.842 50.12C25.582 48.92 26.002 47.5 26.002 46C26.002 41.58 22.422 38 18.002 38ZM21.202 49.16C20.902 49.46 20.522 49.6 20.142 49.6C19.762 49.6 19.382 49.46 19.082 49.16L18.022 48.1L16.922 49.2C16.622 49.5 16.242 49.64 15.862 49.64C15.482 49.64 15.102 49.5 14.802 49.2C14.222 48.62 14.222 47.66 14.802 47.08L15.902 45.98L14.842 44.92C14.262 44.34 14.262 43.38 14.842 42.8C15.422 42.22 16.382 42.22 16.962 42.8L18.022 43.86L19.022 42.86C19.602 42.28 20.562 42.28 21.142 42.86C21.722 43.44 21.722 44.4 21.142 44.98L20.142 45.98L21.202 47.04C21.782 47.62 21.782 48.56 21.202 49.16Z" fill="#1475FF"/>
<path d="M41.0604 18.8001C41.6604 19.3801 41.1604 20.2801 40.3204 20.2801L23.7604 20.2601C22.8004 20.2601 22.3204 19.1001 23.0004 18.4201L26.5004 14.9001C29.4604 11.9601 34.2404 11.9601 37.2004 14.9001L40.9804 18.7201C41.0004 18.7401 41.0404 18.7801 41.0604 18.8001Z" fill="#1475FF"/>
<path d="M51.7407 45.32C50.5207 49.44 47.0007 52 42.2007 52H29.2007C28.4207 52 27.9207 51.14 28.2407 50.42C28.8407 49.02 29.2207 47.44 29.2207 46C29.2207 39.94 24.2807 35 18.2207 35C16.7007 35 15.2207 35.32 13.8607 35.92C13.1207 36.24 12.2207 35.74 12.2207 34.94V32C12.2207 26.56 15.5007 22.76 20.6007 22.12C21.1007 22.04 21.6407 22 22.2007 22H42.2007C42.7207 22 43.2207 22.02 43.7007 22.1C47.7407 22.56 50.6607 25.02 51.7407 28.68C51.9407 29.34 51.4607 30 50.7807 30H46.2007C41.8607 30 38.4207 33.96 39.3607 38.46C40.0207 41.74 43.0607 44 46.4007 44H50.7807C51.4807 44 51.9407 44.68 51.7407 45.32Z" fill="#1475FF"/>
</svg>
