<svg width="24" height="24" viewBox="0 0 24 24" fill="none" xmlns="http://www.w3.org/2000/svg">
<path fill-rule="evenodd" clip-rule="evenodd" d="M2 4.85714C2 4.09938 2.30102 3.37266 2.83684 2.83684C3.37266 2.30102 4.09938 2 4.85714 2H6.16381C6.98286 2 7.69714 2.5581 7.89619 3.35238L8.94857 7.56476C9.03385 7.90571 9.01663 8.26425 8.89905 8.59545C8.78148 8.92666 8.56879 9.2158 8.28762 9.42667L7.05619 10.3505C6.92762 10.4467 6.9 10.5876 6.93619 10.6857C7.47369 12.1475 8.32247 13.475 9.42376 14.5762C10.525 15.6775 11.8525 16.5263 13.3143 17.0638C13.4124 17.1 13.5524 17.0724 13.6495 16.9438L14.5733 15.7124C14.7842 15.4312 15.0733 15.2185 15.4045 15.1009C15.7358 14.9834 16.0943 14.9661 16.4352 15.0514L20.6476 16.1038C21.4419 16.3029 22 17.0171 22 17.8371V19.1429C22 19.9006 21.699 20.6273 21.1632 21.1632C20.6273 21.699 19.9006 22 19.1429 22H17C8.71619 22 2 15.2838 2 7V4.85714Z" fill="#1475FF"/>
</svg>
