<svg width="165" height="48" viewBox="0 0 165 48" fill="none" xmlns="http://www.w3.org/2000/svg">
<g clip-path="url(#clip0_2532_975)">
<path d="M158.797 48H6.20301C2.72932 48 0 45.36 0 42V6C0 2.64 2.72932 0 6.20301 0H158.797C162.271 0 165 2.64 165 6V42C165 45.36 162.271 48 158.797 48Z" fill="black"/>
<path d="M84.4865 26.1595C81.509 26.1595 79.1519 28.3195 79.1519 31.3195C79.1519 34.1995 81.509 36.4795 84.4865 36.4795C87.4639 36.4795 89.8211 34.3195 89.8211 31.3195C89.8211 28.1995 87.4639 26.1595 84.4865 26.1595ZM84.4865 34.3195C82.8737 34.3195 81.509 32.9995 81.509 31.1995C81.509 29.3995 82.8737 28.0795 84.4865 28.0795C86.0993 28.0795 87.4639 29.2795 87.4639 31.1995C87.4639 32.9995 86.0993 34.3195 84.4865 34.3195ZM72.9489 26.1595C69.9714 26.1595 67.6143 28.3195 67.6143 31.3195C67.6143 34.1995 69.9714 36.4795 72.9489 36.4795C75.9263 36.4795 78.2835 34.3195 78.2835 31.3195C78.2835 28.1995 75.9263 26.1595 72.9489 26.1595ZM72.9489 34.3195C71.3361 34.3195 69.9714 32.9995 69.9714 31.1995C69.9714 29.3995 71.3361 28.0795 72.9489 28.0795C74.5617 28.0795 75.9263 29.2795 75.9263 31.1995C75.9263 32.9995 74.5617 34.3195 72.9489 34.3195ZM59.1782 27.7195V29.8795H64.5128C64.3887 31.0795 63.8925 32.0395 63.2722 32.6395C62.5278 33.3595 61.2872 34.1995 59.1782 34.1995C55.8286 34.1995 53.3474 31.6795 53.3474 28.4395C53.3474 25.1995 55.9526 22.6795 59.1782 22.6795C60.915 22.6795 62.2797 23.3995 63.2722 24.2395L64.885 22.6795C63.5203 21.4795 61.7835 20.5195 59.3023 20.5195C54.8361 20.5195 50.9902 24.1195 50.9902 28.4395C50.9902 32.7595 54.8361 36.3595 59.3023 36.3595C61.7835 36.3595 63.5203 35.6395 65.009 34.0795C66.4978 32.6395 66.994 30.5995 66.994 29.0395C66.994 28.5595 66.994 28.0795 66.8699 27.7195H59.1782ZM115.502 29.3995C115.005 28.1995 113.765 26.1595 111.035 26.1595C108.306 26.1595 106.073 28.1995 106.073 31.3195C106.073 34.1995 108.306 36.4795 111.283 36.4795C113.641 36.4795 115.129 35.0395 115.626 34.1995L113.889 32.9995C113.268 33.8395 112.524 34.4395 111.283 34.4395C110.043 34.4395 109.299 33.9595 108.678 32.8795L115.75 29.9995L115.502 29.3995ZM108.306 31.0795C108.306 29.1595 109.919 28.0795 111.035 28.0795C111.904 28.0795 112.772 28.5595 113.02 29.1595L108.306 31.0795ZM102.475 35.9995H104.832V20.9995H102.475V35.9995ZM98.7534 27.2395C98.1331 26.6395 97.1406 26.0395 95.9 26.0395C93.2948 26.0395 90.8135 28.3195 90.8135 31.1995C90.8135 34.0795 93.1707 36.2395 95.9 36.2395C97.1406 36.2395 98.1331 35.6395 98.6293 35.0395H98.7534V35.7595C98.7534 37.6795 97.6369 38.7595 95.9 38.7595C94.5354 38.7595 93.5429 37.7995 93.2947 36.9595L91.3098 37.7995C91.9301 39.1195 93.4188 40.7995 96.0241 40.7995C98.7534 40.7995 100.986 39.2395 100.986 35.5195V26.3995H98.7534V27.2395ZM96.0241 34.3195C94.4113 34.3195 93.0466 32.9995 93.0466 31.1995C93.0466 29.3995 94.4113 28.0795 96.0241 28.0795C97.6369 28.0795 98.8775 29.3995 98.8775 31.1995C98.8775 32.9995 97.6369 34.3195 96.0241 34.3195ZM126.295 20.9995H120.712V35.9995H123.069V30.3595H126.295C128.9 30.3595 131.381 28.5595 131.381 25.6795C131.381 22.7995 128.9 20.9995 126.295 20.9995ZM126.419 28.1995H123.069V23.0395H126.419C128.156 23.0395 129.148 24.4795 129.148 25.5595C129.024 26.8795 128.032 28.1995 126.419 28.1995ZM140.686 26.0395C138.949 26.0395 137.212 26.7595 136.592 28.3195L138.701 29.1595C139.197 28.3195 139.941 28.0795 140.81 28.0795C142.05 28.0795 143.167 28.7995 143.291 29.9995V30.1195C142.919 29.8795 141.926 29.5195 140.934 29.5195C138.701 29.5195 136.468 30.7195 136.468 32.8795C136.468 34.9195 138.329 36.2395 140.314 36.2395C141.926 36.2395 142.671 35.5195 143.291 34.7995H143.415V35.9995H145.648V30.2395C145.4 27.5995 143.291 26.0395 140.686 26.0395ZM140.438 34.3195C139.693 34.3195 138.577 33.9595 138.577 32.9995C138.577 31.7995 139.941 31.4395 141.058 31.4395C142.05 31.4395 142.547 31.6795 143.167 31.9195C142.919 33.3595 141.678 34.3195 140.438 34.3195ZM153.464 26.3995L150.859 32.8795H150.735L148.005 26.3995H145.524L149.618 35.5195L147.261 40.5595H149.618L155.945 26.3995H153.464ZM132.622 35.9995H134.979V20.9995H132.622V35.9995Z" fill="white"/>
<path d="M12.9025 9C12.5303 9.36 12.4062 9.96 12.4062 10.68V37.2C12.4062 37.92 12.6544 38.52 13.0266 38.88L13.1506 39L28.5341 24.12V23.88L12.9025 9Z" fill="url(#paint0_linear_2532_975)"/>
<path d="M33.4966 29.16L28.4102 24.24V23.88L33.4966 18.96L33.6207 19.08L39.6996 22.44C41.4365 23.4 41.4365 24.96 39.6996 25.92L33.4966 29.16Z" fill="url(#paint1_linear_2532_975)"/>
<path d="M33.6204 29.04L28.4099 24L12.9023 39C13.5226 39.6 14.3911 39.6 15.5076 39.12L33.6204 29.04Z" fill="url(#paint2_linear_2532_975)"/>
<path d="M33.6204 18.9599L15.5076 8.99994C14.3911 8.39994 13.5226 8.51994 12.9023 9.11994L28.4099 23.9999L33.6204 18.9599Z" fill="url(#paint3_linear_2532_975)"/>
<path opacity="0.2" d="M33.4963 28.9199L15.5076 38.7599C14.5151 39.3599 13.6467 39.2399 13.0264 38.7599L12.9023 38.8799L13.0264 38.9999C13.6467 39.4799 14.5151 39.5999 15.5076 38.9999L33.4963 28.9199Z" fill="black"/>
<path opacity="0.12" d="M12.9025 38.76C12.5303 38.4 12.4062 37.8 12.4062 37.08V37.2C12.4062 37.92 12.6544 38.52 13.0266 38.88V38.76H12.9025ZM39.6995 25.56L33.4965 28.92L33.6205 29.04L39.6995 25.68C40.5679 25.2 40.9401 24.6 40.9401 24C40.9401 24.6 40.4438 25.08 39.6995 25.56Z" fill="black"/>
<path opacity="0.25" d="M15.5078 9.12003L39.6995 22.44C40.4438 22.92 40.9401 23.4 40.9401 24C40.9401 23.4 40.5679 22.8 39.6995 22.32L15.5078 9.00003C13.7709 8.04003 12.4062 8.76003 12.4062 10.68V10.8C12.4062 9.00003 13.7709 8.16003 15.5078 9.12003Z" fill="white"/>
<path d="M52.2297 17.1603H51.3613V14.7603H52.1057C52.726 14.2803 53.0982 13.3203 53.0982 12.0003V8.40027H58.0606V14.7603H58.929V17.1603H58.0606V15.6003H52.3538V17.1603H52.2297ZM53.9666 12.0003C53.9666 13.0803 53.7185 14.0403 53.2222 14.7603H56.944V9.24027H53.8425V12.0003H53.9666ZM66.2485 14.6403C65.5042 15.3603 64.6358 15.7203 63.5192 15.7203C62.4027 15.7203 61.5343 15.3603 60.7899 14.6403C60.0455 13.9203 59.6734 13.0803 59.6734 12.0003C59.6734 10.9203 60.0455 10.0803 60.7899 9.36027C61.5343 8.64027 62.4027 8.28027 63.5192 8.28027C64.6358 8.28027 65.5042 8.64027 66.2485 9.36027C66.9929 10.0803 67.3651 10.9203 67.3651 12.0003C67.3651 13.0803 66.9929 13.9203 66.2485 14.6403ZM61.5343 14.0403C62.0305 14.5203 62.7749 14.8803 63.5192 14.8803C64.2636 14.8803 65.0079 14.6403 65.5042 14.0403C66.0004 13.5603 66.3726 12.8403 66.3726 12.0003C66.3726 11.1603 66.1245 10.4403 65.5042 9.96027C65.0079 9.48027 64.2636 9.12027 63.5192 9.12027C62.7749 9.12027 62.0305 9.36027 61.5343 9.96027C61.038 10.4403 60.6658 11.1603 60.6658 12.0003C60.6658 12.8403 60.914 13.5603 61.5343 14.0403ZM72.2034 15.7203C71.0869 15.7203 70.2185 15.3603 69.4741 14.6403C68.7297 13.9203 68.3576 13.0803 68.3576 12.0003C68.3576 10.9203 68.7297 10.0803 69.4741 9.36027C70.2185 8.64027 71.0869 8.28027 72.2034 8.28027C73.32 8.28027 74.1884 8.64027 74.9328 9.48027L74.3125 10.0803C73.8162 9.48027 73.0719 9.12027 72.2034 9.12027C71.335 9.12027 70.7147 9.36027 70.0944 9.96027C69.4741 10.4403 69.226 11.1603 69.226 12.0003C69.226 12.8403 69.4741 13.5603 70.0944 14.0403C70.5906 14.5203 71.335 14.8803 72.2034 14.8803C73.0719 14.8803 73.8162 14.5203 74.4365 13.8003L75.0568 14.4003C74.6846 14.7603 74.3125 15.1203 73.8162 15.3603C73.32 15.6003 72.8237 15.7203 72.2034 15.7203ZM79.0267 15.6003H78.0343V9.24027H75.9252V8.40027H81.0117V9.24027H78.9027V15.6003H79.0267ZM87.5869 8.40027L84.7335 14.5203C84.3613 15.3603 83.741 15.8403 82.9967 15.8403C82.7485 15.8403 82.5004 15.8403 82.2523 15.7203L82.5004 14.8803C82.6245 15.0003 82.8726 15.0003 82.9967 15.0003C83.2448 15.0003 83.3688 15.0003 83.4929 14.8803C83.617 14.7603 83.741 14.6403 83.8651 14.4003L84.1132 13.8003L81.632 8.52027H82.7485L84.6094 12.6003L86.4703 8.40027H87.5869ZM88.7034 15.6003V8.40027H94.038V15.6003H93.0455V9.24027H89.5718V15.6003H88.7034ZM95.7749 15.6003V8.40027H96.7673V11.5203H100.489V8.40027H101.482V15.6003H100.489V12.3603H96.7673V15.6003H95.7749ZM109.297 14.6403C108.553 15.3603 107.685 15.7203 106.568 15.7203C105.452 15.7203 104.583 15.3603 103.839 14.6403C103.094 13.9203 102.722 13.0803 102.722 12.0003C102.722 10.9203 103.094 10.0803 103.839 9.36027C104.583 8.64027 105.452 8.28027 106.568 8.28027C107.685 8.28027 108.553 8.64027 109.297 9.36027C110.042 10.0803 110.414 10.9203 110.414 12.0003C110.29 13.0803 109.918 13.9203 109.297 14.6403ZM104.459 14.0403C104.955 14.5203 105.7 14.8803 106.444 14.8803C107.188 14.8803 107.933 14.6403 108.429 14.0403C108.925 13.5603 109.297 12.8403 109.297 12.0003C109.297 11.1603 109.049 10.4403 108.429 9.96027C107.933 9.48027 107.188 9.12027 106.444 9.12027C105.7 9.12027 104.955 9.36027 104.459 9.96027C103.902 10.5027 103.59 11.236 103.59 12.0003C103.59 12.7646 103.902 13.4979 104.459 14.0403ZM114.26 15.6003V8.40027H116.989C117.609 8.40027 118.106 8.64027 118.478 9.00027C118.85 9.36027 119.098 9.84027 119.098 10.3203C119.098 10.6803 118.974 10.9203 118.85 11.2803C118.726 11.5203 118.478 11.7603 118.106 11.8803C118.478 12.0003 118.726 12.2403 118.974 12.4803C119.222 12.7203 119.346 13.0803 119.346 13.5603C119.346 14.1603 119.098 14.6403 118.726 15.0003C118.23 15.3603 117.734 15.6003 117.113 15.6003H114.26ZM115.252 11.5203H116.989C117.361 11.5203 117.609 11.4003 117.858 11.1603C118.106 10.9203 118.23 10.6803 118.23 10.4403C118.23 10.2003 117.982 9.84027 117.858 9.60027C117.609 9.36027 117.361 9.24027 116.989 9.24027H115.252V11.5203ZM115.252 14.7603H117.237C117.609 14.7603 117.858 14.6403 118.106 14.4003C118.354 14.1603 118.478 13.9203 118.478 13.5603C118.478 13.3203 118.354 12.9603 118.106 12.7203C117.858 12.4803 117.609 12.3603 117.237 12.3603H115.376V14.7603H115.252Z" fill="white" stroke="white" stroke-width="0.2" stroke-miterlimit="10"/>
</g>
<defs>
<linearGradient id="paint0_linear_2532_975" x1="27.0453" y1="10.452" x2="6.91685" y2="31.2603" gradientUnits="userSpaceOnUse">
<stop stop-color="#00A0FF"/>
<stop offset="0.007" stop-color="#00A1FF"/>
<stop offset="0.26" stop-color="#00BEFF"/>
<stop offset="0.512" stop-color="#00D2FF"/>
<stop offset="0.76" stop-color="#00DFFF"/>
<stop offset="1" stop-color="#00E3FF"/>
</linearGradient>
<linearGradient id="paint1_linear_2532_975" x1="41.9749" y1="24.0012" x2="11.9561" y2="24.0012" gradientUnits="userSpaceOnUse">
<stop stop-color="#FFE000"/>
<stop offset="0.409" stop-color="#FFBD00"/>
<stop offset="0.775" stop-color="#FFA500"/>
<stop offset="1" stop-color="#FF9C00"/>
</linearGradient>
<linearGradient id="paint2_linear_2532_975" x1="30.8005" y1="26.7552" x2="3.50601" y2="54.9732" gradientUnits="userSpaceOnUse">
<stop stop-color="#FF3A44"/>
<stop offset="1" stop-color="#C31162"/>
</linearGradient>
<linearGradient id="paint3_linear_2532_975" x1="9.05276" y1="0.211139" x2="21.2416" y2="12.8124" gradientUnits="userSpaceOnUse">
<stop stop-color="#32A071"/>
<stop offset="0.069" stop-color="#2DA771"/>
<stop offset="0.476" stop-color="#15CF74"/>
<stop offset="0.801" stop-color="#06E775"/>
<stop offset="1" stop-color="#00F076"/>
</linearGradient>
<clipPath id="clip0_2532_975">
<rect width="165" height="48" fill="white"/>
</clipPath>
</defs>
</svg>
