<svg width="1606" height="1103" viewBox="0 0 1606 1103" fill="none" xmlns="http://www.w3.org/2000/svg">
<path d="M301.962 595.021C304.941 609.133 311.11 619.162 320.62 625.2C357.932 649.007 436.547 603.448 499.794 566.828C536.711 545.415 568.639 526.998 576.664 532.817C580.354 535.435 578.939 543.596 572.73 556.905C567.043 568.98 565.806 575.503 569.126 577.606C576.664 582.355 606.343 559.477 647.631 527.812C713.877 476.911 804.496 407.1 840.038 428.092C868.111 444.669 857.365 516.991 808.16 643.044C776.846 723.197 763.566 791.564 768.3 846.192C772.582 894.343 790.784 931.033 822.292 955.211C848.818 975.603 884.799 986.294 926.195 986.105C964.591 985.944 1005.65 976.729 1044.72 959.332C1085.95 941.01 1122.06 914.555 1146.48 884.718C1173.5 851.699 1185.97 815.417 1182.63 779.756L1181.34 779.851C1187.82 848.332 1133.98 918.362 1044.11 958.283C961.193 995.232 874.322 993.632 823.036 954.4C791.701 930.423 773.696 894.047 769.484 846.229C764.647 791.732 777.95 723.477 809.185 643.567C859.335 515.176 869.501 444.443 840.529 427.323C804.238 405.877 713.161 475.994 646.582 527.178C608.916 556.185 576.406 581.133 569.767 576.927C567.969 575.84 567.18 571.486 573.778 557.539C580.456 543.349 581.618 535.229 577.432 532.118C568.633 525.735 538.002 543.481 499.101 566.022C439.592 600.539 358.053 647.723 321.363 624.389C294.483 607.273 294.823 553.772 322.183 465.412L320.952 465.153C302.495 524.478 296.169 567.575 301.962 595.021Z" fill="url(#paint0_linear_2701_161)"/>
<path d="M296.574 583.717C299.647 598.274 306.036 608.727 315.845 614.946C332.79 625.864 359.615 624.139 397.709 609.545C430.478 596.968 465.803 577.308 497.161 559.903C534.368 539.247 566.539 521.365 574.612 527.407C578.325 530.135 576.99 538.054 570.859 551.12C565.253 562.952 564.245 569.323 567.438 571.447C575 576.307 604.946 554.075 646.295 523.32C712.823 473.752 803.967 405.809 840.178 427.497C868.598 444.477 858.778 515.613 811.102 639.004C780.747 717.507 768.243 784.597 773.998 838.485C779.047 885.937 797.857 922.412 830.17 946.689C858.621 968.147 896.788 979.287 940.758 978.908C981.074 978.55 1025.2 968.376 1065.01 950.168C1104.93 931.829 1138.12 907.001 1161.09 878.32C1186.11 847.005 1197.26 812.546 1193.47 778.453L1192.18 778.548C1200.92 857.12 1131.97 918.116 1064.27 949.14C977.61 988.768 885.97 987.485 830.788 945.899C798.901 921.782 780.161 885.64 775.158 838.411C769.427 784.635 781.954 717.655 812.23 639.395C837.616 573.885 852.416 522.626 856.28 487.056C859.756 455.227 854.533 434.814 840.898 426.575C803.938 404.434 712.335 472.682 645.452 522.422C607.598 550.54 574.971 574.932 568.285 570.504C565.714 568.854 566.975 562.442 572.114 551.491C578.736 537.654 579.794 529.666 575.458 526.464C566.613 519.859 535.612 537.091 496.421 558.875C436.298 592.342 353.925 638.053 316.542 613.912C289.465 596.484 289.062 543.793 315.28 457.459L314.049 457.199C296.631 514.631 290.827 556.494 296.574 583.717Z" fill="url(#paint1_linear_2701_161)"/>
<path d="M290.926 572.452C294.093 587.453 300.679 598.219 310.834 604.841C328.126 616.163 355.17 614.862 393.808 600.984C426.97 589.032 462.689 569.998 494.29 553.128C531.764 533.119 564.203 515.883 572.449 522.126C576.162 524.854 574.953 532.752 568.982 545.333C563.558 556.79 562.549 563.161 565.766 565.396C573.501 570.458 603.438 548.802 644.975 518.936C711.911 470.681 803.58 404.606 840.484 427.101C869.124 444.505 860.254 514.567 814.06 635.073C784.664 711.925 772.96 777.851 779.608 831.019C785.448 877.882 804.97 914.011 837.836 938.428C868.06 960.861 908.666 972.409 955.361 971.931C998.124 971.404 1044.3 960.436 1085.2 941.134C1123.24 923.215 1154.42 899.402 1175.6 872.162C1198.61 842.439 1208.55 809.672 1204.2 777.279L1202.91 777.374C1212.7 851.637 1148.2 910.185 1084.6 940.195C1010.77 974.976 906.132 987.648 838.706 937.597C806.14 913.361 786.665 877.454 780.896 830.924C774.421 777.958 785.895 712.185 815.315 635.443C839.845 571.451 854.074 521.205 857.526 486.162C860.568 454.749 855.138 434.599 841.331 426.159C803.678 403.211 711.55 469.59 644.282 518.129C606.39 545.448 573.599 569.063 566.636 564.565C564.042 562.803 565.2 556.523 570.283 545.926C576.619 532.595 577.552 524.628 573.342 521.406C564.324 514.599 533.205 531.275 493.597 552.322C432.861 584.74 349.654 628.978 311.578 604.03C284.281 586.178 283.157 534.409 308.211 449.988L306.98 449.729C290.529 504.934 285.25 545.562 290.926 572.452Z" fill="url(#paint2_linear_2701_161)"/>
<path d="M285.026 561.228C288.309 576.784 295.116 587.974 305.445 594.798C323.082 606.522 350.624 605.716 389.678 592.574C423.234 581.248 459.346 562.839 491.318 546.484C529.208 527.211 561.891 510.51 570.31 516.955C574.046 519.795 572.917 527.449 567.152 539.767C561.807 550.982 560.902 557.221 564.245 559.435C572.003 564.608 602.207 543.598 643.932 514.621C711.275 467.679 803.596 403.452 841.17 426.642C870.18 444.561 862.087 513.347 817.296 631.211C788.732 706.433 777.954 771.174 785.37 823.642C791.874 869.937 812.257 905.812 845.801 930.348C877.8 953.756 920.869 965.822 970.264 965.135C1015.62 964.529 1063.63 952.919 1105.49 932.654C1141.39 915.085 1170.69 892.268 1190.08 866.468C1211.2 838.318 1219.93 807.242 1215.25 776.397L1213.99 776.602C1223.01 836.05 1182.18 894.075 1104.75 931.625C1030.78 967.579 918.442 982.194 846.418 929.557C813.174 905.202 792.964 869.53 786.404 823.589C779.012 771.232 789.71 706.734 818.298 631.622C842.074 569.017 855.63 519.915 858.671 485.399C861.427 454.492 855.618 434.404 841.638 425.762C803.315 402.119 710.535 466.65 642.836 513.765C604.654 540.326 571.722 563.275 564.712 558.554C561.992 556.813 563.173 550.644 568.027 540.199C574.181 527.244 575.137 519.387 570.927 516.165C561.886 509.247 530.373 525.297 490.475 545.587C428.998 576.976 344.854 619.873 306.062 594.007C278.695 575.821 276.803 524.753 300.716 442.356L299.485 442.097C286.848 485.647 281.328 520.797 282.964 546.507C283.411 551.721 284.064 556.672 285.026 561.228Z" fill="url(#paint3_linear_2701_161)"/>
<path d="M278.875 550.047C282.253 566.048 289.279 577.662 299.955 584.889C317.916 596.906 345.85 596.724 385.425 584.188C419.374 573.488 455.983 555.573 488.221 539.863C526.505 521.216 559.455 505.161 567.897 511.717C571.508 514.577 570.608 522.08 564.898 534.043C559.759 544.995 558.83 551.123 562.174 553.337C570.105 558.712 600.324 538.389 642.339 510.169C710.24 464.631 803.189 402.14 841.456 426.137C870.686 444.48 863.542 512.192 820.281 627.392C792.573 701.097 782.745 764.763 790.927 816.532C798.223 862.238 819.34 897.878 853.563 922.533C887.487 947.008 932.994 959.481 985.09 958.584C1033.03 957.789 1083.01 945.627 1125.57 924.329C1198.41 887.985 1236.07 832.314 1226.18 775.537L1224.92 775.743C1234.69 831.965 1197.22 887.26 1124.85 923.411C1046.23 962.764 927.988 974.779 854.307 921.723C820.257 897.269 799.313 861.831 792.088 816.458C783.803 764.821 793.677 701.376 821.283 627.804C844.33 566.697 857.292 518.497 859.794 484.527C862.116 454.036 856.077 434.101 841.923 425.257C802.907 400.807 709.476 463.491 641.37 509.292C603.023 535.076 569.927 557.246 562.768 552.436C560.024 550.584 561.102 544.546 565.9 534.455C571.871 521.874 572.724 514.149 568.491 510.816C559.403 503.675 527.497 519.101 487.331 538.744C425.218 568.973 340.01 610.548 300.375 583.786C272.788 565.176 270.302 515.008 293.05 434.526L291.819 434.266C279.753 476.804 274.724 511.185 276.795 536.478C277.322 541.45 277.984 545.825 278.875 550.047Z" fill="url(#paint4_linear_2701_161)"/>
<path d="M272.321 538.816C275.792 555.261 283.039 567.299 294.038 574.818C312.345 587.238 340.65 587.571 380.768 575.751C415.213 565.545 452.239 548.366 484.847 533.172C523.525 515.15 556.868 499.72 565.358 506.498C568.991 509.47 568.068 516.861 562.667 528.43C557.607 539.138 556.782 545.135 560.148 547.46C568.103 552.946 598.589 533.269 640.792 505.938C709.227 461.692 802.804 400.938 841.764 425.742C871.341 444.488 865.021 511.146 823.036 623.725C796.183 695.911 787.179 758.524 796.279 809.683C804.365 854.801 826.217 890.206 861.269 915.072C897.093 940.501 945.062 953.493 1000.01 952.476C1050.54 951.603 1102.24 938.931 1145.38 916.62C1177.32 900.154 1202.81 879.107 1218.99 856.015C1236.73 830.483 1242.99 803.144 1237.56 774.949L1236.29 775.154C1246.76 829.079 1213.41 880.371 1144.79 915.682C1064.17 957.315 941.12 970.111 862.242 914.109C827.49 889.424 805.811 854.221 797.795 809.436C788.742 758.499 797.667 696.129 824.543 624.055C846.837 564.335 859.229 517.146 861.319 483.704C863.229 453.739 857.065 433.825 842.737 424.779C803.028 399.523 708.843 460.49 640.178 504.889C601.668 529.895 568.304 551.419 561.121 546.497C558.378 544.645 559.353 538.739 564.048 528.78C569.814 516.462 570.69 508.848 566.457 505.515C557.195 498.173 525.045 513.063 484.463 531.97C421.483 561.19 335.316 601.313 294.987 573.744C267.203 554.821 264.077 505.333 285.684 426.875L284.452 426.616C273.084 468.12 268.419 501.752 270.822 526.762C270.955 531.108 271.547 535.149 272.321 538.816Z" fill="url(#paint5_linear_2701_161)"/>
<path d="M265.538 527.738C269.103 544.628 276.57 557.09 287.892 564.901C306.569 577.836 335.371 578.663 376.032 567.559C410.997 557.957 448.416 541.404 481.521 526.703C520.616 509.418 554.305 494.392 562.991 501.483C566.625 504.454 565.805 511.714 560.483 523.04C555.63 533.485 554.78 539.37 558.147 541.695C566.275 547.383 596.878 528.262 639.269 501.82C708.215 458.755 802.719 399.919 842.372 425.529C872.193 444.81 866.672 510.304 826.217 620.22C800.117 691.019 792.039 752.446 802.056 802.997C810.933 847.526 833.543 882.808 869.377 907.661C907.228 934.024 957.637 947.424 1015.23 946.551C1067.73 945.702 1122.37 932.092 1165.15 909.378C1229.3 875.141 1259.87 826.142 1249.03 774.806C1249.01 774.694 1248.98 774.583 1248.94 774.361L1247.67 774.567C1247.7 774.678 1247.72 774.789 1247.77 775.011C1258.51 825.903 1228.12 874.528 1164.41 908.349C1084.03 951.093 953.502 964.993 869.994 906.871C816.209 869.424 765.165 789.235 827.345 620.611C848.887 562.278 860.557 516.012 862.386 483.187C863.987 453.617 857.467 433.875 843.093 424.607C802.667 398.433 707.727 457.685 638.426 500.922C599.625 525.171 566.12 546.029 558.764 540.905C556.021 539.053 556.996 533.147 561.509 523.562C567.092 511.619 567.865 504.137 563.759 500.783C554.45 493.219 521.93 507.595 480.931 525.765C417.211 553.957 329.957 592.647 288.762 564.07C260.884 544.702 257.037 496.136 277.606 419.571L276.375 419.312C265.576 459.804 261.426 492.777 263.989 517.302C264.234 520.94 264.834 524.405 265.538 527.738Z" fill="url(#paint6_linear_2701_161)"/>
<path d="M258.48 516.588C262.139 533.923 269.826 546.808 281.471 554.911C324.131 584.859 412.954 547.408 477.896 520.051C517.384 503.392 551.467 488.991 560.2 496.304C563.857 499.387 563.093 506.293 557.851 517.376C553.053 527.467 552.33 533.331 555.697 535.657C563.849 541.455 594.719 522.981 637.4 497.295C707.006 455.502 802.265 398.383 842.762 424.89C872.802 444.595 868.105 509.035 829.076 616.42C803.729 685.832 796.498 746.317 807.432 796.258C817.1 840.199 840.571 875.226 877.13 900.42C963.518 959.798 1101.29 948.051 1184.47 902.438C1244.36 869.699 1271.97 822.791 1260.49 773.973L1259.23 774.179C1270.72 822.42 1243.14 868.864 1183.73 901.409C1100.91 946.849 963.915 958.584 877.898 899.721C822.881 862.015 770.012 782.468 830.251 617.033C851.04 560.087 862.266 514.813 863.534 482.424C864.699 453.27 857.95 433.681 843.529 424.19C802.26 397.119 706.566 454.654 636.707 496.489C597.615 519.98 563.97 540.171 556.441 534.846C553.674 532.883 554.57 527.22 558.979 517.767C564.506 506.177 565.051 498.848 560.921 495.383C551.565 487.596 518.675 501.457 477.132 518.911C412.546 546.095 324.079 583.374 282.042 553.899C253.967 534.219 249.605 486.311 269.009 411.66L267.778 411.401C257.55 450.881 253.765 483.105 256.786 507.324C257.363 510.679 257.87 513.699 258.48 516.588Z" fill="url(#paint7_linear_2701_161)"/>
<path d="M251.044 505.504C254.797 523.283 262.705 536.592 274.696 545.099C318.223 576.055 408.259 540.015 474.067 513.667C513.972 497.744 548.551 483.837 557.331 491.373C560.988 494.455 560.327 501.229 555.291 512.049C550.675 521.765 550.102 527.721 553.343 530.066C561.541 536.087 592.655 518.148 635.65 493.331C705.917 452.809 802.057 397.385 843.27 424.81C873.531 444.939 869.657 508.325 831.928 613.2C807.46 681.205 800.949 740.768 812.801 790.1C823.282 833.564 847.512 868.467 884.979 893.628C926.286 921.498 983.253 936.243 1045.28 935.337C1102.92 934.686 1160.65 920.228 1203.64 895.988C1229.91 881.135 1250.11 862.903 1262.02 843.148C1275.07 821.369 1278.51 798.051 1272.34 773.77L1271.08 773.975C1283 820.538 1258.88 863.545 1202.92 895.07C1120.81 941.427 976.347 953.689 885.85 892.797C829.626 854.943 774.861 775.704 833.182 613.571C853.218 558.012 863.85 513.639 864.832 481.756C865.713 453.108 858.711 433.56 844.116 423.868C802.131 395.879 705.533 451.607 634.91 492.302C595.528 515.036 561.616 534.581 554.063 529.144C551.296 527.181 552.065 521.539 556.419 512.44C561.764 501.225 562.331 494.006 558.201 490.541C548.799 482.533 515.516 495.768 473.453 512.617C408 538.792 318.194 574.68 275.416 544.177C247.271 524.164 242.292 477.045 260.635 404.177L259.403 403.917C249.746 442.385 246.475 473.951 249.679 497.796C250.115 500.483 250.528 503.059 251.044 505.504Z" fill="url(#paint8_linear_2701_161)"/>
<path d="M243.352 494.456C247.199 512.679 255.303 526.301 267.641 535.211C312.034 567.176 403.409 532.527 470.234 507.278C510.659 491.959 545.632 478.679 554.459 486.436C558.139 489.63 557.454 496.293 552.6 506.738C548.065 516.212 547.468 522.056 550.835 524.381C559.207 530.603 590.438 513.219 633.873 489.25C704.801 450 802.074 396.231 844.027 424.685C858.369 434.418 865.403 453.501 864.887 481.4C864.294 512.645 854.231 556.005 835.052 610.046C811.235 676.795 805.697 735.395 818.489 784.229C829.785 827.215 854.876 861.863 893.171 887.235C936.584 915.796 996.037 931.171 1060.58 930.429C1120.67 929.61 1179.66 914.946 1222.38 890.059C1274.77 859.575 1296.65 818.313 1284.09 773.693L1282.85 774.01C1295.29 818.075 1273.59 858.962 1221.67 889.141C1138.67 937.482 987.128 947.793 893.868 886.202C836.287 848.109 779.524 769.311 836.157 610.326C855.439 556.153 865.478 512.682 866.048 481.326C866.62 453.073 859.389 433.677 844.621 423.783C801.919 394.877 704.314 448.93 633.03 488.353C593.357 510.33 559.178 529.229 551.579 523.57C548.788 521.496 549.581 515.965 553.729 507.129C558.868 496.177 559.482 489.181 555.329 485.605C545.729 477.283 512.226 490.095 469.62 506.228C403.175 531.416 312.155 565.892 268.385 534.401C240.169 514.054 234.573 467.726 251.877 396.75L250.646 396.491C241.559 433.946 238.677 464.874 242.189 488.324C242.611 490.324 242.93 492.456 243.352 494.456Z" fill="url(#paint9_linear_2701_161)"/>
<path d="M235.386 483.338C239.326 502.006 247.651 516.052 260.335 525.365C305.618 558.449 398.332 525.191 466.15 500.93C507.095 486.216 542.461 473.561 551.461 481.52C555.142 484.714 554.56 491.245 549.762 501.336C545.432 510.547 544.812 516.28 548.076 518.737C556.471 525.07 588.096 508.312 631.822 485.1C703.536 447.101 801.817 395.006 844.612 424.358C859.127 434.292 866.265 453.244 866.184 480.727C866.002 511.445 856.51 553.793 837.981 606.579C817.02 666.426 811.162 719.791 820.778 765.35C821.693 769.683 822.711 773.885 824.005 778.157C836.115 820.665 862.091 855.169 901.468 880.71C946.908 910.205 1008.95 926.078 1076.01 925.501C1138.39 924.998 1198.62 910.017 1240.97 884.616C1289.48 855.569 1309.13 816.163 1296.14 773.798L1294.9 774.115C1307.65 815.945 1288.3 854.955 1240.26 883.698C1156.83 933.719 1001.1 944.021 902.062 879.808C843.123 841.477 784.361 763.119 839.109 606.969C857.742 554.053 867.21 511.593 867.368 480.764C867.505 452.927 860.171 433.663 845.333 423.436C801.891 393.5 703.152 445.899 631.082 484.071C591.118 505.291 556.545 523.564 548.922 517.794C546.132 515.72 546.822 510.32 550.89 501.727C555.847 491.15 556.358 484.286 552.331 480.689C542.685 472.145 508.662 484.352 465.662 499.86C398.224 524.059 305.865 557.144 261.205 524.534C232.919 503.854 226.682 458.205 242.948 389.123L241.717 388.863C233.201 425.306 230.706 455.596 234.527 478.651C234.855 480.206 235.057 481.783 235.386 483.338Z" fill="url(#paint10_linear_2701_161)"/>
<path d="M227.165 472.264C231.176 491.265 239.744 505.846 252.752 515.451C298.925 549.655 393.105 517.767 461.915 494.493C505.102 479.875 539.266 468.335 548.313 476.516C551.867 479.73 551.388 486.13 546.796 495.958C542.545 504.925 542.028 510.526 545.292 512.983C553.735 519.539 585.603 503.316 629.769 480.952C702.373 444.072 801.685 393.764 845.22 424.144C859.782 434.301 867.173 453.211 867.4 480.299C867.527 510.622 858.606 551.958 840.727 603.488C821.019 660.603 815.749 711.804 825.061 755.917C826.257 761.584 827.683 767.099 829.338 772.461C842.286 814.604 869.272 848.943 909.454 874.582C1013.36 940.762 1177.18 930.406 1259.15 879.702C1304.13 851.918 1321.57 814.369 1308.36 774.107L1307.12 774.424C1320.23 814.241 1302.96 851.305 1258.43 878.785C1176.82 929.315 1013.63 939.568 910.175 873.66C849.752 835.111 788.842 757.103 841.981 603.858C859.861 552.328 868.861 510.75 868.711 480.316C868.539 452.874 860.975 433.762 846.09 423.313C801.782 392.369 702.013 442.982 629.179 480.014C588.798 500.497 553.959 518.124 546.162 512.152C543.372 510.078 544.062 504.678 547.924 496.349C552.801 486.015 553.21 479.282 549.183 475.685C539.49 466.919 505.097 478.611 461.404 493.312C392.823 516.434 299.022 548.259 253.472 514.529C225.116 493.516 218.387 448.637 233.592 381.337L232.36 381.077C224.312 416.639 222.309 446.159 226.312 468.84C226.696 470.042 226.931 471.153 227.165 472.264Z" fill="url(#paint11_linear_2701_161)"/>
<path d="M218.688 461.232C222.817 480.788 231.581 495.682 244.935 505.691C291.975 540.902 387.77 510.476 457.723 488.28C501.453 474.378 536.114 463.332 545.231 471.846C548.809 475.172 548.283 481.349 543.873 490.802C539.702 499.527 539.288 504.997 542.575 507.565C551.064 514.343 583.303 498.634 627.783 477.138C701.174 441.51 801.722 392.724 846.147 424.223C860.756 434.602 868.376 453.361 868.913 480.054C869.451 509.85 861.021 550.416 843.894 600.559C822.327 663.724 819.273 719.851 835.013 767.17C848.902 808.814 876.796 843.121 918.036 868.817C967.714 899.806 1034.7 916.827 1106.58 916.732C1173.86 916.579 1236.01 901.401 1277.27 875.144C1318.98 848.582 1334.44 812.847 1320.83 774.376L1319.59 774.693C1332.96 812.629 1317.68 847.989 1276.55 874.226C1235.55 900.442 1173.5 915.489 1106.44 915.489C1034.82 915.543 968.111 898.592 918.607 867.805C856.574 829.058 793.516 751.4 844.999 600.839C862.229 550.564 870.635 509.887 870.073 479.98C869.593 452.933 861.776 433.862 846.868 423.302C801.819 391.329 700.79 440.308 627.043 476.109C586.372 495.835 551.162 512.948 543.319 506.754C540.631 504.548 541.115 499.412 545.025 491.304C549.72 481.345 550.152 474.723 546.125 471.126C536.385 462.138 501.471 473.226 457.259 487.321C387.686 509.455 292.269 539.82 245.829 504.971C217.402 483.624 210.206 439.625 224.325 373.996L223.094 373.737C215.275 409.146 213.857 438.341 218.688 461.232Z" fill="url(#paint12_linear_2701_161)"/>
<path d="M209.818 450.149C214.04 470.15 223.025 485.468 236.702 495.769C284.655 532.211 382.043 503.134 453.114 481.906C497.514 468.699 532.545 458.167 541.835 466.884C545.413 470.209 544.99 476.255 540.66 485.465C536.695 493.927 536.257 499.285 539.418 501.874C548.057 508.742 580.459 493.811 625.46 472.92C699.764 438.523 801.698 391.35 846.887 423.989C861.543 434.591 869.415 453.308 870.237 479.495C871.061 508.784 863.225 548.449 846.748 597.337C825.878 659.469 823.694 714.764 840.501 761.565C855.228 802.843 884.133 836.985 926.454 862.85C978.238 894.531 1047.59 912.202 1121.88 912.403C1190.46 912.843 1255.17 897.364 1295.11 871.09C1334.26 845.405 1347.49 812.103 1333.48 774.845L1332.24 775.162C1349.76 821.618 1321.24 852.467 1294.27 870.193C1254.68 896.294 1190.23 911.732 1121.81 911.493C1047.9 911.231 978.729 893.761 927.095 862.171C863.452 823.227 798.072 745.717 847.9 597.839C864.353 548.84 872.292 509.044 871.445 479.643C870.679 453.102 862.61 434.072 847.654 423.29C801.716 390.198 699.553 437.522 624.766 472.114C582.027 491.947 548.201 507.569 540.185 501.174C537.497 498.968 537.982 493.832 541.685 485.988C546.174 476.292 546.527 469.913 542.603 466.184C532.816 456.974 497.406 467.567 452.524 480.968C381.705 502.155 284.799 531.038 237.343 495.09C208.87 473.521 201.159 430.181 214.343 366.313L213.111 366.054C206.228 399.702 205.104 427.815 209.818 450.149Z" fill="url(#paint13_linear_2701_161)"/>
<path d="M200.542 439.017C204.858 459.463 214.063 475.204 228.087 485.909C277.056 523.449 376.059 495.834 448.4 475.663C493.446 463.04 528.996 453.114 538.334 462.052C541.785 465.398 541.465 471.312 537.214 480.28C533.329 488.498 533.018 493.836 536.178 496.425C544.864 503.516 577.637 489.099 623.077 469.056C698.422 435.868 801.615 390.329 847.694 424.088C862.397 434.912 870.499 453.477 871.526 479.4C872.785 508.274 865.394 546.947 849.567 594.58C833.31 643.892 829.348 688.903 837.792 728.905C839.809 738.461 842.538 747.672 846.001 756.647C861.715 797.65 891.631 831.627 935.034 857.661C1052.08 927.907 1234.2 920.662 1312.66 867.543C1349.05 842.998 1360.64 811.226 1346.2 775.648L1344.99 776.076C1359.18 811.119 1347.62 842.426 1311.84 866.757C1233.74 919.703 1052.37 926.824 935.628 856.76C870.351 817.507 802.547 740.276 850.672 594.86C866.475 547.116 873.819 508.221 872.687 479.326C871.612 453.18 863.44 434.282 848.438 423.277C801.736 389.045 698.061 434.778 622.487 468.118C579.204 487.234 545.112 502.211 537.072 495.705C534.384 493.499 534.766 488.494 538.39 480.893C542.823 471.551 543.049 465.192 539.275 461.554C529.441 452.122 493.511 462.11 448.086 474.795C376.124 494.904 277.5 522.458 229.004 485.299C200.484 463.508 192.258 420.827 204.507 358.72L203.299 358.572C196.822 390.43 195.969 417.349 200.542 439.017Z" fill="url(#paint14_linear_2701_161)"/>
<path d="M191.008 427.924C195.417 448.814 204.819 464.868 219.213 476.087C269.095 514.858 369.943 488.551 443.427 469.459C489.142 457.532 525.212 448.21 534.597 457.371C538.048 460.717 537.705 466.52 533.636 475.113C529.83 483.089 529.622 488.295 532.656 490.904C541.389 498.217 574.532 484.315 620.413 465.12C696.797 433.142 801.376 389.216 848.369 424.206C863.118 435.251 871.323 453.684 872.786 479.192C874.33 507.56 867.429 545.464 852.379 591.821C832.776 651.907 832.507 705.741 851.415 751.97C868.093 792.586 899.17 826.489 943.804 852.782C999.857 885.491 1074 904.22 1152.66 905.318C1225.68 906.301 1291.99 891.02 1330.03 864.367C1363.75 840.831 1373.81 810.458 1359.17 776.407L1357.95 776.835C1372.35 810.351 1362.47 840.349 1329.18 863.47C1291.38 889.97 1225.44 905.19 1152.68 904.166C1075.46 903.063 999.655 883.915 944.454 851.527C877.314 812.118 807.038 734.945 853.587 591.969C868.74 545.48 875.617 507.465 874.05 478.986C872.666 453.236 864.241 434.379 849.192 423.152C801.6 387.8 696.515 431.808 619.902 463.938C576.202 482.319 541.613 496.801 533.503 489.961C530.815 487.756 531.22 482.862 534.741 475.393C538.968 466.314 539.242 460.178 535.444 456.429C525.563 446.774 489.137 456.268 442.916 468.278C369.685 487.329 269.319 513.443 219.933 475.165C191.469 453.02 182.776 411.219 194.065 350.763L192.858 350.615C187.133 381.086 186.575 406.923 191.008 427.924Z" fill="url(#paint15_linear_2701_161)"/>
<path d="M181.073 416.787C185.577 438.122 195.199 454.6 209.939 466.222C260.861 506.203 363.451 481.337 438.33 463.281C484.715 452.05 521.408 443.201 530.839 452.584C534.164 455.951 533.923 461.622 530.061 469.952C526.334 477.685 526.103 482.78 529.287 485.479C538.067 493.015 571.579 479.627 618.003 461.148C695.553 430.359 801.646 388.026 849.425 424.267C864.222 435.535 872.679 453.927 874.301 478.949C876.13 506.811 869.697 543.834 855.297 588.935C836.415 648.099 836.936 701.345 856.935 747.167C874.6 787.507 906.838 821.336 952.679 847.777C1010.22 880.704 1088.78 900.553 1168.17 901.992C1243.24 903.444 1310.26 888.393 1347.36 861.663C1378.57 839.225 1387.3 809.989 1372.44 777.353L1371.22 777.781C1385.84 809.882 1377.27 838.633 1346.52 860.766C1309.65 887.344 1243.01 902.333 1168.21 900.951C1088.95 899.491 1010.66 879.713 953.503 846.723C884.452 806.936 811.626 730.063 856.528 589.194C871.031 543.961 877.441 506.827 875.588 478.854C873.896 453.499 865.368 434.774 850.272 423.324C801.893 386.722 695.295 429.137 617.516 460.078C573.249 477.631 538.417 491.578 530.283 484.628C527.572 482.311 528 477.528 531.316 470.322C535.487 461.597 535.634 455.482 531.859 451.844C521.908 441.855 484.86 450.877 438.095 462.17C363.469 480.184 261.361 504.858 210.936 465.37C182.448 443.114 173.24 401.972 183.697 343.145L182.49 342.997C177.195 371.789 176.781 396.453 181.073 416.787Z" fill="url(#paint16_linear_2701_161)"/>
<path d="M170.89 405.686C175.464 427.354 185.33 444.368 200.393 456.282C252.481 497.452 356.963 474.117 433.213 456.987C480.395 446.431 517.584 438.076 527.086 447.793C530.411 451.159 530.147 456.719 526.34 464.695C522.819 472.164 522.564 477.148 525.622 479.869C534.449 487.626 568.331 474.753 615.322 457.101C694.015 427.391 801.667 386.873 850.462 424.212C865.282 435.591 873.866 453.962 875.797 478.589C877.934 506.056 872.096 542.178 858.219 586.045C839.931 644.308 841.369 696.945 862.608 742.449C881.261 782.513 914.66 816.268 961.985 842.927C1021.5 876.567 1102.4 896.954 1183.87 898.974C1261.01 900.895 1328.6 886.095 1364.64 859.307C1393.7 837.795 1400.99 809.827 1385.88 778.496L1384.67 778.924C1399.53 809.72 1392.27 837.223 1363.67 858.431C1327.86 885.066 1260.62 899.693 1183.77 897.842C1102.7 895.872 1022.07 875.554 962.705 842.006C891.642 801.971 815.942 725.107 859.474 586.415C873.327 542.437 879.245 506.073 877.107 478.606C875.233 453.625 866.476 435.052 851.333 423.381C802.041 385.548 693.907 426.259 614.858 456.142C570.175 472.958 534.822 486.301 526.515 479.148C523.804 476.831 524.13 472.181 527.492 465.197C531.457 456.735 531.651 450.842 527.98 447.072C517.981 436.862 480.413 445.278 432.852 455.897C356.831 472.874 252.855 496.127 201.39 455.43C172.981 432.931 163.282 392.558 172.757 335.271L171.55 335.123C166.882 362.548 166.738 386.019 170.89 405.686Z" fill="url(#paint17_linear_2701_161)"/>
<path d="M160.302 394.536C164.97 416.648 175.032 433.974 190.592 446.382C243.593 488.783 350.07 466.847 427.739 450.866C475.59 441.005 513.426 433.234 522.951 443.062C526.276 446.428 525.988 451.877 522.388 459.59C518.97 466.927 518.817 471.78 521.875 474.5C530.725 482.369 565.151 470.211 612.559 453.296C692.441 424.886 801.835 385.809 851.441 424.51C882.743 448.952 885.933 502.453 860.957 583.528C843.286 641.001 845.641 693.029 868.144 738.327C887.911 778.095 922.62 811.866 971.28 838.653C1033.24 872.7 1116.37 893.758 1199.65 896.288C1278.72 898.699 1346.76 884.171 1381.64 857.457C1408.66 836.851 1414.76 809.997 1399.5 779.839L1398.29 780.267C1413.42 809.87 1407.36 836.258 1380.8 856.56C1346.02 883.142 1278.33 897.498 1199.67 895.136C1116.64 892.565 1033.66 871.597 972.126 837.711C898.774 797.359 820.327 720.483 862.314 583.767C875.494 540.933 880.968 505.56 878.521 478.489C876.338 453.903 867.478 435.461 852.438 423.658C802.233 384.595 692.46 423.734 612.222 452.317C566.995 468.417 531.249 481.134 522.895 473.759C520.31 471.422 520.51 466.792 523.666 460.071C527.552 451.852 527.643 446.091 523.995 442.432C513.95 431.999 475.735 439.832 427.528 449.866C350.111 465.806 244.014 487.68 191.486 445.662C163.03 422.941 153.093 383.296 161.61 327.659L160.402 327.511C156.29 353.237 156.315 375.646 160.302 394.536Z" fill="url(#paint18_linear_2701_161)"/>
<path d="M149.461 383.43C154.223 405.986 164.505 423.736 180.388 436.437C234.556 480.027 342.924 459.622 422.115 444.657C470.762 435.471 509.244 428.285 518.816 438.335C522.014 441.722 521.83 447.039 518.309 454.509C514.97 461.604 514.794 466.345 517.852 469.065C526.749 477.156 561.545 465.513 609.623 449.293C690.797 422.052 801.98 384.637 852.499 424.569C883.872 449.344 887.632 501.833 863.773 580.772C846.72 637.455 850.166 689.075 873.909 734.057C894.813 773.639 930.833 807.427 980.976 834.432C1045.14 869.039 1130.61 890.636 1215.59 893.808C1296.49 896.841 1364.86 882.605 1398.7 855.944C1423.8 836.111 1428.82 810.353 1413.27 781.277L1412.08 781.816C1427.38 810.357 1422.39 835.651 1397.76 855.179C1364.14 881.687 1296 895.771 1215.51 892.788C1130.68 889.706 1045.48 868.179 981.767 833.844C906.102 793.064 824.528 716.238 865.098 581.476C877.628 539.897 882.611 505.294 879.855 478.618C877.363 454.427 868.503 435.986 853.313 424.092C802.172 383.687 690.61 421.163 609.079 448.577C563.309 463.961 527.067 476.185 518.666 468.588C516.058 466.139 516.327 461.842 519.381 455.253C523.084 447.409 523.199 441.759 519.654 437.968C509.562 427.314 470.851 434.652 421.698 443.92C342.76 458.844 234.644 479.208 181.076 435.98C152.724 413.127 142.272 374.141 149.956 320.134L148.622 320.006C145.445 343.97 145.614 365.206 149.461 383.43Z" fill="url(#paint19_linear_2701_161)"/>
<path d="M138.215 372.272C143.047 395.162 153.55 413.336 169.803 426.551C225.033 471.462 335.672 452.526 416.408 438.689C465.852 430.178 504.956 423.465 514.599 433.848C517.797 437.235 517.566 442.33 514.25 449.536C510.991 456.389 510.918 460.998 513.873 463.85C522.817 472.163 558.11 461.014 606.754 445.622C689.347 419.529 802.319 383.777 853.775 425.05C885.091 450.179 889.445 501.766 866.831 578.549C850.269 634.462 854.805 685.675 879.962 730.542C902.003 769.939 939.46 803.722 991.363 831.016C1057.37 865.667 1145.05 887.824 1231.71 891.527C1314.29 895.091 1383.15 881.348 1415.84 854.762C1439.28 835.773 1443.18 810.887 1427.46 782.873L1426.27 783.412C1441.74 810.891 1437.87 835.312 1415.02 853.976C1349.49 907.058 1137.22 906.455 991.91 829.892C913.831 788.816 828.83 711.858 868.062 578.808C879.918 538.374 884.56 504.631 881.519 478.461C878.845 454.644 869.756 436.355 854.645 424.219C802.566 382.472 689.089 418.306 606.267 444.552C559.827 459.24 523.191 470.838 514.743 463.019C512.135 460.57 512.278 456.294 515.379 449.927C519.003 442.326 519.014 436.807 515.619 433.107C505.48 422.23 466.123 428.984 416.174 437.578C335.69 451.374 225.43 470.248 170.673 425.719C142.423 402.735 131.607 364.498 138.435 312.009L137.101 311.881C134.195 334.652 134.533 354.826 138.215 372.272Z" fill="url(#paint20_linear_2701_161)"/>
<path d="M126.695 361.044C131.597 384.268 142.447 402.845 159.046 416.463C215.443 462.564 328.226 445.117 410.508 432.408C460.77 424.683 500.498 418.443 510.187 429.049C513.259 432.456 513.13 437.42 509.895 444.383C506.715 450.993 506.642 455.602 509.574 458.343C518.565 466.878 554.227 456.243 603.564 441.658C687.577 416.713 802.487 382.714 854.879 425.329C886.117 450.701 891.064 501.387 869.568 576.034C853.647 631.268 859.123 681.983 885.717 726.845C909.045 766.148 948.066 799.906 1001.58 827.397C1070.05 862.568 1159.79 885.194 1248.03 889.559C1332.16 893.674 1401.37 880.335 1432.92 853.934C1454.68 835.677 1457.73 811.734 1441.68 784.58L1440.48 785.119C1456.3 811.738 1453.28 835.217 1431.95 853.057C1400.63 879.306 1331.9 892.452 1248.02 888.296C1160.06 884 1070.44 861.353 1002.28 826.364C921.482 784.811 833.054 707.721 870.926 576.272C882.234 536.961 886.259 504.009 883.059 478.324C880.076 454.903 871.01 436.725 855.876 424.477C802.861 381.389 687.468 415.581 603.203 440.567C556.22 454.54 518.938 465.553 510.444 457.511C507.835 455.063 508.002 450.898 511.023 444.774C514.441 437.436 514.476 432.028 511.081 428.329C500.895 417.229 460.891 423.399 410.147 431.317C328.118 443.986 215.587 461.391 159.79 415.652C131.643 392.536 120.336 355.069 126.434 304.078L125.1 303.95C122.695 325.375 123.177 344.377 126.695 361.044Z" fill="url(#paint21_linear_2701_161)"/>
<path d="M114.795 349.881C119.791 373.549 130.837 392.439 147.783 406.46C205.243 453.882 320.321 438.016 404.377 426.282C455.562 419.211 495.935 413.556 505.671 424.383C508.744 427.791 508.591 432.643 505.412 439.253C502.311 445.619 502.341 450.097 505.296 452.949C514.334 461.707 550.516 451.677 600.524 437.787C685.978 414.101 803.056 381.703 856.386 425.66C887.543 451.274 892.959 501.08 872.58 573.591C857.197 628.277 863.764 678.585 891.897 723.311C916.639 762.499 957.144 796.476 1012.52 824.123C1083.02 859.651 1174.97 882.837 1264.51 887.795C1350.23 892.572 1419.53 879.678 1449.94 853.462C1470.28 835.897 1472.46 812.784 1456.19 786.47L1455 787.009C1471.22 813.101 1469.21 835.152 1448.97 852.585C1418.91 878.628 1349.97 891.35 1264.66 886.622C1175.25 881.643 1083.59 858.639 1013.26 823.312C894.987 763.956 845.437 675.362 873.961 573.94C884.723 535.753 888.279 503.681 884.897 478.371C881.732 455.324 872.437 437.298 857.406 424.919C803.43 380.378 685.996 412.949 600.312 436.787C552.636 449.952 514.984 460.451 506.466 452.299C503.984 449.829 504.048 445.796 506.84 439.825C510.178 432.73 510.26 427.544 506.865 423.844C496.758 412.502 455.983 418.108 404.292 425.261C320.592 436.822 205.79 452.758 148.803 405.719C120.783 382.582 109.087 345.753 114.306 296.17L112.972 296.042C110.791 316.051 111.441 333.991 114.795 349.881Z" fill="url(#paint22_linear_2701_161)"/>
<path d="M102.496 338.668C107.563 362.669 118.829 381.983 136.248 396.387C194.897 445.11 312.372 430.692 398.123 420.176C450.231 413.76 491.4 408.78 501.057 419.85C503.979 423.167 503.93 427.888 500.979 434.345C498.108 440.559 497.989 444.946 500.92 447.687C510.005 456.667 546.683 447.131 597.384 434.048C684.407 411.601 803.527 380.824 857.943 426.213C888.918 452.202 894.904 500.995 875.643 571.37C860.798 625.509 868.479 675.521 898.302 720.202C924.458 759.274 966.675 793.317 1023.99 821.454C1096.6 857.097 1190.46 880.661 1281.33 886.324C1368.47 891.673 1437.89 879.334 1467.16 853.303C1486.21 836.409 1487.5 814.017 1471.01 788.542L1469.94 789.061C1486.38 814.313 1485.14 835.664 1466.32 852.406C1437.27 878.285 1368.21 890.451 1281.47 885.151C1190.76 879.579 1097.03 855.994 1024.43 820.462C901.7 760.451 849.324 672.088 876.748 571.65C896.041 500.81 889.985 451.684 858.687 425.403C803.774 379.52 684.149 410.379 596.896 432.978C548.55 445.448 510.252 455.363 501.687 446.988C499.205 444.518 499.293 440.596 502.005 434.868C505.264 428.015 505.243 422.961 501.974 419.241C491.821 407.677 450.272 412.719 397.912 419.176C312.414 429.651 195.318 444.007 137.142 395.667C109.098 372.419 97.1637 336.318 101.653 288.233L100.319 288.105C98.5119 306.79 99.3296 323.667 102.496 338.668Z" fill="url(#paint23_linear_2701_161)"/>
<path d="M89.7903 327.402C94.9271 351.737 106.413 371.475 124.179 386.282C184.144 436.285 303.914 423.447 391.462 414.018C444.516 408.367 486.308 403.86 496.138 415.132C499.06 418.449 498.988 423.059 496.117 429.273C493.325 435.245 493.308 439.5 496.137 442.373C505.245 451.464 542.443 442.533 593.963 430.235C682.681 409.007 803.969 379.831 859.369 426.784C890.241 452.904 896.695 500.817 878.575 569.167C864.268 622.759 873.086 672.585 904.623 717.332C932.215 756.4 976.422 790.578 1035.74 818.962C1110.63 854.811 1206.42 878.865 1298.44 885.029C1386.88 890.971 1456.42 879.188 1484.45 853.474C1502.31 837.119 1502.82 815.427 1486 790.812L1484.93 791.331C1501.61 815.855 1501.13 836.506 1483.51 852.709C1455.68 878.159 1386.65 889.86 1298.61 883.968C1206.72 877.783 1111.05 853.708 1036.21 818.081C908.732 757.235 853.102 668.943 879.577 569.578C897.879 500.854 891.355 452.608 860.01 426.105C804.137 378.769 682.32 407.916 593.373 429.297C544.231 441.092 505.539 450.381 496.928 441.784C494.446 439.315 494.556 435.504 497.165 429.907C500.219 423.318 500.221 418.375 497.102 414.745C486.902 402.959 444.707 407.416 391.298 413.24C304.002 422.628 184.485 435.425 124.993 385.805C97.0759 362.536 84.88 327.053 88.5139 280.486L87.2032 280.47C85.952 297.454 86.7879 313.179 89.7903 327.402Z" fill="url(#paint24_linear_2701_161)"/>
<path d="M76.8349 316.178C82.0421 340.847 93.7487 361.008 111.987 376.198C173.142 427.501 295.585 416.182 384.828 407.971C438.804 402.974 481.392 399.143 491.12 410.546C493.916 413.884 493.946 418.362 491.131 424.222C488.419 429.951 488.402 434.206 491.207 436.968C500.362 446.281 538.08 437.955 590.27 426.353C680.557 406.363 804.288 378.858 860.648 427.264C891.315 453.648 898.236 500.68 881.108 566.914C867.362 620.07 877.341 669.822 910.843 714.594C940.023 753.748 986.219 788.062 1047.83 816.763C1125.23 852.777 1222.81 877.23 1315.88 884.028C1405.37 890.604 1474.87 879.285 1501.79 853.868C1518.68 837.9 1518.55 817.462 1501.24 793.041L1500.19 793.671C1517.14 817.578 1517.43 837.529 1500.85 853.103C1474.26 878.236 1405.11 889.381 1316.02 882.855C1223.11 876.148 1125.66 851.674 1048.7 815.932C916.09 754.312 857.184 665.978 882.639 567.355C899.8 500.655 892.808 453.29 861.818 426.614C804.985 377.825 680.851 405.281 590.209 425.444C540.397 436.543 501.059 445.248 492.4 436.429C490.045 433.939 490.029 430.148 492.559 424.794C495.533 418.448 495.432 413.637 492.439 409.987C482.192 397.978 439.375 401.962 384.87 406.93C295.753 415.121 173.815 426.357 113.007 375.457C85.2162 352.168 72.6556 317.434 75.5131 272.143L74.2024 272.126C73.1193 288.049 74.0202 302.844 76.8349 316.178Z" fill="url(#paint25_linear_2701_161)"/>
<path d="M63.3498 304.927C68.6273 329.929 80.6806 350.494 99.2657 366.087C161.736 418.67 286.749 409.001 377.941 401.967C432.863 397.736 476.326 394.336 486.124 406.073C488.896 409.3 488.903 413.666 486.191 419.395C483.582 424.992 483.645 429.005 486.323 431.787C495.525 441.322 533.74 433.49 586.749 422.674C678.857 403.882 805.056 378.159 862.377 428.018C892.94 454.533 900.306 500.573 884.216 564.915C871.055 617.745 882.297 667.291 917.789 712.199C948.808 751.398 997.017 785.96 1061.19 815.047C1140.44 851.106 1239.8 875.959 1333.64 883.32C1424.15 890.419 1493.52 879.697 1519.22 854.708C1535.05 839.258 1534.25 819.389 1516.7 795.696L1515.66 796.326C1532.86 819.615 1533.69 839.02 1518.3 854.053C1492.8 878.779 1423.79 889.328 1333.68 882.279C1240.09 874.876 1140.88 850.114 1061.79 814.146C923.621 751.592 861.036 663.168 885.447 565.174C901.593 500.478 894.134 453.994 863.247 427.186C805.304 376.855 678.852 402.619 586.388 421.584C535.757 431.898 495.773 440.018 487.217 431.067C484.861 428.577 484.869 424.898 487.319 419.786C490.214 413.683 490.137 408.983 487.167 405.444C477 393.192 433.283 396.633 377.833 400.835C286.768 407.849 162.26 417.435 100.136 365.256C72.4946 342.057 59.5458 307.96 61.7532 263.925L60.4425 263.908C59.7801 278.728 60.6993 292.371 63.3498 304.927Z" fill="url(#paint26_linear_2701_161)"/>
<path d="M49.5889 293.608C54.9368 318.943 67.1868 339.82 86.2683 355.907C150.055 409.77 277.638 401.752 370.904 395.874C426.898 392.388 471.134 389.552 480.852 401.532C483.499 404.779 483.482 409.034 480.952 414.389C478.422 419.743 478.485 423.756 481.164 426.538C490.413 436.295 529.274 429.048 583.079 418.906C677.032 401.423 805.675 377.371 864.105 428.773C894.44 455.441 902.273 500.6 887.197 562.937C874.495 615.463 887.175 665.005 924.932 710.118C957.814 749.474 1008.31 784.352 1075.18 813.806C1156.37 849.779 1257.36 874.94 1351.84 882.886C1443.13 890.548 1512.37 880.423 1536.96 855.73C1551.84 840.779 1550.38 821.477 1532.54 798.291L1531.5 798.92C1548.96 821.592 1550.46 840.429 1536.01 854.965C1511.73 879.263 1442.87 889.326 1351.99 881.713C1257.63 873.746 1156.79 848.676 1075.5 812.835C991.907 775.99 856.558 694.587 888.279 563.106C903.387 500.303 895.483 454.811 864.826 427.851C805.923 376.066 676.876 400.069 582.568 417.725C531.14 427.364 490.637 434.88 481.908 425.727C479.552 423.237 479.583 419.669 481.931 414.689C484.746 408.829 484.566 404.26 481.723 400.701C471.508 388.227 427.019 391.104 370.646 394.652C277.633 400.489 150.428 408.445 86.9887 354.986C59.4738 331.766 46.2865 298.398 47.741 255.75L46.4303 255.733C46.1653 269.339 47.1261 281.94 49.5889 293.608Z" fill="url(#paint27_linear_2701_161)"/>
<path d="M35.4456 282.347C40.8639 308.015 53.3338 329.317 72.8648 345.676C137.967 400.818 268.374 394.409 363.587 389.708C420.654 386.967 465.663 384.695 475.404 396.786C478.027 399.922 477.987 404.066 475.56 409.289C473.133 414.511 473.149 418.302 475.701 421.104C484.847 430.994 524.354 424.33 579.129 415.066C675.029 398.759 806.29 376.58 865.807 429.414C895.912 456.234 904.063 500.422 890.026 560.866C877.806 613.198 892.049 662.716 932.095 708.146C966.966 747.638 1020.03 782.903 1089.74 812.813C1173.17 848.881 1275.65 874.26 1370.63 882.7C1462.54 890.835 1531.38 881.348 1554.88 857.063C1568.95 842.588 1566.8 823.744 1548.7 801.175L1547.66 801.804C1565.41 823.97 1567.44 842.259 1553.94 856.297C1530.74 880.188 1462.28 889.613 1370.77 881.527C1275.92 873.066 1173.59 847.778 1090.23 812.044C1002.84 774.553 860.88 692.158 891.281 561.236C905.5 500.418 897.129 455.806 866.701 428.694C806.687 375.366 675.071 397.718 578.894 413.955C526.647 422.807 485.497 429.738 476.721 420.363C474.515 417.964 474.42 414.417 476.688 409.68C479.321 404.194 479.267 399.605 476.424 396.045C466.313 383.439 420.901 385.662 363.456 388.465C268.495 393.125 138.467 399.472 73.7117 344.733C46.3467 321.604 32.8975 288.854 33.702 247.46L32.3913 247.444C32.1445 259.897 33.1469 271.457 35.4456 282.347Z" fill="url(#paint28_linear_2701_161)"/>
<path d="M20.876 270.927C26.3646 296.929 39.1579 318.523 59.059 335.396C125.58 391.687 258.707 387.019 356.018 383.585C414.157 381.589 460.065 379.86 469.727 392.194C472.223 395.35 472.262 399.252 469.938 404.343C467.591 409.322 467.607 413.113 470.159 415.916C479.352 426.027 519.482 419.837 575.076 411.359C672.947 396.34 806.929 375.902 867.429 430.299C897.282 457.161 905.9 500.468 892.775 559.039C887.786 581.23 887.988 602.001 892.093 621.446C912.335 717.341 1028.71 780.685 1105.24 812.588C1190.95 848.284 1294.63 873.812 1389.73 882.807C1482.14 891.437 1550.55 882.365 1572.88 858.73C1586.13 844.733 1583.42 826.325 1565.04 804.262L1564 804.891C1582.03 826.551 1584.62 844.404 1571.93 857.965C1549.93 881.316 1481.88 890.214 1390 881.614C1294.93 872.729 1191.37 847.181 1105.94 811.555C1014.35 773.368 865.075 689.751 894.259 559.258C907.44 500.332 898.751 456.692 868.552 429.427C807.555 374.535 673.092 395.167 574.944 410.116C521.878 418.183 479.979 424.661 471.282 415.043C469.076 412.644 469.004 409.207 471.17 404.602C473.699 399.248 473.566 394.902 470.873 391.433C460.715 378.605 414.531 380.264 356.013 382.322C258.955 385.714 126.104 390.452 60.0322 334.433C32.7934 311.284 18.9796 279.282 19.1339 239.144L17.8234 239.127C17.8708 250.498 18.7884 261.038 20.876 270.927Z" fill="url(#paint29_linear_2701_161)"/>
<path d="M5.93325 259.568C11.4923 285.903 24.4821 307.809 44.856 325.065C112.819 382.616 248.92 379.647 348.328 377.481C407.539 376.23 454.369 375.155 464.055 387.6C466.401 390.666 466.567 394.547 464.299 399.284C462.031 404.021 462.173 407.791 464.576 410.503C473.792 420.725 514.592 415.231 571.005 407.539C670.871 393.92 807.699 375.201 869.436 431.122C899.162 458.004 907.996 500.471 895.783 557.17C884.55 609.227 902.014 659.139 947.616 705.504C986.546 745.024 1046.79 782.108 1122.11 812.599C1209.61 848.119 1314.37 873.815 1409.54 883.144C1502.04 892.217 1569.94 883.805 1591.05 860.597C1603.47 846.967 1600.35 829.085 1581.53 807.438L1580.49 808.067C1598.83 829.332 1601.98 846.749 1589.98 859.852C1569.07 882.796 1501.66 891.016 1409.56 881.991C1314.67 872.732 1210.05 847.127 1122.71 811.698C1026.52 772.766 869.267 687.919 897.163 557.52C909.433 500.467 900.403 457.687 870.457 430.381C842.969 405.433 798.37 392.926 734.173 392.232C679.403 391.611 619.325 399.9 571.047 406.497C517.058 413.91 474.489 419.692 465.769 409.964C463.563 407.564 463.641 404.218 465.727 399.856C468.177 394.745 468.044 390.399 465.375 387.04C455.193 374.101 408.086 375.106 348.496 376.419C249.34 378.544 113.516 381.582 46.0025 324.304C18.9137 301.245 4.83806 269.861 4.34243 230.978L3.03176 230.961C3.05058 240.958 4.03334 250.567 5.93325 259.568Z" fill="url(#paint30_linear_2701_161)"/>
<defs>
<linearGradient id="paint0_linear_2701_161" x1="810.055" y1="1008.3" x2="711.233" y2="401.447" gradientUnits="userSpaceOnUse">
<stop stop-color="#FF25B6"/>
<stop offset="0.0130437" stop-color="#F720C0"/>
<stop offset="0.0525849" stop-color="#E112DB"/>
<stop offset="0.0930125" stop-color="#D208EE"/>
<stop offset="0.1345" stop-color="#C902F9"/>
<stop offset="0.1787" stop-color="#C600FD"/>
<stop offset="0.475" stop-color="#432AF3"/>
<stop offset="0.6457" stop-color="#2747ED"/>
<stop offset="1" stop-color="#000422"/>
</linearGradient>
<linearGradient id="paint1_linear_2701_161" x1="812.879" y1="1002.87" x2="713.451" y2="392.295" gradientUnits="userSpaceOnUse">
<stop stop-color="#FF25B6"/>
<stop offset="0.0130437" stop-color="#F720C0"/>
<stop offset="0.0525849" stop-color="#E112DB"/>
<stop offset="0.0930125" stop-color="#D208EE"/>
<stop offset="0.1345" stop-color="#C902F9"/>
<stop offset="0.1787" stop-color="#C600FD"/>
<stop offset="0.475" stop-color="#432AF3"/>
<stop offset="0.6457" stop-color="#2747ED"/>
<stop offset="1" stop-color="#000422"/>
</linearGradient>
<linearGradient id="paint2_linear_2701_161" x1="815.694" y1="997.831" x2="715.596" y2="383.139" gradientUnits="userSpaceOnUse">
<stop stop-color="#FF25B6"/>
<stop offset="0.0130437" stop-color="#F720C0"/>
<stop offset="0.0525849" stop-color="#E112DB"/>
<stop offset="0.0930125" stop-color="#D208EE"/>
<stop offset="0.1345" stop-color="#C902F9"/>
<stop offset="0.1787" stop-color="#C600FD"/>
<stop offset="0.475" stop-color="#432AF3"/>
<stop offset="0.6457" stop-color="#2747ED"/>
<stop offset="1" stop-color="#000422"/>
</linearGradient>
<linearGradient id="paint3_linear_2701_161" x1="818.557" y1="993.104" x2="717.732" y2="373.951" gradientUnits="userSpaceOnUse">
<stop stop-color="#FF25B6"/>
<stop offset="0.0130437" stop-color="#F720C0"/>
<stop offset="0.0525849" stop-color="#E112DB"/>
<stop offset="0.0930125" stop-color="#D208EE"/>
<stop offset="0.1345" stop-color="#C902F9"/>
<stop offset="0.1787" stop-color="#C600FD"/>
<stop offset="0.475" stop-color="#432AF3"/>
<stop offset="0.6457" stop-color="#2747ED"/>
<stop offset="1" stop-color="#000422"/>
</linearGradient>
<linearGradient id="paint4_linear_2701_161" x1="821.337" y1="988.711" x2="719.733" y2="364.778" gradientUnits="userSpaceOnUse">
<stop stop-color="#FF25B6"/>
<stop offset="0.0130437" stop-color="#F720C0"/>
<stop offset="0.0525849" stop-color="#E112DB"/>
<stop offset="0.0930125" stop-color="#D208EE"/>
<stop offset="0.1345" stop-color="#C902F9"/>
<stop offset="0.1787" stop-color="#C600FD"/>
<stop offset="0.475" stop-color="#432AF3"/>
<stop offset="0.6457" stop-color="#2747ED"/>
<stop offset="1" stop-color="#000422"/>
</linearGradient>
<linearGradient id="paint5_linear_2701_161" x1="824.1" y1="984.643" x2="721.661" y2="355.582" gradientUnits="userSpaceOnUse">
<stop stop-color="#FF25B6"/>
<stop offset="0.0130437" stop-color="#F720C0"/>
<stop offset="0.0525849" stop-color="#E112DB"/>
<stop offset="0.0930125" stop-color="#D208EE"/>
<stop offset="0.1345" stop-color="#C902F9"/>
<stop offset="0.1787" stop-color="#C600FD"/>
<stop offset="0.475" stop-color="#432AF3"/>
<stop offset="0.6457" stop-color="#2747ED"/>
<stop offset="1" stop-color="#000422"/>
</linearGradient>
<linearGradient id="paint6_linear_2701_161" x1="826.825" y1="980.805" x2="723.512" y2="346.371" gradientUnits="userSpaceOnUse">
<stop stop-color="#FF25B6"/>
<stop offset="0.0130437" stop-color="#F720C0"/>
<stop offset="0.0525849" stop-color="#E112DB"/>
<stop offset="0.0930125" stop-color="#D208EE"/>
<stop offset="0.1345" stop-color="#C902F9"/>
<stop offset="0.1787" stop-color="#C600FD"/>
<stop offset="0.475" stop-color="#432AF3"/>
<stop offset="0.6457" stop-color="#2747ED"/>
<stop offset="1" stop-color="#000422"/>
</linearGradient>
<linearGradient id="paint7_linear_2701_161" x1="829.559" y1="977.323" x2="725.308" y2="337.131" gradientUnits="userSpaceOnUse">
<stop stop-color="#FF25B6"/>
<stop offset="0.0130437" stop-color="#F720C0"/>
<stop offset="0.0525849" stop-color="#E112DB"/>
<stop offset="0.0930125" stop-color="#D208EE"/>
<stop offset="0.1345" stop-color="#C902F9"/>
<stop offset="0.1787" stop-color="#C600FD"/>
<stop offset="0.475" stop-color="#432AF3"/>
<stop offset="0.6457" stop-color="#2747ED"/>
<stop offset="1" stop-color="#000422"/>
</linearGradient>
<linearGradient id="paint8_linear_2701_161" x1="832.328" y1="974.28" x2="727.063" y2="327.863" gradientUnits="userSpaceOnUse">
<stop stop-color="#FF25B6"/>
<stop offset="0.0130437" stop-color="#F720C0"/>
<stop offset="0.0525849" stop-color="#E112DB"/>
<stop offset="0.0930125" stop-color="#D208EE"/>
<stop offset="0.1345" stop-color="#C902F9"/>
<stop offset="0.1787" stop-color="#C600FD"/>
<stop offset="0.475" stop-color="#432AF3"/>
<stop offset="0.6457" stop-color="#2747ED"/>
<stop offset="1" stop-color="#000422"/>
</linearGradient>
<linearGradient id="paint9_linear_2701_161" x1="835.088" y1="971.502" x2="728.76" y2="318.556" gradientUnits="userSpaceOnUse">
<stop stop-color="#FF25B6"/>
<stop offset="0.0130437" stop-color="#F720C0"/>
<stop offset="0.0525849" stop-color="#E112DB"/>
<stop offset="0.0930125" stop-color="#D208EE"/>
<stop offset="0.1345" stop-color="#C902F9"/>
<stop offset="0.1787" stop-color="#C600FD"/>
<stop offset="0.475" stop-color="#432AF3"/>
<stop offset="0.6457" stop-color="#2747ED"/>
<stop offset="1" stop-color="#000422"/>
</linearGradient>
<linearGradient id="paint10_linear_2701_161" x1="837.854" y1="969.05" x2="730.405" y2="309.215" gradientUnits="userSpaceOnUse">
<stop stop-color="#FF25B6"/>
<stop offset="0.0130437" stop-color="#F720C0"/>
<stop offset="0.0525849" stop-color="#E112DB"/>
<stop offset="0.0930125" stop-color="#D208EE"/>
<stop offset="0.1345" stop-color="#C902F9"/>
<stop offset="0.1787" stop-color="#C600FD"/>
<stop offset="0.475" stop-color="#432AF3"/>
<stop offset="0.6457" stop-color="#2747ED"/>
<stop offset="1" stop-color="#000422"/>
</linearGradient>
<linearGradient id="paint11_linear_2701_161" x1="840.606" y1="966.836" x2="731.99" y2="299.835" gradientUnits="userSpaceOnUse">
<stop stop-color="#FF25B6"/>
<stop offset="0.0130437" stop-color="#F720C0"/>
<stop offset="0.0525849" stop-color="#E112DB"/>
<stop offset="0.0930125" stop-color="#D208EE"/>
<stop offset="0.1345" stop-color="#C902F9"/>
<stop offset="0.1787" stop-color="#C600FD"/>
<stop offset="0.475" stop-color="#432AF3"/>
<stop offset="0.6457" stop-color="#2747ED"/>
<stop offset="1" stop-color="#000422"/>
</linearGradient>
<linearGradient id="paint12_linear_2701_161" x1="843.467" y1="965.121" x2="733.593" y2="290.402" gradientUnits="userSpaceOnUse">
<stop stop-color="#FF25B6"/>
<stop offset="0.0130437" stop-color="#F720C0"/>
<stop offset="0.0525849" stop-color="#E112DB"/>
<stop offset="0.0930125" stop-color="#D208EE"/>
<stop offset="0.1345" stop-color="#C902F9"/>
<stop offset="0.1787" stop-color="#C600FD"/>
<stop offset="0.475" stop-color="#432AF3"/>
<stop offset="0.6457" stop-color="#2747ED"/>
<stop offset="1" stop-color="#000422"/>
</linearGradient>
<linearGradient id="paint13_linear_2701_161" x1="846.249" y1="963.508" x2="735.095" y2="280.93" gradientUnits="userSpaceOnUse">
<stop stop-color="#FF25B6"/>
<stop offset="0.0130437" stop-color="#F720C0"/>
<stop offset="0.0525849" stop-color="#E112DB"/>
<stop offset="0.0930125" stop-color="#D208EE"/>
<stop offset="0.1345" stop-color="#C902F9"/>
<stop offset="0.1787" stop-color="#C600FD"/>
<stop offset="0.475" stop-color="#432AF3"/>
<stop offset="0.6457" stop-color="#2747ED"/>
<stop offset="1" stop-color="#000422"/>
</linearGradient>
<linearGradient id="paint14_linear_2701_161" x1="849.052" y1="962.391" x2="736.529" y2="271.404" gradientUnits="userSpaceOnUse">
<stop stop-color="#FF25B6"/>
<stop offset="0.0130437" stop-color="#F720C0"/>
<stop offset="0.0525849" stop-color="#E112DB"/>
<stop offset="0.0930125" stop-color="#D208EE"/>
<stop offset="0.1345" stop-color="#C902F9"/>
<stop offset="0.1787" stop-color="#C600FD"/>
<stop offset="0.475" stop-color="#432AF3"/>
<stop offset="0.6457" stop-color="#2747ED"/>
<stop offset="1" stop-color="#000422"/>
</linearGradient>
<linearGradient id="paint15_linear_2701_161" x1="851.84" y1="961.529" x2="737.898" y2="261.826" gradientUnits="userSpaceOnUse">
<stop stop-color="#FF25B6"/>
<stop offset="0.0130437" stop-color="#F720C0"/>
<stop offset="0.0525849" stop-color="#E112DB"/>
<stop offset="0.0930125" stop-color="#D208EE"/>
<stop offset="0.1345" stop-color="#C902F9"/>
<stop offset="0.1787" stop-color="#C600FD"/>
<stop offset="0.475" stop-color="#432AF3"/>
<stop offset="0.6457" stop-color="#2747ED"/>
<stop offset="1" stop-color="#000422"/>
</linearGradient>
<linearGradient id="paint16_linear_2701_161" x1="854.646" y1="961.031" x2="739.217" y2="252.194" gradientUnits="userSpaceOnUse">
<stop stop-color="#FF25B6"/>
<stop offset="0.0130437" stop-color="#F720C0"/>
<stop offset="0.0525849" stop-color="#E112DB"/>
<stop offset="0.0930125" stop-color="#D208EE"/>
<stop offset="0.1345" stop-color="#C902F9"/>
<stop offset="0.1787" stop-color="#C600FD"/>
<stop offset="0.475" stop-color="#432AF3"/>
<stop offset="0.6457" stop-color="#2747ED"/>
<stop offset="1" stop-color="#000422"/>
</linearGradient>
<linearGradient id="paint17_linear_2701_161" x1="857.463" y1="960.855" x2="740.483" y2="242.498" gradientUnits="userSpaceOnUse">
<stop stop-color="#FF25B6"/>
<stop offset="0.0130437" stop-color="#F720C0"/>
<stop offset="0.0525849" stop-color="#E112DB"/>
<stop offset="0.0930125" stop-color="#D208EE"/>
<stop offset="0.1345" stop-color="#C902F9"/>
<stop offset="0.1787" stop-color="#C600FD"/>
<stop offset="0.475" stop-color="#432AF3"/>
<stop offset="0.6457" stop-color="#2747ED"/>
<stop offset="1" stop-color="#000422"/>
</linearGradient>
<linearGradient id="paint18_linear_2701_161" x1="860.284" y1="960.995" x2="741.691" y2="232.732" gradientUnits="userSpaceOnUse">
<stop stop-color="#FF25B6"/>
<stop offset="0.0130437" stop-color="#F720C0"/>
<stop offset="0.0525849" stop-color="#E112DB"/>
<stop offset="0.0930125" stop-color="#D208EE"/>
<stop offset="0.1345" stop-color="#C902F9"/>
<stop offset="0.1787" stop-color="#C600FD"/>
<stop offset="0.475" stop-color="#432AF3"/>
<stop offset="0.6457" stop-color="#2747ED"/>
<stop offset="1" stop-color="#000422"/>
</linearGradient>
<linearGradient id="paint19_linear_2701_161" x1="863.115" y1="961.463" x2="742.845" y2="222.901" gradientUnits="userSpaceOnUse">
<stop stop-color="#FF25B6"/>
<stop offset="0.0130437" stop-color="#F720C0"/>
<stop offset="0.0525849" stop-color="#E112DB"/>
<stop offset="0.0930125" stop-color="#D208EE"/>
<stop offset="0.1345" stop-color="#C902F9"/>
<stop offset="0.1787" stop-color="#C600FD"/>
<stop offset="0.475" stop-color="#432AF3"/>
<stop offset="0.6457" stop-color="#2747ED"/>
<stop offset="1" stop-color="#000422"/>
</linearGradient>
<linearGradient id="paint20_linear_2701_161" x1="865.945" y1="962.243" x2="743.934" y2="212.99" gradientUnits="userSpaceOnUse">
<stop stop-color="#FF25B6"/>
<stop offset="0.0130437" stop-color="#F720C0"/>
<stop offset="0.0525849" stop-color="#E112DB"/>
<stop offset="0.0930125" stop-color="#D208EE"/>
<stop offset="0.1345" stop-color="#C902F9"/>
<stop offset="0.1787" stop-color="#C600FD"/>
<stop offset="0.475" stop-color="#432AF3"/>
<stop offset="0.6457" stop-color="#2747ED"/>
<stop offset="1" stop-color="#000422"/>
</linearGradient>
<linearGradient id="paint21_linear_2701_161" x1="868.787" y1="963.345" x2="744.971" y2="203.009" gradientUnits="userSpaceOnUse">
<stop stop-color="#FF25B6"/>
<stop offset="0.0130437" stop-color="#F720C0"/>
<stop offset="0.0525849" stop-color="#E112DB"/>
<stop offset="0.0930125" stop-color="#D208EE"/>
<stop offset="0.1345" stop-color="#C902F9"/>
<stop offset="0.1787" stop-color="#C600FD"/>
<stop offset="0.475" stop-color="#432AF3"/>
<stop offset="0.6457" stop-color="#2747ED"/>
<stop offset="1" stop-color="#000422"/>
</linearGradient>
<linearGradient id="paint22_linear_2701_161" x1="871.631" y1="964.761" x2="745.946" y2="192.945" gradientUnits="userSpaceOnUse">
<stop stop-color="#FF25B6"/>
<stop offset="0.0130437" stop-color="#F720C0"/>
<stop offset="0.0525849" stop-color="#E112DB"/>
<stop offset="0.0930125" stop-color="#D208EE"/>
<stop offset="0.1345" stop-color="#C902F9"/>
<stop offset="0.1787" stop-color="#C600FD"/>
<stop offset="0.475" stop-color="#432AF3"/>
<stop offset="0.6457" stop-color="#2747ED"/>
<stop offset="1" stop-color="#000422"/>
</linearGradient>
<linearGradient id="paint23_linear_2701_161" x1="874.486" y1="966.491" x2="746.866" y2="182.796" gradientUnits="userSpaceOnUse">
<stop stop-color="#FF25B6"/>
<stop offset="0.0130437" stop-color="#F720C0"/>
<stop offset="0.0525849" stop-color="#E112DB"/>
<stop offset="0.0930125" stop-color="#D208EE"/>
<stop offset="0.1345" stop-color="#C902F9"/>
<stop offset="0.1787" stop-color="#C600FD"/>
<stop offset="0.475" stop-color="#432AF3"/>
<stop offset="0.6457" stop-color="#2747ED"/>
<stop offset="1" stop-color="#000422"/>
</linearGradient>
<linearGradient id="paint24_linear_2701_161" x1="877.34" y1="968.524" x2="747.721" y2="172.553" gradientUnits="userSpaceOnUse">
<stop stop-color="#FF25B6"/>
<stop offset="0.0130437" stop-color="#F720C0"/>
<stop offset="0.0525849" stop-color="#E112DB"/>
<stop offset="0.0930125" stop-color="#D208EE"/>
<stop offset="0.1345" stop-color="#C902F9"/>
<stop offset="0.1787" stop-color="#C600FD"/>
<stop offset="0.475" stop-color="#432AF3"/>
<stop offset="0.6457" stop-color="#2747ED"/>
<stop offset="1" stop-color="#000422"/>
</linearGradient>
<linearGradient id="paint25_linear_2701_161" x1="880.278" y1="970.854" x2="748.594" y2="162.204" gradientUnits="userSpaceOnUse">
<stop stop-color="#FF25B6"/>
<stop offset="0.0130437" stop-color="#F720C0"/>
<stop offset="0.0525849" stop-color="#E112DB"/>
<stop offset="0.0930125" stop-color="#D208EE"/>
<stop offset="0.1345" stop-color="#C902F9"/>
<stop offset="0.1787" stop-color="#C600FD"/>
<stop offset="0.475" stop-color="#432AF3"/>
<stop offset="0.6457" stop-color="#2747ED"/>
<stop offset="1" stop-color="#000422"/>
</linearGradient>
<linearGradient id="paint26_linear_2701_161" x1="883.147" y1="973.503" x2="749.334" y2="151.775" gradientUnits="userSpaceOnUse">
<stop stop-color="#FF25B6"/>
<stop offset="0.0130437" stop-color="#F720C0"/>
<stop offset="0.0525849" stop-color="#E112DB"/>
<stop offset="0.0930125" stop-color="#D208EE"/>
<stop offset="0.1345" stop-color="#C902F9"/>
<stop offset="0.1787" stop-color="#C600FD"/>
<stop offset="0.475" stop-color="#432AF3"/>
<stop offset="0.6457" stop-color="#2747ED"/>
<stop offset="1" stop-color="#000422"/>
</linearGradient>
<linearGradient id="paint27_linear_2701_161" x1="886.023" y1="976.461" x2="750.014" y2="141.248" gradientUnits="userSpaceOnUse">
<stop stop-color="#FF25B6"/>
<stop offset="0.0130437" stop-color="#F720C0"/>
<stop offset="0.0525849" stop-color="#E112DB"/>
<stop offset="0.0930125" stop-color="#D208EE"/>
<stop offset="0.1345" stop-color="#C902F9"/>
<stop offset="0.1787" stop-color="#C600FD"/>
<stop offset="0.475" stop-color="#432AF3"/>
<stop offset="0.6457" stop-color="#2747ED"/>
<stop offset="1" stop-color="#000422"/>
</linearGradient>
<linearGradient id="paint28_linear_2701_161" x1="888.897" y1="979.714" x2="750.626" y2="130.61" gradientUnits="userSpaceOnUse">
<stop stop-color="#FF25B6"/>
<stop offset="0.0130437" stop-color="#F720C0"/>
<stop offset="0.0525849" stop-color="#E112DB"/>
<stop offset="0.0930125" stop-color="#D208EE"/>
<stop offset="0.1345" stop-color="#C902F9"/>
<stop offset="0.1787" stop-color="#C600FD"/>
<stop offset="0.475" stop-color="#432AF3"/>
<stop offset="0.6457" stop-color="#2747ED"/>
<stop offset="1" stop-color="#000422"/>
</linearGradient>
<linearGradient id="paint29_linear_2701_161" x1="891.777" y1="983.272" x2="751.177" y2="119.866" gradientUnits="userSpaceOnUse">
<stop stop-color="#FF25B6"/>
<stop offset="0.0130437" stop-color="#F720C0"/>
<stop offset="0.0525849" stop-color="#E112DB"/>
<stop offset="0.0930125" stop-color="#D208EE"/>
<stop offset="0.1345" stop-color="#C902F9"/>
<stop offset="0.1787" stop-color="#C600FD"/>
<stop offset="0.475" stop-color="#432AF3"/>
<stop offset="0.6457" stop-color="#2747ED"/>
<stop offset="1" stop-color="#000422"/>
</linearGradient>
<linearGradient id="paint30_linear_2701_161" x1="894.669" y1="987.125" x2="751.673" y2="109.004" gradientUnits="userSpaceOnUse">
<stop stop-color="#FF25B6"/>
<stop offset="0.0130437" stop-color="#F720C0"/>
<stop offset="0.0525849" stop-color="#E112DB"/>
<stop offset="0.0930125" stop-color="#D208EE"/>
<stop offset="0.1345" stop-color="#C902F9"/>
<stop offset="0.1787" stop-color="#C600FD"/>
<stop offset="0.475" stop-color="#432AF3"/>
<stop offset="0.6457" stop-color="#2747ED"/>
<stop offset="1" stop-color="#000422"/>
</linearGradient>
</defs>
</svg>
