<svg width="478" height="259" viewBox="0 0 478 259" fill="none" xmlns="http://www.w3.org/2000/svg">
<path d="M237.304 25.6316H205.938V158.699H237.304V25.6316Z" fill="#1E1E3D"/>
<path d="M237.301 25.6316H221.621V158.373H237.301V25.6316Z" fill="#0A0A29"/>
<path d="M220.601 15.7189H209.523V25.6309H220.601V15.7189Z" fill="#1E1E3D"/>
<path d="M220.606 15.7189H217.963V25.6309H220.606V15.7189Z" fill="#0A0A29"/>
<path d="M203.322 25.6308V25.0515H238.223V25.6308" fill="#464665"/>
<path d="M214.792 29.9498H212.135V35.6366H214.792V29.9498Z" fill="#FAFAFA"/>
<path d="M221.628 37.8689C221.628 37.9279 218.116 37.9796 213.791 37.9796C209.467 37.9796 205.955 37.9279 205.955 37.8689C205.955 37.8098 209.467 37.7582 213.791 37.7582C218.116 37.7582 221.628 37.8098 221.628 37.8689Z" fill="#464665"/>
<path d="M230.612 29.9498H227.955V35.6366H230.612V29.9498Z" fill="#E0E0E0"/>
<path d="M237.436 37.8689C237.436 37.9279 233.924 37.9796 229.6 37.9796C225.276 37.9796 221.764 37.9279 221.764 37.8689C221.764 37.8098 225.276 37.7582 229.6 37.7582C233.924 37.7582 237.436 37.8098 237.436 37.8689Z" fill="#464665"/>
<path d="M230.612 41.2389H227.955V46.9256H230.612V41.2389Z" fill="#E0E0E0"/>
<path d="M237.436 49.158C237.436 49.2244 233.924 49.2687 229.6 49.2687C225.276 49.2687 221.764 49.2244 221.764 49.158C221.764 49.0915 225.276 49.0472 229.6 49.0472C233.924 49.0472 237.436 49.0989 237.436 49.158Z" fill="#464665"/>
<path d="M230.612 52.8683H227.955V58.555H230.612V52.8683Z" fill="#E0E0E0"/>
<path d="M237.436 60.7927C237.436 60.8518 233.924 60.9034 229.6 60.9034C225.276 60.9034 221.764 60.8518 221.764 60.7927C221.764 60.7337 225.276 60.682 229.6 60.682C233.924 60.682 237.436 60.7263 237.436 60.7927Z" fill="#464665"/>
<path d="M230.612 64.5031H227.955V70.1898H230.612V64.5031Z" fill="#E0E0E0"/>
<path d="M237.436 72.4214C237.436 72.4804 233.924 72.5321 229.6 72.5321C225.276 72.5321 221.764 72.4804 221.764 72.4214C221.764 72.3623 225.276 72.3107 229.6 72.3107C233.924 72.3107 237.436 72.3549 237.436 72.4214Z" fill="#464665"/>
<path d="M230.612 75.7977H227.955V81.4845H230.612V75.7977Z" fill="#E0E0E0"/>
<path d="M237.436 83.7154C237.436 83.7745 233.924 83.8262 229.6 83.8262C225.276 83.8262 221.764 83.7745 221.764 83.7154C221.764 83.6564 225.276 83.6047 229.6 83.6047C233.924 83.6047 237.436 83.6564 237.436 83.7154Z" fill="#464665"/>
<path d="M230.612 87.1365H227.955V92.8232H230.612V87.1365Z" fill="#E0E0E0"/>
<path d="M230.612 98.6265H227.955V104.313H230.612V98.6265Z" fill="#E0E0E0"/>
<path d="M237.436 95.0558C237.436 95.1222 233.924 95.1665 229.6 95.1665C225.276 95.1665 221.764 95.1222 221.764 95.0558C221.764 94.9893 225.276 94.9451 229.6 94.9451C233.924 94.9451 237.436 94.9967 237.436 95.0558Z" fill="#464665"/>
<path d="M214.792 41.413H212.135V47.0997H214.792V41.413Z" fill="#FAFAFA"/>
<path d="M221.628 49.3319C221.628 49.3909 218.116 49.4426 213.791 49.4426C209.467 49.4426 205.955 49.3909 205.955 49.3319C205.955 49.2729 209.467 49.2212 213.791 49.2212C218.116 49.2212 221.628 49.2729 221.628 49.3319Z" fill="#464665"/>
<path d="M214.792 52.874H212.135V58.5608H214.792V52.874Z" fill="#FAFAFA"/>
<path d="M221.628 60.7927C221.628 60.8518 218.116 60.9034 213.791 60.9034C209.467 60.9034 205.955 60.8518 205.955 60.7927C205.955 60.7337 209.467 60.682 213.791 60.682C218.116 60.682 221.628 60.7337 221.628 60.7927Z" fill="#464665"/>
<path d="M214.792 64.3346H212.135V70.0213H214.792V64.3346Z" fill="#FAFAFA"/>
<path d="M221.628 72.2533C221.628 72.3123 218.116 72.364 213.791 72.364C209.467 72.364 205.955 72.3123 205.955 72.2533C205.955 72.1943 209.467 72.1426 213.791 72.1426C218.116 72.1426 221.628 72.1943 221.628 72.2533Z" fill="#464665"/>
<path d="M214.792 75.7977H212.135V81.4845H214.792V75.7977Z" fill="#FAFAFA"/>
<path d="M221.628 83.7154C221.628 83.7745 218.116 83.8262 213.791 83.8262C209.467 83.8262 205.955 83.7745 205.955 83.7154C205.955 83.6564 209.467 83.6047 213.791 83.6047C218.116 83.6047 221.628 83.6564 221.628 83.7154Z" fill="#E0E0E0"/>
<path d="M214.792 87.2583H212.135V92.9451H214.792V87.2583Z" fill="#FAFAFA"/>
<path d="M221.628 95.1916C221.628 95.2507 218.116 95.3023 213.791 95.3023C209.467 95.3023 205.955 95.2507 205.955 95.1916C205.955 95.1326 209.467 95.0809 213.791 95.0809C218.116 95.0809 221.628 95.1178 221.628 95.1916Z" fill="#E0E0E0"/>
<path d="M214.792 98.7198H212.135V104.407H214.792V98.7198Z" fill="#FAFAFA"/>
<path d="M184.029 57.4612H152.662V158.423H184.029V57.4612Z" fill="#0A0A29"/>
<path d="M184.029 57.4612H168.35V158.148H184.029V57.4612Z" fill="#1E1E3D"/>
<path d="M167.314 47.549H156.236V57.461H167.314V47.549Z" fill="#0A0A29"/>
<path d="M167.321 47.549H164.678V57.461H167.321V47.549Z" fill="#0A0A29"/>
<path d="M150.053 57.4628V56.8835H184.946V57.4628" fill="#464665"/>
<path d="M161.513 61.7878H158.855V67.4746H161.513V61.7878Z" fill="#FAFAFA"/>
<path d="M168.335 69.7069C168.335 69.7659 164.823 69.8176 160.498 69.8176C156.174 69.8176 152.662 69.7659 152.662 69.7069C152.662 69.6479 156.167 69.5962 160.498 69.5962C164.83 69.5962 168.335 69.6479 168.335 69.7069Z" fill="#464665"/>
<path d="M177.323 61.7878H174.666V67.4746H177.323V61.7878Z" fill="#E0E0E0"/>
<path d="M184.169 69.7069C184.169 69.7659 180.657 69.8176 176.332 69.8176C172.008 69.8176 168.496 69.7659 168.496 69.7069C168.496 69.6479 172.008 69.5962 176.332 69.5962C180.657 69.5962 184.169 69.6479 184.169 69.7069Z" fill="#464665"/>
<path d="M177.323 73.077H174.666V78.7638H177.323V73.077Z" fill="#E0E0E0"/>
<path d="M184.169 80.996C184.169 81.055 180.657 81.1067 176.332 81.1067C172.008 81.1067 168.496 81.055 168.496 80.996C168.496 80.9369 172.008 80.8853 176.332 80.8853C180.657 80.8853 184.169 80.9369 184.169 80.996Z" fill="#464665"/>
<path d="M177.323 84.7037H174.666V90.3905H177.323V84.7037Z" fill="#E0E0E0"/>
<path d="M184.169 92.6222C184.169 92.6886 180.657 92.7329 176.332 92.7329C172.008 92.7329 168.496 92.6886 168.496 92.6222C168.496 92.5558 172.008 92.5115 176.332 92.5115C180.657 92.5115 184.169 92.5631 184.169 92.6222Z" fill="#464665"/>
<path d="M177.323 96.3323H174.666V102.019H177.323V96.3323Z" fill="#E0E0E0"/>
<path d="M184.169 104.251C184.169 104.317 180.657 104.362 176.332 104.362C172.008 104.362 168.496 104.317 168.496 104.251C168.496 104.184 172.008 104.14 176.332 104.14C180.657 104.14 184.169 104.192 184.169 104.251Z" fill="#464665"/>
<path d="M177.323 107.627H174.666V113.314H177.323V107.627Z" fill="#E0E0E0"/>
<path d="M184.169 115.552C184.169 115.612 180.657 115.663 176.332 115.663C172.008 115.663 168.496 115.612 168.496 115.552C168.496 115.493 172.008 115.442 176.332 115.442C180.657 115.442 184.169 115.486 184.169 115.552Z" fill="#464665"/>
<path d="M177.323 118.974H174.666V124.661H177.323V118.974Z" fill="#E0E0E0"/>
<path d="M177.323 130.464H174.666V136.151H177.323V130.464Z" fill="#E0E0E0"/>
<path d="M184.169 126.891C184.169 126.951 180.657 127.002 176.332 127.002C172.008 127.002 168.496 126.951 168.496 126.891C168.496 126.832 172.008 126.781 176.332 126.781C180.657 126.781 184.169 126.832 184.169 126.891Z" fill="#464665"/>
<path d="M161.513 73.2512H158.855V78.938H161.513V73.2512Z" fill="#FAFAFA"/>
<path d="M168.335 81.1677C168.335 81.2268 164.823 81.2784 160.498 81.2784C156.174 81.2784 152.662 81.2268 152.662 81.1677C152.662 81.1087 156.167 81.057 160.498 81.057C164.83 81.057 168.335 81.1087 168.335 81.1677Z" fill="#464665"/>
<path d="M161.513 84.712H158.855V90.3988H161.513V84.712Z" fill="#FAFAFA"/>
<path d="M168.335 92.6307C168.335 92.6898 164.823 92.7414 160.498 92.7414C156.174 92.7414 152.662 92.6898 152.662 92.6307C152.662 92.5717 156.167 92.52 160.498 92.52C164.83 92.52 168.335 92.5717 168.335 92.6307Z" fill="#464665"/>
<path d="M161.513 96.1736H158.855V101.86H161.513V96.1736Z" fill="#FAFAFA"/>
<path d="M168.335 104.091C168.335 104.15 164.823 104.202 160.498 104.202C156.174 104.202 152.662 104.15 152.662 104.091C152.662 104.032 156.167 103.98 160.498 103.98C164.83 103.98 168.335 104.025 168.335 104.091Z" fill="#464665"/>
<path d="M161.513 107.627H158.855V113.314H161.513V107.627Z" fill="#FAFAFA"/>
<path d="M168.335 115.552C168.335 115.612 164.823 115.663 160.498 115.663C156.174 115.663 152.662 115.612 152.662 115.552C152.662 115.493 156.167 115.442 160.498 115.442C164.83 115.442 168.335 115.486 168.335 115.552Z" fill="#464665"/>
<path d="M161.513 119.089H158.855V124.775H161.513V119.089Z" fill="#FAFAFA"/>
<path d="M168.335 127.029C168.335 127.088 164.823 127.14 160.498 127.14C156.174 127.14 152.662 127.088 152.662 127.029C152.662 126.97 156.167 126.918 160.498 126.918C164.83 126.918 168.335 126.948 168.335 127.029Z" fill="#464665"/>
<path d="M161.513 130.552H158.855V136.239H161.513V130.552Z" fill="#FAFAFA"/>
<path d="M410.398 74.0177H379.9V172.187H410.398V74.0177Z" fill="#1E1E3D"/>
<path d="M410.382 74.0177H395.137V171.919H410.382V74.0177Z" fill="#0A0A29"/>
<path d="M394.143 64.3783H383.371V74.0154H394.143V64.3783Z" fill="#1E1E3D"/>
<path d="M394.147 64.3783H391.582V74.0154H394.147V64.3783Z" fill="#0A0A29"/>
<path d="M377.35 74.0171V73.4524H411.281V74.0171" fill="#464665"/>
<path d="M388.497 78.2224H385.918V83.75H388.497V78.2224Z" fill="#FAFAFA"/>
<path d="M395.146 85.9232C395.146 85.9822 391.733 86.0265 387.523 86.0265C383.313 86.0265 379.9 85.9822 379.9 85.9232C379.9 85.8641 383.284 85.783 387.559 85.783C391.833 85.783 395.146 85.8641 395.146 85.9232Z" fill="#464665"/>
<path d="M403.874 78.2224H401.295V83.75H403.874V78.2224Z" fill="#E0E0E0"/>
<path d="M410.521 85.9231C410.521 85.9821 407.108 86.0264 402.898 86.0264C398.688 86.0264 395.275 85.9821 395.275 85.9231C395.275 85.8641 398.688 85.8124 402.898 85.8124C407.108 85.8124 410.521 85.8641 410.521 85.9231Z" fill="#464665"/>
<path d="M403.874 89.1986H401.295V94.7262H403.874V89.1986Z" fill="#E0E0E0"/>
<path d="M410.521 96.8989C410.521 96.958 407.108 97.0022 402.898 97.0022C398.688 97.0022 395.275 96.958 395.275 96.8989C395.275 96.8399 398.688 96.7882 402.898 96.7882C407.108 96.7882 410.521 96.8399 410.521 96.8989Z" fill="#464665"/>
<path d="M403.874 100.508H401.295V106.036H403.874V100.508Z" fill="#E0E0E0"/>
<path d="M410.521 108.218C410.521 108.277 407.108 108.321 402.898 108.321C398.688 108.321 395.275 108.277 395.275 108.218C395.275 108.159 398.688 108.107 402.898 108.107C407.108 108.107 410.521 108.144 410.521 108.218Z" fill="#464665"/>
<path d="M403.874 111.81H401.295V117.338H403.874V111.81Z" fill="#E0E0E0"/>
<path d="M410.521 119.511C410.521 119.57 407.108 119.621 402.898 119.621C398.688 119.621 395.275 119.57 395.275 119.511C395.275 119.452 398.688 119.407 402.898 119.407C407.108 119.407 410.521 119.452 410.521 119.511Z" fill="#464665"/>
<path d="M403.874 122.794H401.295V128.322H403.874V122.794Z" fill="#E0E0E0"/>
<path d="M410.521 130.494C410.521 130.554 407.108 130.605 402.898 130.605C398.688 130.605 395.275 130.554 395.275 130.494C395.275 130.435 398.688 130.391 402.898 130.391C407.108 130.391 410.521 130.435 410.521 130.494Z" fill="#464665"/>
<path d="M403.874 133.829H401.295V139.357H403.874V133.829Z" fill="#E0E0E0"/>
<path d="M403.874 145.001H401.295V150.529H403.874V145.001Z" fill="#E0E0E0"/>
<path d="M410.521 141.502C410.521 141.561 407.108 141.605 402.898 141.605C398.688 141.605 395.275 141.561 395.275 141.502C395.275 141.443 398.688 141.391 402.898 141.391C407.108 141.391 410.521 141.502 410.521 141.502Z" fill="#464665"/>
<path d="M388.497 89.3634H385.918V94.891H388.497V89.3634Z" fill="#FAFAFA"/>
<path d="M395.146 97.0649C395.146 97.124 391.733 97.1757 387.523 97.1757C383.313 97.1757 379.9 97.124 379.9 97.0649C379.9 97.0059 383.313 96.9542 387.523 96.9542C391.733 96.9542 395.146 97.0059 395.146 97.0649Z" fill="#464665"/>
<path d="M388.497 100.508H385.918V106.036H388.497V100.508Z" fill="#FAFAFA"/>
<path d="M395.146 108.218C395.146 108.277 391.733 108.328 387.523 108.328C383.313 108.328 379.9 108.277 379.9 108.218C379.9 108.159 383.313 108.107 387.523 108.107C391.733 108.107 395.146 108.151 395.146 108.218Z" fill="#464665"/>
<path d="M388.497 111.652H385.918V117.179H388.497V111.652Z" fill="#FAFAFA"/>
<path d="M395.146 119.353C395.146 119.412 391.733 119.463 387.523 119.463C383.313 119.463 379.9 119.412 379.9 119.353C379.9 119.294 383.313 119.249 387.523 119.249C391.733 119.249 395.146 119.294 395.146 119.353Z" fill="#464665"/>
<path d="M388.497 122.794H385.918V128.322H388.497V122.794Z" fill="#FAFAFA"/>
<path d="M395.146 130.494C395.146 130.554 391.733 130.605 387.523 130.605C383.313 130.605 379.9 130.554 379.9 130.494C379.9 130.435 383.313 130.391 387.523 130.391C391.733 130.391 395.146 130.435 395.146 130.494Z" fill="#464665"/>
<path d="M388.497 133.946H385.918V139.474H388.497V133.946Z" fill="#FAFAFA"/>
<path d="M395.146 141.639C395.146 141.698 391.733 141.75 387.523 141.75C383.313 141.75 379.9 141.698 379.9 141.639C379.9 141.58 383.313 141.536 387.523 141.536C391.733 141.536 395.146 141.58 395.146 141.639Z" fill="#464665"/>
<path d="M388.497 145.087H385.918V150.615H388.497V145.087Z" fill="#FAFAFA"/>
<path d="M445.617 121.109H408.395V240.928H445.617V121.109Z" fill="#1E1E3D"/>
<path d="M445.623 121.109H427.016V240.595H445.623V121.109Z" fill="#0A0A29"/>
<path d="M425.798 109.344H412.654V121.108H425.798V109.344Z" fill="#1E1E3D"/>
<path d="M425.791 109.344H422.656V121.108H425.791V109.344Z" fill="#0A0A29"/>
<path d="M405.293 121.109V120.421H446.705V121.109" fill="#464665"/>
<path d="M418.899 126.239H415.75V132.989H418.899V126.239Z" fill="#FAFAFA"/>
<path d="M427.009 135.641C427.009 135.707 422.842 135.766 417.706 135.766C412.569 135.766 408.395 135.707 408.395 135.641C408.395 135.574 412.562 135.508 417.706 135.508C422.849 135.508 427.009 135.567 427.009 135.641Z" fill="#464665"/>
<path d="M437.668 126.239H434.52V132.989H437.668V126.239Z" fill="#E0E0E0"/>
<path d="M445.786 135.641C445.786 135.707 441.618 135.766 436.482 135.766C431.345 135.766 427.178 135.707 427.178 135.641C427.178 135.574 431.338 135.508 436.482 135.508C441.625 135.508 445.786 135.567 445.786 135.641Z" fill="#464665"/>
<path d="M437.668 139.631H434.52V146.381H437.668V139.631Z" fill="#E0E0E0"/>
<path d="M445.786 149.035C445.786 149.109 441.618 149.168 436.482 149.168C431.345 149.168 427.178 149.109 427.178 149.035C427.178 148.962 431.338 148.902 436.482 148.902C441.625 148.902 445.786 148.962 445.786 149.035Z" fill="#464665"/>
<path d="M437.668 153.438H434.52V160.189H437.668V153.438Z" fill="#E0E0E0"/>
<path d="M445.786 162.832C445.786 162.906 441.618 162.965 436.482 162.965C431.345 162.965 427.178 162.906 427.178 162.832C427.178 162.758 431.338 162.706 436.482 162.706C441.625 162.706 445.786 162.758 445.786 162.832Z" fill="#464665"/>
<path d="M437.668 167.236H434.52V173.987H437.668V167.236Z" fill="#E0E0E0"/>
<path d="M445.786 176.641C445.786 176.707 441.618 176.766 436.482 176.766C431.345 176.766 427.178 176.707 427.178 176.641C427.178 176.574 431.338 176.508 436.482 176.508C441.625 176.508 445.786 176.567 445.786 176.641Z" fill="#464665"/>
<path d="M437.668 180.645H434.52V187.396H437.668V180.645Z" fill="#E0E0E0"/>
<path d="M445.786 190.039C445.786 190.113 441.618 190.172 436.482 190.172C431.345 190.172 427.178 190.113 427.178 190.039C427.178 189.965 431.338 189.914 436.482 189.914C441.625 189.914 445.786 189.98 445.786 190.039Z" fill="#464665"/>
<path d="M437.668 194.104H434.52V200.854H437.668V194.104Z" fill="#E0E0E0"/>
<path d="M437.668 207.744H434.52V214.494H437.668V207.744Z" fill="#E0E0E0"/>
<path d="M445.786 203.504C445.786 203.578 441.618 203.63 436.482 203.63C431.345 203.63 427.178 203.578 427.178 203.504C427.178 203.431 431.338 203.371 436.482 203.371C441.625 203.371 445.786 203.431 445.786 203.504Z" fill="#E0E0E0"/>
<path d="M418.899 139.843H415.75V146.594H418.899V139.843Z" fill="#FAFAFA"/>
<path d="M427.009 149.235C427.009 149.309 422.842 149.368 417.706 149.368C412.569 149.368 408.395 149.309 408.395 149.235C408.395 149.162 412.562 149.103 417.706 149.103C422.849 149.103 427.009 149.162 427.009 149.235Z" fill="#464665"/>
<path d="M418.899 153.438H415.75V160.189H418.899V153.438Z" fill="#FAFAFA"/>
<path d="M427.009 162.839C427.009 162.913 422.842 162.972 417.706 162.972C412.569 162.972 408.395 162.913 408.395 162.839C408.395 162.765 412.562 162.706 417.706 162.706C422.849 162.706 427.009 162.765 427.009 162.839Z" fill="#464665"/>
<path d="M418.899 167.042H415.75V173.792H418.899V167.042Z" fill="#FAFAFA"/>
<path d="M427.009 176.442C427.009 176.516 422.842 176.568 417.706 176.568C412.569 176.568 408.395 176.516 408.395 176.442C408.395 176.369 412.562 176.309 417.706 176.309C422.849 176.309 427.009 176.369 427.009 176.442Z" fill="#464665"/>
<path d="M418.899 180.645H415.75V187.396H418.899V180.645Z" fill="#FAFAFA"/>
<path d="M427.009 190.039C427.009 190.113 422.842 190.172 417.706 190.172C412.569 190.172 408.395 190.113 408.395 190.039C408.395 189.965 412.562 189.914 417.706 189.914C422.849 189.914 427.009 189.98 427.009 190.039Z" fill="#464665"/>
<path d="M418.899 194.249H415.75V200.999H418.899V194.249Z" fill="#FAFAFA"/>
<path d="M427.009 203.644C427.009 203.718 422.842 203.777 417.706 203.777C412.569 203.777 408.395 203.718 408.395 203.644C408.395 203.571 412.562 203.511 417.706 203.511C422.849 203.511 427.009 203.571 427.009 203.644Z" fill="#E0E0E0"/>
<path d="M418.899 207.844H415.75V214.595H418.899V207.844Z" fill="#FAFAFA"/>
<path d="M417.028 166.998H364.41V237.483H417.028V166.998Z" fill="#1E1E3D"/>
<path d="M417.018 166.998H392.348V237.483H417.018V166.998Z" fill="#0A0A29"/>
<path d="M380.176 176.542H375.445V188.213H380.176V176.542Z" fill="#F5F5F5"/>
<path d="M380.176 222.231H375.445V233.901H380.176V222.231Z" fill="#F5F5F5"/>
<path d="M392.35 192.795C392.35 192.925 386.096 193.034 378.38 193.034C370.665 193.034 364.41 192.925 364.41 192.795C364.41 192.664 370.665 192.556 378.38 192.556C386.096 192.556 392.35 192.664 392.35 192.795Z" fill="#464665"/>
<path d="M380.176 199.56H375.445V211.23H380.176V199.56Z" fill="#F5F5F5"/>
<path d="M392.35 215.811C392.35 215.949 386.096 216.05 378.38 216.05C370.665 216.05 364.41 215.949 364.41 215.811C364.41 215.674 370.665 215.58 378.38 215.58C386.096 215.58 392.35 215.681 392.35 215.811Z" fill="#F5F5F5"/>
<path d="M402.32 176.542H397.59V188.213H402.32V176.542Z" fill="#F5F5F5"/>
<path d="M412.584 176.542H407.854V188.213H412.584V176.542Z" fill="#F5F5F5"/>
<path d="M402.32 198.692H397.59V210.362H402.32V198.692Z" fill="#F5F5F5"/>
<path d="M412.584 198.692H407.854V210.362H412.584V198.692Z" fill="#F5F5F5"/>
<path d="M402.32 220.848H397.59V232.518H402.32V220.848Z" fill="#F5F5F5"/>
<path d="M412.584 220.848H407.854V232.518H412.584V220.848Z" fill="#F5F5F5"/>
<path d="M420.971 164.545H360.445V167.085H420.971V164.545Z" fill="#464665"/>
<path d="M417.486 166.788C417.486 166.918 405.637 167.563 391.132 167.563C376.628 167.563 364.543 166.918 364.543 166.788C364.543 166.658 376.628 167.085 391.132 167.085C405.637 167.085 417.486 166.658 417.486 166.788Z" fill="#464665"/>
<path d="M229.461 158.561H183.305L183.105 84.4731H229.262L229.461 158.561Z" fill="#1E1E3D"/>
<path d="M229.252 84.4731H206.178V158.561H229.252V84.4731Z" fill="#0A0A29"/>
<path d="M204.675 69.8923H188.375V84.4782H204.675V69.8923Z" fill="#1E1E3D"/>
<path d="M204.66 69.8923H200.777V84.4782H204.66V69.8923Z" fill="#0A0A29"/>
<path d="M230.604 83.6262H179.254V84.4806H230.604V83.6262Z" fill="#464665"/>
<path d="M196.111 90.8418H192.207V99.2055H196.111V90.8418Z" fill="white"/>
<path d="M206.18 102.491C206.18 102.578 201.015 102.65 194.646 102.65C188.277 102.65 183.105 102.578 183.105 102.491C183.105 102.404 188.27 102.332 194.646 102.332C201.022 102.332 206.18 102.426 206.18 102.491Z" fill="#464665"/>
<path d="M219.384 90.8418H215.48V99.2055H219.384V90.8418Z" fill="#F5F5F5"/>
<path d="M229.461 102.491C229.461 102.578 224.296 102.65 217.92 102.65C211.544 102.65 206.379 102.578 206.379 102.491C206.379 102.404 211.544 102.332 217.92 102.332C224.296 102.332 229.461 102.426 229.461 102.491Z" fill="#464665"/>
<path d="M219.384 107.448H215.48V115.812H219.384V107.448Z" fill="#F5F5F5"/>
<path d="M229.461 119.068C229.461 119.162 224.296 119.227 217.92 119.227C211.544 119.227 206.379 119.162 206.379 119.068C206.379 118.973 211.544 118.908 217.92 118.908C224.296 118.908 229.461 119.01 229.461 119.068Z" fill="#464665"/>
<path d="M219.384 124.56H215.48V132.924H219.384V124.56Z" fill="#F5F5F5"/>
<path d="M229.461 136.211C229.461 136.305 224.296 136.377 217.92 136.377C211.544 136.377 206.379 136.305 206.379 136.211C206.379 136.116 211.544 136.051 217.92 136.051C224.296 136.051 229.461 136.124 229.461 136.211Z" fill="#464665"/>
<path d="M219.384 141.672H215.48V150.036H219.384V141.672Z" fill="#F5F5F5"/>
<path d="M229.461 153.322C229.461 153.416 224.296 153.488 217.92 153.488C211.544 153.488 206.379 153.416 206.379 153.322C206.379 153.228 211.544 153.162 217.92 153.162C224.296 153.162 229.461 153.235 229.461 153.322Z" fill="#EBEBEB"/>
<path d="M196.111 107.7H192.207V116.064H196.111V107.7Z" fill="white"/>
<path d="M206.18 119.349C206.18 119.443 201.015 119.516 194.646 119.516C188.277 119.516 183.105 119.443 183.105 119.349C183.105 119.255 188.27 119.19 194.646 119.19C201.022 119.19 206.18 119.262 206.18 119.349Z" fill="#464665"/>
<path d="M196.111 124.567H192.207V132.931H196.111V124.567Z" fill="white"/>
<path d="M206.18 136.217C206.18 136.304 201.015 136.377 194.646 136.377C188.277 136.377 183.105 136.304 183.105 136.217C183.105 136.13 188.27 136.058 194.646 136.058C201.022 136.058 206.18 136.13 206.18 136.217Z" fill="#464665"/>
<path d="M196.111 141.435H192.207V149.799H196.111V141.435Z" fill="white"/>
<path d="M206.18 153.077C206.18 153.164 201.015 153.236 194.646 153.236C188.277 153.236 183.105 153.164 183.105 153.077C183.105 152.99 188.27 152.918 194.646 152.918C201.022 152.918 206.18 152.997 206.18 153.077Z" fill="#E0E0E0"/>
<path d="M159.526 190.566H113.377L113.17 116.478H159.326L159.526 190.566Z" fill="#0A0A29"/>
<path d="M159.321 116.478H136.246V190.566H159.321V116.478Z" fill="#1E1E3D"/>
<path d="M134.741 101.896H118.441V116.482H134.741V101.896Z" fill="#0A0A29"/>
<path d="M134.728 101.896H130.846V116.482H134.728V101.896Z" fill="#0A0A29"/>
<path d="M160.668 115.63H109.318V116.484H160.668V115.63Z" fill="#464665"/>
<path d="M126.179 122.845H122.275V131.209H126.179V122.845Z" fill="white"/>
<path d="M136.252 134.495C136.252 134.582 131.087 134.654 124.711 134.654C118.335 134.654 113.17 134.582 113.17 134.495C113.17 134.408 118.342 134.335 124.711 134.335C131.08 134.335 136.252 134.4 136.252 134.495Z" fill="#464665"/>
<path d="M149.451 122.845H145.547V131.209H149.451V122.845Z" fill="#F5F5F5"/>
<path d="M159.518 134.495C159.518 134.582 154.353 134.654 147.984 134.654C141.615 134.654 136.443 134.582 136.443 134.495C136.443 134.408 141.608 134.335 147.984 134.335C154.36 134.335 159.518 134.4 159.518 134.495Z" fill="#464665"/>
<path d="M149.451 139.451H145.547V147.815H149.451V139.451Z" fill="#F5F5F5"/>
<path d="M159.518 151.101C159.518 151.195 154.353 151.267 147.984 151.267C141.615 151.267 136.443 151.195 136.443 151.101C136.443 151.007 141.608 150.942 147.984 150.942C154.36 150.942 159.518 151.014 159.518 151.101Z" fill="#EBEBEB"/>
<path d="M149.451 156.566H145.547V164.929H149.451V156.566Z" fill="#F5F5F5"/>
<path d="M159.518 168.214C159.518 168.308 154.353 168.381 147.984 168.381C141.615 168.381 136.443 168.308 136.443 168.214C136.443 168.12 141.608 168.055 147.984 168.055C154.36 168.055 159.518 168.127 159.518 168.214Z" fill="#EBEBEB"/>
<path d="M149.451 173.677H145.547V182.04H149.451V173.677Z" fill="#F5F5F5"/>
<path d="M159.518 185.326C159.518 185.42 154.353 185.492 147.984 185.492C141.615 185.492 136.443 185.42 136.443 185.326C136.443 185.232 141.608 185.167 147.984 185.167C154.36 185.167 159.518 185.239 159.518 185.326Z" fill="#EBEBEB"/>
<path d="M126.179 139.703H122.275V148.067H126.179V139.703Z" fill="white"/>
<path d="M136.252 151.354C136.252 151.448 131.087 151.52 124.711 151.52C118.335 151.52 113.17 151.448 113.17 151.354C113.17 151.26 118.342 151.195 124.711 151.195C131.08 151.195 136.252 151.267 136.252 151.354Z" fill="#E0E0E0"/>
<path d="M126.179 156.572H122.275V164.936H126.179V156.572Z" fill="white"/>
<path d="M136.252 168.221C136.252 168.308 131.087 168.38 124.711 168.38C118.335 168.38 113.17 168.308 113.17 168.221C113.17 168.134 118.342 168.061 124.711 168.061C131.08 168.061 136.252 168.134 136.252 168.221Z" fill="#E0E0E0"/>
<path d="M126.179 173.438H122.275V181.802H126.179V173.438Z" fill="white"/>
<path d="M136.252 185.088C136.252 185.175 131.087 185.247 124.711 185.247C118.335 185.247 113.17 185.175 113.17 185.088C113.17 185.001 118.342 184.928 124.711 184.928C131.08 184.928 136.252 185.001 136.252 185.088Z" fill="#E0E0E0"/>
<path d="M345.467 11.796C345.837 9.06116 342.033 6.80382 339.169 6.5723C337.809 6.46377 336.391 6.67359 335.094 6.21778C332.295 5.22658 331.176 1.55117 328.448 0.379094C326.403 -0.496347 324.052 0.285036 322.072 1.29794C320.091 2.31085 318.132 3.58422 315.917 3.72169C313.993 3.85192 311.906 3.12841 310.218 4.08344C308.957 4.80694 308.301 6.25396 307.147 7.1294C305.942 7.88033 304.55 8.26219 303.136 8.22913C301.724 8.20784 300.321 8.45317 298.997 8.95263C297.722 9.5459 296.668 10.9206 296.931 12.3242L345.467 11.796Z" fill="#EBEBEB"/>
<path d="M159.391 20.0145C159.825 16.7949 155.351 14.1469 151.989 13.872C150.386 13.7417 148.719 13.9877 147.194 13.4523C143.903 12.2875 142.585 7.96092 139.358 6.58626C136.95 5.55888 134.186 6.47773 131.856 7.66428C129.527 8.85083 127.247 10.3557 124.683 10.5294C122.424 10.6741 119.966 9.80586 117.986 10.949C116.511 11.781 115.735 13.5102 114.374 14.5665C113.013 15.6228 111.311 15.7748 109.658 15.8616C108.005 15.9484 106.303 15.9701 104.799 16.6719C103.296 17.3737 102.05 18.9871 102.363 20.6295L159.391 20.0145Z" fill="#EBEBEB"/>
<path d="M56.0675 56.4516C56.4095 53.9265 52.9045 51.8573 50.2757 51.6403C49.0148 51.539 47.7111 51.7343 46.5214 51.3074C43.9425 50.3958 42.9167 47.0171 40.4019 45.939C38.5212 45.1359 36.3555 45.8522 34.5317 46.7783C32.708 47.7044 30.9056 48.8837 28.8682 49.0212C27.1014 49.1297 25.178 48.4641 23.6249 49.3467C22.4708 49.9979 21.8653 51.3509 20.7753 52.1467C19.6737 52.8364 18.4004 53.1904 17.1065 53.1669C15.811 53.1367 14.5213 53.3501 13.3023 53.7963C12.1268 54.3462 11.1651 55.6051 11.3931 56.9001L56.0675 56.4516Z" fill="#EBEBEB"/>
<path d="M478 257.965C478 258.522 371.167 259 239.416 259C107.665 259 0.804688 258.522 0.804688 257.965C0.804688 257.408 107.618 256.931 239.416 256.931C371.213 256.931 478 257.368 478 257.965Z" fill="#263238"/>
<path d="M255.114 137.346H0.232422V257.592H255.114V137.346Z" fill="white"/>
<path d="M255.109 137.347C255.109 138.425 255.166 183.375 255.244 257.593V257.73H255.109L0.248299 257.781H0.0488281V257.593C0.0488281 215.292 0.0488281 174.612 0.0488281 137.347V137.159H0.226928L255.102 137.34L0.226928 137.514L0.397902 137.34C0.397902 174.605 0.397902 215.285 0.397902 257.586L0.212679 257.397L255.073 257.448L254.938 257.586C255.045 183.375 255.109 138.425 255.109 137.347Z" fill="#263238"/>
<path d="M251.98 217.303H0.232422V257.585H251.98V217.303Z" fill="#407BFF"/>
<path d="M196.116 227.788H101.553V249.691H196.116V227.788Z" fill="#455A64"/>
<path d="M187.561 227.948V249.583C187.568 249.62 187.589 249.654 187.618 249.678C187.647 249.702 187.683 249.715 187.721 249.715C187.759 249.715 187.795 249.702 187.824 249.678C187.854 249.654 187.874 249.62 187.882 249.583V227.948C187.874 227.91 187.854 227.877 187.824 227.853C187.795 227.829 187.759 227.816 187.721 227.816C187.683 227.816 187.647 227.829 187.618 227.853C187.589 227.877 187.568 227.91 187.561 227.948Z" fill="#E0E0E0"/>
<path d="M176.982 227.946V249.581C176.982 249.626 177 249.668 177.03 249.699C177.061 249.73 177.103 249.748 177.146 249.748C177.19 249.748 177.232 249.73 177.263 249.699C177.293 249.668 177.311 249.626 177.311 249.581V227.946C177.311 227.902 177.293 227.86 177.263 227.829C177.232 227.797 177.19 227.78 177.146 227.78C177.103 227.78 177.061 227.797 177.03 227.829C177 227.86 176.982 227.902 176.982 227.946Z" fill="#E0E0E0"/>
<path d="M166.425 227.948V249.584C166.433 249.621 166.453 249.654 166.483 249.678C166.512 249.702 166.548 249.716 166.586 249.716C166.624 249.716 166.66 249.702 166.689 249.678C166.718 249.654 166.739 249.621 166.746 249.584V227.948C166.752 227.924 166.751 227.899 166.745 227.875C166.74 227.851 166.729 227.828 166.713 227.809C166.698 227.79 166.679 227.774 166.657 227.764C166.635 227.753 166.61 227.747 166.586 227.747C166.562 227.747 166.537 227.753 166.515 227.764C166.493 227.774 166.474 227.79 166.458 227.809C166.443 227.828 166.432 227.851 166.426 227.875C166.421 227.899 166.42 227.924 166.425 227.948Z" fill="#E0E0E0"/>
<path d="M155.848 227.946V249.581C155.848 249.626 155.865 249.668 155.896 249.699C155.926 249.73 155.968 249.748 156.012 249.748C156.055 249.748 156.097 249.73 156.128 249.699C156.159 249.668 156.176 249.626 156.176 249.581V227.946C156.176 227.902 156.159 227.86 156.128 227.829C156.097 227.797 156.055 227.78 156.012 227.78C155.968 227.78 155.926 227.797 155.896 227.829C155.865 227.86 155.848 227.902 155.848 227.946Z" fill="#E0E0E0"/>
<path d="M145.293 227.948V249.584C145.3 249.621 145.321 249.654 145.35 249.678C145.379 249.702 145.416 249.716 145.453 249.716C145.491 249.716 145.527 249.702 145.556 249.678C145.586 249.654 145.606 249.621 145.614 249.584V227.948C145.619 227.924 145.618 227.899 145.613 227.875C145.607 227.851 145.596 227.828 145.581 227.809C145.565 227.79 145.546 227.774 145.524 227.764C145.502 227.753 145.478 227.747 145.453 227.747C145.429 227.747 145.405 227.753 145.383 227.764C145.36 227.774 145.341 227.79 145.326 227.809C145.31 227.828 145.299 227.851 145.294 227.875C145.288 227.899 145.288 227.924 145.293 227.948Z" fill="#E0E0E0"/>
<path d="M134.711 227.946V249.581C134.711 249.626 134.728 249.668 134.759 249.699C134.79 249.73 134.831 249.748 134.875 249.748C134.919 249.748 134.96 249.73 134.991 249.699C135.022 249.668 135.039 249.626 135.039 249.581V227.946C135.039 227.902 135.022 227.86 134.991 227.829C134.96 227.797 134.919 227.78 134.875 227.78C134.831 227.78 134.79 227.797 134.759 227.829C134.728 227.86 134.711 227.902 134.711 227.946Z" fill="#E0E0E0"/>
<path d="M124.156 227.948V249.584C124.164 249.621 124.184 249.654 124.213 249.678C124.242 249.702 124.279 249.716 124.316 249.716C124.354 249.716 124.39 249.702 124.42 249.678C124.449 249.654 124.469 249.621 124.477 249.584V227.948C124.482 227.924 124.482 227.899 124.476 227.875C124.47 227.851 124.459 227.828 124.444 227.809C124.429 227.79 124.409 227.774 124.387 227.764C124.365 227.753 124.341 227.747 124.316 227.747C124.292 227.747 124.268 227.753 124.246 227.764C124.224 227.774 124.204 227.79 124.189 227.809C124.174 227.828 124.163 227.851 124.157 227.875C124.151 227.899 124.151 227.924 124.156 227.948Z" fill="#E0E0E0"/>
<path d="M113.578 227.946V249.581C113.578 249.626 113.595 249.668 113.626 249.699C113.657 249.73 113.699 249.748 113.742 249.748C113.786 249.748 113.827 249.73 113.858 249.699C113.889 249.668 113.906 249.626 113.906 249.581V227.946C113.906 227.902 113.889 227.86 113.858 227.829C113.827 227.797 113.786 227.78 113.742 227.78C113.699 227.78 113.657 227.797 113.626 227.829C113.595 227.86 113.578 227.902 113.578 227.946Z" fill="#E0E0E0"/>
<g opacity="0.3">
<path d="M101.525 230.602H194.508V249.72H196.11V227.809H101.547L101.525 230.602Z" fill="black"/>
</g>
<path d="M252.508 228.006H203.074V249.909H252.508V228.006Z" fill="#455A64"/>
<path d="M246.818 228.158V249.8C246.818 249.844 246.836 249.887 246.866 249.918C246.897 249.949 246.939 249.967 246.982 249.967C247.026 249.967 247.068 249.949 247.098 249.918C247.129 249.887 247.146 249.844 247.146 249.8V228.158C247.146 228.114 247.129 228.071 247.098 228.04C247.068 228.009 247.026 227.991 246.982 227.991C246.939 227.991 246.897 228.009 246.866 228.04C246.836 228.071 246.818 228.114 246.818 228.158Z" fill="#E0E0E0"/>
<path d="M236.24 228.157V249.799C236.248 249.837 236.268 249.87 236.297 249.894C236.327 249.918 236.363 249.931 236.401 249.931C236.438 249.931 236.475 249.918 236.504 249.894C236.533 249.87 236.553 249.837 236.561 249.799V228.157C236.553 228.12 236.533 228.086 236.504 228.062C236.475 228.038 236.438 228.025 236.401 228.025C236.363 228.025 236.327 228.038 236.297 228.062C236.268 228.086 236.248 228.12 236.24 228.157Z" fill="#E0E0E0"/>
<path d="M225.664 228.158V249.8C225.664 249.844 225.681 249.887 225.712 249.918C225.743 249.949 225.785 249.967 225.828 249.967C225.872 249.967 225.913 249.949 225.944 249.918C225.975 249.887 225.992 249.844 225.992 249.8V228.158C225.992 228.114 225.975 228.071 225.944 228.04C225.913 228.009 225.872 227.991 225.828 227.991C225.785 227.991 225.743 228.009 225.712 228.04C225.681 228.071 225.664 228.114 225.664 228.158Z" fill="#E0E0E0"/>
<path d="M215.102 228.158V249.8C215.102 249.844 215.119 249.887 215.15 249.918C215.18 249.949 215.222 249.967 215.266 249.967C215.309 249.967 215.351 249.949 215.382 249.918C215.412 249.887 215.43 249.844 215.43 249.8V228.158C215.43 228.114 215.412 228.071 215.382 228.04C215.351 228.009 215.309 227.991 215.266 227.991C215.222 227.991 215.18 228.009 215.15 228.04C215.119 228.071 215.102 228.114 215.102 228.158Z" fill="#E0E0E0"/>
<path d="M0.232422 227.933H94.7961V249.843H0.232422" fill="#455A64"/>
<g opacity="0.3">
<path d="M94.8067 229.162L27.4922 249.9L40.6003 249.727L94.8067 233.706V229.162Z" fill="white"/>
</g>
<g opacity="0.3">
<path d="M94.8002 235.742L49.6484 249.691V249.901L53.5168 249.742L94.8002 237.015V235.742Z" fill="white"/>
</g>
<path d="M86.2363 228.091V249.727C86.2363 249.771 86.2536 249.813 86.2844 249.844C86.3152 249.876 86.3569 249.893 86.4004 249.893C86.4439 249.893 86.4856 249.876 86.5164 249.844C86.5472 249.813 86.5645 249.771 86.5645 249.727V228.091C86.5645 228.047 86.5472 228.005 86.5164 227.974C86.4856 227.943 86.4439 227.925 86.4004 227.925C86.3569 227.925 86.3152 227.943 86.2844 227.974C86.2536 228.005 86.2363 228.047 86.2363 228.091Z" fill="#E0E0E0"/>
<path d="M75.6621 228.091V249.727C75.6621 249.771 75.6794 249.813 75.7102 249.844C75.7409 249.876 75.7827 249.893 75.8262 249.893C75.8697 249.893 75.9114 249.876 75.9422 249.844C75.973 249.813 75.9902 249.771 75.9902 249.727V228.091C75.9902 228.047 75.973 228.005 75.9422 227.974C75.9114 227.943 75.8697 227.925 75.8262 227.925C75.7827 227.925 75.7409 227.943 75.7102 227.974C75.6794 228.005 75.6621 228.047 75.6621 228.091Z" fill="#E0E0E0"/>
<path d="M65.1055 228.092V249.727C65.1133 249.764 65.1335 249.798 65.1627 249.822C65.1919 249.846 65.2284 249.859 65.266 249.859C65.3036 249.859 65.34 249.846 65.3692 249.822C65.3985 249.798 65.4187 249.764 65.4265 249.727V228.092C65.4265 228.048 65.4096 228.007 65.3795 227.976C65.3494 227.946 65.3085 227.929 65.266 227.929C65.2234 227.929 65.1826 227.946 65.1525 227.976C65.1224 228.007 65.1055 228.048 65.1055 228.092Z" fill="#E0E0E0"/>
<path d="M54.5234 228.091V249.727C54.5234 249.771 54.5407 249.813 54.5715 249.844C54.6023 249.876 54.644 249.893 54.6875 249.893C54.731 249.893 54.7727 249.876 54.8035 249.844C54.8343 249.813 54.8516 249.771 54.8516 249.727V228.091C54.8516 228.047 54.8343 228.005 54.8035 227.974C54.7727 227.943 54.731 227.925 54.6875 227.925C54.644 227.925 54.6023 227.943 54.5715 227.974C54.5407 228.005 54.5234 228.047 54.5234 228.091Z" fill="#E0E0E0"/>
<path d="M43.9668 228.092V249.727C43.9746 249.764 43.9948 249.798 44.024 249.822C44.0532 249.846 44.0897 249.859 44.1273 249.859C44.1649 249.859 44.2014 249.846 44.2306 249.822C44.2598 249.798 44.28 249.764 44.2878 249.727V228.092C44.2878 228.048 44.2709 228.007 44.2408 227.976C44.2107 227.946 44.1699 227.929 44.1273 227.929C44.0847 227.929 44.0439 227.946 44.0138 227.976C43.9837 228.007 43.9668 228.048 43.9668 228.092Z" fill="#E0E0E0"/>
<path d="M33.3926 228.091V249.727C33.3926 249.771 33.4099 249.813 33.4406 249.844C33.4714 249.876 33.5131 249.893 33.5566 249.893C33.6002 249.893 33.6419 249.876 33.6727 249.844C33.7034 249.813 33.7207 249.771 33.7207 249.727V228.091C33.7207 228.047 33.7034 228.005 33.6727 227.974C33.6419 227.943 33.6002 227.925 33.5566 227.925C33.5131 227.925 33.4714 227.943 33.4406 227.974C33.4099 228.005 33.3926 228.047 33.3926 228.091Z" fill="#E0E0E0"/>
<path d="M22.7969 228.092V249.727C22.8047 249.764 22.8249 249.798 22.8541 249.822C22.8833 249.846 22.9198 249.859 22.9574 249.859C22.995 249.859 23.0314 249.846 23.0607 249.822C23.0899 249.798 23.1101 249.764 23.1179 249.727V228.092C23.1179 228.048 23.101 228.007 23.0709 227.976C23.0408 227.946 22.9999 227.929 22.9574 227.929C22.9148 227.929 22.874 227.946 22.8439 227.976C22.8138 228.007 22.7969 228.048 22.7969 228.092Z" fill="#E0E0E0"/>
<path d="M12.2539 228.091V249.727C12.2539 249.771 12.2712 249.813 12.302 249.844C12.3327 249.876 12.3745 249.893 12.418 249.893C12.4615 249.893 12.5032 249.876 12.534 249.844C12.5648 249.813 12.582 249.771 12.582 249.727V228.091C12.582 228.047 12.5648 228.005 12.534 227.974C12.5032 227.943 12.4615 227.925 12.418 227.925C12.3745 227.925 12.3327 227.943 12.302 227.974C12.2712 228.005 12.2539 228.047 12.2539 228.091Z" fill="#E0E0E0"/>
<g opacity="0.3">
<path d="M0.193359 230.726H93.1755V249.843H94.7856V227.933H0.221856L0.193359 230.726Z" fill="black"/>
</g>
<g opacity="0.3">
<path d="M91.0966 249.728H85.3262V253.259H91.0966V249.728Z" fill="white"/>
</g>
<g opacity="0.3">
<path d="M41.9814 220.711H36.2109V224.242H41.9814V220.711Z" fill="white"/>
</g>
<path d="M0.608386 250.04H94.6449C94.6817 250.032 94.7146 250.012 94.7383 249.982C94.7619 249.952 94.7748 249.915 94.7748 249.877C94.7748 249.839 94.7619 249.802 94.7383 249.772C94.7146 249.743 94.6817 249.722 94.6449 249.714H0.608386C0.571647 249.722 0.538701 249.743 0.515059 249.772C0.491417 249.802 0.478516 249.839 0.478516 249.877C0.478516 249.915 0.491417 249.952 0.515059 249.982C0.538701 250.012 0.571647 250.032 0.608386 250.04Z" fill="#E0E0E0"/>
<path d="M101.81 250.04H196.117C196.154 250.032 196.187 250.012 196.21 249.982C196.234 249.952 196.247 249.915 196.247 249.877C196.247 249.839 196.234 249.802 196.21 249.772C196.187 249.743 196.154 249.722 196.117 249.714H101.81C101.773 249.722 101.74 249.743 101.716 249.772C101.693 249.802 101.68 249.839 101.68 249.877C101.68 249.915 101.693 249.952 101.716 249.982C101.74 250.012 101.773 250.032 101.81 250.04Z" fill="#E0E0E0"/>
<path d="M94.7961 176.088H0.232422V200.531H94.7961V176.088Z" fill="#455A64"/>
<path d="M86.2363 176.233V200.379C86.2363 200.423 86.2536 200.466 86.2844 200.497C86.3152 200.528 86.3569 200.546 86.4004 200.546C86.4439 200.546 86.4856 200.528 86.5164 200.497C86.5472 200.466 86.5645 200.423 86.5645 200.379V176.233C86.5645 176.189 86.5472 176.147 86.5164 176.116C86.4856 176.084 86.4439 176.067 86.4004 176.067C86.3569 176.067 86.3152 176.084 86.2844 176.116C86.2536 176.147 86.2363 176.189 86.2363 176.233Z" fill="#E0E0E0"/>
<path d="M75.6621 176.233V200.379C75.6621 200.423 75.6794 200.466 75.7102 200.497C75.7409 200.528 75.7827 200.546 75.8262 200.546C75.8697 200.546 75.9114 200.528 75.9422 200.497C75.973 200.466 75.9902 200.423 75.9902 200.379V176.233C75.9902 176.189 75.973 176.147 75.9422 176.116C75.9114 176.084 75.8697 176.067 75.8262 176.067C75.7827 176.067 75.7409 176.084 75.7102 176.116C75.6794 176.147 75.6621 176.189 75.6621 176.233Z" fill="#E0E0E0"/>
<path d="M65.1055 176.233V200.379C65.1133 200.416 65.1335 200.449 65.1627 200.473C65.1919 200.498 65.2284 200.511 65.266 200.511C65.3036 200.511 65.34 200.498 65.3692 200.473C65.3985 200.449 65.4187 200.416 65.4265 200.379V176.233C65.4187 176.195 65.3985 176.162 65.3692 176.138C65.34 176.114 65.3036 176.101 65.266 176.101C65.2284 176.101 65.1919 176.114 65.1627 176.138C65.1335 176.162 65.1133 176.195 65.1055 176.233Z" fill="#E0E0E0"/>
<path d="M54.5234 176.233V200.379C54.5234 200.423 54.5407 200.466 54.5715 200.497C54.6023 200.528 54.644 200.546 54.6875 200.546C54.731 200.546 54.7727 200.528 54.8035 200.497C54.8343 200.466 54.8516 200.423 54.8516 200.379V176.233C54.8516 176.189 54.8343 176.147 54.8035 176.116C54.7727 176.084 54.731 176.067 54.6875 176.067C54.644 176.067 54.6023 176.084 54.5715 176.116C54.5407 176.147 54.5234 176.189 54.5234 176.233Z" fill="#E0E0E0"/>
<path d="M43.9668 176.233V200.379C43.9746 200.416 43.9948 200.449 44.024 200.473C44.0532 200.498 44.0897 200.511 44.1273 200.511C44.1649 200.511 44.2014 200.498 44.2306 200.473C44.2598 200.449 44.28 200.416 44.2878 200.379V176.233C44.28 176.195 44.2598 176.162 44.2306 176.138C44.2014 176.114 44.1649 176.101 44.1273 176.101C44.0897 176.101 44.0532 176.114 44.024 176.138C43.9948 176.162 43.9746 176.195 43.9668 176.233Z" fill="#E0E0E0"/>
<path d="M33.3926 176.233V200.379C33.3926 200.423 33.4099 200.466 33.4406 200.497C33.4714 200.528 33.5131 200.546 33.5566 200.546C33.6002 200.546 33.6419 200.528 33.6727 200.497C33.7034 200.466 33.7207 200.423 33.7207 200.379V176.233C33.7207 176.189 33.7034 176.147 33.6727 176.116C33.6419 176.084 33.6002 176.067 33.5566 176.067C33.5131 176.067 33.4714 176.084 33.4406 176.116C33.4099 176.147 33.3926 176.189 33.3926 176.233Z" fill="#E0E0E0"/>
<path d="M22.7969 176.233V200.379C22.8047 200.416 22.8249 200.449 22.8541 200.473C22.8833 200.498 22.9198 200.511 22.9574 200.511C22.995 200.511 23.0314 200.498 23.0607 200.473C23.0899 200.449 23.1101 200.416 23.1179 200.379V176.233C23.1101 176.195 23.0899 176.162 23.0607 176.138C23.0314 176.114 22.995 176.101 22.9574 176.101C22.9198 176.101 22.8833 176.114 22.8541 176.138C22.8249 176.162 22.8047 176.195 22.7969 176.233Z" fill="#E0E0E0"/>
<path d="M12.2539 176.233V200.379C12.2539 200.423 12.2712 200.466 12.302 200.497C12.3327 200.528 12.3745 200.546 12.418 200.546C12.4615 200.546 12.5032 200.528 12.534 200.497C12.5648 200.466 12.582 200.423 12.582 200.379V176.233C12.582 176.189 12.5648 176.147 12.534 176.116C12.5032 176.084 12.4615 176.067 12.418 176.067C12.3745 176.067 12.3327 176.084 12.302 176.116C12.2712 176.147 12.2539 176.189 12.2539 176.233Z" fill="#E0E0E0"/>
<path d="M0.490023 200.836H94.7973C94.8407 200.836 94.8824 200.818 94.9131 200.787C94.9439 200.756 94.9611 200.713 94.9611 200.669C94.9611 200.625 94.9439 200.583 94.9131 200.551C94.8824 200.52 94.8407 200.503 94.7973 200.503H0.490023C0.446567 200.503 0.40489 200.52 0.374162 200.551C0.343434 200.583 0.326172 200.625 0.326172 200.669C0.326172 200.713 0.343434 200.756 0.374162 200.787C0.40489 200.818 0.446567 200.836 0.490023 200.836Z" fill="#E0E0E0"/>
<path d="M202.888 250.148H251.894C251.938 250.148 251.979 250.13 252.01 250.099C252.041 250.068 252.058 250.025 252.058 249.981C252.058 249.937 252.041 249.894 252.01 249.863C251.979 249.832 251.938 249.814 251.894 249.814H202.888C202.845 249.814 202.803 249.832 202.773 249.863C202.742 249.894 202.725 249.937 202.725 249.981C202.725 250.025 202.742 250.068 202.773 250.099C202.803 250.13 202.845 250.148 202.888 250.148Z" fill="#E0E0E0"/>
<g opacity="0.3">
<path d="M251.878 228.006H203.064V231.24H251.878V228.006Z" fill="black"/>
</g>
<path d="M0.295889 195.365H94.7884C94.8251 195.357 94.8581 195.336 94.8817 195.306C94.9053 195.277 94.9183 195.24 94.9183 195.202C94.9183 195.163 94.9053 195.126 94.8817 195.097C94.8581 195.067 94.8251 195.047 94.7884 195.039H0.295889C0.25915 195.047 0.226201 195.067 0.202559 195.097C0.178917 195.126 0.166016 195.163 0.166016 195.202C0.166016 195.24 0.178917 195.277 0.202559 195.306C0.226201 195.336 0.25915 195.357 0.295889 195.365Z" fill="#E0E0E0"/>
<g opacity="0.3">
<path d="M0.210938 178.882H93.1931V200.409H94.796V176.089H0.232311L0.210938 178.882Z" fill="black"/>
</g>
<path d="M196.388 176.088H101.824V200.531H196.388V176.088Z" fill="#455A64"/>
<path d="M187.834 176.233V200.379C187.834 200.423 187.851 200.466 187.882 200.497C187.913 200.528 187.955 200.546 187.998 200.546C188.042 200.546 188.083 200.528 188.114 200.497C188.145 200.466 188.162 200.423 188.162 200.379V176.233C188.162 176.189 188.145 176.147 188.114 176.116C188.083 176.084 188.042 176.067 187.998 176.067C187.955 176.067 187.913 176.084 187.882 176.116C187.851 176.147 187.834 176.189 187.834 176.233Z" fill="#E0E0E0"/>
<path d="M177.26 176.233V200.379C177.268 200.416 177.288 200.449 177.317 200.473C177.346 200.498 177.383 200.511 177.42 200.511C177.458 200.511 177.494 200.498 177.524 200.473C177.553 200.449 177.573 200.416 177.581 200.379V176.233C177.573 176.195 177.553 176.162 177.524 176.138C177.494 176.114 177.458 176.101 177.42 176.101C177.383 176.101 177.346 176.114 177.317 176.138C177.288 176.162 177.268 176.195 177.26 176.233Z" fill="#E0E0E0"/>
<path d="M166.697 176.233V200.379C166.697 200.423 166.715 200.466 166.745 200.497C166.776 200.528 166.818 200.546 166.861 200.546C166.905 200.546 166.947 200.528 166.977 200.497C167.008 200.466 167.025 200.423 167.025 200.379V176.233C167.025 176.189 167.008 176.147 166.977 176.116C166.947 176.084 166.905 176.067 166.861 176.067C166.818 176.067 166.776 176.084 166.745 176.116C166.715 176.147 166.697 176.189 166.697 176.233Z" fill="#E0E0E0"/>
<path d="M156.127 176.233V200.379C156.135 200.416 156.155 200.449 156.184 200.473C156.213 200.498 156.25 200.511 156.287 200.511C156.325 200.511 156.362 200.498 156.391 200.473C156.42 200.449 156.44 200.416 156.448 200.379V176.233C156.44 176.195 156.42 176.162 156.391 176.138C156.362 176.114 156.325 176.101 156.287 176.101C156.25 176.101 156.213 176.114 156.184 176.138C156.155 176.162 156.135 176.195 156.127 176.233Z" fill="#E0E0E0"/>
<path d="M145.566 176.233V200.379C145.566 200.423 145.584 200.466 145.614 200.497C145.645 200.528 145.687 200.546 145.73 200.546C145.774 200.546 145.816 200.528 145.846 200.497C145.877 200.466 145.895 200.423 145.895 200.379V176.233C145.895 176.189 145.877 176.147 145.846 176.116C145.816 176.084 145.774 176.067 145.73 176.067C145.687 176.067 145.645 176.084 145.614 176.116C145.584 176.147 145.566 176.189 145.566 176.233Z" fill="#E0E0E0"/>
<path d="M134.988 176.233V200.379C134.988 200.423 135.006 200.466 135.036 200.497C135.067 200.528 135.109 200.546 135.152 200.546C135.196 200.546 135.238 200.528 135.268 200.497C135.299 200.466 135.316 200.423 135.316 200.379V176.233C135.316 176.189 135.299 176.147 135.268 176.116C135.238 176.084 135.196 176.067 135.152 176.067C135.109 176.067 135.067 176.084 135.036 176.116C135.006 176.147 134.988 176.189 134.988 176.233Z" fill="#E0E0E0"/>
<path d="M124.41 176.233V200.379C124.418 200.416 124.438 200.449 124.467 200.473C124.497 200.498 124.533 200.511 124.571 200.511C124.608 200.511 124.645 200.498 124.674 200.473C124.703 200.449 124.723 200.416 124.731 200.379V176.233C124.723 176.195 124.703 176.162 124.674 176.138C124.645 176.114 124.608 176.101 124.571 176.101C124.533 176.101 124.497 176.114 124.467 176.138C124.438 176.162 124.418 176.195 124.41 176.233Z" fill="#E0E0E0"/>
<path d="M113.855 176.233V200.379C113.855 200.423 113.873 200.466 113.904 200.497C113.934 200.528 113.976 200.546 114.02 200.546C114.063 200.546 114.105 200.528 114.136 200.497C114.166 200.466 114.184 200.423 114.184 200.379V176.233C114.184 176.189 114.166 176.147 114.136 176.116C114.105 176.084 114.063 176.067 114.02 176.067C113.976 176.067 113.934 176.084 113.904 176.116C113.873 176.147 113.855 176.189 113.855 176.233Z" fill="#E0E0E0"/>
<path d="M94.7961 152.078H0.232422V161.021H94.7961V152.078Z" fill="#455A64"/>
<path d="M86.2363 152.144V160.971C86.2363 161.015 86.2536 161.058 86.2844 161.089C86.3152 161.12 86.3569 161.138 86.4004 161.138C86.4439 161.138 86.4856 161.12 86.5164 161.089C86.5472 161.058 86.5645 161.015 86.5645 160.971V152.144C86.5645 152.1 86.5472 152.058 86.5164 152.027C86.4856 151.996 86.4439 151.978 86.4004 151.978C86.3569 151.978 86.3152 151.996 86.2844 152.027C86.2536 152.058 86.2363 152.1 86.2363 152.144Z" fill="#E0E0E0"/>
<path d="M75.6621 152.144V160.971C75.6621 161.015 75.6794 161.058 75.7102 161.089C75.7409 161.12 75.7827 161.138 75.8262 161.138C75.8697 161.138 75.9114 161.12 75.9422 161.089C75.973 161.058 75.9902 161.015 75.9902 160.971V152.144C75.9902 152.1 75.973 152.058 75.9422 152.027C75.9114 151.996 75.8697 151.978 75.8262 151.978C75.7827 151.978 75.7409 151.996 75.7102 152.027C75.6794 152.058 75.6621 152.1 75.6621 152.144Z" fill="#E0E0E0"/>
<path d="M65.1055 152.145V160.972C65.1133 161.009 65.1335 161.043 65.1627 161.067C65.1919 161.091 65.2284 161.104 65.266 161.104C65.3036 161.104 65.34 161.091 65.3692 161.067C65.3985 161.043 65.4187 161.009 65.4265 160.972V152.145C65.4265 152.102 65.4096 152.06 65.3795 152.03C65.3494 151.999 65.3085 151.982 65.266 151.982C65.2234 151.982 65.1826 151.999 65.1525 152.03C65.1224 152.06 65.1055 152.102 65.1055 152.145Z" fill="#E0E0E0"/>
<path d="M54.5234 152.144V160.971C54.5234 161.015 54.5407 161.058 54.5715 161.089C54.6023 161.12 54.644 161.138 54.6875 161.138C54.731 161.138 54.7727 161.12 54.8035 161.089C54.8343 161.058 54.8516 161.015 54.8516 160.971V152.144C54.8516 152.1 54.8343 152.058 54.8035 152.027C54.7727 151.996 54.731 151.978 54.6875 151.978C54.644 151.978 54.6023 151.996 54.5715 152.027C54.5407 152.058 54.5234 152.1 54.5234 152.144Z" fill="#E0E0E0"/>
<path d="M43.9668 152.145V160.972C43.9746 161.009 43.9948 161.043 44.024 161.067C44.0532 161.091 44.0897 161.104 44.1273 161.104C44.1649 161.104 44.2014 161.091 44.2306 161.067C44.2598 161.043 44.28 161.009 44.2878 160.972V152.145C44.2878 152.102 44.2709 152.06 44.2408 152.03C44.2107 151.999 44.1699 151.982 44.1273 151.982C44.0847 151.982 44.0439 151.999 44.0138 152.03C43.9837 152.06 43.9668 152.102 43.9668 152.145Z" fill="#E0E0E0"/>
<path d="M33.3926 152.144V160.971C33.3926 161.015 33.4099 161.058 33.4406 161.089C33.4714 161.12 33.5131 161.138 33.5566 161.138C33.6002 161.138 33.6419 161.12 33.6727 161.089C33.7034 161.058 33.7207 161.015 33.7207 160.971V152.144C33.7207 152.1 33.7034 152.058 33.6727 152.027C33.6419 151.996 33.6002 151.978 33.5566 151.978C33.5131 151.978 33.4714 151.996 33.4406 152.027C33.4099 152.058 33.3926 152.1 33.3926 152.144Z" fill="#E0E0E0"/>
<path d="M22.7969 152.145V160.972C22.8047 161.009 22.8249 161.043 22.8541 161.067C22.8833 161.091 22.9198 161.104 22.9574 161.104C22.995 161.104 23.0314 161.091 23.0607 161.067C23.0899 161.043 23.1101 161.009 23.1179 160.972V152.145C23.1179 152.102 23.101 152.06 23.0709 152.03C23.0408 151.999 22.9999 151.982 22.9574 151.982C22.9148 151.982 22.874 151.999 22.8439 152.03C22.8138 152.06 22.7969 152.102 22.7969 152.145Z" fill="#E0E0E0"/>
<path d="M12.2539 152.144V160.971C12.2539 161.015 12.2712 161.058 12.302 161.089C12.3327 161.12 12.3745 161.138 12.418 161.138C12.4615 161.138 12.5032 161.12 12.534 161.089C12.5648 161.058 12.582 161.015 12.582 160.971V152.144C12.582 152.1 12.5648 152.058 12.534 152.027C12.5032 151.996 12.4615 151.978 12.418 151.978C12.3745 151.978 12.3327 151.996 12.302 152.027C12.2712 152.058 12.2539 152.1 12.2539 152.144Z" fill="#E0E0E0"/>
<path d="M102.088 200.836H196.395C196.438 200.836 196.48 200.818 196.511 200.787C196.542 200.756 196.559 200.713 196.559 200.669C196.559 200.625 196.542 200.583 196.511 200.551C196.48 200.52 196.438 200.503 196.395 200.503H102.088C102.044 200.503 102.003 200.52 101.972 200.551C101.941 200.583 101.924 200.625 101.924 200.669C101.924 200.713 101.941 200.756 101.972 200.787C102.003 200.818 102.044 200.836 102.088 200.836Z" fill="#E0E0E0"/>
<path d="M101.876 195.365H196.383C196.419 195.357 196.452 195.336 196.476 195.306C196.5 195.277 196.513 195.24 196.513 195.202C196.513 195.163 196.5 195.126 196.476 195.097C196.452 195.067 196.419 195.047 196.383 195.039H101.876C101.839 195.047 101.806 195.067 101.783 195.097C101.759 195.126 101.746 195.163 101.746 195.202C101.746 195.24 101.759 195.277 101.783 195.306C101.806 195.336 101.839 195.357 101.876 195.365Z" fill="#E0E0E0"/>
<g opacity="0.3">
<path d="M101.809 178.881H194.791V200.408H196.401V176.088H101.83L101.809 178.881Z" fill="black"/>
</g>
<path d="M244.121 176.088H206.734V200.531H244.121V176.088Z" fill="#455A64"/>
<path d="M206.664 195.14H243.851C243.894 195.14 243.935 195.123 243.965 195.092C243.995 195.062 244.012 195.02 244.012 194.977C244.012 194.934 243.995 194.892 243.965 194.862C243.935 194.831 243.894 194.814 243.851 194.814H206.664C206.622 194.814 206.581 194.831 206.551 194.862C206.521 194.892 206.504 194.934 206.504 194.977C206.504 195.02 206.521 195.062 206.551 195.092C206.581 195.123 206.622 195.14 206.664 195.14Z" fill="#E0E0E0"/>
<path d="M225.273 176.182V200.625C225.281 200.662 225.301 200.696 225.331 200.72C225.36 200.744 225.396 200.757 225.434 200.757C225.472 200.757 225.508 200.744 225.537 200.72C225.566 200.696 225.587 200.662 225.594 200.625V176.182C225.587 176.145 225.566 176.111 225.537 176.087C225.508 176.063 225.472 176.05 225.434 176.05C225.396 176.05 225.36 176.063 225.331 176.087C225.301 176.111 225.281 176.145 225.273 176.182Z" fill="#E0E0E0"/>
<g opacity="0.3">
<path d="M206.73 176.088V178.896L241.538 178.946L241.588 200.531H244.11V176.088H206.73Z" fill="black"/>
</g>
<path d="M251.973 207.658H0.296875V210.075H251.973V207.658Z" fill="white"/>
<path d="M250.828 167.065C250.828 167.159 194.67 167.231 125.446 167.231C56.2224 167.231 0 167.159 0 167.065C0 166.971 56.1441 166.891 125.432 166.891C194.72 166.891 250.828 166.963 250.828 167.065Z" fill="#263238"/>
<g opacity="0.3">
<path d="M0.224609 152.079V154.734H92.1382V160.97H94.7883V152.079H0.224609Z" fill="black"/>
</g>
<path d="M196.388 152.078H101.824V161.021H196.388V152.078Z" fill="#455A64"/>
<path d="M187.834 152.144V160.971C187.834 161.015 187.851 161.058 187.882 161.089C187.913 161.12 187.955 161.138 187.998 161.138C188.042 161.138 188.083 161.12 188.114 161.089C188.145 161.058 188.162 161.015 188.162 160.971V152.144C188.162 152.1 188.145 152.058 188.114 152.027C188.083 151.996 188.042 151.978 187.998 151.978C187.955 151.978 187.913 151.996 187.882 152.027C187.851 152.058 187.834 152.1 187.834 152.144Z" fill="#E0E0E0"/>
<path d="M177.26 152.145V160.972C177.268 161.009 177.288 161.043 177.317 161.067C177.346 161.091 177.383 161.104 177.42 161.104C177.458 161.104 177.494 161.091 177.524 161.067C177.553 161.043 177.573 161.009 177.581 160.972V152.145C177.581 152.102 177.564 152.06 177.534 152.03C177.504 151.999 177.463 151.982 177.42 151.982C177.378 151.982 177.337 151.999 177.307 152.03C177.277 152.06 177.26 152.102 177.26 152.145Z" fill="#E0E0E0"/>
<path d="M166.697 152.144V160.971C166.697 161.015 166.715 161.058 166.745 161.089C166.776 161.12 166.818 161.138 166.861 161.138C166.905 161.138 166.947 161.12 166.977 161.089C167.008 161.058 167.025 161.015 167.025 160.971V152.144C167.025 152.1 167.008 152.058 166.977 152.027C166.947 151.996 166.905 151.978 166.861 151.978C166.818 151.978 166.776 151.996 166.745 152.027C166.715 152.058 166.697 152.1 166.697 152.144Z" fill="#E0E0E0"/>
<path d="M156.127 152.145V160.972C156.135 161.009 156.155 161.043 156.184 161.067C156.213 161.091 156.25 161.104 156.287 161.104C156.325 161.104 156.362 161.091 156.391 161.067C156.42 161.043 156.44 161.009 156.448 160.972V152.145C156.448 152.102 156.431 152.06 156.401 152.03C156.371 151.999 156.33 151.982 156.287 151.982C156.245 151.982 156.204 151.999 156.174 152.03C156.144 152.06 156.127 152.102 156.127 152.145Z" fill="#E0E0E0"/>
<path d="M145.566 152.144V160.971C145.566 161.015 145.584 161.058 145.614 161.089C145.645 161.12 145.687 161.138 145.73 161.138C145.774 161.138 145.816 161.12 145.846 161.089C145.877 161.058 145.895 161.015 145.895 160.971V152.144C145.895 152.1 145.877 152.058 145.846 152.027C145.816 151.996 145.774 151.978 145.73 151.978C145.687 151.978 145.645 151.996 145.614 152.027C145.584 152.058 145.566 152.1 145.566 152.144Z" fill="#E0E0E0"/>
<path d="M134.988 152.144V160.971C134.988 161.015 135.006 161.058 135.036 161.089C135.067 161.12 135.109 161.138 135.152 161.138C135.196 161.138 135.238 161.12 135.268 161.089C135.299 161.058 135.316 161.015 135.316 160.971V152.144C135.316 152.1 135.299 152.058 135.268 152.027C135.238 151.996 135.196 151.978 135.152 151.978C135.109 151.978 135.067 151.996 135.036 152.027C135.006 152.058 134.988 152.1 134.988 152.144Z" fill="#E0E0E0"/>
<path d="M124.41 152.145V160.972C124.418 161.009 124.438 161.043 124.467 161.067C124.497 161.091 124.533 161.104 124.571 161.104C124.608 161.104 124.645 161.091 124.674 161.067C124.703 161.043 124.723 161.009 124.731 160.972V152.145C124.731 152.102 124.714 152.06 124.684 152.03C124.654 151.999 124.613 151.982 124.571 151.982C124.528 151.982 124.487 151.999 124.457 152.03C124.427 152.06 124.41 152.102 124.41 152.145Z" fill="#E0E0E0"/>
<path d="M113.855 152.144V160.971C113.855 161.015 113.873 161.058 113.904 161.089C113.934 161.12 113.976 161.138 114.02 161.138C114.063 161.138 114.105 161.12 114.136 161.089C114.166 161.058 114.184 161.015 114.184 160.971V152.144C114.184 152.1 114.166 152.058 114.136 152.027C114.105 151.996 114.063 151.978 114.02 151.978C113.976 151.978 113.934 151.996 113.904 152.027C113.873 152.058 113.855 152.1 113.855 152.144Z" fill="#E0E0E0"/>
<g opacity="0.3">
<path d="M101.809 152.078V154.734H193.722V160.97H196.372V152.078H101.809Z" fill="black"/>
</g>
<path d="M223.975 152.296H215.689V160.718H223.975V152.296Z" fill="#455A64"/>
<path d="M237.606 152.332H229.32V160.754H237.606V152.332Z" fill="#455A64"/>
<g opacity="0.3">
<path d="M215.693 154.032H222.019V160.717H223.979V152.296H215.693V154.032Z" fill="black"/>
</g>
<g opacity="0.3">
<path d="M229.443 154.032H235.769V160.717H237.729V152.296H229.443V154.032Z" fill="black"/>
</g>
<g opacity="0.3">
<path d="M212.235 219.814H203.516V225.139H212.235V219.814Z" fill="white"/>
</g>
<g opacity="0.3">
<path d="M112.749 250.798H104.029V256.123H112.749V250.798Z" fill="white"/>
</g>
<g opacity="0.3">
<path d="M109.579 141.147H100.859V146.472H109.579V141.147Z" fill="white"/>
</g>
<g opacity="0.3">
<path d="M98.0596 141.148H89.3398V146.473H98.0596V141.148Z" fill="white"/>
</g>
<g opacity="0.3">
<path d="M190.419 220.712H184.648V224.242H190.419V220.712Z" fill="white"/>
</g>
<path d="M477.238 194.978H352.234V257.661H477.238V194.978Z" fill="white"/>
<path d="M396.174 211.254V205.837H399.893V211.254H396.174ZM391.129 200.274H395.208L398.798 204.973H397.255L400.83 200.274H404.91L399.23 207.682L396.823 207.726L391.129 200.274Z" fill="#46A7F5"/>
<path d="M383.201 201.9H386.92V211.254H383.201V201.9ZM379.309 200.275H390.812V203.642H379.309V200.275Z" fill="#46A7F5"/>
<path d="M374.43 200.275H378.149V211.254H374.43V200.275Z" fill="#46A7F5"/>
<path d="M373.173 206.497C373.058 207.502 372.717 208.381 372.15 209.132C371.592 209.884 370.852 210.469 369.93 210.889C369.007 211.309 367.95 211.519 366.758 211.519C365.471 211.519 364.346 211.279 363.385 210.801C362.424 210.323 361.675 209.654 361.137 208.796C360.608 207.927 360.344 206.917 360.344 205.765C360.344 204.614 360.608 203.608 361.137 202.749C361.675 201.881 362.424 201.207 363.385 200.729C364.346 200.251 365.471 200.012 366.758 200.012C367.95 200.012 369.007 200.222 369.93 200.641C370.852 201.061 371.592 201.647 372.15 202.398C372.717 203.15 373.058 204.028 373.173 205.033H369.44C369.353 204.653 369.194 204.331 368.964 204.067C368.733 203.794 368.43 203.589 368.056 203.452C367.691 203.306 367.258 203.233 366.758 203.233C366.201 203.233 365.72 203.335 365.317 203.54C364.923 203.735 364.62 204.023 364.409 204.404C364.197 204.784 364.092 205.238 364.092 205.765C364.092 206.292 364.197 206.746 364.409 207.127C364.62 207.498 364.923 207.785 365.317 207.99C365.72 208.195 366.201 208.298 366.758 208.298C367.258 208.298 367.691 208.234 368.056 208.108C368.43 207.971 368.733 207.771 368.964 207.507C369.194 207.234 369.353 206.897 369.44 206.497H373.173Z" fill="#46A7F5"/>
<path d="M477.244 257.593C477.244 257.593 477.244 257.209 477.244 256.471C477.244 255.733 477.244 254.641 477.244 253.215C477.244 250.357 477.244 246.153 477.244 240.74C477.244 229.923 477.201 214.286 477.172 194.974L477.308 195.111L344.367 195.162L344.552 194.974C344.552 217 344.552 238.179 344.552 257.593L344.374 257.412L439.836 257.499L467.405 257.549H474.772H476.588H474.707H467.377L439.85 257.6L344.274 257.68H344.104V257.506C344.104 238.092 344.104 216.913 344.104 194.887V194.699H344.296L477.236 194.749H477.372V194.887C477.372 214.235 477.315 229.901 477.301 240.74C477.301 246.138 477.301 250.335 477.301 253.186C477.301 254.597 477.301 255.682 477.301 256.413C477.301 257.144 477.244 257.593 477.244 257.593Z" fill="#263238"/>
<g opacity="0.3">
<path d="M469.889 227.651H387.971V257.789H469.889V227.651Z" fill="black"/>
</g>
<path d="M407 225.218H400.738V257.838H407V225.218Z" fill="#E0E0E0"/>
<path d="M467.442 230.936H411.391V257.846H467.442V230.936Z" fill="#455A64"/>
<g opacity="0.3">
<path d="M467.45 230.935L411.398 252.578V257.578L467.45 235.357V230.935Z" fill="white"/>
</g>
<g opacity="0.3">
<path d="M415.721 257.837H419.162L467.455 238.489V237.215L415.721 257.837Z" fill="white"/>
</g>
<path d="M454.864 238.779H427.408V239.141H454.864V238.779Z" fill="#E0E0E0"/>
<path d="M439.081 245.913H438.197V249.249H439.081V245.913Z" fill="#E0E0E0"/>
<path d="M443.99 245.913H443.105V249.249H443.99V245.913Z" fill="#E0E0E0"/>
<path d="M427.551 257.839V230.936C427.551 230.892 427.534 230.85 427.503 230.819C427.472 230.787 427.43 230.77 427.387 230.77C427.343 230.77 427.301 230.787 427.271 230.819C427.24 230.85 427.223 230.892 427.223 230.936V257.839C427.223 257.883 427.24 257.926 427.271 257.957C427.301 257.988 427.343 258.006 427.387 258.006C427.43 258.006 427.472 257.988 427.503 257.957C427.534 257.926 427.551 257.883 427.551 257.839Z" fill="#E0E0E0"/>
<path d="M455.041 257.839V230.936C455.041 230.892 455.024 230.85 454.993 230.819C454.962 230.787 454.92 230.77 454.877 230.77C454.833 230.77 454.792 230.787 454.761 230.819C454.73 230.85 454.713 230.892 454.713 230.936V257.839C454.713 257.883 454.73 257.926 454.761 257.957C454.792 257.988 454.833 258.006 454.877 258.006C454.92 258.006 454.962 257.988 454.993 257.957C455.024 257.926 455.041 257.883 455.041 257.839Z" fill="#E0E0E0"/>
<path d="M440.965 239.186V257.703C440.965 257.747 440.982 257.789 441.013 257.82C441.044 257.852 441.085 257.869 441.129 257.869C441.172 257.869 441.214 257.852 441.245 257.82C441.276 257.789 441.293 257.747 441.293 257.703V239.186C441.293 239.142 441.276 239.1 441.245 239.068C441.214 239.037 441.172 239.02 441.129 239.02C441.085 239.02 441.044 239.037 441.013 239.068C440.982 239.1 440.965 239.142 440.965 239.186Z" fill="#E0E0E0"/>
<g opacity="0.3">
<path d="M413.051 257.838V232.708H467.45V230.935H411.398V257.838H413.051Z" fill="black"/>
</g>
<path d="M467.638 257.84H467.282V231.118H411.587V257.84H411.23V230.756H467.638V257.84Z" fill="#E0E0E0"/>
<path d="M477.245 216.514H352.525V218.475H477.245V216.514Z" fill="#407BFF"/>
<path d="M352.422 35.4601H230.896V257.227H352.422V35.4601Z" fill="#407BFF"/>
<g opacity="0.3">
<path d="M344.64 225.611H260.342V257.586H344.64V225.611Z" fill="black"/>
<path d="M289.547 230.319H314.82" stroke="#407BFF"/>
</g>
<path d="M352.547 59.7347H286.949V217.491H352.547V59.7347Z" fill="#455A64"/>
<path d="M352.553 219.662H251.977V225.609H352.553V219.662Z" fill="#407BFF"/>
<path d="M266.773 69.1689H257.227V78.8567H266.773V69.1689Z" fill="#455A64"/>
<path d="M277.12 101.414H267.574V111.109H277.12V101.414Z" fill="#455A64"/>
<path d="M260.697 136.585H251.15V146.28H260.697V136.585Z" fill="#455A64"/>
<path d="M272.849 168.519H263.303V178.214H272.849V168.519Z" fill="#455A64"/>
<path d="M267.356 202.228H255.203V212.873H267.356V202.228Z" fill="#455A64"/>
<path d="M274.899 232.766H259.469V254.669H274.899V232.766Z" fill="#455A64"/>
<path d="M275.248 255.039H259.105V232.405H275.248V255.039ZM259.818 254.316H274.536V233.129H259.818V254.316Z" fill="#E0E0E0"/>
<g opacity="0.3">
<path d="M274.893 233.997L259.463 240.371V245.37L274.893 238.54V233.997Z" fill="white"/>
</g>
<g opacity="0.3">
<path d="M274.893 240.573L259.463 247.583V248.958L274.893 241.853V240.573Z" fill="white"/>
</g>
<path d="M283.063 225.61H274.137V257.585H283.063V225.61Z" fill="#407BFF"/>
<path d="M316.421 234.242H288.973V257.592H316.421V234.242Z" fill="#455A64"/>
<g opacity="0.3">
<path d="M316.159 236.197L289.174 247.586V252.579L316.159 240.734V236.197Z" fill="white"/>
</g>
<g opacity="0.3">
<path d="M316.067 242.867L289.074 254.255V255.637L316.067 244.148V242.867Z" fill="white"/>
</g>
<g opacity="0.3">
<path d="M289.309 255.14L290.171 235.574L316.174 234.626L288.975 234.242L289.309 255.14Z" fill="black"/>
</g>
<path d="M316.78 257.592H316.067V234.603H289.324V257.592H288.611V233.88H316.78V257.592Z" fill="#E0E0E0"/>
<path d="M303.089 234.387H302.375V257.593H303.089V234.387Z" fill="#E0E0E0"/>
<path d="M316.46 238.779H289.004V239.141H316.46V238.779Z" fill="#E0E0E0"/>
<path d="M300.662 245.913H299.777V249.249H300.662V245.913Z" fill="#E0E0E0"/>
<path d="M305.572 245.913H304.688V249.249H305.572V245.913Z" fill="#E0E0E0"/>
<path d="M344.88 232.766H329.449V254.669H344.88V232.766Z" fill="#455A64"/>
<path d="M345.24 255.039H329.09V232.405H345.24V255.039ZM329.802 254.316H344.527V233.129H329.802V254.316Z" fill="#E0E0E0"/>
<g opacity="0.3">
<path d="M344.889 233.997L329.451 240.371V245.37L344.889 238.54V233.997Z" fill="white"/>
</g>
<g opacity="0.3">
<path d="M344.889 240.572L329.451 247.583V248.958L344.889 241.853V240.572Z" fill="white"/>
</g>
<path d="M330.12 225.61H321.193V257.585H330.12V225.61Z" fill="#407BFF"/>
<path d="M352.611 225.61H344.297V257.585H352.611V225.61Z" fill="#407BFF"/>
<g opacity="0.3">
<path d="M240.442 86.2385H231.723V91.5635H240.442V86.2385Z" fill="white"/>
</g>
<g opacity="0.3">
<path d="M240.442 57.072H231.723V62.397H240.442V57.072Z" fill="white"/>
</g>
<g opacity="0.3">
<path d="M240.442 122.073H231.723V127.398H240.442V122.073Z" fill="white"/>
</g>
<g opacity="0.3">
<path d="M240.442 157.898H231.723V163.223H240.442V157.898Z" fill="white"/>
</g>
<g opacity="0.3">
<path d="M240.442 193.084H231.723V198.409H240.442V193.084Z" fill="white"/>
</g>
<path d="M352.542 218.223H286.232V59.012H352.542V60.4591H287.657V216.775H352.542V218.223Z" fill="#464665"/>
<path d="M352.547 94.8722H286.949V97.5347H352.547V94.8722Z" fill="#646483"/>
<path d="M352.547 136.015H286.949V138.678H352.547V136.015Z" fill="#646483"/>
<path d="M352.547 177.158H286.949V179.82H352.547V177.158Z" fill="#646483"/>
<path d="M310.32 60.2405V217.302C310.32 217.346 310.338 217.389 310.368 217.42C310.399 217.451 310.441 217.469 310.484 217.469C310.528 217.469 310.57 217.451 310.6 217.42C310.631 217.389 310.648 217.346 310.648 217.302V60.2405C310.648 60.1964 310.631 60.1541 310.6 60.1228C310.57 60.0916 310.528 60.0741 310.484 60.0741C310.441 60.0741 310.399 60.0916 310.368 60.1228C310.338 60.1541 310.32 60.1964 310.32 60.2405Z" fill="#464665"/>
<path d="M334.166 59.7353V217.477C334.166 217.521 334.183 217.564 334.214 217.595C334.245 217.626 334.287 217.644 334.33 217.644C334.374 217.644 334.415 217.626 334.446 217.595C334.477 217.564 334.494 217.521 334.494 217.477V59.7353C334.494 59.6911 334.477 59.6488 334.446 59.6176C334.415 59.5864 334.374 59.5688 334.33 59.5688C334.287 59.5688 334.245 59.5864 334.214 59.6176C334.183 59.6488 334.166 59.6911 334.166 59.7353Z" fill="#464665"/>
<path d="M287.308 198.585H352.137C352.18 198.585 352.222 198.568 352.252 198.537C352.283 198.505 352.3 198.463 352.3 198.419C352.3 198.375 352.283 198.332 352.252 198.301C352.222 198.27 352.18 198.252 352.137 198.252H287.308C287.265 198.252 287.223 198.27 287.193 198.301C287.162 198.332 287.145 198.375 287.145 198.419C287.145 198.463 287.162 198.505 287.193 198.537C287.223 198.568 287.265 198.585 287.308 198.585Z" fill="#464665"/>
<path d="M287.308 158.085H352.137C352.18 158.085 352.222 158.067 352.252 158.036C352.283 158.005 352.3 157.962 352.3 157.918C352.3 157.874 352.283 157.832 352.252 157.8C352.222 157.769 352.18 157.752 352.137 157.752H287.308C287.265 157.752 287.223 157.769 287.193 157.8C287.162 157.832 287.145 157.874 287.145 157.918C287.145 157.962 287.162 158.005 287.193 158.036C287.223 158.067 287.265 158.085 287.308 158.085Z" fill="#464665"/>
<path d="M287.308 117.621H352.137C352.18 117.621 352.222 117.603 352.252 117.572C352.283 117.541 352.3 117.498 352.3 117.454C352.3 117.41 352.283 117.368 352.252 117.336C352.222 117.305 352.18 117.288 352.137 117.288H287.308C287.265 117.288 287.223 117.305 287.193 117.336C287.162 117.368 287.145 117.41 287.145 117.454C287.145 117.498 287.162 117.541 287.193 117.572C287.223 117.603 287.265 117.621 287.308 117.621Z" fill="#464665"/>
<path d="M287.308 77.5278H352.137C352.18 77.5278 352.222 77.5102 352.252 77.479C352.283 77.4478 352.3 77.4054 352.3 77.3612C352.3 77.3171 352.283 77.2747 352.252 77.2435C352.222 77.2122 352.18 77.1947 352.137 77.1947H287.308C287.265 77.1947 287.223 77.2122 287.193 77.2435C287.162 77.2747 287.145 77.3171 287.145 77.3612C287.145 77.4054 287.162 77.4478 287.193 77.479C287.223 77.5102 287.265 77.5278 287.308 77.5278Z" fill="#464665"/>
<g opacity="0.3">
<path d="M352.621 71.675L287.322 113.527V125.915L352.549 86.0165L352.621 71.675Z" fill="white"/>
</g>
<g opacity="0.3">
<path d="M352.621 148.966L287.322 190.818V203.213L352.549 163.308L352.621 148.966Z" fill="white"/>
</g>
<g opacity="0.3">
<path d="M352.621 104.584L287.322 146.436V151.349L352.549 111.103L352.621 104.584Z" fill="white"/>
</g>
<g opacity="0.3">
<path d="M265.029 178.215V169.902H272.844V168.52H263.305V178.215H265.029Z" fill="black"/>
</g>
<g opacity="0.3">
<path d="M257.398 212.874V203.746H267.354V202.229H255.201V212.874H257.398Z" fill="black"/>
</g>
<g opacity="0.3">
<path d="M269.306 111.104V102.791H277.121V101.417H267.582V111.104H269.306Z" fill="black"/>
</g>
<g opacity="0.3">
<path d="M252.876 146.274V137.96H260.691V136.586H251.152V146.274H252.876Z" fill="black"/>
</g>
<g opacity="0.3">
<path d="M258.956 78.8646V70.5515H266.771V69.1769H257.232V78.8646H258.956Z" fill="black"/>
</g>
<path d="M260.903 225.61H251.977V257.585H260.903V225.61Z" fill="#407BFF"/>
<path d="M231.061 256.941C230.968 256.941 230.896 208.945 230.896 149.749C230.896 90.5522 230.968 42.5568 231.061 42.5568C231.153 42.5568 231.232 90.5378 231.232 149.749C231.232 208.96 231.153 256.941 231.061 256.941Z" fill="#263238"/>
<path d="M465.379 208.208H468.457C468.766 208.208 469.006 208.133 469.177 207.984C469.348 207.836 469.434 207.621 469.434 207.339C469.434 207.058 469.348 206.843 469.177 206.694C469.006 206.546 468.766 206.471 468.457 206.471H464.939L466.356 205.032V213.529H463.205V204.226H468.945C469.678 204.226 470.317 204.358 470.863 204.623C471.416 204.879 471.844 205.239 472.145 205.702C472.454 206.165 472.609 206.711 472.609 207.339C472.609 207.951 472.454 208.493 472.145 208.964C471.844 209.427 471.416 209.787 470.863 210.043C470.317 210.3 469.678 210.428 468.945 210.428H465.379V208.208ZM466.454 209.175H469.934L472.975 213.529H469.373L466.454 209.175Z" fill="#46A7F5"/>
<path d="M461.464 207.774V209.981H454.563V207.774H461.464ZM456.725 208.877L456.163 212.338L454.966 210.998H461.915V213.529H453.049L453.721 208.877L453.049 204.226H461.854V206.756H454.966L456.163 205.417L456.725 208.877Z" fill="#46A7F5"/>
<path d="M445.856 205.603H449.007V213.529H445.856V205.603ZM442.559 204.226H452.305V207.079H442.559V204.226Z" fill="#46A7F5"/>
<path d="M439.375 211.197L438.52 211.408V204.226H441.573V213.529H437.628L433.085 206.36L433.94 206.149V213.529H430.887V204.226H434.954L439.375 211.197Z" fill="#46A7F5"/>
<path d="M429.151 207.774V209.981H422.251V207.774H429.151ZM424.412 208.877L423.851 212.338L422.654 210.998H429.603V213.529H420.736L421.408 208.877L420.736 204.226H429.542V206.756H422.654L423.851 205.417L424.412 208.877Z" fill="#46A7F5"/>
<path d="M420.004 209.497C419.907 210.349 419.618 211.093 419.137 211.73C418.665 212.367 418.038 212.863 417.256 213.218C416.475 213.574 415.579 213.752 414.57 213.752C413.478 213.752 412.526 213.549 411.712 213.144C410.897 212.739 410.262 212.172 409.806 211.445C409.359 210.709 409.135 209.853 409.135 208.877C409.135 207.901 409.359 207.05 409.806 206.322C410.262 205.586 410.897 205.016 411.712 204.61C412.526 204.205 413.478 204.003 414.57 204.003C415.579 204.003 416.475 204.18 417.256 204.536C418.038 204.892 418.665 205.388 419.137 206.024C419.618 206.661 419.907 207.405 420.004 208.257H416.841C416.768 207.935 416.634 207.662 416.438 207.438C416.243 207.207 415.986 207.033 415.669 206.917C415.359 206.793 414.993 206.731 414.57 206.731C414.097 206.731 413.69 206.818 413.348 206.992C413.014 207.157 412.758 207.401 412.579 207.724C412.4 208.046 412.31 208.431 412.31 208.877C412.31 209.324 412.4 209.708 412.579 210.031C412.758 210.345 413.014 210.589 413.348 210.763C413.69 210.936 414.097 211.023 414.57 211.023C414.993 211.023 415.359 210.969 415.669 210.862C415.986 210.746 416.243 210.576 416.438 210.353C416.634 210.122 416.768 209.836 416.841 209.497H420.004Z" fill="#46A7F5"/>
<path d="M331.719 48.5354H334.796C335.106 48.5354 335.346 48.461 335.517 48.3122C335.688 48.1633 335.774 47.9483 335.774 47.6672C335.774 47.3861 335.688 47.1711 335.517 47.0222C335.346 46.8734 335.106 46.799 334.796 46.799H331.279L332.696 45.3602V53.8565H329.545V44.554H335.285C336.018 44.554 336.657 44.6863 337.202 44.9509C337.756 45.2072 338.184 45.5669 338.485 46.03C338.794 46.493 338.949 47.0388 338.949 47.6672C338.949 48.2791 338.794 48.8207 338.485 49.292C338.184 49.7551 337.756 50.1148 337.202 50.3711C336.657 50.6275 336.018 50.7556 335.285 50.7556H331.719V48.5354ZM332.794 49.5029H336.274L339.315 53.8565H335.712L332.794 49.5029Z" fill="white"/>
<path d="M327.803 48.1014V50.3092H320.903V48.1014H327.803ZM323.065 49.2053L322.503 52.6659L321.306 51.3263H328.255V53.8566H319.389L320.06 49.2053L319.389 44.5541H328.194V47.0844H321.306L322.503 45.7448L323.065 49.2053Z" fill="white"/>
<path d="M312.196 45.9307H315.347V53.8565H312.196V45.9307ZM308.898 44.554H318.644V47.4067H308.898V44.554Z" fill="white"/>
<path d="M305.697 51.5248L304.842 51.7356V44.5541H307.895V53.8566H303.951L299.407 46.6875L300.262 46.4766V53.8566H297.209V44.5541H301.276L305.697 51.5248Z" fill="white"/>
<path d="M295.475 48.1014V50.3092H288.575V48.1014H295.475ZM290.737 49.2053L290.175 52.6659L288.978 51.3263H295.927V53.8566H287.061L287.732 49.2053L287.061 44.5541H295.866V47.0844H288.978L290.175 45.7448L290.737 49.2053Z" fill="white"/>
<path d="M286.327 49.825C286.229 50.6767 285.94 51.4209 285.459 52.0576C284.987 52.6943 284.36 53.1904 283.579 53.546C282.797 53.9016 281.901 54.0793 280.892 54.0793C279.801 54.0793 278.848 53.8768 278.034 53.4716C277.22 53.0664 276.585 52.5 276.129 51.7723C275.681 51.0364 275.457 50.1806 275.457 49.2048C275.457 48.2291 275.681 47.3774 276.129 46.6497C276.585 45.9138 277.22 45.3433 278.034 44.9381C278.848 44.5329 279.801 44.3303 280.892 44.3303C281.901 44.3303 282.797 44.5081 283.579 44.8637C284.36 45.2192 284.987 45.7154 285.459 46.3521C285.94 46.9888 286.229 47.733 286.327 48.5847H283.163C283.09 48.2622 282.956 47.9893 282.76 47.766C282.565 47.5345 282.308 47.3609 281.991 47.2451C281.682 47.1211 281.315 47.0591 280.892 47.0591C280.42 47.0591 280.012 47.1459 279.67 47.3195C279.337 47.4849 279.08 47.7288 278.901 48.0513C278.722 48.3738 278.632 48.7583 278.632 49.2048C278.632 49.6514 278.722 50.0359 278.901 50.3583C279.08 50.6726 279.337 50.9165 279.67 51.0901C280.012 51.2638 280.42 51.3506 280.892 51.3506C281.315 51.3506 281.682 51.2969 281.991 51.1894C282.308 51.0736 282.565 50.9041 282.76 50.6808C282.956 50.4493 283.09 50.164 283.163 49.825H286.327Z" fill="white"/>
<path fill-rule="evenodd" clip-rule="evenodd" d="M266.508 53.7008C266.508 53.7008 268.344 49.6948 266.992 46.2041C265.641 42.7135 261.613 41.0602 261.613 41.0602C261.613 41.0602 261.604 41.0808 261.587 41.1204C261.594 41.1037 261.599 41.0902 261.603 41.0803C261.609 41.0667 261.612 41.0596 261.612 41.0596C261.612 41.0596 257.674 39.1973 254.239 40.5754C250.805 41.9536 249.174 46.0504 249.174 46.0504C249.174 46.0504 253.112 47.9127 256.547 46.5345C259.686 45.2749 261.318 41.744 261.576 41.1461C261.321 41.7453 259.893 45.3664 261.129 48.5569C262.48 52.0475 266.508 53.7008 266.508 53.7008ZM248.689 53.5484C247.338 50.0577 249.174 46.0517 249.174 46.0517C249.174 46.0517 253.201 47.705 254.553 51.1956C255.788 54.3861 254.36 58.0073 254.106 58.6064C254.363 58.0085 255.995 54.4776 259.135 53.218C262.569 51.8398 266.507 53.7021 266.507 53.7021C266.507 53.7021 264.877 57.7989 261.442 59.177C258.007 60.5552 254.07 58.6929 254.07 58.6929C254.07 58.6929 254.078 58.6717 254.095 58.6321C254.078 58.6716 254.068 58.6923 254.068 58.6923C254.068 58.6923 250.041 57.039 248.689 53.5484Z" fill="white"/>
<path d="M419.832 39.4655L419.832 39.4656C420.226 39.5519 420.528 39.6327 420.732 39.6919C420.834 39.7214 420.911 39.7455 420.962 39.7622C420.988 39.7705 421.007 39.777 421.02 39.7813L421.034 39.7862L421.038 39.7874L421.038 39.7877L421.039 39.7877L421.039 39.7877L421.039 39.7875L421.128 39.6107C421.028 39.5431 420.922 39.4864 420.81 39.4415L420.81 39.4414C420.513 39.3236 420.209 39.2256 419.9 39.148C418.766 38.8597 417.589 38.7877 416.429 38.9358C414.694 39.1441 413.052 39.8437 411.691 40.9545L411.691 40.9546C410.171 42.1987 409.059 43.8741 408.49 45.7602C407.657 44.0238 406.37 42.5478 404.763 41.4981L404.763 41.4981C403.301 40.5445 401.619 39.9952 399.884 39.9047C398.724 39.8371 397.561 39.9706 396.445 40.2993C396.144 40.3876 395.848 40.4948 395.56 40.6204C395.451 40.6588 395.346 40.7107 395.249 40.775L395.186 40.8171L395.21 40.8895C395.225 40.9352 395.263 40.9513 395.279 40.956C395.296 40.9607 395.31 40.9602 395.316 40.9599C395.329 40.9593 395.342 40.9564 395.35 40.9545C395.368 40.9501 395.391 40.9429 395.417 40.9343C395.446 40.9245 395.484 40.9113 395.53 40.8957C395.565 40.8836 395.604 40.87 395.647 40.8553C395.847 40.787 396.142 40.6901 396.527 40.586C397.616 40.3012 398.743 40.1972 399.864 40.278L399.864 40.278C401.526 40.3915 403.13 40.9364 404.525 41.8605L404.525 41.8607C406.229 42.983 407.558 44.6047 408.334 46.5108V46.5148H408.336C408.34 46.5253 408.344 46.5358 408.349 46.5463L408.491 46.9007L408.607 47.1886L408.681 46.8873L408.773 46.5148H408.817L408.781 46.4236C409.267 44.4129 410.386 42.6181 411.967 41.3116L411.967 41.3116C413.263 40.2395 414.827 39.5534 416.483 39.3295L416.484 39.3295C417.599 39.1719 418.733 39.218 419.832 39.4655Z" fill="#464665" stroke="#464665" stroke-width="0.2"/>
<path d="M454.945 20.9035L454.945 20.9035L454.945 20.9035L454.945 20.9034L454.943 20.9029L454.935 20.9006L454.903 20.8916C454.874 20.8836 454.829 20.8721 454.771 20.8579C454.653 20.8293 454.477 20.7899 454.244 20.7469L454.241 20.7463L454.241 20.7463C453.643 20.6172 453.028 20.598 452.424 20.6895L452.423 20.6897L452.423 20.6897C451.529 20.8134 450.686 21.1863 449.987 21.7671C449.159 22.4592 448.566 23.3984 448.293 24.4508L448.34 24.5686H448.263L448.175 24.9198L448.101 25.2149L447.986 24.9335L447.843 24.5862L447.843 24.5856C447.425 23.5484 446.707 22.6641 445.786 22.0486C445.03 21.5471 444.162 21.2491 443.262 21.1824C442.654 21.1383 442.042 21.1887 441.448 21.3316C441.238 21.3849 441.077 21.4347 440.966 21.4689L440.965 21.4694L440.963 21.4699C440.91 21.4865 440.865 21.5003 440.833 21.5085C440.818 21.5124 440.8 21.5165 440.784 21.5179C440.777 21.5186 440.761 21.5196 440.744 21.5158C440.728 21.5124 440.684 21.4979 440.667 21.4466L440.645 21.3793L440.701 21.3361C440.755 21.2941 440.816 21.2605 440.88 21.2361C441.041 21.1637 441.205 21.1001 441.372 21.0455L441.373 21.0451L441.373 21.0451C441.992 20.8503 442.641 20.7703 443.289 20.8091C444.269 20.8526 445.221 21.1604 446.045 21.7006C446.884 22.2437 447.567 22.9962 448.032 23.8817C448.368 22.9236 448.959 22.0744 449.746 21.432L449.746 21.4318C450.511 20.8131 451.433 20.4268 452.405 20.3177C453.052 20.2383 453.707 20.2858 454.337 20.4576C454.51 20.4999 454.68 20.5573 454.843 20.6293L454.846 20.6303L454.846 20.6303C454.868 20.6407 454.889 20.6503 454.909 20.6593L454.918 20.6632C454.935 20.6706 454.951 20.6779 454.965 20.6844C454.981 20.6918 454.999 20.7002 455.013 20.709C455.02 20.7132 455.03 20.7202 455.04 20.7299C455.046 20.7358 455.074 20.7629 455.074 20.8077V20.9419L454.945 20.9035ZM454.945 20.9035L454.945 20.9035L454.945 20.9035Z" fill="#464665" stroke="#464665" stroke-width="0.2"/>
<path d="M432.794 13.1012L432.869 13.1671L432.987 13.0325L432.811 13.0026L432.794 13.1012ZM432.794 13.1012L432.869 13.1672L432.869 13.1672L432.869 13.1672L432.869 13.1674L432.868 13.168L432.866 13.1704L432.858 13.1797L432.825 13.2165C432.797 13.2489 432.754 13.2967 432.698 13.3588C432.587 13.4828 432.423 13.6636 432.213 13.8913C431.629 14.5644 431.101 15.2856 430.635 16.0474L430.635 16.0474C429.105 18.5449 428.291 21.4256 428.285 24.3656C428.297 24.4378 428.308 24.5102 428.319 24.5827L428.337 24.6977H428.22H427.978H427.878V24.6904H427.856L427.844 24.6052C427.604 23.0058 427.089 21.4618 426.323 20.0437L426.323 20.0432C425.703 18.8828 424.927 17.8163 424.016 16.875L424.016 16.8748C423.413 16.2479 422.755 15.6782 422.051 15.1728C421.888 15.0621 421.749 14.9684 421.634 14.8908C421.564 14.8439 421.504 14.8029 421.451 14.7675C421.383 14.7209 421.33 14.6841 421.294 14.6578C421.276 14.6448 421.26 14.6329 421.249 14.6228C421.243 14.6182 421.235 14.611 421.228 14.6023C421.225 14.5984 421.218 14.5895 421.212 14.577C421.208 14.568 421.193 14.5313 421.213 14.4895L421.25 14.4137L421.331 14.4379C421.421 14.4647 421.507 14.5053 421.585 14.5581C421.629 14.5848 421.68 14.6124 421.741 14.6448C421.774 14.6627 421.81 14.6822 421.85 14.7038C421.958 14.7633 422.082 14.8356 422.214 14.9285C422.972 15.4257 423.676 16.002 424.316 16.6481C426.043 18.372 427.291 20.5158 427.949 22.8618C428.185 20.3703 429.006 17.9637 430.351 15.8476C430.842 15.0682 431.404 14.3369 432.029 13.6633C432.197 13.475 432.355 13.3295 432.471 13.2214C432.505 13.1903 432.535 13.1624 432.561 13.1374C432.626 13.0754 432.675 13.041 432.713 13.0222C432.733 13.0127 432.75 13.0067 432.766 13.0036C432.775 13.0021 432.782 13.0012 432.79 13.0011C432.793 13.001 432.797 13.0011 432.801 13.0014L432.806 13.0019L432.808 13.0022L432.809 13.0024L432.81 13.0025L432.81 13.0025C432.81 13.0025 432.811 13.0026 432.794 13.1012ZM421.303 14.5341L421.274 14.6295C421.345 14.6507 421.413 14.6829 421.474 14.7248L421.474 14.725L421.479 14.7276C421.528 14.7575 421.588 14.7898 421.653 14.8247C421.685 14.8422 421.719 14.8603 421.753 14.8791C421.859 14.9369 421.976 15.0055 422.1 15.0929L422.1 15.093L422.103 15.0948C422.103 15.0951 422.104 15.0955 422.104 15.0958L421.303 14.5341Z" fill="#464665" stroke="#464665" stroke-width="0.2"/>
</svg>
